<?xml version="1.0" encoding="utf-8"?>
<!-- Generator: Adobe Illustrator 21.0.0, SVG Export Plug-In . SVG Version: 6.00 Build 0)  -->
<svg version="1.1" id="Layer_1" xmlns="http://www.w3.org/2000/svg" xmlns:xlink="http://www.w3.org/1999/xlink" x="0px" y="0px"
	 viewBox="0 0 235.8 147.4" style="enable-background:new 0 0 235.8 147.4;" xml:space="preserve">
<style type="text/css">
	.st0{fill:#C7D8F0;}
	.st1{fill:#FFFFFF;}
	.st2{fill:none;}
</style>
<path class="st0" d="M216.9,43c0,0.5,0,1,0,1.4c0,0.5-0.1,0.9-0.1,1.4c0,0.1,0,0.1,0,0.1c0,0,0,0,0,0.1c-0.1,0.3-0.1,0.6-0.2,0.8
	c-0.1,0.2-0.1,0.5-0.1,0.8c0,0.1,0,0.1-0.1,0.2c0,0.1-0.1,0.1-0.1,0.2c-0.1-0.1-0.1-0.3-0.1-0.4c0-0.1,0-0.3,0-0.4
	c0-0.2,0-0.4,0-0.7c0-0.2,0-0.4,0-0.7v-0.6c0-0.2,0-0.4,0.1-0.7v-0.6v-0.8c0-0.2,0.1-0.4,0.1-0.5s0-0.3,0.1-0.5c0,0,0-0.2,0.1-0.4
	C216.8,42.2,216.9,42.6,216.9,43 M226.7,47.2c-0.1,0.1-0.3,0.2-0.4,0.5c-0.1,0.3-0.3,0.6-0.4,0.8c-0.1,0.3-0.3,0.5-0.5,0.8
	c-0.4,0.5-0.8,1.1-1.3,1.6c-0.5,0.6-1.1,1.1-1.6,1.5c-0.6,0.4-1.2,0.7-1.9,0.9c-0.7,0.2-1.4,0.1-2.1-0.2c-0.5-0.1-0.9-0.5-1.2-1
	c-0.1-0.1-0.1-0.2-0.1-0.2c0-0.1,0-0.2-0.1-0.3c-0.2-0.3-0.2-0.7-0.1-1c0.1-0.3,0.2-0.6,0.2-0.9c0-0.3,0.1-0.6,0.2-0.9
	c0.1-0.3,0.1-0.5,0.2-0.8c0-0.2,0.1-0.5,0.2-0.8c0.1-0.2,0.1-0.4,0.2-0.6c0-0.2,0.1-0.4,0.1-0.6c0.1-0.3,0.1-0.6,0.1-0.8
	s0-0.5,0.1-0.8c0.1-0.4,0.1-0.7-0.1-0.9c-0.2-0.6-0.2-1.1-0.1-1.6c0.1-0.3,0-0.6-0.1-0.9c-0.1-0.3-0.3-0.5-0.5-0.8
	c-0.1,0-0.3-0.1-0.3-0.2c-0.1-0.1-0.2-0.2-0.3-0.3c-0.1-0.2-0.4-0.3-0.6-0.2h-1.1c-0.7-0.1-1.3,0-1.8,0.3c-0.1,0.3-0.3,0.7-0.4,1
	c-0.1,0.3-0.2,0.6-0.3,1c-0.1,0.5-0.3,0.9-0.3,1.4c-0.1,0.4-0.1,0.9-0.1,1.5c0,0.2,0,0.4,0,0.7c0,0.2,0,0.4-0.1,0.6v0.2
	c0.1,0.4,0.1,0.7,0.2,1.1c0,0.4,0.1,0.7,0.2,1.1c0.1,0.9,0.5,1.9,0.9,2.8c0.3,0.6,0.7,1.1,1.1,1.6c0.1,0,0.1,0.1,0.2,0.3
	c-0.1,0.2-0.2,0.5-0.3,0.7c-0.1,0.2-0.2,0.5-0.3,0.6c-0.3,0.5-0.5,0.9-0.7,1.4c-0.2,0.4-0.5,0.9-0.8,1.3c-0.3,0.5-0.6,0.9-0.9,1.4
	c-0.3,0.4-0.6,0.9-1,1.3c-0.3,0.3-0.5,0.7-0.8,1c-0.3,0.3-0.5,0.6-0.8,0.9c-0.1,0.1-0.2,0.2-0.3,0.2c0,0-0.1,0.1-0.2,0.1
	c-0.1,0-0.3-0.1-0.4-0.1c-0.1,0-0.3-0.1-0.4-0.2c-0.2-0.1-0.4-0.3-0.6-0.5c-0.2-0.2-0.3-0.4-0.4-0.7c0-0.1-0.1-0.3-0.1-0.4
	c0-0.1-0.1-0.2-0.2-0.4c-0.1-0.2-0.2-0.5-0.1-0.8c0.1-1.1,0.2-2.1,0.1-3.2c0-1.1,0-2.1,0-3.2c0-1.1-0.1-2.1-0.1-3.2
	c-0.1-1-0.2-2.1-0.4-3.1c-0.1-0.3-0.1-0.6-0.1-0.8c0-0.3-0.1-0.5-0.1-0.8c-0.1-0.2-0.1-0.4-0.1-0.6v-0.6c0-0.1,0-0.3,0-0.4
	c0-0.1,0-0.2-0.1-0.4c-0.1-0.4-0.4-0.6-0.8-0.5c-0.4,0.1-0.8,0.2-1.2,0.3c-0.3,0.1-0.5,0.3-0.6,0.6c-0.1,0.3-0.2,0.5-0.3,0.8
	s-0.2,0.5-0.3,0.7c-0.1,0.4-0.3,0.8-0.4,1.1s-0.2,0.7-0.4,1.1c0,0.1,0,0.1,0,0.1c0,0,0,0.1,0,0.1c-0.1,0.5-0.2,1-0.3,1.5
	c-0.1,0.5-0.2,1-0.2,1.5c-0.1,0.4-0.2,0.8-0.3,1.2c-0.1,0.4-0.3,0.8-0.5,1.1c-0.1,0.1-0.1,0.2-0.2,0.3c0,0.1-0.1,0.2-0.2,0.3
	c-0.1,0.2-0.2,0.3-0.3,0.5c-0.1,0.1-0.2,0.3-0.2,0.4c-0.1,0.1-0.1,0.2-0.2,0.3c-0.1,0.1-0.1,0.2-0.2,0.3c-0.3,0.4-0.5,0.8-0.7,1.2
	c-0.2,0.4-0.4,0.8-0.7,1.2c-0.2,0.4-0.5,0.7-0.9,1.1c-0.2,0.2-0.4,0.1-0.5-0.1c0-0.1-0.1-0.2-0.1-0.4c0-0.2,0-0.3,0-0.5
	c0-0.1,0-0.3-0.1-0.4c-0.1-0.7,0-1.4,0.1-2.1c0.1-0.7,0.3-1.5,0.4-2.1c0.1-0.5,0.1-1.1,0.1-1.6c0-0.6,0-1.1,0.1-1.7
	c0.1-0.3,0.1-0.6,0.2-0.9c0-0.3,0.1-0.6,0.1-0.9c0-0.1,0-0.2,0-0.3c0-0.1,0-0.2,0-0.3c0-0.2,0.1-0.4,0.1-0.5c0-0.1,0-0.3,0-0.5
	c0-0.2,0-0.4,0-0.6c0-0.2,0-0.4,0.1-0.6c0-0.1,0-0.2-0.1-0.4c0-0.2-0.1-0.4-0.1-0.7c0-0.2,0-0.5,0.1-0.7c0-0.1,0-0.2,0-0.4
	c0-0.1-0.1-0.3-0.1-0.4c0-0.1-0.1-0.2-0.1-0.3c0-0.1-0.1-0.2-0.1-0.3c-0.1-0.2-0.1-0.4-0.2-0.6c-0.1-0.2-0.1-0.4-0.2-0.6
	c-0.1-0.3-0.2-0.6-0.4-0.9c-0.2-0.2-0.4-0.5-0.6-0.7c-0.1-0.1-0.2-0.2-0.3-0.2c-0.2-0.1-0.4-0.1-0.6-0.1c-0.2,0-0.4,0-0.6-0.1
	c-0.3,0-0.5,0.1-0.6,0.4c-0.1,0.2-0.1,0.4-0.2,0.7c-0.1,0.2-0.1,0.4-0.2,0.7c-0.2,1-0.4,2-0.6,3c-0.2,1-0.4,2-0.6,3
	c-0.1,0.4-0.1,0.7-0.2,1.1c-0.1,0.4-0.1,0.7-0.1,1.1c0,0.1,0,0.1,0,0.1c0,0,0,0.1,0,0.1c-0.1,0.3-0.1,0.6-0.1,0.9c0,0.3,0,0.6,0,0.9
	c0,0.3,0,0.6-0.1,0.8c0,0.3-0.1,0.5-0.1,0.8v0.8c0,0.1,0,0.3,0,0.4c0,0.1,0,0.2,0,0.4v0.3c0.1,1.2,0.2,2.3,0.5,3.3
	c0.3,1,0.9,1.9,2,2.7c0.1,0.1,0.2,0.1,0.3,0.2c0.1,0.1,0.2,0.1,0.3,0.2c0.4,0.4,1,0.5,1.7,0.5c0.7-0.1,1.3-0.2,1.8-0.4
	c1.1-0.3,1.9-1.1,2.3-2.2c0.1-0.3,0.3-0.5,0.4-0.8c0.1-0.1,0.2-0.2,0.3-0.1c0,0.1,0.1,0.2,0.1,0.3c0,0.1,0,0.2,0.1,0.2
	c0,0.5,0.1,1,0.2,1.5c0.1,0.5,0.2,1,0.4,1.5c0.4,0.9,1,1.6,1.8,2.1c0.4,0.3,0.8,0.5,1.3,0.6c0.5,0.2,0.9,0.3,1.3,0.5
	c0.1,0.1,0.3,0.1,0.4,0.1c0.1,0,0.3,0,0.4,0.1c0.2,0,0.4,0,0.6,0c0.2,0,0.4,0,0.5,0c0.4-0.1,0.8-0.1,1.1-0.1c0.4,0,0.8,0,1.1-0.2
	c0.4-0.2,0.7-0.4,1-0.7c0.1-0.1,0.2-0.3,0.4-0.4c0.1-0.1,0.3-0.3,0.4-0.4c0.4-0.4,0.7-0.9,0.9-1.4c0.2-0.5,0.4-1,0.7-1.5
	c0.5-0.8,0.9-1.7,1.3-2.7c0.1-0.2,0.2-0.4,0.2-0.5c0.1-0.1,0.2-0.3,0.3-0.5c0.1-0.2,0.2-0.4,0.3-0.6c0.1-0.2,0.2-0.4,0.3-0.6
	c0.1-0.1,0.1-0.3,0.2-0.4c0-0.1,0.1-0.2,0.2-0.3h0.1c0.8,0.4,1.7,0.8,2.7,0.9c0.5,0.1,0.9,0.1,1.3-0.1c0.2-0.1,0.4-0.1,0.5-0.1
	c0.1,0,0.3-0.1,0.5-0.1c0.1,0,0.1,0,0.2,0c0.1,0,0.1,0,0.2,0c0.5-0.2,1-0.4,1.4-0.6c0.4-0.2,0.8-0.5,1.2-0.9
	c0.3-0.3,0.6-0.5,0.9-0.7c0.3-0.2,0.5-0.5,0.8-0.8c0.3-0.3,0.4-0.6,0.6-0.9c0.1-0.3,0.2-0.6,0.3-0.9c0-0.1,0.1-0.1,0.1-0.2
	c0-0.1,0-0.1,0.1-0.2c0-0.1,0.1-0.1,0.1-0.2c0-0.1,0-0.1,0.1-0.2c0.4-0.5,0.6-1,0.6-1.7C227.1,47.1,226.9,47.1,226.7,47.2
	 M180.4,50.7c-0.1-0.1-0.3-0.3-0.4-0.4c-0.4-0.6-0.8-1.2-1-2c-0.2-0.7-0.2-1.4,0.2-2.1c0.1-0.1,0.1-0.3,0.1-0.3
	c0.1-0.7,0.3-1.3,0.6-1.8c0.1-0.1,0.1-0.2,0.1-0.3c0-0.1,0-0.2,0.1-0.3c0-0.1,0.1-0.2,0.3-0.2c0.1,0,0.1,0,0.1,0.1
	c0,0,0.1,0.1,0.1,0.1v0.1c0.1,0.3,0.2,0.6,0.3,0.8c0.1,0.2,0.3,0.4,0.4,0.7c0.2,0.4,0.3,0.9,0.4,1.4c0,0.5,0,1,0.1,1.4
	c0,0.3,0,0.7,0,1.1c-0.1,0.4-0.2,0.7-0.4,1c0,0.1-0.1,0.2-0.1,0.3c0,0.2,0,0.3-0.1,0.5c-0.1,0.1-0.2,0.3-0.3,0.4
	C180.7,50.9,180.5,50.8,180.4,50.7 M175.4,38.9c-0.3,0-0.6,0-0.8,0.2c-0.3,0.2-0.7,0.4-1,0.6s-0.6,0.4-0.9,0.6
	c-0.2,0.1-0.4,0.3-0.6,0.4c-0.2,0.1-0.4,0.3-0.6,0.5c-0.2,0.2-0.4,0.4-0.5,0.7c-0.2,0.2-0.3,0.4-0.5,0.6c-0.3,0.3-0.6,0.7-0.7,1.1
	c-0.3,0.6-0.6,1.3-0.9,1.9c-0.3,0.6-0.5,1.3-0.8,2c-0.3,1-0.5,1.9-0.6,2.8c0,0.5,0,1,0,1.5c0,0.5,0.1,1,0.1,1.5
	c0,0.4,0.1,0.9,0.2,1.3c0.1,0.4,0.2,0.9,0.4,1.3c0.4,0.7,1,1.4,1.7,2.1c0.7,0.6,1.4,1.2,2.2,1.6c0.4,0.2,0.8,0.4,1.2,0.6
	c0.4,0.2,0.8,0.3,1.2,0.4s0.8,0,1.1-0.2s0.7-0.4,1-0.6c0.3-0.2,0.5-0.4,0.7-0.6c0.2-0.2,0.4-0.4,0.7-0.6c0.2-0.1,0.4-0.3,0.6-0.6
	c0.2-0.2,0.4-0.5,0.6-0.7c0.2-0.3,0.5-0.6,0.8-0.9c0.3-0.3,0.6-0.6,0.8-1c0.1-0.3,0.2-0.6,0.3-0.8c0.1-0.3,0.2-0.5,0.4-0.8
	c0.1-0.4,0.3-0.6,0.6-0.6c0.2,0,0.4-0.1,0.6-0.1c0.2-0.1,0.4,0,0.6,0c0.5,0.1,0.9,0.1,1.3,0c0.4-0.1,0.8-0.2,1.3-0.4
	c0.5-0.2,1-0.4,1.5-0.7c0.4-0.3,0.9-0.5,1.5-0.7c0.2-0.1,0.5-0.2,0.8-0.5c0.4-0.3,0.7-0.6,1.1-0.9c0.4-0.3,0.7-0.7,1-1
	s0.5-0.6,0.6-0.9c-0.1-0.2-0.3-0.3-0.7-0.4c-0.1-0.1-0.3-0.1-0.6,0c-0.1,0-0.1,0.1-0.1,0.1c0,0.1-0.1,0.1-0.1,0.2
	c-0.1,0.1-0.2,0.3-0.3,0.4c-0.8,0.8-1.7,1.5-2.8,2.1c-1,0.6-2.1,1-3.2,1.2c-0.2,0-0.4,0.1-0.6,0.1c-0.2,0-0.4,0-0.6,0
	c-0.1,0-0.1,0-0.2-0.1s-0.1-0.1-0.2-0.1c0.1-0.2,0.1-0.4,0.1-0.6c0-0.2,0-0.4,0.1-0.6c0-0.3,0.1-0.5,0.2-0.7s0.2-0.5,0.3-0.8
	c0-0.3,0-0.7,0-1.1c0-0.4-0.1-0.8-0.1-1.1c0-0.1-0.1-0.3-0.1-0.4c0-0.1,0-0.3-0.1-0.5c0-0.4-0.1-0.8-0.2-1.1
	c-0.1-0.3-0.3-0.7-0.4-1.1c-0.2-0.4-0.5-0.8-1-1c-0.4-0.2-0.8-0.5-1.3-0.7c-0.3-0.2-0.7-0.4-0.9-0.5c-0.3-0.1-0.7-0.2-1.1-0.1
	c-0.3,0.1-0.5,0.1-0.7,0.1c-0.3,0-0.5,0.1-0.6,0.3c-0.1,0.2-0.3,0.3-0.6,0.4l-0.1,0.1c-0.2,0.4-0.4,0.8-0.6,1.2
	c-0.2,0.4-0.3,0.8-0.4,1.3c-0.2,0.7-0.3,1.5-0.2,2.2c0.1,0.7,0.3,1.4,0.6,2.1c0.1,0.2,0.2,0.4,0.4,0.6c0.1,0.2,0.3,0.4,0.4,0.6
	c0.6,0.8,1.5,1.6,2.5,2.2c0.2,0.1,0.4,0.2,0.5,0.3s0.3,0.2,0.5,0.3c0,0.1-0.1,0.1-0.1,0.2s0,0.1-0.1,0.2c-0.2,0.3-0.4,0.6-0.5,0.9
	c0,0,0,0.1-0.1,0.1c-0.3,0.5-0.7,1-1.2,1.5c-0.1,0.1-0.2,0.2-0.3,0.3c-0.1,0.1-0.2,0.2-0.4,0.3c-0.2,0.2-0.4,0.3-0.6,0.5
	s-0.5,0.3-0.6,0.4c-0.4,0.3-0.8,0.6-1.3,0.7s-0.9,0.3-1.4,0.5c-0.3,0.1-0.6,0.1-0.8-0.2c-0.1-0.1-0.2-0.2-0.4-0.3
	c-0.1-0.1-0.2-0.2-0.4-0.3c-0.3-0.2-0.4-0.4-0.4-0.7c-0.1-0.4-0.1-0.8-0.1-1.2c0-0.4,0-0.8-0.1-1.2c0-0.4,0-0.7,0-1.1s0.2-0.7,0.4-1
	c0.1-0.1,0.1-0.2,0.1-0.3c0.1-0.4,0.2-0.8,0.4-1.1s0.3-0.7,0.4-1.1c0.1-0.4,0.2-0.8,0.3-1.2c0.1-0.4,0.2-0.8,0.4-1.2
	c0.2-0.6,0.4-1.2,0.5-1.8c0.1-0.6,0.3-1.2,0.4-1.8c0.1-0.3,0.2-0.6,0.2-0.8s0.2-0.5,0.3-0.7c0.1-0.1,0.2-0.3,0.3-0.4
	c0.1-0.1,0.2-0.3,0.3-0.5c0.2-0.1,0.4-0.3,0.5-0.7c0-0.1,0.1-0.2,0.3-0.3c0.3-0.3,0.5-0.7,0.4-1.1C176.5,39.1,176,39,175.4,38.9
	 M157.5,44.6c0-0.3,0.1-0.7,0.2-0.9c0.1-0.3,0.2-0.6,0.3-0.9c0.1-0.3,0.2-0.6,0.3-0.9c0.1-0.4,0.1-0.7,0.2-1.1
	c0.1-0.4,0.1-0.7,0.2-1.1c0.1-0.9,0.2-1.7,0.3-2.6c0.1-0.9,0.2-1.7,0.4-2.6c0.2-0.9,0.4-1.7,0.6-2.5c0.2-0.8,0.5-1.7,0.8-2.5
	c0.4-1.3,0.8-2.6,1.3-3.9c0.4-1.3,1-2.5,1.8-3.7c0.2-0.4,0.5-0.8,0.7-1.2c0.2-0.4,0.5-0.8,0.8-1.2c0.1-0.1,0.2-0.3,0.4-0.5
	c0.3-0.4,0.7-0.4,1.1-0.2c0.1,0.1,0.2,0.1,0.4,0.2c0.1,0,0.3,0.1,0.4,0.2c0.1,0.1,0.2,0.2,0.3,0.3s0.2,0.3,0.2,0.4
	c0,0.2,0.1,0.4,0.2,0.5c0.3,0.3,0.5,0.6,0.6,1.1c0.1,0.3,0.1,0.5,0.2,0.8c0.1,0.3,0.1,0.5,0.2,0.8c0.1,0.4,0.1,0.8,0.1,1.3
	c0,0.4-0.1,0.9-0.1,1.3c-0.1,0.3-0.1,0.7-0.2,1c0,0.4-0.1,0.7-0.2,1c-0.1,0.6-0.4,1.2-0.6,1.9c-0.2,0.6-0.4,1.3-0.6,1.9
	s-0.4,1.2-0.7,1.8c-0.2,0.5-0.5,1-0.7,1.5s-0.5,1-0.8,1.5c-0.4,0.9-0.9,1.7-1.4,2.5c-0.5,0.8-1.1,1.5-1.6,2.3
	c-1.1,1.4-2.4,2.7-3.9,3.8c-0.2,0.1-0.4,0.3-0.6,0.4c-0.2,0.1-0.4,0.2-0.6,0.4c0,0-0.1-0.1-0.2-0.1C157.4,45.3,157.4,45,157.5,44.6
	 M170,46.8c-0.2,0.2-0.4,0.3-0.6,0.5c-0.2,0.1-0.4,0.3-0.5,0.6c-0.1,0.2-0.2,0.4-0.3,0.7c-0.1,0.2-0.2,0.4-0.2,0.6c-1,2-1.9,4-2.9,6
	c-1,2-2,4-3,5.9c-0.3,0.5-0.5,0.9-0.7,1.4c-0.2,0.4-0.5,0.9-0.8,1.3c-0.1,0.2-0.3,0.4-0.5,0.6c-0.2,0.2-0.4,0.3-0.6,0.5
	c-0.1,0.1-0.2,0.1-0.3,0.1c-0.1,0-0.2,0-0.3-0.1c-0.8-0.5-1.4-1.2-1.8-2c-0.1-0.2-0.1-0.4-0.2-0.5s-0.1-0.3-0.1-0.5
	c-0.1-1.2-0.1-2.4-0.1-3.6c0-1.2-0.1-2.4-0.3-3.6c-0.1-0.5-0.1-1.1,0-1.6s0.1-1.1,0.2-1.6c0.1-0.6,0.1-1.3,0.2-1.9
	c0.1-0.6,0.1-1.3,0.2-1.9c0-0.4,0.1-0.6,0.4-0.8c0.2-0.1,0.4-0.3,0.6-0.4c0.2-0.1,0.4-0.3,0.6-0.4c0.3-0.3,0.7-0.5,1-0.8
	c0.3-0.3,0.6-0.5,0.9-0.8c0.3-0.2,0.5-0.5,0.7-0.7c0.2-0.2,0.5-0.5,0.7-0.7c0.5-0.4,0.9-0.8,1.4-1.3c0.4-0.5,0.8-1,1.1-1.5
	c0.4-0.5,0.7-1,1.1-1.6c0.4-0.5,0.7-1,1-1.6c0.2-0.4,0.5-0.8,0.7-1.1c0.3-0.4,0.5-0.7,0.7-1.1c0.2-0.3,0.3-0.7,0.4-1.1
	c0.1-0.4,0.3-0.7,0.4-1.1c0.5-0.9,1-1.8,1.3-2.7c0.4-0.9,0.7-1.9,1-2.8c0.3-1,0.6-2,0.8-3c0.2-1,0.2-2.1,0-3.1
	c-0.1-0.3-0.2-0.6-0.3-0.9c-0.1-0.3-0.2-0.6-0.3-0.9c-0.1-0.3-0.2-0.6-0.4-0.8c-0.2-0.2-0.3-0.5-0.4-0.8c0,0-0.1-0.1-0.3-0.2
	c-0.1,0-0.1-0.1-0.2-0.1s-0.1-0.1-0.2-0.1c-0.4-0.5-1-0.7-1.7-0.7c-0.2,0-0.4,0-0.5-0.1s-0.3-0.1-0.5,0c-1.3,0.1-2.5,0.3-3.5,0.8
	c-1,0.5-2.1,1.1-3.1,1.8c-0.7,0.5-1.3,1.2-1.8,2c-0.4,0.8-0.8,1.6-1.2,2.3c-0.4,1-0.8,1.9-1.1,2.9c-0.4,1-0.7,2-1,2.9
	c-0.4,1.1-0.8,2.1-1.2,3.2c-0.4,1-0.6,2.1-0.8,3.2c-0.1,1.2-0.3,2.3-0.6,3.5c-0.3,1.1-0.6,2.2-0.8,3.4c-0.3,1.1-0.5,2.2-0.5,3.2
	c-0.1,1.1-0.1,2.2-0.2,3.2c-0.1,1.4-0.1,2.7-0.2,4.1c-0.1,1.3-0.1,2.7,0.1,4.1c0,0.4,0.1,0.9,0.2,1.3c0.1,0.4,0.1,0.9,0.2,1.4
	c0.1,0.6,0.2,1.3,0.3,2c0.1,0.7,0.2,1.3,0.4,2c0.3,1,0.6,1.8,1,2.5c0.4,0.7,1,1.3,1.9,1.8c0.4,0.2,0.8,0.3,1.1,0.2
	c0.6-0.1,1.2-0.2,1.8-0.5c0.5-0.3,1.1-0.6,1.5-1c0.3-0.3,0.6-0.5,0.8-0.8c0.2-0.3,0.5-0.5,0.7-0.8c0.1-0.2,0.3-0.4,0.4-0.6
	c0.1-0.2,0.2-0.4,0.3-0.6c0.6-0.9,1.2-1.8,1.6-2.7c0.4-0.9,0.9-1.9,1.5-2.8c0.3-0.6,0.6-1.2,1-1.7c0.4-0.5,0.7-1.1,1-1.7
	c0.3-0.7,0.7-1.4,1-2.1c0.3-0.7,0.6-1.4,1-2.1c0.2-0.4,0.4-0.8,0.6-1.3c0.1-0.4,0.3-0.9,0.3-1.4c0.1-0.3,0.1-0.5,0.1-0.8
	c0-0.3,0-0.5,0.1-0.8C170.1,46.8,170.1,46.8,170,46.8 M154.3,21.6L154.3,21.6c0.1,0,0.1,0,0.1,0c0,0,0,0,0.1,0c0,0-0.1,0-0.1,0.1
	L154.3,21.6z M137.2,62c0.2,0.1,0.3,0.4,0.4,0.6c0.1,0.3,0.3,0.6,0.4,0.8c0.1,0.2,0.3,0.5,0.5,0.7c0.1,0.1,0.1,0.2,0.2,0.3
	c0,0.1,0.1,0.2,0.2,0.3c0.1,0.1,0.1,0.2,0.2,0.4c0,0.1,0.1,0.2,0.2,0.4c0.1,0.1,0.1,0.3,0.2,0.4c0,0.1,0.1,0.2,0.1,0.4
	c0,0.1,0.1,0.2,0.1,0.3c0,0.1,0,0.2,0.1,0.3c0.2,0.5,0.4,1.1,0.6,1.6c0.1,0.6,0.3,1.1,0.4,1.7c0,0.1,0.1,0.3,0.1,0.6
	c0,0.3,0,0.6,0,0.9c0,0.3-0.1,0.6-0.2,0.9c-0.1,0.4-0.4,0.5-0.7,0.4c-0.1,0-0.2,0-0.2-0.1c-0.2-0.1-0.4-0.3-0.6-0.5
	c-0.2-0.2-0.3-0.4-0.4-0.7c0-0.1-0.1-0.2-0.1-0.3c0-0.1-0.1-0.2-0.1-0.3c0-0.3-0.1-0.6-0.2-0.8c-0.1-0.1-0.2-0.3-0.2-0.5
	c0-0.2,0-0.4-0.1-0.6v-0.4c0-0.1,0-0.3-0.1-0.5c-0.1-0.3-0.2-0.7-0.3-1c-0.1-0.3-0.2-0.7-0.3-1c-0.1-0.5-0.3-1-0.3-1.5
	c-0.1-0.5-0.2-1-0.3-1.5c-0.1-0.3-0.1-0.6-0.1-0.9c0-0.3,0-0.6,0.1-0.9C136.8,61.7,137,61.8,137.2,62 M137.7,46.6c0-0.1,0-0.2,0-0.3
	c0-0.1,0-0.2,0.1-0.3c0-0.1,0.1-0.2,0.1-0.3c0.1-0.3,0.2-0.5,0.2-0.8c0-0.2,0-0.4,0.2-0.7c0.6-1.7,1.1-3.4,1.4-5.1
	c0.3-1.7,0.8-3.4,1.3-5.1c0.2-0.6,0.5-1.2,0.7-1.7c0.3-0.5,0.5-1.1,0.6-1.7c0.2-0.6,0.4-1.2,0.5-1.8c0.2-0.6,0.4-1.2,0.7-1.8
	c0.3-0.7,0.7-1.5,1-2.3c0.3-0.8,0.7-1.6,1.1-2.2c0.1-0.1,0.1-0.3,0.2-0.4c0-0.2,0.1-0.4,0.2-0.5c0.1-0.2,0.2-0.4,0.4-0.6
	c0.1-0.2,0.3-0.4,0.4-0.6c0.2-0.3,0.4-0.7,0.8-1.1c0.3-0.4,0.7-0.6,1.1-0.5c0.3,0.1,0.6,0.2,0.9,0.2c0.3,0,0.6,0.1,0.8,0.3
	c0.6,0.4,1,1,1.3,1.7c0.3,0.7,0.5,1.4,0.6,2.1c0.3,1.4,0.3,2.7,0.1,4c-0.2,1.3-0.6,2.6-1.1,3.9c-0.3,0.9-0.6,1.8-1,2.7
	c-0.4,0.9-0.8,1.7-1.3,2.6c-0.3,0.4-0.5,0.8-0.8,1.3s-0.5,0.9-0.9,1.3c-0.2,0.3-0.4,0.6-0.6,0.9c-0.2,0.4-0.5,0.8-0.8,1.1
	c-1.9,1.9-3.9,3.6-6.1,5.1c-0.6,0.4-1.2,0.8-1.8,1.1c-0.1,0.1-0.2,0.1-0.3,0.1C137.7,46.8,137.7,46.7,137.7,46.6 M136.2,59.6
	c0.1-0.2,0.1-0.4,0.1-0.6c0-0.2,0-0.4-0.1-0.6c0-0.1,0-0.1,0-0.2c0-0.1,0.1-0.1,0.1-0.2c0.1-0.8,0.1-1.6,0.2-2.3
	c0.1-0.8,0.1-1.6,0.2-2.4c0.1-0.6,0.2-1.2,0.3-1.9c0.1-0.7,0.1-1.3-0.1-1.9c0-0.3,0-0.5,0.1-0.7c0-0.1,0.1-0.1,0.1-0.1
	c0,0,0.1-0.1,0.1-0.1c0.1-0.3,0.4-0.5,0.8-0.6c0.3-0.1,0.6-0.2,0.9-0.3c0.3-0.1,0.6-0.3,0.9-0.4c0.1,0,0.1,0,0.2-0.1
	c0.1-0.1,0.2-0.1,0.3-0.2c0.1-0.1,0.2-0.1,0.3-0.2c0.5-0.2,0.9-0.5,1.2-0.7c0.4-0.3,0.7-0.5,1.1-0.8c0.3-0.3,0.7-0.6,1.1-0.9
	c0.1-0.1,0.2-0.2,0.2-0.3c0.1,0,0.2-0.1,0.3-0.3c0.2-0.2,0.4-0.4,0.7-0.6c0.2-0.2,0.4-0.4,0.6-0.6c0.3-0.3,0.6-0.6,0.8-0.8
	c0.2-0.3,0.5-0.5,0.8-0.8c0.1-0.1,0.2-0.3,0.3-0.4s0.2-0.2,0.3-0.4c0.2-0.3,0.3-0.5,0.4-0.8c0.1-0.3,0.3-0.5,0.4-0.7
	c0.1-0.1,0.2-0.2,0.3-0.4c0.1-0.1,0.2-0.3,0.3-0.4c0.6-0.7,1.1-1.5,1.6-2.5c0.1-0.3,0.3-0.6,0.4-0.8c0.1-0.3,0.2-0.5,0.4-0.8
	c0.4-0.7,0.6-1.3,0.8-1.8c0.1-0.1,0.1-0.3,0.1-0.4c0-0.1,0-0.3,0-0.4c0-0.1,0.1-0.3,0.1-0.4c0.2-0.5,0.4-1,0.5-1.5
	c0-0.1,0.1-0.1,0.1-0.2c0-0.1,0.1-0.1,0.1-0.2c0.1-0.5,0.2-1,0.3-1.5l0.2-0.5c0.1-0.5,0.2-1,0.4-1.6c0.1-0.5,0.3-1.1,0.3-1.6
	c0.1-0.9,0-1.9-0.2-3c-0.3-1.1-0.8-1.9-1.5-2.5c-0.4-0.4-0.9-0.6-1.5-0.8c-0.5-0.2-1-0.3-1.6-0.3c-0.5-0.1-1.1-0.1-1.6,0
	s-1.1,0.1-1.6,0.1c-0.7,0-1.4,0.2-2,0.4c-0.6,0.2-1.2,0.6-1.7,1.1c-0.4,0.4-0.8,0.8-1.1,1.1c-0.4,0.3-0.7,0.7-1,1.2
	c-0.9,1.4-1.7,2.9-2.4,4.3c-0.8,1.5-1.4,3-1.9,4.6c-0.2,0.7-0.5,1.5-0.7,2.1c-0.3,0.7-0.5,1.4-0.7,2.1c-0.1,0.4-0.2,0.7-0.4,1.1
	c-0.1,0.4-0.3,0.7-0.5,1.1c-0.3,0.6-0.4,1.2-0.5,1.8c0,0.2-0.1,0.4-0.1,0.6c0,0.2-0.1,0.4-0.1,0.6c-0.4,1.8-0.7,3.6-1,5.2
	c-0.1,0.5-0.1,1-0.2,1.4s-0.1,0.9-0.2,1.4c-0.1,0.7-0.2,1.3-0.3,1.9c0,0.2-0.1,0.5-0.1,0.9c0,0.5,0,1,0.1,1.6c0,0.5,0,1-0.1,1.6v0.6
	c0,0.2,0.1,0.4,0.1,0.7c0,0.2,0,0.4,0,0.7c0,0.6,0.1,1.1,0.2,1.7c0,0.1,0,0.2,0,0.3s0,0.2,0,0.3c0.1,0.5,0.1,1,0.2,1.5
	c0.1,0.5,0.1,1,0.2,1.5c0.1,0.7,0.2,1.5,0.2,2.3v0.6c0.1,0.5,0.3,1,0.3,1.6c0.1,0.5,0.2,1.1,0.4,1.6c0.1,0.3,0.1,0.5,0.2,0.7
	c0,0.4,0.1,0.9,0.3,1.3c0.1,0.1,0.1,0.2,0.2,0.4c0.2,0.5,0.4,1,0.6,1.4c0.2,0.5,0.5,0.9,0.8,1.4c0.1,0.2,0.2,0.4,0.3,0.5
	s0.2,0.3,0.3,0.4c0.1,0.1,0.2,0.3,0.3,0.4s0.2,0.3,0.4,0.4c0.3,0.2,0.6,0.3,0.9,0.4c0.3,0.1,0.6,0.1,1,0c0.1,0,0.3-0.1,0.4-0.1
	c0.1,0,0.2-0.1,0.3-0.1c0.3-0.1,0.5-0.2,0.8-0.4s0.4-0.4,0.6-0.6c0.9-1.3,1.3-2.7,1.4-4.2c0-0.7-0.1-1.3-0.3-1.9s-0.4-1.2-0.6-1.8
	c-0.1-0.3-0.2-0.6-0.2-0.9c0-0.3-0.1-0.6-0.1-0.9c-0.1-0.4-0.4-0.9-0.6-1.3c-0.3-0.4-0.5-0.9-0.8-1.2c-0.1-0.1-0.2-0.3-0.4-0.4
	c-0.1-0.1-0.3-0.3-0.4-0.5l-0.2-0.3c-0.1-0.2-0.1-0.3,0.2-0.4c0.6-0.3,1.1-0.6,1.6-0.9c0.6-0.3,1.2-0.7,1.7-1.2
	c0.2-0.2,0.5-0.4,0.7-0.6c0.3-0.2,0.5-0.3,0.8-0.5c0.3-0.2,0.6-0.4,0.8-0.6c0.2-0.2,0.5-0.4,0.8-0.6c0.1-0.1,0.1-0.1,0.1-0.2
	c0.2-0.2,0.4-0.4,0.6-0.7c0.2-0.2,0.4-0.4,0.7-0.6c0.2-0.1,0.4-0.3,0.6-0.5s0.4-0.4,0.6-0.6c0.3-0.3,0.5-0.6,0.5-0.9
	c0-0.1,0.1-0.2,0.3-0.3c0.1-0.2,0.3-0.4,0.4-0.5l0.5-0.5l0.7-0.8c0.1-0.1,0.2-0.3,0.3-0.4s0.1-0.3,0.1-0.5c0,0,0-0.1,0-0.1
	c0,0,0-0.1,0-0.1c0.1-0.2,0.2-0.3,0.3-0.4s0.2-0.2,0.2-0.4c0.2-0.2,0.3-0.4,0.3-0.5c-0.3,0-0.5,0.1-0.7,0.1c-0.2,0-0.4,0.1-0.6,0.3
	c0.1,0.3,0.1,0.5,0,0.7c-0.4,0.4-0.7,0.9-1.1,1.4s-0.7,0.9-1.1,1.4c-0.2,0.3-0.4,0.5-0.6,0.7c-0.2,0.2-0.4,0.5-0.6,0.7
	c-0.1,0.1-0.2,0.3-0.3,0.4l-0.3,0.3c-0.3,0.3-0.5,0.6-0.7,0.8c-0.2,0.2-0.5,0.5-0.7,0.8c-0.2,0.2-0.4,0.4-0.6,0.5
	c-0.2,0.2-0.4,0.3-0.6,0.4c-0.4,0.3-0.8,0.6-1.2,0.9c-0.4,0.3-0.8,0.6-1.1,0.9c-0.4,0.3-0.7,0.6-1.1,0.8c-0.4,0.2-0.8,0.4-1.2,0.6
	c-0.6,0.2-1.2,0.5-1.7,0.8c-0.1,0.1-0.3,0.1-0.4,0.2s-0.3,0.2-0.5,0.3C136.3,59.7,136.2,59.6,136.2,59.6 M110.8,45.9
	c0.2-0.2,0.3-0.5,0.3-0.9c0-0.1,0-0.2,0.1-0.2c0.1-0.2,0.2-0.5,0.2-0.7c0-0.2,0.1-0.5,0.1-0.8c0-0.2,0.1-0.3,0.1-0.5
	c0-0.1,0.1-0.3,0.1-0.4c0.1-0.3,0.1-0.6,0.2-0.9c0.1-0.3,0.1-0.6,0.2-0.9c0-0.2,0.1-0.4,0.2-0.6c0.1-0.2,0.1-0.4,0.2-0.6
	c0.2-0.4,0.4-0.8,0.6-1.3c0.2-0.4,0.3-0.9,0.4-1.4c0-0.2,0.1-0.3,0.1-0.5c0-0.1,0.1-0.3,0.2-0.5c0.1-0.4,0.3-0.8,0.4-1.2
	c0.1-0.4,0.3-0.8,0.4-1.2c0.1-0.2,0.1-0.5,0.2-0.7c0.1-0.2,0.1-0.5,0.3-0.6c0.1-0.3,0.2-0.6,0.3-0.9c0.1-0.3,0.2-0.7,0.3-0.9
	c0.1-0.3,0.2-0.6,0.3-1c0.1-0.4,0.2-0.7,0.3-1c0.1-0.1,0.1-0.2,0.1-0.3c0-0.1,0.1-0.2,0.1-0.3c0.4-0.6,0.6-1.2,0.7-2
	c0.1-0.3,0.2-0.5,0.3-0.7c0-0.1,0.1-0.1,0.1-0.2c0-0.1,0.1-0.1,0.1-0.2c0-0.1,0-0.2,0.1-0.3c0-0.1,0.1-0.1,0.1-0.2
	c0.2-0.4,0.4-0.8,0.5-1.1c0.1-0.4,0.3-0.7,0.6-1.1c0.1-0.1,0.1-0.2,0.1-0.3c0-0.2,0-0.3,0.1-0.4c0.1-0.1,0.1-0.2,0.2-0.3
	c0.1-0.1,0.2-0.3,0.3-0.4c0.1-0.1,0.2-0.3,0.3-0.4l0.5-0.5c0.3-0.2,0.6-0.4,0.9-0.5c0.3-0.1,0.6-0.3,0.9-0.3c0.5-0.1,1-0.1,1.4,0.2
	c0.1,0.1,0.2,0.1,0.3,0.2s0.2,0.1,0.3,0.2c0.4,0.2,0.6,0.5,0.7,0.8c0.1,0.2,0.1,0.3,0.2,0.5c0.1,0.1,0.1,0.3,0.2,0.4
	c0.3,0.4,0.5,0.9,0.6,1.2c0,0.1,0,0.2,0.1,0.3c0.2,0.4,0.3,0.9,0.3,1.4c0,0.1,0,0.3,0.1,0.4c0.1,0.3,0.1,0.5,0,0.7
	c0,0.2-0.1,0.4-0.1,0.7v0.7c0,0.3-0.1,0.6-0.1,0.9c0,0.3-0.1,0.6-0.1,0.9c0,0.2-0.1,0.4-0.1,0.5c0,0.2,0,0.3-0.1,0.5
	c-0.1,0.2-0.1,0.4-0.2,0.6c-0.1,0.2-0.1,0.4-0.2,0.6c-0.6,1.5-1.4,2.8-2.2,4.2c-0.2,0.3-0.4,0.7-0.6,1c-0.2,0.3-0.4,0.6-0.7,0.9
	c-0.1,0.1-0.1,0.2-0.2,0.3c-0.1,0.1-0.1,0.2-0.2,0.2c-0.3,0.3-0.7,0.7-1,1s-0.7,0.7-1,1c-0.1,0.1-0.2,0.2-0.3,0.3
	c-0.1,0.1-0.2,0.2-0.3,0.3c-0.5,0.6-1.1,1.2-1.6,1.7c-0.6,0.5-1.2,1.1-1.8,1.6c-0.4,0.3-0.9,0.7-1.3,1c-0.4,0.4-0.9,0.7-1.4,1.1
	c-0.3,0.2-0.6,0.4-1,0.7c-0.4,0.2-0.7,0.4-1,0.7c-0.1,0-0.2,0.1-0.4,0.2C110.6,46.4,110.6,46.2,110.8,45.9 M117.6,49.5
	c0,0.4,0,0.8,0,1.2c0,0.4-0.1,0.8-0.1,1.2c-0.1,1.5-0.2,2.9-0.5,4.2c-0.2,1.4-0.4,2.8-0.5,4.2c0,0.5,0,1.1,0,1.6c0,0.5,0,1.1,0,1.6
	c0.1,0.9,0.2,1.8,0.2,2.7c0,0.9,0.1,1.8,0.2,2.7c0.1,0.4,0.2,0.7,0.3,1c0.1,0.3,0.3,0.6,0.5,0.9c0.3,0.6,0.8,1.1,1.5,1.4
	c0.7,0.3,1.3,0.4,1.9,0.2c0.1,0,0.1,0,0.2,0c0.1,0,0.1,0,0.2,0c0.2,0,0.3,0,0.5,0c0.1,0,0.3-0.1,0.4-0.2c0.1,0,0.1-0.1,0.2-0.1
	c0.1,0,0.1-0.1,0.2-0.1c0.4-0.1,0.7-0.2,1-0.4c0.3-0.2,0.6-0.4,1-0.6c0.5-0.3,0.9-0.7,1.3-1.1c0.4-0.4,0.7-0.9,1-1.5
	c0.3-0.5,0.6-1.1,0.8-1.6c0.2-0.5,0.5-1.1,0.8-1.5c0.6-1.2,1.2-2.4,1.8-3.7c0.5-1.2,0.9-2.5,1.1-3.9c0.3-1.7,0.7-3.5,1.4-5.1
	c0.1-0.2,0.1-0.4,0.2-0.5c0.1-0.2,0.1-0.3,0.2-0.5c0.1-0.3,0.2-0.7,0.2-1s0.2-0.6,0.3-0.9c0.1-0.1,0.1-0.3,0.1-0.4
	c0-0.2,0-0.4,0.1-0.6c0.1-0.2,0.1-0.4,0.2-0.5s0.1-0.3,0.1-0.5c0.1-0.2,0.1-0.4,0.1-0.5c0-0.2,0-0.3-0.1-0.5c-0.4,0-0.7,0.1-0.9,0.4
	c-0.1,0.2-0.2,0.3-0.3,0.5c-0.1,0.1-0.2,0.3-0.3,0.5c-0.1,0.2-0.2,0.4-0.3,0.7c-0.1,0.2-0.2,0.4-0.3,0.7c-0.1,0.5-0.3,1-0.4,1.5
	c-0.1,0.5-0.2,1-0.4,1.5c-0.1,0.6-0.3,1.3-0.6,1.9c-0.2,0.6-0.5,1.2-0.8,1.8c-0.1,0.3-0.2,0.6-0.4,0.8c-0.1,0.3-0.2,0.5-0.3,0.8
	c0,0.2-0.1,0.5-0.3,0.8c-0.3,0.6-0.5,1.2-0.7,1.8c-0.2,0.6-0.4,1.2-0.7,1.8c0,0.1-0.1,0.2-0.1,0.3s0,0.2-0.1,0.3
	c0,0.1-0.1,0.2-0.1,0.3c0,0.1-0.1,0.2-0.1,0.3c-0.3,0.8-0.7,1.6-1.1,2.3c-0.4,0.8-0.8,1.5-1.2,2.3c-0.2,0.3-0.4,0.6-0.6,0.8
	c-0.2,0.3-0.4,0.5-0.6,0.8c-0.2,0.3-0.5,0.6-0.8,0.8c-0.2,0.1-0.4,0.3-0.6,0.4c-0.2,0.1-0.4,0.1-0.7,0.1c-0.2,0-0.4-0.1-0.5-0.2
	c-0.4-0.6-0.6-1.2-0.6-1.8c0-0.1,0-0.3,0-0.4c0-0.1,0-0.3,0-0.5c0-0.5-0.1-1-0.1-1.4c0-0.5-0.1-0.9-0.1-1.4c-0.1-1.7,0-3.3,0.3-5
	c0.3-1.6,0.5-3.3,0.5-5c0-1-0.1-2-0.4-2.8c-0.3-0.9-0.5-1.8-0.8-2.7c-0.1-0.4-0.2-0.7-0.4-0.8c-0.2-0.3-0.4-0.5-0.4-0.7
	c-0.3-0.3-0.5-0.5-0.8-0.5c-0.8-0.1-1.5,0-2.2,0.4c-0.4,0.2-0.7,0.5-1.1,0.7c-0.4,0.3-0.7,0.5-1,0.8c-0.1,0.1-0.2,0.2-0.3,0.4
	c-0.1,0.1-0.2,0.2-0.3,0.4c-0.1,0.2-0.3,0.4-0.4,0.6s-0.2,0.4-0.4,0.6c-0.2,0.3-0.4,0.6-0.5,0.8c-0.2,0.2-0.3,0.5-0.5,0.8
	c-0.3,0.6-0.6,1.2-0.9,1.7c-0.3,0.6-0.6,1.1-0.8,1.7c-0.1,0.1-0.1,0.3-0.2,0.4c0-0.1-0.1-0.1-0.1-0.2s0-0.1-0.1-0.2
	c0-0.3,0-0.5,0-0.8c0-0.2,0-0.5,0.1-0.8v-1.1c0-0.4,0-0.7,0.1-1.1c0-0.2,0.1-0.4,0.1-0.5c0-0.2,0-0.3,0.1-0.5c0-0.1,0-0.3,0-0.4
	c0-0.1,0-0.3,0-0.5c0-0.2,0-0.4,0-0.6c0-0.2,0-0.4,0-0.6c0-0.4,0.1-0.8,0.2-1.3c0.1-0.4,0.1-0.7,0.2-0.8c0.1-0.1,0.3-0.2,0.8-0.3
	c1.2-0.3,2.2-0.8,3.1-1.5c0.9-0.7,1.7-1.4,2.7-2.1c0.5-0.4,1.1-0.8,1.6-1.2s1.1-0.8,1.6-1.2c0.6-0.4,1-0.9,1.5-1.4
	c0.4-0.5,0.8-1,1.3-1.6c0.5-0.6,1-1.3,1.5-1.9c0.5-0.6,1-1.3,1.5-2c0.5-0.7,0.9-1.4,1.3-2.1c0.4-0.7,0.7-1.5,0.9-2.3
	c0.1-0.5,0.2-1,0.3-1.5c0.1-0.5,0.2-1,0.3-1.5c0.1-0.4,0.1-0.9,0.1-1.4c0-0.5,0-0.9,0.1-1.4c0-0.2,0-0.5-0.1-0.8c0-0.1,0-0.2,0-0.3
	s0-0.2,0-0.3c0-0.3-0.1-0.6-0.2-0.9c0-0.1-0.1-0.1-0.1-0.2c0-0.1,0-0.1-0.1-0.2c-0.2-0.7-0.4-1.2-0.7-1.7c-0.2-0.3-0.5-0.6-0.7-0.8
	c-0.2-0.2-0.5-0.5-0.8-0.6c-0.5-0.3-1-0.5-1.5-0.7c-0.5-0.2-1.1-0.3-1.6-0.4c-0.3-0.1-0.6-0.1-0.9-0.2c-0.3-0.1-0.7-0.1-0.9,0
	c-0.2,0-0.4,0-0.5,0c-0.1,0-0.3,0-0.5,0c-0.8,0.1-1.5,0.2-2.2,0.4c-0.7,0.2-1.4,0.6-2,1.1c-0.4,0.3-0.7,0.7-0.9,1.2
	c-0.3,0.5-0.5,0.9-0.8,1.1c-0.3,0.2-0.5,0.5-0.7,0.8c-0.1,0.3-0.3,0.6-0.4,0.9c-0.1,0.2-0.2,0.4-0.3,0.6s-0.2,0.4-0.3,0.6
	c-0.1,0.2-0.3,0.4-0.4,0.6c-0.1,0.2-0.2,0.5-0.3,0.7c-0.1,0.3-0.3,0.6-0.4,0.9c-0.1,0.3-0.2,0.6-0.4,0.9c-0.2,0.6-0.4,1.1-0.7,1.7
	c-0.2,0.6-0.4,1.2-0.6,1.8l-1.3,4.4c0,0,0,0.1,0,0.1c0,0,0,0.1,0,0.1c-0.1,0.5-0.3,1-0.4,1.5c-0.1,0.5-0.2,1-0.4,1.5
	c-0.1,0.3-0.2,0.6-0.2,0.8c-0.1,0.5-0.2,1.1-0.3,1.6c-0.1,0.5-0.2,1.1-0.3,1.6c-0.1,0.5-0.2,1.1-0.3,1.6c-0.1,0.6-0.2,1.1-0.2,1.6
	c-0.1,0.3-0.1,0.6-0.1,0.8s-0.1,0.5-0.1,0.8c-0.2,1-0.2,2-0.2,3c0,0.6,0,1.2,0,1.9c-0.1,0.4-0.1,0.7-0.1,1.1v1.2c0,0.2,0,0.4,0,0.6
	c0,0.2,0,0.4,0,0.6c0,0.3-0.1,0.5-0.1,0.8c0,0.3,0,0.5,0,0.8c0,0.6,0.1,1.1,0.1,1.7c0,0.6,0.1,1.1,0.1,1.7v0.1
	c0.1,0.4,0.1,0.8,0.1,1.2c0,0.4,0,0.8,0,1.2c0,0.3,0.1,0.6,0.1,0.9c0,0.3,0.1,0.7,0.2,0.9c0.1,0.3,0.2,0.6,0.2,0.8
	c0.1,0.2,0.1,0.5,0.1,0.8c0,0,0,0.1,0,0.1c0,0,0,0,0,0.1c0.1,0.3,0.3,0.4,0.6,0.3c0,0,0.1,0,0.1,0c0,0,0,0,0.1,0
	c0.3-0.1,0.6,0,0.8,0.2c0.1,0.1,0.3,0.2,0.4,0.2c0.1-0.2,0.3-0.4,0.3-0.4c0.2,0,0.4,0.1,0.6,0.2c0.2,0.1,0.4,0.2,0.6,0.2
	c0,0,0.1-0.1,0.1-0.1c0.1,0,0.1,0,0.1-0.1c0.1-0.2,0.2-0.4,0.3-0.6c0.1-0.2,0.2-0.4,0.3-0.6c0.1-0.4,0.2-0.7,0.3-1.1
	c0.1-0.4,0.3-0.7,0.4-1.1c0.1-0.4,0.1-0.7,0.1-0.8c-0.1-0.4-0.1-0.9,0.1-1.3c0.1-0.3,0.1-0.6,0.2-0.9c0.1-0.3,0.1-0.6,0.1-0.9
	c0-0.5,0.1-1,0.2-1.5c0.1-0.5,0.2-1,0.4-1.5c0.1-0.1,0.1-0.2,0.1-0.3c0-0.3,0.1-0.6,0.2-0.9c0.1-0.2,0.3-0.5,0.4-0.8
	c0.1-0.1,0.2-0.2,0.2-0.3s0.2-0.2,0.2-0.3c0.1-0.4,0.3-0.8,0.5-1.1s0.4-0.7,0.5-1c0-0.1,0.1-0.2,0.2-0.3c0.3-0.1,0.5-0.3,0.6-0.6
	c0.1-0.2,0.2-0.5,0.3-0.7c0.1-0.3,0.3-0.6,0.7-0.8c0.3-0.3,0.6-0.4,0.9-0.6C117.6,49.2,117.6,49.3,117.6,49.5 M89.2,36.2
	c0,0.1,0,0.2-0.1,0.4c0,0.3-0.1,0.6-0.1,0.9c0,0.3-0.1,0.6-0.1,0.9c-0.1,0.6-0.3,1.3-0.3,2s-0.1,1.3-0.2,2c0,0.4-0.1,0.8-0.1,1.2
	s0,0.8-0.1,1.1c-0.1,0.6-0.2,1.1-0.3,1.7c-0.1,0.6-0.1,1.2-0.2,1.8c0,0.3,0,0.5-0.1,0.7l-0.2,3c0,0.2,0,0.4,0,0.7c0,0.2,0,0.4,0,0.7
	v0.4c0,0.1,0,0.3-0.1,0.4c0,0.3,0,0.6,0,0.9c0,0.3,0,0.6,0,0.9v1.6v0.8c0,0.3,0,0.5,0,0.8c0,0.2,0,0.5,0.1,0.8
	c0,0.1,0.1,0.3,0.1,0.6c0,0.2,0.1,0.4,0.1,0.5c0,0.2,0,0.3,0.1,0.5c0,0.4,0.1,0.8,0.1,1.2s0.2,0.8,0.4,1.2c0.4,1.3,1.3,2.1,2.6,2.3
	c0.4,0.1,0.8,0.2,1.2,0.2c0.4,0,0.7,0,1.1,0c0.2,0,0.5-0.1,0.7-0.2c0,0,0.1,0,0.1-0.1c0,0,0.1-0.1,0.1-0.1c0.4-0.1,0.7-0.4,1-0.8
	c0.4-0.4,0.8-0.8,1.3-1.1c0.5-0.3,0.9-0.8,1.2-1.3c0.3-0.5,0.6-1,0.9-1.6c0.3-0.5,0.5-1,0.8-1.6c0.5-1.2,1.1-2.2,1.8-3.3
	c0.7-1,1.4-2.1,2.1-3.1c0.4-0.6,0.8-1.3,1.1-2s0.7-1.3,1.1-2c0.1-0.2,0.2-0.3,0.2-0.5c0.1-0.1,0.2-0.3,0.3-0.4
	c0.1-0.1,0.1-0.3,0.2-0.6c0,0,0-0.1,0.1-0.1c0,0,0.1-0.1,0.1-0.2l0.1-0.1c0.2-0.4,0.1-0.7-0.4-0.9c-0.2-0.1-0.4,0-0.6,0.1
	c-0.1,0.1-0.2,0.3-0.3,0.4c-0.1,0.1-0.1,0.3-0.2,0.4c-0.2,0.5-0.4,0.9-0.7,1.2c-0.1,0.2-0.2,0.4-0.3,0.5c-0.1,0.2-0.2,0.3-0.3,0.5
	c0,0-0.1,0.1-0.1,0.1s0,0.1-0.1,0.2c-0.3,0.4-0.6,0.9-0.9,1.3c-0.3,0.4-0.6,0.9-0.9,1.4c-0.2,0.2-0.4,0.4-0.5,0.7
	c-0.1,0.2-0.3,0.4-0.4,0.7c-0.2,0.3-0.4,0.6-0.6,0.9c-0.2,0.3-0.4,0.6-0.6,0.9c-0.2,0.3-0.4,0.6-0.6,0.9c-0.2,0.3-0.4,0.6-0.6,0.9
	c-0.1,0-0.1,0.2-0.2,0.4c-0.5,0.8-1.1,1.6-1.6,2.4c-0.5,0.8-1.1,1.6-1.7,2.4c-0.2,0.2-0.4,0.5-0.5,0.7c-0.2,0.2-0.3,0.5-0.5,0.7
	c-0.1,0.1-0.3,0.3-0.4,0.3s-0.2,0.2-0.3,0.3c-0.2,0.1-0.4,0.1-0.6,0.1c-0.2-0.1-0.4-0.2-0.5-0.4C92,64.5,91.9,64.3,92,64
	c0-0.1,0-0.3,0-0.4c0-0.1,0-0.3,0-0.4V63c0-0.1,0-0.2,0-0.3c0-0.1,0-0.2,0-0.3v-0.6c0-1.7,0-3.3,0.1-5c0.1-1.7,0.2-3.3,0.3-5
	c0.1-1.7,0.1-3.3,0.1-5c0-1.7,0-3.3-0.1-4.9c-0.1-0.3-0.1-0.6,0.1-0.8v-0.3v-0.7c0-0.4,0-0.8,0-1.2s0-0.8,0-1.1c0-0.2,0-0.4,0-0.6
	c0-0.2,0-0.4,0-0.6H93h0.3c0.2,0,0.4,0.1,0.6,0.1h0.6c0.2,0,0.4,0,0.6,0c0.2,0,0.4-0.1,0.6-0.1l0.1-0.1c0.2,0,0.4-0.1,0.5-0.2
	c0.1-0.1,0.2-0.1,0.3-0.2c0.1,0,0.2-0.1,0.3-0.1c0.2,0.1,0.3,0.2,0.4,0.2c0.1,0,0.1-0.1,0.2-0.2c0,0,0.1,0,0.1-0.1
	c0.1-0.2,0.2-0.3,0.4-0.3c0.1,0,0.1,0,0.2-0.1c0.1,0,0.1-0.1,0.2-0.1c0.1-0.1,0.1-0.1,0.2-0.2c0.1,0,0.1-0.1,0.2-0.1
	c0.1,0,0.1-0.1,0.2-0.1c0,0,0.1,0,0.2-0.1c0.1-0.1,0.3-0.2,0.4-0.2c0.1,0,0.3-0.1,0.5-0.2h0.2c0.2-0.1,0.4-0.2,0.6-0.3
	c0.2-0.1,0.4-0.2,0.6-0.3c0.1-0.1,0.2-0.1,0.3-0.2c0.1-0.1,0.3-0.2,0.4-0.3c0.1-0.1,0.3-0.3,0.4-0.4c-0.1-0.1-0.1-0.3,0-0.4
	c0.1-0.1,0.1-0.3,0.1-0.4c-0.3-0.2-0.7-0.3-1-0.1c-0.1,0.1-0.2,0.1-0.4,0.1c-0.1,0-0.3,0.1-0.4,0.1c-0.5,0.2-1,0.4-1.6,0.6
	c-0.5,0.2-1,0.4-1.6,0.6C96.8,34,96,34.1,95.1,34c-0.1,0-0.2,0-0.4-0.1c-0.3-0.1-0.6-0.2-1-0.3c-0.4-0.1-0.7-0.2-1-0.4
	c-0.4-0.1-0.6-0.4-0.6-0.8c0-0.1,0-0.2,0-0.2c0-0.1,0-0.2,0-0.3v-0.3c-0.1-0.3-0.1-0.5-0.1-0.8c0-0.3,0-0.5-0.1-0.8v-0.3
	c0-0.1,0-0.2,0.1-0.3c0.1-0.3,0.1-0.6-0.1-1c0-0.1-0.1-0.2-0.1-0.2c0-0.1-0.1-0.2-0.2-0.3c-0.2-0.3-0.5-0.4-0.9-0.4l-0.1,0.1
	c-0.3,0.6-0.4,1.1-0.4,1.6c-0.1,0.4-0.1,0.9-0.2,1.3c-0.1,0.4-0.1,0.9-0.2,1.3c0,0.1,0,0.2,0,0.3c0,0.1-0.1,0.2-0.1,0.2
	c-0.1,0-0.4,0-0.6-0.1c-0.6,0-1.2,0-1.8,0c-0.4,0.1-0.8,0.1-1.2-0.1c-0.1,0-0.2-0.1-0.4-0.1c-0.1,0-0.3,0-0.4-0.1
	c-0.3,0-0.5-0.1-0.8-0.1c-0.2,0-0.5,0-0.8,0c-0.3,0-0.7-0.1-1-0.1s-0.7,0-1,0c-0.3,0-0.7,0.1-1,0.1c-0.3,0-0.6,0.1-1,0.3
	c-0.2,0.1-0.4,0.2-0.6,0.3c-0.2,0.1-0.4,0.2-0.6,0.3c0,0,0,0.1-0.1,0.2c-0.1,0.1-0.1,0.1,0.1,0.2c0.1,0,0.2,0,0.4,0
	c0.1,0,0.3,0,0.4,0c0.1,0,0.3,0,0.5,0c0.2,0,0.3,0,0.5,0c0.3-0.1,0.6-0.1,0.8-0.1c0.2,0,0.5,0.1,0.8,0.2c0.1,0.1,0.3,0.1,0.5,0.2
	c0.2,0.1,0.3,0.1,0.5,0.1c0.7,0,1.5,0.2,2.3,0.5c0.2,0.1,0.4,0.2,0.6,0.3c0.2,0.1,0.4,0.1,0.6,0.2c0.2,0,0.4,0.1,0.6,0.2
	c0.3,0.1,0.5,0.2,0.8,0.3c0.3,0.1,0.6,0.2,0.9,0.2c0.1,0.1,0.2,0.1,0.3,0.2c0.1,0.1,0.2,0.1,0.4,0.1C89.2,35.9,89.2,36,89.2,36.2
	 M70.5,43.7c0-0.3-0.1-0.5-0.1-0.7c0-0.2,0.1-0.4,0.1-0.6v-0.6v-0.6c0-0.1,0-0.1,0-0.2c0,0,0-0.1,0-0.2c0-0.4,0.1-0.8,0.2-1.1
	c0.1-0.4,0.2-0.7,0.4-1c0.1-0.1,0.2-0.3,0.2-0.4c0-0.2,0.1-0.5,0.3-0.7c0-0.1,0.1-0.2,0.2-0.2c0.1-0.1,0.1-0.2,0.1-0.3
	c0-0.1,0.1-0.1,0.2-0.1h0.2c0.5,0.3,0.9,0.6,1.2,1.1c0,0.1,0.1,0.2,0.1,0.4c-0.1,0.4-0.1,0.8-0.2,1.2c-0.1,0.4-0.1,0.8-0.1,1.1
	c0,0.3-0.1,0.5-0.2,0.8c-0.1,0.2-0.2,0.4-0.3,0.6c-0.1,0.2-0.2,0.4-0.4,0.6c-0.1,0.1-0.2,0.2-0.3,0.3s-0.1,0.3-0.2,0.4
	c-0.1,0.2-0.3,0.4-0.5,0.6s-0.4,0.4-0.6,0.5C70.6,44.3,70.6,44,70.5,43.7 M71.8,64.5c0,0.2,0,0.5,0.1,0.8c0.1,0.4,0.1,0.8,0.2,1.2
	c0,0.4,0.1,0.8,0.2,1.2c0.3,1.4,1.1,2.4,2.3,3.1c0.2,0.1,0.4,0.2,0.6,0.3c0.2,0.1,0.4,0.1,0.6,0.1c0.3,0.1,0.5,0.2,0.8,0.2
	c0.5,0.2,0.9,0.1,1.2-0.3C77.9,71,78,71,78,71c0,0,0.1,0,0.2-0.1c0.2,0,0.4-0.1,0.6-0.3c0.3-0.1,0.6-0.2,0.8-0.3
	c0.1-0.1,0.1-0.1,0.2-0.2c0.1,0,0.2-0.1,0.3-0.2c0.2-0.1,0.3-0.3,0.5-0.5c0.1-0.2,0.3-0.3,0.5-0.5c0.1-0.1,0.2-0.3,0.4-0.4
	c0.1-0.1,0.3-0.3,0.4-0.4c0.1-0.1,0.1-0.1,0.1-0.2s0-0.1,0.1-0.2c0.1-0.1,0.1-0.2,0.2-0.3c0-0.1,0.1-0.2,0.1-0.3
	c0.2-0.4,0.4-0.7,0.5-1.1c0.1-0.4,0.3-0.7,0.5-1c0.2-0.3,0.4-0.6,0.4-0.8c0.1-0.3,0.2-0.5,0.3-0.8c0.1-0.3,0.2-0.6,0.4-0.9
	c0.2-0.4,0.4-1.1,0.7-1.8c0.3-0.8,0.6-1.6,0.9-2.3c0.3-0.8,0.6-1.5,0.8-2.1c0.2-0.6,0.4-1,0.4-1.2c0.1-0.5,0.3-1,0.5-1.6
	c0.2-0.5,0.4-1.1,0.6-1.6c0.1-0.3,0.3-0.5,0.4-0.8c0.1-0.3,0.1-0.5,0.2-0.8c0.1-0.2,0.1-0.5,0.1-0.8c0-0.1,0-0.2,0.1-0.3
	c0.1-0.1,0.1-0.2,0.1-0.3v-0.3c0-0.1,0-0.3,0-0.5c0-0.2,0-0.3,0.1-0.5l-0.1-0.1c-0.1-0.1-0.2-0.2-0.4-0.2c-0.2,0-0.3,0-0.4,0.1
	c-0.3,0.3-0.5,0.7-0.7,1.2c-0.2,0.4-0.4,0.8-0.6,1.3c-0.2,0.5-0.4,1-0.6,1.5c-0.1,0.2-0.1,0.4-0.2,0.5c0,0.2-0.1,0.3-0.2,0.5
	c0,0.2-0.1,0.4-0.1,0.5s-0.1,0.3-0.2,0.5c-0.1,0.3-0.1,0.6-0.2,0.9c-0.1,0.3-0.1,0.7-0.2,0.9c-0.1,0.4-0.3,0.8-0.4,1.2
	c-0.1,0.4-0.2,0.8-0.4,1.2c-0.1,0.2-0.1,0.4-0.2,0.6c-0.1,0.2-0.1,0.4-0.2,0.6c-0.1,0.3-0.2,0.6-0.3,0.9c-0.1,0.2-0.2,0.5-0.3,0.8
	c-0.2,0.4-0.4,0.8-0.5,1.2c-0.1,0.4-0.3,0.8-0.4,1.2c0,0.1-0.1,0.1-0.1,0.2c0,0.1,0,0.1-0.1,0.2c-0.2,0.4-0.4,0.8-0.6,1.3
	s-0.4,0.9-0.6,1.3c-0.1,0.1-0.1,0.3-0.1,0.3c-0.2,0.3-0.4,0.5-0.5,0.8c-0.1,0.3-0.3,0.5-0.4,0.8c-0.1,0.2-0.1,0.3-0.2,0.4
	c-0.1,0.1-0.3,0.3-0.4,0.4c-0.1,0.1-0.3,0.2-0.4,0.4c-0.4,0.2-0.8,0.1-1.1-0.2c-0.3-0.3-0.6-0.7-0.8-1.1c-0.2-0.3-0.3-0.7-0.3-1
	c0-0.3-0.1-0.7-0.2-1.1c-0.1-0.2-0.1-0.4-0.2-0.6c-0.1-0.2-0.1-0.4-0.1-0.7c0-0.2,0-0.4,0-0.7c0-0.2,0-0.4,0-0.7
	c0-0.5,0.1-1,0.1-1.5c0-0.5,0.1-1,0.3-1.5c0.1-0.4,0.2-0.8,0.2-1.3c0.1-0.4,0.2-0.9,0.3-1.3c0.1-0.2,0.1-0.4,0.2-0.6
	c0-0.2,0.1-0.4,0.1-0.6c0.1-0.2,0.2-0.4,0.2-0.6c0.1-0.2,0.2-0.4,0.2-0.5c0-0.3,0.1-0.5,0.2-0.7c0.1-0.2,0.2-0.5,0.1-0.7v-0.1
	c0.1-0.3,0.1-0.6,0.1-0.9s0-0.5-0.1-0.8c0-0.1,0-0.1-0.1-0.2c0,0,0-0.1,0.1-0.1c0-0.2,0-0.4-0.1-0.6c-0.1-0.2-0.2-0.4-0.3-0.6
	c-0.1-0.2-0.3-0.4-0.4-0.6c-0.2-0.1-0.4-0.3-0.6-0.4c-0.6-0.4-1.2-0.8-1.7-0.9c-0.3-0.2-0.7-0.3-1-0.5c-0.3-0.1-0.7-0.3-1-0.5
	c-0.5-0.2-0.9-0.5-1.2-0.9c-0.3-0.4-0.7-0.8-0.9-1.3c-0.1-0.1-0.1-0.3,0.1-0.4l0.4-0.4c0.6-0.4,1.2-1,1.6-1.8
	c0.1-0.2,0.3-0.4,0.4-0.6c0.1-0.2,0.2-0.4,0.3-0.6s0.2-0.4,0.2-0.5c0.1-0.2,0.2-0.3,0.3-0.5c0.1-0.4,0.2-0.6,0.2-0.8
	c0-0.1,0-0.2,0-0.3s0-0.2,0.1-0.4c0-0.1,0.1-0.2,0.1-0.3c0-0.1,0-0.2,0-0.3c0-0.1-0.1-0.4-0.1-0.6c0-0.2,0-0.4-0.1-0.7
	c-0.1-0.2-0.3-0.4-0.6-0.6c-0.1-0.1-0.2-0.1-0.3-0.2c-0.1-0.1-0.2-0.2-0.2-0.3C73.2,36.2,73,36,72.8,36c-0.3-0.1-0.5-0.1-0.8-0.2
	c-0.2-0.1-0.5-0.1-0.8-0.1c-0.3-0.1-0.6-0.1-0.9-0.1c-0.3,0-0.6,0-0.9,0.1c-0.3,0.1-0.5,0.3-0.8,0.6c0,0.1-0.1,0.3-0.3,0.4
	c-0.1,0.2-0.3,0.4-0.4,0.5s-0.3,0.3-0.3,0.6c0,0.1-0.1,0.4-0.3,0.7c-0.1,0.1-0.1,0.2-0.2,0.3s-0.1,0.2-0.2,0.3
	c-0.1,0.3-0.3,0.6-0.4,0.9c-0.1,0.3-0.2,0.6-0.3,0.9c-0.2,1.1-0.3,2.2-0.2,3.3c0,0.1,0.1,0.3,0.1,0.5c0,0.2,0,0.3,0.1,0.5
	c0.2,0.7,0.5,1.3,0.9,1.8c0.4,0.5,0.9,1,1.5,1.4c0.3,0.3,0.7,0.5,1,0.8c0.4,0.2,0.7,0.4,1.1,0.7c0.3,0.2,0.7,0.4,1.1,0.5
	c0.4,0.2,0.7,0.3,1.1,0.5c0.7,0.4,1.1,0.9,0.9,1.7c0,0.1,0,0.2-0.1,0.3c-0.1,0.3-0.1,0.6-0.2,0.9c-0.1,0.3-0.1,0.6-0.2,0.9
	c-0.1,0.5-0.3,1.1-0.5,1.6c-0.2,0.5-0.3,1.1-0.4,1.7c0,0.1,0,0.3,0,0.4c0,0.1,0,0.3-0.1,0.5c-0.1,0.4-0.1,0.9-0.2,1.3
	c0,0.4-0.1,0.9-0.2,1.3c-0.1,0.3-0.1,0.7-0.1,1.1s0,0.7-0.1,1.1C71.8,64,71.8,64.3,71.8,64.5 M54.7,53.8c-0.1,0.5-0.1,1-0.2,1.6
	c0,0.5-0.1,1-0.1,1.6c0,0.7,0,1.3,0.1,2c0.1,0.7,0.3,1.3,0.7,1.9c0.1,0.3,0.3,0.5,0.5,0.6c0.4,0.3,0.9,0.5,1.6,0.6
	c0.7,0.1,1.2,0,1.7-0.1c0.9-0.3,1.8-0.9,2.5-1.6c0.7-0.7,1.4-1.5,2-2.4c0.6-0.9,1.1-1.8,1.5-2.8c0.4-0.9,0.9-1.9,1.2-2.7
	c0.1-0.2,0.2-0.5,0.4-0.9c0.2-0.4,0.3-0.8,0.5-1.2c0.2-0.4,0.4-0.8,0.6-1.2c0.2-0.4,0.3-0.7,0.4-0.9c0.1-0.1,0.1-0.3,0.1-0.5
	c0-0.2,0-0.3,0.1-0.5c0-0.2-0.1-0.3-0.3-0.3c-0.1,0-0.3,0.1-0.4,0.1c-0.1,0-0.2,0-0.3,0.1c-0.2,0-0.3,0.1-0.3,0.2
	c0,0.2,0,0.3-0.1,0.5c-0.4,0.9-1,2-1.5,3.3c-0.6,1.3-1.1,2.4-1.5,3.3c-0.2,0.5-0.5,1-0.9,1.6c-0.4,0.6-0.8,1.1-1.1,1.5
	c-0.1,0.2-0.5,0.5-0.9,0.9c-0.5,0.4-0.8,0.7-1,0.8c-0.4,0.2-0.7,0.2-0.9,0c-0.2-0.2-0.3-0.4-0.3-0.7c0-0.3,0-0.6,0-0.9
	c0-0.3,0.1-0.5,0.1-0.6c0-0.2,0-0.4,0-0.5c0-0.2,0-0.3,0.1-0.5c0.1-0.4,0.1-0.9,0.2-1.3c0-0.4,0.1-0.8,0.2-1.3
	c0-0.2,0.1-0.4,0.1-0.6c0-0.2,0.1-0.4,0.2-0.6c0.1-0.7,0.2-1.3,0.2-1.8c0-0.5,0.1-1.1,0.2-1.8c0.1-0.6,0.2-1.3,0.4-2
	c0.2-0.7,0.3-1.4,0.3-2c0-0.1,0-0.3,0-0.4c0-0.1,0-0.3,0-0.4c-0.1-0.3-0.1-0.6,0-0.8c0.1-0.2,0.2-0.5,0.1-0.8l-0.2-0.3
	c-0.1-0.4-0.4-0.6-0.8-0.6c-0.2,0-0.4,0.1-0.5,0.1c-0.2,0-0.3,0.1-0.5,0.1c-0.4,0-0.8,0.4-0.9,0.9c-0.1,0.4-0.2,0.7-0.3,1.1
	c-0.1,0.3-0.2,0.7-0.4,1.1c-0.1,0.3-0.2,0.7-0.4,1c-0.1,0.3-0.2,0.7-0.3,1c-0.1,0.2-0.1,0.4-0.2,0.6s-0.1,0.5-0.2,0.7
	c-0.1,0.2-0.1,0.4-0.2,0.7c0,0.2-0.1,0.4-0.2,0.6c-0.3,0.6-0.8,1.3-1.3,2.1c-0.5,0.8-1.1,1.4-1.8,1.7c-0.5,0.2-1,0.2-1.6-0.2
	c-0.6-0.3-0.9-0.8-1.1-1.3c-0.2-0.9-0.3-1.8-0.1-2.7c0.2-0.9,0.4-1.7,0.7-2.6c0.1-0.4,0.3-0.7,0.4-1.1c0.1-0.4,0.2-0.7,0.4-1.1
	c0.3-0.7,0.6-1.5,0.8-2.3c0.3-0.8,0.6-1.6,1-2.3c0.3-0.5,0.7-0.8,1.1-1.1c0.4-0.2,0.9-0.4,1.5-0.5c0.6-0.1,1.2-0.1,1.9,0.1l0.2,0.2
	c0.3,0.3,0.6,0.7,0.8,1c0.3,0.3,0.4,0.7,0.5,1.1c0.1,0.2,0.2,0.3,0.3,0.3c0.3,0,0.4-0.1,0.6-0.2c0.5-0.4,0.6-1,0.2-1.6
	c-0.1-0.2-0.2-0.4-0.3-0.5c-0.1-0.2-0.2-0.3-0.4-0.5c-0.2-0.2-0.4-0.4-0.6-0.6s-0.4-0.3-0.7-0.3c-0.3-0.1-0.7-0.1-1-0.1
	c-0.3,0-0.6,0-1,0.1c-0.1,0-0.3,0.1-0.5,0.1C55.3,37,54.9,37,54.6,37c-0.4,0-0.8,0.1-1.2,0.2L52,37.8c-0.3,0.1-0.7,0.3-1,0.4
	c-0.3,0.2-0.6,0.4-0.8,0.7c-0.3,0.4-0.6,0.8-0.9,1.1c-0.9,1.1-1.6,2.3-2,3.6c-0.1,0.3-0.2,0.7-0.3,1c-0.1,0.3-0.2,0.7-0.4,1
	l-0.5,1.7c-0.1,0.3-0.1,0.6-0.1,0.8c0,0.3-0.1,0.5-0.1,0.8c-0.3,1.2-0.2,2.5,0.1,3.7c0.1,0.5,0.3,0.9,0.6,1.2c0.4,0.6,0.9,1,1.5,1.2
	c0.6,0.2,1.2,0.3,1.8,0.2c0.3,0,0.7-0.1,1-0.2c0.3-0.1,0.6-0.2,1-0.2c0.5,0,1-0.2,1.4-0.4c0.4-0.2,0.8-0.5,1.1-0.8
	c0.1-0.1,0.1-0.1,0.2-0.2c0.1-0.1,0.1-0.1,0.2-0.2V53.8z M31.6,25.5c0.1-0.1,0.2-0.1,0.3-0.2c0.2-0.3,0.6-0.4,1.1-0.4
	c0.5,0,1,0,1.5,0s1,0,1.5,0.1c0.4,0.1,0.9,0.2,1.3,0.3c0.4,0.1,0.9,0.2,1.3,0.4c0.2,0.1,0.3,0.3,0.1,0.6c0,0.1-0.1,0.3-0.1,0.5
	c0,0.2-0.1,0.4-0.2,0.6c-0.1,0.1-0.1,0.2-0.2,0.3c-0.4,0.3-0.8,0.6-1.2,0.9c-0.4,0.3-0.8,0.5-1.3,0.6c-0.4,0.1-0.9,0.1-1.4,0.1
	c-0.5,0-0.9-0.1-1.4-0.3c-0.2-0.1-0.4-0.2-0.6-0.4c-0.2-0.1-0.4-0.3-0.6-0.4c-0.2-0.2-0.4-0.4-0.7-0.6c-0.2-0.2-0.4-0.4-0.7-0.6
	c-0.2-0.2-0.3-0.3-0.3-0.4c0-0.1,0.2-0.2,0.4-0.4C30.8,25.8,31.1,25.6,31.6,25.5 M45.8,48.2c-0.3,1-0.8,2.1-1.3,3.5
	c-0.6,1.4-1.2,2.9-2,4.4c-0.8,1.6-1.6,3-2.5,4.4c-0.9,1.3-1.9,2.4-3,3.4s-2.4,1.7-3.9,2.2c-1.2,0.4-2.5,0.5-4,0.4s-2.7-0.5-3.8-1.2
	c-1.2-0.7-2-1.7-2.5-2.9c-0.5-1.2-0.9-2.4-1-3.7c-0.1-0.9,0-1.8,0.2-2.6c0.2-0.9,0.5-1.7,0.8-2.5c0.3-0.7,0.6-1.5,0.8-2.4
	c0.2-0.8,0.6-1.6,1.1-2.3c0.8-1.2,1.9-2.1,3.3-2.8c0.3-0.1,0.6-0.3,0.9-0.4c0.3-0.1,0.6-0.1,0.9,0c0.1,0,0.4,0,0.7,0
	c0.3,0,0.6-0.1,1-0.2c0.3-0.1,0.6-0.3,0.9-0.4c0.3-0.2,0.4-0.3,0.5-0.5c0.1-0.3,0-0.4-0.3-0.6s-0.5-0.2-0.7-0.3
	c-0.2-0.1-0.4-0.2-0.6-0.3c-0.2-0.1-0.4-0.3-0.6-0.4C30.1,43,29.9,43,29.7,43c-0.2,0-0.5,0-0.7,0.1c-0.7,0.1-1.4-0.1-2.1-0.4
	c-0.6-0.4-1.2-0.8-1.7-1.3c-0.6-0.6-1.1-1.4-1.4-2.2c-0.3-0.9-0.5-1.7-0.5-2.6s0.1-1.8,0.4-2.7c0.3-0.9,0.7-1.6,1.3-2.3
	c0.3-0.3,0.5-0.6,0.7-0.9c0.2-0.3,0.4-0.6,0.7-0.9c0.3-0.3,0.6-0.6,0.9-0.8s0.7-0.5,1-0.8c0.2-0.1,0.4-0.1,0.6,0.1
	c0.2,0.2,0.5,0.4,0.7,0.7s0.5,0.4,0.7,0.6c0.8,0.6,1.6,1.2,2.6,1.6c0.9,0.4,1.9,0.5,3,0.4c0.9-0.1,1.8-0.5,2.7-0.9
	c0.9-0.5,1.7-1,2.4-1.5c0.5-0.4,1-1,1.4-1.7c0.2-0.3,0.3-0.7,0.4-1c0-0.4,0-0.7-0.1-1.1c-0.1-0.3-0.2-0.6-0.3-0.8
	c-0.1-0.3-0.3-0.5-0.4-0.8c0-0.1-0.1-0.1-0.2-0.2c-0.1-0.1-0.3-0.1-0.4-0.2c-0.1-0.1-0.3-0.1-0.5-0.2l-4-1.7
	c-0.7-0.3-1.4-0.5-2.1-0.6c-0.7-0.1-1.4-0.1-2.2,0c-0.7,0.1-1.3,0.3-2,0.4c-0.6,0.2-1.3,0.4-1.9,0.7c-0.1,0.1-0.3,0.1-0.4,0.2
	c-0.1,0.1-0.3,0.1-0.4,0.2c-0.2-0.3-0.4-0.5-0.5-0.7c-0.2-0.2-0.3-0.5-0.5-0.7c-0.2-0.3-0.4-0.5-0.6-0.7c-0.2-0.2-0.5-0.3-0.8-0.5
	c-0.1,0-0.2-0.1-0.2-0.1c-0.1,0-0.2,0-0.4-0.1c0.1,0.7,0.3,1.4,0.6,2c0.3,0.6,0.5,1.3,0.6,2c-0.2,0.1-0.4,0.3-0.6,0.4
	c-0.2,0.1-0.4,0.3-0.6,0.4c-0.5,0.3-1,0.7-1.5,1c-0.5,0.3-1,0.7-1.4,1.1c-0.2,0.3-0.4,0.5-0.7,0.8c-0.2,0.2-0.4,0.5-0.6,0.8
	c-0.7,1-1.3,2-1.8,3.1c-0.4,1.1-0.7,2.2-0.7,3.5c0,0.9,0,1.7,0.2,2.5c0.1,0.8,0.4,1.6,0.8,2.3c1.1,1.9,2.6,3.3,4.4,4.2
	c0.1,0.1,0.2,0.1,0.3,0.2c0.1,0.1,0.3,0.2,0.4,0.3c-0.3,0.1-0.6,0.2-0.9,0.3c-0.3,0.1-0.6,0.2-0.9,0.1c-0.1,0-0.1,0-0.2,0.1
	s-0.1,0.1-0.2,0.1c-0.5,0.3-0.9,0.6-1.4,0.9s-0.9,0.7-1.3,1c-0.6,0.5-1.1,1.1-1.5,1.8c-0.4,0.7-0.8,1.3-1.2,2
	c-0.1,0.3-0.3,0.6-0.5,0.9c-0.2,0.3-0.3,0.6-0.4,0.9c-0.2,0.9-0.3,1.7-0.5,2.6c-0.1,0.9-0.2,1.7-0.1,2.6c0.1,1.1,0.3,2.2,0.6,3.2
	c0.3,1,0.7,2,1.1,3c0.5,1.1,1.2,2.1,2,2.8c0.8,0.8,1.8,1.4,2.8,2c1.3,0.7,2.7,1.2,4.1,1.4c1.4,0.2,2.8,0.3,4.2,0.1
	c1.4-0.2,2.7-0.6,4-1.3c1.3-0.7,2.5-1.5,3.5-2.6c1.2-1.2,2.4-2.6,3.4-4c1.2-1.7,2.2-3.5,3.1-5.2c0.9-1.8,1.6-3.4,2.2-4.9
	c0.6-1.5,1.2-3.1,1.8-5c-0.2-0.1-0.5-0.2-0.8-0.2c-0.3,0-0.5,0-0.8,0.1C46.3,46.7,46.1,47.2,45.8,48.2"/>
<path class="st1" d="M207.1,118.9c0.5,0.7,0.8,1.5,1,2.2c0,0.1,0.1,0.2,0.1,0.3c0,0.1,0,0.2,0.1,0.3c0.2,0.6,0.4,1.3,0.4,2
	c0.1,0.7,0.1,1.4,0.1,2c0,0.8-0.1,1.7-0.4,2.7c-0.2,0.3-0.3,0.4-0.4,0.6c-0.2,0.2-0.4,0.3-0.6,0.4c-0.2,0.1-0.4,0.2-0.7,0.3
	c-0.3,0.1-0.6,0.2-0.8,0.4c-0.3,0.2-0.7,0.4-1,0.6c-0.3,0.2-0.6,0.4-1,0.6c-0.6,0.4-1.3,0.7-2,0.8c-0.1,0-0.2,0.1-0.3,0.1
	s-0.2,0-0.3,0.1c-0.3,0.1-0.5,0.1-0.7,0.1c-0.3,0.1-0.6,0-0.9-0.2s-0.4-0.5-0.4-0.8c0-0.5-0.1-0.9-0.1-1.4s0.1-1,0.2-1.4
	c0.1-0.3,0.1-0.5,0.2-0.7s0.1-0.5,0.2-0.7c0.1-0.2,0.1-0.4,0.2-0.6c0-0.2,0.1-0.4,0.3-0.6v-0.1c0.1-0.3,0.2-0.5,0.4-0.7
	c0.1-0.2,0.3-0.4,0.5-0.6c0.3-0.4,0.7-0.8,1-1.2c0.3-0.4,0.7-0.7,1.2-1.1c0.3-0.2,0.4-0.3,0.4-0.4c0.1-0.2,0.3-0.3,0.4-0.4
	s0.3-0.3,0.4-0.4c0.2-0.2,0.4-0.3,0.5-0.5c0.1-0.1,0.3-0.3,0.4-0.5c0.2-0.2,0.4-0.4,0.6-0.7c0.2-0.2,0.5-0.4,0.8-0.5L207.1,118.9z
	 M205.4,117.2c-0.1,0.1-0.2,0.2-0.3,0.3c-0.4,0.5-0.9,1-1.3,1.5c-0.4,0.5-0.9,0.9-1.4,1.4c-0.2,0.2-0.4,0.4-0.5,0.6
	c-0.1,0.2-0.3,0.4-0.5,0.6c-0.1,0.2-0.3,0.4-0.4,0.6c-0.1,0.2-0.3,0.4-0.4,0.5c-1.1,1.4-1.9,2.9-2.5,4.6c-0.6,1.7-0.7,3.4-0.4,5
	c0.1,0.3,0.2,0.6,0.4,0.7c0.2,0.1,0.4,0.3,0.5,0.5c0.1,0.2,0.2,0.3,0.3,0.4c0.1,0.1,0.3,0.2,0.4,0.3c0.2,0,0.3,0.1,0.4,0.3
	c0.6,0.6,1.3,1.2,2,1.6s1.5,0.7,2.5,0.8c0.8,0,1.7,0,2.7-0.2c1-0.2,1.8-0.6,2.4-1.1c1-0.9,1.9-1.7,2.7-2.5c0.8-0.8,1.5-1.9,1.9-3.2
	c0.2-0.6,0.3-1.3,0.5-2c0.1-0.7,0.3-1.4,0.4-2.2s0.1-1.4,0-2.2c-0.1-0.7-0.2-1.4-0.5-2c-0.2-0.4-0.2-0.8-0.2-1.3
	c0-0.4,0-0.8-0.1-1.3c-0.2-0.5-0.4-0.9-0.5-1.4s-0.4-0.9-0.7-1.2c-0.1-0.1-0.1-0.2-0.2-0.3c0-0.1-0.1-0.2-0.2-0.3
	c-0.1-0.1-0.2-0.3-0.3-0.4c-0.1-0.1-0.2-0.3-0.3-0.4c-0.3-0.3-0.3-0.5,0-0.7c0.2-0.2,0.4-0.4,0.6-0.6c0.2-0.2,0.4-0.4,0.6-0.6
	c0,0,0.2-0.1,0.4-0.3c0,0,0.1-0.1,0.2-0.1c0.1,0,0.1-0.1,0.1-0.1c0-0.2,0.1-0.4,0.2-0.5c0.1-0.1,0.2-0.2,0.4-0.3
	c0.3-0.3,0.6-0.6,0.8-0.9c0.3-0.3,0.4-0.5,0.6-0.6c0.1-0.1,0.2-0.2,0.3-0.3c0.1-0.1,0.2-0.2,0.3-0.3c0.2-0.2,0.3-0.4,0.4-0.6
	c0.1-0.2,0.3-0.4,0.5-0.5c0.2-0.1,0.3-0.3,0.4-0.4c0.1-0.1,0.3-0.2,0.4-0.3c0.2-0.1,0.3-0.2,0.4-0.4c0-0.2,0.1-0.4,0.2-0.5l0.2-0.2
	c0.2-0.3,0.1-0.5-0.2-0.6c-0.2,0-0.4-0.1-0.6-0.1c-0.2,0-0.3-0.1-0.5-0.2c-0.3-0.1-0.6-0.1-0.8,0.1c-0.1,0.1-0.2,0.2-0.2,0.2
	s-0.1,0.1-0.2,0.2c-0.3,0.4-0.6,0.8-0.9,1.1c-0.4,0.3-0.7,0.6-1.1,1c-0.2,0.2-0.4,0.4-0.6,0.6s-0.4,0.4-0.6,0.6
	c-0.3,0.3-0.5,0.6-0.7,0.9c-0.2,0.3-0.5,0.5-0.9,0.7c-0.2,0.2-0.3,0.3-0.4,0.4c-0.3,0.3-0.6,0.5-1,0.7c-0.1-0.1-0.3-0.2-0.4-0.4
	c-0.1-0.1-0.3-0.2-0.4-0.4c-0.2-0.2-0.4-0.4-0.6-0.7c-0.2-0.3-0.4-0.5-0.6-0.7c-0.3-0.3-0.7-0.7-1-1c-0.3-0.3-0.6-0.7-1-1
	c-0.6-0.6-1.2-1.1-1.8-1.6c-0.6-0.5-1.2-1-1.8-1.6c-0.1-0.1-0.2-0.2-0.3-0.3c-0.1-0.1-0.2-0.2-0.3-0.3c-0.3-0.3-0.5-0.7-0.8-1
	c-0.3-0.3-0.5-0.6-0.7-1c0,0,0-0.1-0.1-0.1c-0.2-0.2-0.3-0.3-0.4-0.5c-0.1-0.2-0.1-0.4-0.2-0.6c-0.1-0.6-0.1-1.2,0.1-1.7
	c0.1-0.1,0.1-0.2,0.2-0.4c0-0.1,0.1-0.2,0.1-0.4c0.1-0.3,0.2-0.6,0.4-0.9c0.2-0.2,0.4-0.5,0.6-0.7c0.2-0.1,0.4-0.2,0.6-0.3
	c0.3,0,0.7-0.1,1-0.3s0.6-0.2,0.9-0.3c0.6-0.3,0.7-0.6,0.1-1c-0.3-0.2-0.7-0.4-1-0.6c-0.3-0.2-0.7-0.3-1.1-0.4
	c-0.1,0-0.4-0.1-0.7-0.2c-0.4-0.2-0.9-0.2-1.3-0.2c-0.4,0-0.9,0.1-1.3,0.2c-0.8,0.3-1.4,0.7-1.9,1.3c-1.1,1.2-1.7,2.5-2,4
	c-0.1,0.5-0.2,0.9-0.2,1.4c0.1,1.5,0.5,2.8,1.1,4c0.5,0.8,1,1.6,1.5,2.3c0.5,0.7,1.1,1.4,1.7,2.1c0.7,0.9,1.6,1.8,2.6,2.7
	c0.6,0.5,1.1,1,1.6,1.6c0.5,0.5,1.1,1.1,1.6,1.6c0.4,0.5,0.9,1,1.3,1.5C205.6,117.1,205.5,117.1,205.4,117.2 M189.2,104.3
	c0-0.3,0.1-0.6,0.1-0.9c0.1-0.7,0.1-1.6,0.1-2.5c0-0.9-0.1-1.7-0.4-2.4c-0.1-0.2-0.2-0.4-0.2-0.5c0-0.1,0-0.3,0-0.5
	c0-0.2-0.1-0.4-0.3-0.8c-0.2-0.2-0.4-0.4-0.6-0.6c-0.2-0.2-0.4-0.4-0.6-0.6c-0.4-0.3-0.9-0.5-1.3-0.4h-1.5c-1.3-0.1-2.4,0.3-3.3,1.1
	c-0.4,0.4-0.9,0.9-1.4,1.5c-0.2,0.3-0.4,0.7-0.7,1c-0.2,0.3-0.5,0.6-0.7,1c-0.2,0.3-0.4,0.7-0.6,1c-0.2,0.3-0.4,0.6-0.6,1l-2.1,3.8
	c-0.2,0.3-0.3,0.6-0.4,0.8c-0.1,0.2-0.2,0.4-0.4,0.7c-0.1,0.3-0.2,0.5-0.3,0.7c-0.2,0.4-0.3,0.7-0.4,0.9c-0.1,0.2-0.2,0.3-0.2,0.4
	c-0.1,0.1-0.1,0.3-0.2,0.4c-0.3,0.5-0.5,0.9-0.7,1.4c-0.2,0.5-0.5,1-0.7,1.4c0,0.1-0.1,0.2-0.1,0.2c0,0.1-0.1,0.1-0.2,0.1
	c0-0.3-0.1-0.5-0.1-0.7v-0.7c0-0.6,0-1.1,0-1.7c0-0.2,0-0.4,0-0.7c0-0.2,0.1-0.5,0.1-0.7c0-0.2,0-0.4-0.1-0.6s-0.1-0.4-0.1-0.6
	c0-0.5,0-1,0-1.5c0.1-0.5,0.1-1,0.2-1.5c0.1-0.4,0.1-0.8,0.2-1.2s0.1-0.8,0.1-1.3c0.1-0.3,0.1-0.7-0.1-1c-0.1-0.3-0.2-0.6-0.3-1
	c-0.1-0.4-0.2-0.8-0.2-1.2c0-0.4,0-0.8,0-1.2c-0.1-0.6-0.4-1.1-0.9-1.3l-0.1-0.1c0-0.1-0.1-0.3-0.1-0.4c0-0.1-0.1-0.3-0.1-0.4
	c-0.1-0.1-0.3-0.2-0.4-0.3c-0.2-0.1-0.3-0.2-0.4-0.4c0-0.1,0-0.1-0.1-0.1c-0.7-0.3-1.4-0.4-2.3-0.3c-0.4,0.1-0.6,0.3-0.6,0.6
	c-0.1,0.2-0.1,0.4-0.2,0.7c0,0.2-0.1,0.5-0.1,0.7c-0.1,0.5-0.1,1-0.2,1.6c0,0.5-0.1,1.1-0.1,1.6c-0.1,0.9-0.1,1.8-0.2,2.7
	c0,0.9-0.1,1.8-0.2,2.6v0.4c0,0.2,0.1,0.4,0.1,0.5v0.5v1.6c0,0.5,0,1,0.1,1.6v1.5v1.1c0,0.4,0,0.7,0.1,1.1c0,0.1,0.1,0.3,0.1,0.6
	v1.6c0,0.5,0,1.1,0.1,1.6c0,0.1,0.1,0.2,0,0.3c0,0.1,0,0.2,0,0.3c0,0.1,0.1,0.3,0.1,0.6c0,0.3,0,0.6,0,0.9c0,0.3,0.1,0.6,0.1,0.9
	c0,0.1,0.1,0.3,0.1,0.4s0,0.3,0.1,0.4c0.2,0.4,0.4,0.6,0.6,0.6c0.3,0.1,0.7,0.2,1,0.2c0.3,0,0.6,0,1-0.2c0.2-0.1,0.4-0.2,0.6-0.3
	c0.2-0.1,0.4-0.1,0.7-0.1c0,0,0.1-0.1,0.3-0.2c0.3-0.2,0.5-0.2,0.8-0.1c0.3,0,0.4,0,0.6-0.3c0.1-0.3,0.3-0.5,0.4-0.7
	c0.1-0.2,0.2-0.5,0.3-0.7c0.1-0.2,0.1-0.3,0.1-0.4c-0.1-0.2-0.1-0.4,0-0.6c0.1-0.2,0.2-0.4,0.3-0.6c0.1-0.2,0.2-0.3,0.3-0.5
	c0.1-0.2,0.1-0.4,0.2-0.6c0.1-0.3,0.2-0.6,0.2-0.9c0.1-0.3,0.2-0.5,0.4-0.7c0,0,0.1,0,0.1-0.1c0.2-0.6,0.5-1.1,0.8-1.6
	c0.3-0.5,0.6-1.1,0.8-1.6c0.3-0.6,0.6-1.2,0.9-1.8s0.6-1.1,1-1.7c0.4-0.6,0.8-1.2,1.3-1.7c0.4-0.6,0.8-1.1,1.2-1.7
	c0.3-0.5,0.6-1,0.9-1.6s0.7-1,1.1-1.3c0.1-0.1,0.1-0.2,0.2-0.2c0-0.1,0.1-0.1,0.2-0.2c0.1-0.1,0.1-0.2,0.2-0.3
	c0-0.1,0.1-0.2,0.2-0.3c0.1-0.2,0.2-0.3,0.3-0.3c0.2-0.2,0.5-0.3,0.8-0.4v0.3c0,0.6,0,1.2-0.1,1.7c-0.1,0.5-0.2,1.1-0.3,1.7
	c-0.1,0.5-0.2,0.9-0.3,1.4c-0.1,0.5-0.2,1-0.3,1.4c-0.1,0.6-0.2,1.2-0.3,1.8c-0.1,0.6-0.2,1.3-0.3,1.8c-0.1,0.5-0.2,0.9-0.3,1.4
	c-0.1,0.5-0.2,1-0.3,1.4c-0.5,2.4-0.8,4.7-1,7.1v1.7c0,1.4,0.1,2.9,0.4,4.3c0,0.3,0.1,0.6,0.2,0.8c0.1,0.3,0.2,0.5,0.3,0.8
	c0.3,0.8,0.9,1.2,1.6,1.4c1.1,0.2,2.3,0,3.4-0.6c1.1-0.6,2-1.4,2.7-2.2c0.7-0.9,1.3-1.8,1.8-2.8c0.5-1,1-2,1.5-3
	c0.5-0.8,0.9-1.7,1.3-2.6c0.4-0.9,0.9-1.8,1.4-2.6c0.2-0.3,0.4-0.6,0.5-0.9s0.3-0.6,0.5-1c0.2-0.3,0.4-0.7,0.5-1.1
	c0.1-0.4,0.2-0.8,0.4-1.1c0.2-0.5,0.4-1,0.4-1.5v-0.3c0-0.2,0.1-0.4,0.1-0.6c0-0.2,0.1-0.4,0.2-0.6c0.1-0.1,0.1-0.3,0.2-0.4
	c0-0.1,0.1-0.3,0.2-0.4c-0.3-0.2-0.6-0.1-0.8,0.1c-0.1,0.2-0.2,0.3-0.3,0.5c-0.1,0.2-0.2,0.4-0.3,0.6c-0.1,0.2-0.2,0.4-0.3,0.6
	c-0.1,0.2-0.2,0.4-0.3,0.6c-0.1,0.2-0.3,0.4-0.4,0.6c-0.1,0.2-0.3,0.4-0.4,0.6c-0.2,0.3-0.4,0.7-0.5,1c-0.2,0.3-0.3,0.6-0.5,1
	c-0.2,0.4-0.4,0.8-0.6,1.2c-0.2,0.4-0.4,0.8-0.7,1.1c-0.5,0.7-0.9,1.4-1.3,2c-0.4,0.8-0.8,1.7-1.3,2.5c-0.4,0.8-0.9,1.6-1.3,2.5
	c-0.3,0.6-0.7,1.2-1.1,1.8c-0.4,0.6-0.8,1.2-1.1,1.8c-0.1,0.1-0.1,0.2-0.2,0.2c0,0-0.1,0.1-0.2,0.2l-0.2,0.2
	c-0.1-0.2-0.2-0.3-0.2-0.4c0-0.1,0-0.2,0-0.3c0.1-0.2,0.1-0.3,0.1-0.4c0-0.3-0.1-0.6,0-0.8c0-0.3,0.1-0.5,0.1-0.8
	c0.1-1.5,0.2-3,0.3-4.5c0.1-1.5,0.3-3,0.6-4.5c0.3-1.5,0.6-2.9,1-4.4c0.4-1.4,0.7-2.9,1.1-4.3C189.1,104.9,189.2,104.6,189.2,104.3
	 M155.4,110.5c-0.1-0.1-0.3-0.3-0.5-0.5c-0.5-0.6-0.9-1.4-1.1-2.2c-0.3-0.8-0.2-1.6,0.2-2.4c0.1-0.2,0.1-0.3,0.1-0.4
	c0.1-0.8,0.3-1.5,0.6-2.1c0.1-0.1,0.1-0.2,0.2-0.3s0.1-0.2,0.1-0.3c0-0.2,0.1-0.3,0.3-0.3c0.1,0,0.1,0,0.2,0.1c0,0,0.1,0.1,0.2,0.1
	v0.1c0.1,0.3,0.2,0.6,0.4,0.9s0.3,0.5,0.5,0.8c0.3,0.5,0.4,1,0.4,1.6c0,0.6,0.1,1.1,0.1,1.6c0,0.3,0,0.7,0,1.2
	c-0.1,0.5-0.2,0.8-0.5,1.1c0,0.1-0.1,0.2-0.1,0.4c0,0.2,0,0.4-0.1,0.5c-0.1,0.2-0.2,0.3-0.4,0.5
	C155.8,110.7,155.6,110.6,155.4,110.5 M149.8,97c-0.4,0-0.7,0-1,0.2c-0.4,0.3-0.8,0.5-1.1,0.7c-0.4,0.2-0.7,0.4-1.1,0.7
	c-0.2,0.2-0.4,0.3-0.7,0.5c-0.2,0.2-0.5,0.3-0.7,0.5c-0.2,0.3-0.4,0.5-0.6,0.8c-0.2,0.3-0.4,0.5-0.6,0.7c-0.4,0.4-0.7,0.8-0.8,1.2
	c-0.3,0.7-0.7,1.4-1,2.2c-0.3,0.7-0.6,1.5-0.9,2.2c-0.3,1.1-0.6,2.2-0.7,3.2c0,0.6-0.1,1.2,0,1.7c0,0.6,0.1,1.1,0.2,1.7
	c0,0.5,0.1,1,0.2,1.5c0.1,0.5,0.3,1,0.5,1.5c0.5,0.8,1.1,1.6,1.9,2.4c0.8,0.7,1.6,1.3,2.5,1.8c0.4,0.2,0.9,0.4,1.3,0.7
	c0.5,0.2,0.9,0.4,1.4,0.4c0.5,0,0.9-0.1,1.3-0.3c0.4-0.2,0.8-0.5,1.1-0.7c0.3-0.2,0.6-0.4,0.8-0.6c0.2-0.2,0.5-0.4,0.8-0.6
	c0.3-0.2,0.5-0.4,0.7-0.7c0.2-0.3,0.4-0.5,0.6-0.8c0.3-0.4,0.6-0.7,1-1c0.4-0.3,0.7-0.7,0.9-1.1c0.1-0.3,0.3-0.7,0.4-1
	c0.1-0.3,0.3-0.6,0.4-0.9c0.2-0.4,0.4-0.7,0.6-0.7c0.2,0,0.4-0.1,0.7-0.2c0.2-0.1,0.5-0.1,0.7,0c0.6,0.1,1.1,0.1,1.5,0
	c0.5-0.1,1-0.3,1.5-0.5c0.6-0.2,1.1-0.5,1.7-0.8c0.5-0.3,1.1-0.6,1.7-0.8c0.2-0.1,0.5-0.3,1-0.6c0.4-0.3,0.8-0.6,1.2-1
	c0.4-0.4,0.8-0.8,1.1-1.2c0.3-0.4,0.6-0.7,0.6-1c-0.1-0.2-0.4-0.4-0.8-0.5c-0.1-0.1-0.4-0.1-0.7,0c-0.1,0-0.1,0.1-0.2,0.2
	c0,0.1-0.1,0.1-0.2,0.2c-0.1,0.2-0.2,0.3-0.3,0.4c-0.9,0.9-2,1.7-3.2,2.4c-1.2,0.7-2.4,1.1-3.7,1.3c-0.2,0-0.4,0.1-0.6,0.1
	c-0.2,0-0.4,0-0.6,0c-0.1,0-0.2,0-0.2-0.1s-0.1-0.1-0.2-0.1c0.1-0.3,0.1-0.5,0.1-0.7c0-0.2,0-0.4,0.1-0.6c0-0.3,0.1-0.6,0.3-0.8
	c0.1-0.3,0.2-0.6,0.3-0.9c0-0.4,0.1-0.8,0-1.2c0-0.4-0.1-0.9-0.2-1.2c0-0.2-0.1-0.3-0.1-0.5c0-0.1-0.1-0.3-0.1-0.5
	c0-0.5-0.1-0.9-0.2-1.3c-0.1-0.4-0.3-0.8-0.5-1.2c-0.3-0.5-0.6-0.9-1.1-1.2c-0.5-0.3-1-0.5-1.4-0.8c-0.4-0.2-0.7-0.4-1.1-0.6
	c-0.3-0.2-0.7-0.2-1.2-0.1c-0.3,0.1-0.6,0.1-0.8,0.1c-0.3,0-0.5,0.2-0.7,0.4c-0.2,0.2-0.4,0.4-0.6,0.4l-0.1,0.1
	c-0.2,0.5-0.4,0.9-0.6,1.4c-0.2,0.4-0.4,0.9-0.4,1.4c-0.2,0.8-0.3,1.7-0.2,2.5c0.1,0.8,0.3,1.6,0.7,2.4c0.1,0.2,0.3,0.4,0.4,0.7
	c0.1,0.2,0.3,0.5,0.5,0.7c0.7,0.9,1.7,1.8,2.8,2.6c0.2,0.1,0.4,0.3,0.6,0.4s0.4,0.2,0.6,0.3c0,0.1-0.1,0.2-0.1,0.2s0,0.1-0.1,0.2
	c-0.3,0.3-0.4,0.7-0.6,1.1c0,0,0,0.1-0.1,0.1c-0.3,0.6-0.8,1.1-1.3,1.7c-0.1,0.1-0.2,0.3-0.4,0.4c-0.1,0.1-0.2,0.2-0.4,0.3
	c-0.2,0.2-0.5,0.4-0.7,0.5c-0.3,0.1-0.5,0.3-0.7,0.5c-0.5,0.4-1,0.7-1.5,0.8c-0.5,0.2-1,0.4-1.6,0.6c-0.3,0.1-0.7,0.1-1-0.2
	c-0.1-0.1-0.3-0.3-0.4-0.4s-0.3-0.3-0.4-0.4c-0.3-0.2-0.4-0.5-0.4-0.8c-0.1-0.5-0.1-0.9-0.2-1.3c0-0.4-0.1-0.9-0.1-1.3
	c0-0.4,0-0.8,0-1.2s0.2-0.8,0.5-1.1c0.1-0.2,0.1-0.3,0.1-0.3c0.1-0.5,0.2-0.9,0.4-1.3c0.2-0.4,0.4-0.8,0.5-1.3
	c0.1-0.5,0.2-0.9,0.4-1.4c0.1-0.4,0.2-0.9,0.4-1.4c0.2-0.7,0.4-1.4,0.6-2c0.2-0.7,0.3-1.4,0.5-2c0.1-0.3,0.2-0.6,0.3-0.9
	s0.2-0.5,0.4-0.8c0.1-0.2,0.2-0.3,0.3-0.5c0.1-0.1,0.2-0.3,0.3-0.5c0.3-0.1,0.4-0.4,0.6-0.8c0-0.1,0.1-0.2,0.3-0.4
	c0.4-0.4,0.6-0.8,0.5-1.2C151,97.3,150.4,97.1,149.8,97 M130.3,91.4c0,0.2,0,0.3,0,0.5c0,0.5,0.1,0.9,0.4,1.3
	c0.1,0.2,0.3,0.5,0.6,0.8c0.2,0.2,0.4,0.3,0.7,0.3h0.7c0,0,0.1-0.1,0.1-0.1c0.1-0.2,0.3-0.4,0.6-0.6c0.1-0.4,0.2-0.8,0.3-1.1
	c0.1-0.4,0.1-0.8,0.2-1.1c-0.4-0.6-1-0.8-1.7-0.7c-0.2,0-0.3,0-0.5,0c-0.2,0-0.3,0-0.4,0c0-0.1-0.1-0.1-0.3,0c-0.2,0-0.3,0-0.4,0.1
	c-0.1,0-0.2,0.1-0.4,0.1C130.3,91.1,130.3,91.2,130.3,91.4 M143.6,107.2c-0.1,0.2-0.2,0.4-0.3,0.5c-0.1,0.1-0.1,0.2-0.2,0.4
	c-0.2,0.5-0.4,1-0.5,1.4c-0.2,0.4-0.4,0.8-0.6,1.3c-0.2,0.4-0.3,0.7-0.5,1s-0.3,0.6-0.5,0.9c-0.1,0.3-0.3,0.6-0.4,0.9
	c-0.2,0.3-0.3,0.6-0.4,0.9c-0.4,0.7-0.8,1.3-1.3,1.9c-0.5,0.6-1,1.2-1.5,1.8c-0.1,0.2-0.2,0.3-0.3,0.4c-0.1,0.1-0.3,0.3-0.4,0.4
	c-0.2,0.2-0.4,0.3-0.6,0.5c-0.2,0.2-0.4,0.3-0.7,0.4c-0.1,0-0.3,0.1-0.6,0.1c-0.2,0-0.3,0-0.3-0.1c-0.3-0.4-0.4-0.9-0.4-1.4
	c0-0.6,0-1.2-0.1-1.8c0-0.2-0.1-0.4,0-0.6c0-0.2,0.1-0.4,0.1-0.6v-0.5c0-0.2,0-0.4-0.1-0.6c0,0,0-0.1,0-0.2c0-0.1,0-0.1,0-0.2
	c0-0.3,0.1-0.7,0.2-1c0.1-0.3,0.1-0.7,0-1.1l0.1-0.1v-0.8c0-0.5,0.1-0.9,0.1-1.2c0-0.4,0-0.7,0.1-1.1c0.1-0.3,0.1-0.6,0.1-0.9
	c0-0.3,0-0.6-0.1-0.9c0-0.1,0-0.3,0-0.4c0-0.1,0-0.3,0-0.4c0.1-0.4,0.1-0.9,0.1-1.3c0-0.6,0-1.1,0.1-1.6c0-0.5,0-1.1-0.1-1.7
	c-0.1-0.3-0.1-0.6-0.1-0.9c0-0.3,0-0.6-0.1-0.9c0-0.1,0-0.2-0.1-0.3c0-0.1-0.1-0.2-0.1-0.3c-0.1-0.2-0.2-0.4-0.3-0.5
	c-0.1-0.1-0.2-0.3-0.3-0.5c-0.1-0.2-0.3-0.4-0.6-0.5c-0.2-0.1-0.4-0.2-0.7-0.2c-0.2,0-0.5,0-0.7-0.1c-0.3,0-0.4,0.1-0.4,0.3
	c-0.1,0.4-0.3,0.8-0.4,1.2c-0.1,0.4-0.3,0.7-0.4,1.1c-0.1,0.5-0.2,0.9-0.2,1.3s-0.1,0.8-0.2,1.3c-0.1,0.5-0.1,0.9-0.2,1.3
	c0,0.4-0.1,0.9-0.2,1.3c-0.2,1.8-0.2,3.6-0.2,5.3c0,0.6,0,1.1,0,1.6c0,0.5,0,1.1,0,1.6c0,0.5,0,0.9,0,1.4c0,0.5,0,0.9,0.1,1.4
	c0.1,0.5,0.2,0.9,0.2,1.4c0.1,0.4,0.2,0.9,0.4,1.4c0.2,0.4,0.5,0.8,0.8,1.1s0.7,0.6,1.1,0.8c0.3,0.1,0.6,0.2,0.9,0.3
	c0.3,0.1,0.6,0.2,1,0.3c0.2,0.1,0.6,0.1,1,0.1c0.2-0.1,0.5-0.1,0.7-0.2c0.3,0,0.6-0.1,0.9-0.2c0.1-0.1,0.2-0.1,0.3-0.1
	c0.3-0.1,0.5-0.2,0.8-0.4c0.3-0.1,0.5-0.3,0.7-0.5c0.4-0.3,0.8-0.6,1.2-0.9c0.4-0.3,0.7-0.6,0.9-1c0.2-0.3,0.4-0.5,0.5-0.7
	c0.1-0.2,0.3-0.5,0.4-0.7l0.1-0.1c0.1-0.5,0.3-1,0.5-1.5c0.2-0.5,0.4-0.9,0.6-1.4c0-0.1,0.1-0.2,0.2-0.3c0.1-0.1,0.1-0.2,0.2-0.3
	c0-0.2,0.1-0.4,0.2-0.5s0.2-0.3,0.3-0.5c0.1-0.1,0.1-0.2,0.2-0.4c0-0.1,0.1-0.2,0.2-0.3c0.1-0.2,0.2-0.4,0.2-0.6
	c0.1-0.2,0.2-0.3,0.4-0.4c0.1-0.2,0.2-0.4,0.3-0.6c0.2-0.3,0.3-0.7,0.4-1c0.1-0.3,0.2-0.6,0.4-1c0-0.1,0.1-0.3,0.1-0.4
	c0-0.1,0.1-0.3,0.2-0.5c0-0.3-0.1-0.5-0.4-0.8C144.4,106.5,143.9,106.8,143.6,107.2 M111.7,93.9c0,0.1,0,0.3-0.1,0.4
	c0,0.3-0.1,0.7-0.1,1.1c0,0.4-0.1,0.7-0.2,1.1c-0.2,0.7-0.3,1.5-0.4,2.2c-0.1,0.8-0.2,1.5-0.3,2.2c0,0.5-0.1,0.9-0.1,1.4
	c0,0.4-0.1,0.9-0.1,1.3c-0.1,0.6-0.2,1.3-0.3,1.9c-0.1,0.7-0.1,1.3-0.2,2c0,0.3,0,0.6-0.1,0.8l-0.2,3.4c0,0.3,0,0.5,0,0.8
	c0,0.3,0,0.5,0,0.8v0.5c0,0.1,0,0.3-0.1,0.5c0,0.3,0,0.7,0,1c0,0.3,0,0.7,0,1v1.8v1c0,0.3,0,0.6,0,0.9c0,0.3,0.1,0.6,0.1,0.9
	c0,0.2,0.1,0.4,0.1,0.6c0,0.2,0.1,0.4,0.1,0.6s0.1,0.4,0.1,0.6c0,0.5,0.1,0.9,0.2,1.4c0.1,0.4,0.2,0.9,0.4,1.4
	c0.5,1.5,1.5,2.4,2.9,2.6c0.5,0.1,0.9,0.2,1.3,0.2c0.4,0,0.8,0,1.3,0c0.3,0,0.5-0.1,0.8-0.3c0,0,0.1,0,0.1-0.1s0.1-0.1,0.2-0.1
	c0.4-0.1,0.8-0.4,1.1-0.9c0.5-0.5,1-0.9,1.5-1.3c0.5-0.4,1-0.9,1.4-1.5c0.4-0.6,0.7-1.2,1-1.8s0.6-1.2,1-1.8c0.6-1.3,1.3-2.6,2-3.7
	c0.8-1.2,1.6-2.4,2.4-3.5c0.5-0.7,0.9-1.5,1.3-2.2c0.4-0.8,0.8-1.5,1.2-2.2c0.1-0.2,0.2-0.4,0.3-0.5c0.1-0.1,0.2-0.3,0.3-0.5
	c0.1-0.2,0.2-0.4,0.3-0.6c0,0,0-0.1,0.1-0.1c0,0,0.1-0.1,0.1-0.2l0.1-0.1c0.3-0.5,0.1-0.8-0.4-1c-0.3-0.1-0.5,0-0.6,0.1
	c-0.1,0.2-0.2,0.3-0.3,0.5c-0.1,0.2-0.2,0.3-0.3,0.5c-0.2,0.6-0.5,1.1-0.8,1.4c-0.1,0.2-0.3,0.4-0.4,0.6c-0.1,0.2-0.3,0.4-0.4,0.6
	c0,0-0.1,0.1-0.1,0.1c0,0,0,0.1-0.1,0.2c-0.3,0.5-0.7,1-1.1,1.5c-0.4,0.5-0.7,1-1.1,1.6c-0.2,0.3-0.4,0.5-0.6,0.8
	c-0.2,0.3-0.3,0.5-0.5,0.8c-0.2,0.3-0.4,0.7-0.7,1c-0.2,0.3-0.5,0.7-0.7,1c-0.2,0.3-0.4,0.7-0.6,1c-0.2,0.3-0.4,0.6-0.6,1
	c-0.1,0-0.2,0.2-0.3,0.4c-0.6,0.9-1.2,1.8-1.8,2.7c-0.6,0.9-1.3,1.8-1.9,2.8c-0.2,0.3-0.4,0.5-0.6,0.8c-0.2,0.3-0.4,0.5-0.6,0.8
	c-0.2,0.2-0.3,0.3-0.4,0.4c-0.1,0.1-0.2,0.2-0.4,0.3c-0.2,0.1-0.4,0.2-0.6,0.1c-0.3-0.1-0.4-0.2-0.6-0.5c-0.1-0.2-0.2-0.5-0.1-0.7
	c0-0.2,0-0.3,0-0.5c0-0.1,0-0.3,0-0.4v-0.3c0-0.1,0-0.3,0-0.4c0-0.1,0-0.3,0-0.4v-0.6c0-1.9,0.1-3.8,0.2-5.7s0.2-3.8,0.3-5.7
	c0.1-1.9,0.1-3.8,0.2-5.7c0-1.9,0-3.8-0.2-5.6c-0.1-0.3-0.1-0.6,0.1-0.9v-0.3v-0.8c0-0.5,0.1-0.9,0-1.4c0-0.4,0-0.9,0-1.3
	c0-0.2,0-0.4,0-0.7c0-0.3,0-0.5,0-0.7h0.5h0.4c0.2,0,0.4,0.1,0.6,0.1h0.6c0.2,0,0.4,0.1,0.7,0c0.2,0,0.5-0.1,0.7-0.2l0.1-0.1
	c0.3,0,0.4-0.1,0.6-0.2c0.1-0.1,0.2-0.1,0.4-0.2c0.1,0,0.2-0.1,0.3-0.1c0.2,0.1,0.4,0.2,0.4,0.2c0.1,0,0.1-0.1,0.2-0.3
	c0,0,0.1,0,0.1-0.1c0.1-0.2,0.3-0.3,0.5-0.3c0.1,0,0.2,0,0.2-0.1c0.1,0,0.1-0.1,0.2-0.1c0.1-0.1,0.2-0.1,0.3-0.2
	c0.1,0,0.2-0.1,0.3-0.1c0.1,0,0.1-0.1,0.2-0.1c0,0,0.1,0,0.2-0.1c0.2-0.1,0.3-0.2,0.5-0.3c0.1,0,0.3-0.1,0.5-0.2h0.2
	c0.2-0.1,0.4-0.2,0.7-0.4c0.3-0.1,0.5-0.2,0.7-0.3c0.2-0.1,0.3-0.1,0.3-0.2c0.2-0.1,0.3-0.3,0.5-0.4c0.2-0.1,0.3-0.3,0.5-0.5
	c-0.1-0.2-0.1-0.3,0-0.4c0.1-0.1,0.1-0.3,0.1-0.5c-0.4-0.3-0.8-0.3-1.1-0.1c-0.1,0.1-0.3,0.1-0.4,0.2c-0.2,0-0.3,0.1-0.4,0.2
	c-0.6,0.2-1.2,0.4-1.8,0.7c-0.6,0.2-1.2,0.5-1.8,0.7c-0.8,0.3-1.7,0.4-2.7,0.3c-0.1,0-0.3,0-0.4-0.1c-0.3-0.1-0.7-0.2-1.1-0.4
	c-0.4-0.1-0.8-0.2-1.1-0.4c-0.4-0.2-0.6-0.5-0.6-0.9c0-0.1,0.1-0.2,0-0.3c0-0.1,0-0.2,0-0.3v-0.3c-0.1-0.3-0.1-0.6-0.2-0.9
	s-0.1-0.6-0.1-0.9v-0.4c0-0.1,0-0.3,0.1-0.4c0.2-0.3,0.1-0.7-0.1-1.1c0-0.1-0.1-0.2-0.1-0.3c0-0.1-0.1-0.2-0.2-0.4
	c-0.2-0.3-0.6-0.4-1.1-0.4l-0.1,0.1c-0.3,0.6-0.5,1.2-0.5,1.8c-0.1,0.5-0.2,1-0.3,1.5c-0.1,0.5-0.2,1-0.3,1.5c0,0.1,0,0.2,0,0.3
	c0,0.1-0.1,0.2-0.2,0.3c-0.2,0-0.4,0-0.7-0.1c-0.7,0-1.4,0-2.1,0c-0.4,0.1-0.9,0.1-1.3-0.1c-0.1,0-0.3-0.1-0.4-0.1
	c-0.1,0-0.3,0-0.5-0.1c-0.3,0-0.6-0.1-0.9-0.1c-0.3,0-0.6,0-0.9,0c-0.4,0-0.8-0.1-1.2-0.1c-0.4,0-0.8,0-1.2,0
	c-0.4,0-0.8,0.1-1.1,0.1c-0.4,0-0.7,0.2-1.1,0.4c-0.2,0.1-0.4,0.2-0.6,0.3c-0.2,0.1-0.4,0.2-0.6,0.3c0,0,0,0.1-0.1,0.2
	c-0.2,0.1-0.1,0.2,0.1,0.3c0.1,0,0.3,0,0.4,0c0.1,0,0.3,0,0.4,0c0.2,0,0.4,0,0.5,0c0.2,0,0.4,0,0.6,0c0.3-0.1,0.6-0.1,0.9-0.1
	c0.3,0,0.6,0.1,0.9,0.2c0.2,0.1,0.4,0.2,0.5,0.2c0.2,0.1,0.4,0.1,0.5,0.2c0.8,0,1.7,0.2,2.6,0.6c0.2,0.1,0.4,0.2,0.6,0.3
	c0.2,0.1,0.4,0.1,0.7,0.2c0.3,0,0.5,0.1,0.7,0.2c0.3,0.1,0.6,0.2,0.9,0.3c0.3,0.1,0.6,0.2,1,0.3c0.1,0.1,0.3,0.2,0.4,0.2
	c0.1,0.1,0.3,0.1,0.4,0.2C111.7,93.6,111.7,93.8,111.7,93.9 M96.5,114.1c-0.1,0.6-0.1,1.2-0.2,1.8c0,0.6-0.1,1.2-0.1,1.8
	c0,0.8,0,1.5,0.1,2.3c0.1,0.7,0.3,1.5,0.8,2.1c0.1,0.3,0.3,0.5,0.6,0.7c0.4,0.4,1,0.6,1.8,0.7c0.8,0.1,1.4,0,1.9-0.1
	c1.1-0.4,2-1,2.8-1.8c0.8-0.8,1.6-1.7,2.2-2.7c0.7-1,1.2-2.1,1.8-3.2c0.5-1.1,1-2.1,1.4-3.1c0.1-0.2,0.2-0.5,0.4-1
	c0.2-0.4,0.4-0.9,0.6-1.4c0.2-0.5,0.4-1,0.6-1.4c0.2-0.4,0.4-0.8,0.5-1c0.1-0.2,0.1-0.4,0.2-0.5c0-0.2,0.1-0.4,0.1-0.6
	c0-0.3-0.1-0.4-0.4-0.4c-0.2,0-0.3,0.1-0.4,0.1c-0.1,0-0.3,0-0.4,0.1c-0.2,0-0.3,0.1-0.3,0.3s0,0.4-0.1,0.5
	c-0.5,1.1-1.1,2.3-1.8,3.8c-0.7,1.5-1.2,2.7-1.8,3.8c-0.3,0.6-0.6,1.2-1.1,1.9c-0.5,0.7-0.9,1.3-1.2,1.8c-0.2,0.2-0.5,0.6-1.1,1.1
	c-0.5,0.5-0.9,0.8-1.2,0.9c-0.5,0.2-0.8,0.2-1,0c-0.2-0.2-0.3-0.5-0.3-0.8c0-0.4,0-0.7,0-1.1c0-0.4,0.1-0.6,0.1-0.7
	c0-0.2,0-0.4,0-0.6s0.1-0.4,0.1-0.6c0.1-0.5,0.1-1,0.2-1.5c0-0.5,0.1-1,0.2-1.4c0-0.3,0.1-0.5,0.1-0.7c0-0.2,0.1-0.5,0.2-0.7
	c0.1-0.8,0.2-1.4,0.3-2c0-0.6,0.1-1.3,0.3-2c0.1-0.7,0.3-1.4,0.5-2.3c0.2-0.8,0.3-1.6,0.3-2.3c0-0.2,0-0.3,0-0.5c0-0.1,0-0.3,0-0.5
	c-0.2-0.3-0.2-0.6,0-0.9c0.2-0.3,0.2-0.6,0.1-0.9l-0.2-0.4c-0.1-0.5-0.4-0.7-1-0.6c-0.2,0-0.4,0.1-0.6,0.1c-0.2,0-0.4,0.1-0.6,0.2
	c-0.5,0-0.9,0.4-1.1,1.1c-0.1,0.4-0.2,0.8-0.4,1.2c-0.1,0.4-0.3,0.8-0.4,1.2c-0.1,0.4-0.3,0.8-0.4,1.1c-0.2,0.4-0.3,0.8-0.4,1.1
	c-0.1,0.2-0.2,0.5-0.2,0.7c0,0.3-0.1,0.5-0.2,0.8c-0.1,0.3-0.1,0.5-0.2,0.8s-0.1,0.5-0.2,0.7c-0.4,0.7-0.9,1.5-1.5,2.4
	s-1.3,1.6-2,1.9c-0.6,0.3-1.2,0.2-1.9-0.2c-0.7-0.4-1.1-0.9-1.2-1.5c-0.3-1.1-0.3-2.1-0.1-3.1c0.2-1,0.5-2,0.8-3
	c0.2-0.4,0.3-0.8,0.4-1.3c0.1-0.4,0.3-0.8,0.4-1.3c0.3-0.8,0.7-1.7,1-2.6c0.3-0.9,0.7-1.8,1.1-2.6c0.3-0.6,0.8-1,1.3-1.2
	c0.5-0.3,1.1-0.4,1.7-0.6c0.7-0.2,1.4-0.1,2.2,0.1l0.2,0.2c0.3,0.4,0.7,0.8,1,1.1s0.5,0.8,0.6,1.3c0.1,0.3,0.2,0.4,0.4,0.3
	c0.3,0,0.5-0.1,0.6-0.2c0.6-0.5,0.6-1.1,0.3-1.8c-0.1-0.2-0.2-0.4-0.4-0.6s-0.3-0.4-0.4-0.6c-0.2-0.3-0.4-0.5-0.7-0.7
	c-0.2-0.2-0.5-0.3-0.8-0.4c-0.4-0.1-0.8-0.1-1.1-0.2c-0.4,0-0.7,0-1.1,0.2c-0.1,0-0.3,0.1-0.6,0.1c-0.5,0.1-0.9,0.1-1.4,0.2
	c-0.4,0-0.9,0.1-1.4,0.3l-1.5,0.6c-0.4,0.1-0.8,0.3-1.1,0.5c-0.4,0.2-0.7,0.5-0.9,0.8c-0.3,0.5-0.7,0.9-1,1.2
	c-1.1,1.2-1.8,2.6-2.2,4.1c-0.1,0.4-0.2,0.8-0.4,1.1s-0.3,0.8-0.4,1.1l-0.6,1.9c-0.1,0.3-0.1,0.7-0.2,1c0,0.3-0.1,0.6-0.2,1
	c-0.3,1.4-0.3,2.8,0.1,4.3c0.2,0.6,0.4,1.1,0.6,1.4c0.5,0.7,1,1.1,1.7,1.3c0.6,0.2,1.3,0.3,2,0.3c0.4,0,0.8-0.1,1.1-0.2
	c0.4-0.1,0.7-0.2,1.1-0.2c0.6,0,1.1-0.2,1.6-0.5c0.4-0.3,0.9-0.6,1.2-0.9c0.1-0.1,0.2-0.2,0.3-0.2s0.2-0.1,0.3-0.2V114.1z
	 M81.8,99.3c0,0.1-0.1,0.2-0.1,0.3c-0.1,0.3-0.2,0.6-0.1,0.9c0.1,0.1,0.1,0.3-0.1,0.5c-0.3,0.4-0.5,0.8-0.7,1.2
	c-0.2,0.4-0.5,0.8-0.8,1.1c-0.3,0.5-0.8,0.9-1.5,1.3c-0.9,0.4-1.9,0.7-3,0.8c-0.1-0.2-0.1-0.4-0.1-0.5c0-0.1,0.1-0.3,0.2-0.5
	c0.1-0.3,0.1-0.5,0.2-0.8c0-0.3,0.1-0.5,0.1-0.8c0.1-0.3,0.1-0.7,0.2-1.1c0-0.4,0.1-0.7,0.3-1.1c0.1-0.2,0.2-0.4,0.2-0.6
	c0-0.4,0.1-0.8,0.3-1.2c0.1-0.4,0.3-0.7,0.4-1.1c0.2-0.6,0.7-1,1.5-1.1c0.5-0.1,0.9,0,1.2,0.1s0.7,0.4,1.1,0.8
	c0.1,0.1,0.2,0.2,0.2,0.3c0.1,0.4,0.3,0.8,0.6,1.1C81.8,99.1,81.8,99.2,81.8,99.3 M89,106.8c-0.3,0.5-0.6,0.9-0.9,1.4
	c-0.3,0.4-0.5,0.9-0.7,1.4c0,0.1-0.2,0.3-0.3,0.6c-0.4,0.6-0.8,1.3-1.2,2c-0.4,0.7-0.8,1.3-1.3,1.9c-0.1,0.1-0.2,0.2-0.2,0.3
	c-0.1,0.1-0.1,0.2-0.2,0.4c-0.3,0.6-0.6,1.1-1,1.6c-0.4,0.5-0.7,1-1.1,1.5c-0.3,0.3-0.5,0.6-0.8,0.8c-0.3,0.3-0.7,0.5-1.1,0.8
	s-0.7,0.5-1.1,0.8c-0.4,0.3-1,0.6-1.7,0.8c-0.4,0.1-0.7,0.1-0.8-0.1c-0.6-0.2-1-0.5-1.3-1c-0.5-0.7-0.8-1.5-0.9-2.5
	c-0.1-1,0-1.9,0.1-3c0.1-1,0.2-2,0.4-3.1c0.1-1,0.2-1.9,0.2-2.7c0-0.1,0-0.3,0-0.4c0-0.1,0.1-0.3,0.1-0.4c0.1-0.5,0.2-0.7,0.3-0.8
	c0.1-0.1,0.4-0.2,1-0.3c0.3-0.1,0.7-0.2,1.1-0.3c0.4-0.1,0.7-0.3,1.1-0.4c0.2-0.1,0.4-0.2,0.5-0.3c0.1-0.1,0.3-0.2,0.5-0.3
	c0.1,0,0.2-0.1,0.3-0.2c0.1-0.2,0.3-0.3,0.4-0.4c0.2-0.1,0.3-0.2,0.5-0.3c0.6-0.4,1.1-1.1,1.5-2.1c0.4-1,0.7-2,0.8-3.1
	c0.1-1.1,0-2-0.4-2.8c-0.4-0.8-1.1-1.2-2.1-1.3c-0.1,0-0.1,0-0.2,0s-0.1,0-0.2,0c-0.4-0.1-0.8-0.1-1.1-0.1c-0.3-0.1-0.7-0.1-1,0
	c-0.3,0.1-0.7,0.1-1,0.2c-0.6,0.1-1.2,0.2-1.7,0.4s-1.1,0.5-1.7,0.8c-0.2,0.1-0.3,0.2-0.4,0.3c-0.3,0.3-0.7,0.7-1,1.1
	c-0.3,0.4-0.5,0.8-0.6,1.2c0,0,0,0.1,0,0.1c0,0,0,0.1,0,0.1c-0.1,0.2-0.2,0.4-0.3,0.6c-0.1,0.2-0.3,0.4-0.5,0.6
	c0,0.1-0.1,0.2-0.1,0.3c0,0.1-0.1,0.2-0.1,0.3c-0.3,0.6-0.5,1.3-0.7,1.9c-0.2,0.6-0.4,1.3-0.6,1.9c-0.1,0.6-0.2,1.1-0.3,1.6
	c-0.1,0.5-0.2,1-0.4,1.5c0,0.1-0.1,0.2-0.1,0.4s0,0.2,0,0.4c0,0.5-0.1,1-0.1,1.6c0,0.5-0.1,1.1-0.2,1.6c-0.1,0.8-0.1,1.7-0.2,2.5
	c0,0.8,0,1.6,0,2.5c0.1,1.5,0.5,2.8,1.3,4c0.3,0.4,0.6,0.7,1,1c0.3,0.3,0.7,0.5,1.1,0.8l0.3,0.1c0.5,0.1,0.9,0.3,1.4,0.4
	c0.5,0.1,0.9,0.2,1.4,0.3c0.7,0,1.3,0,1.9-0.2c0.6-0.2,1.2-0.4,1.7-0.8c0.5-0.3,1.1-0.7,1.6-1.1c0.5-0.4,1-0.8,1.5-1.2
	c0.6-0.5,1.2-1,1.7-1.6c0.5-0.6,0.9-1.2,1.3-1.8c0.4-0.6,0.8-1.3,1.2-1.9c0.4-0.6,0.8-1.3,1.3-1.8c0.2-0.3,0.4-0.5,0.5-0.8
	c0.1-0.3,0.3-0.6,0.5-0.8c0.1-0.3,0.2-0.6,0.4-0.9c0.2-0.3,0.3-0.6,0.3-1c0-0.1,0-0.2,0.1-0.3c0.3-0.8,0.7-1.5,1.2-2.1
	c0.1-0.1,0.2-0.3,0.3-0.5c-0.2-0.2-0.3-0.4-0.4-0.4C89.4,106.3,89.1,106.5,89,106.8 M51.1,102.6c0-0.3-0.1-0.6-0.1-0.8
	c0-0.3,0.1-0.5,0.1-0.7v-0.7v-0.6c0-0.1,0-0.1,0-0.2c0,0,0-0.1,0-0.2c0-0.4,0.1-0.9,0.2-1.3c0.1-0.4,0.3-0.8,0.5-1.2
	c0.1-0.2,0.2-0.3,0.2-0.5c0-0.3,0.1-0.5,0.3-0.8c0-0.1,0.1-0.2,0.2-0.3c0.1-0.1,0.2-0.2,0.2-0.4c0-0.1,0.1-0.1,0.2-0.1h0.2
	c0.6,0.3,1,0.7,1.3,1.2c0,0.1,0.1,0.3,0.1,0.4c-0.1,0.5-0.2,0.9-0.2,1.4c-0.1,0.4-0.1,0.9-0.2,1.3c0,0.3-0.1,0.6-0.3,0.9
	c-0.1,0.3-0.2,0.5-0.4,0.7c-0.1,0.2-0.2,0.5-0.4,0.7c-0.1,0.1-0.2,0.2-0.3,0.4c-0.1,0.2-0.2,0.3-0.3,0.5c-0.1,0.2-0.3,0.4-0.5,0.7
	s-0.5,0.4-0.7,0.5C51.2,103.2,51.2,102.9,51.1,102.6 M52.6,126.3c0,0.3,0.1,0.6,0.1,0.9c0.1,0.4,0.1,0.9,0.2,1.3
	c0,0.5,0.1,0.9,0.2,1.4c0.4,1.6,1.3,2.8,2.7,3.6c0.2,0.1,0.4,0.2,0.7,0.3c0.2,0.1,0.5,0.2,0.7,0.2c0.3,0.1,0.6,0.2,1,0.2
	c0.6,0.2,1,0.1,1.4-0.3c0.1-0.1,0.1-0.1,0.2-0.1c0,0,0.1,0,0.2-0.1c0.3,0,0.5-0.1,0.7-0.3c0.4-0.1,0.7-0.3,1-0.4
	c0.1-0.1,0.2-0.1,0.3-0.2c0.1,0,0.2-0.1,0.3-0.2c0.2-0.2,0.4-0.4,0.5-0.5c0.1-0.2,0.3-0.4,0.5-0.5c0.1-0.2,0.3-0.3,0.4-0.4
	c0.1-0.1,0.3-0.3,0.4-0.5c0.1-0.1,0.1-0.2,0.2-0.3s0.1-0.2,0.1-0.3c0.1-0.1,0.1-0.2,0.2-0.4c0-0.1,0.1-0.2,0.1-0.4
	c0.2-0.4,0.4-0.8,0.6-1.2c0.2-0.4,0.4-0.8,0.6-1.2c0.3-0.3,0.4-0.6,0.4-0.9c0.1-0.3,0.2-0.6,0.4-0.9c0.1-0.3,0.2-0.6,0.4-1
	c0.2-0.5,0.5-1.2,0.8-2.1c0.3-0.9,0.7-1.8,1-2.7c0.3-0.9,0.6-1.7,0.9-2.4s0.4-1.2,0.4-1.4c0.2-0.6,0.4-1.2,0.6-1.8
	c0.2-0.6,0.5-1.2,0.7-1.8c0.2-0.3,0.3-0.6,0.4-1c0.1-0.3,0.2-0.6,0.3-0.9c0.1-0.3,0.1-0.6,0.1-0.9c0-0.1,0-0.2,0.1-0.3
	c0.1-0.1,0.1-0.2,0.1-0.4v-0.4c0-0.2,0-0.4,0-0.5c0-0.2,0-0.4,0.1-0.6l-0.1-0.1c-0.1-0.1-0.2-0.2-0.4-0.2c-0.2,0-0.4,0-0.4,0.2
	c-0.3,0.4-0.6,0.8-0.8,1.4c-0.2,0.5-0.4,1-0.6,1.5c-0.2,0.5-0.4,1.1-0.6,1.7c-0.1,0.2-0.1,0.4-0.2,0.6s-0.1,0.4-0.2,0.6
	c0,0.2-0.1,0.4-0.2,0.6c-0.1,0.2-0.1,0.4-0.2,0.6c-0.1,0.3-0.2,0.7-0.2,1.1c-0.1,0.4-0.1,0.7-0.2,1.1c-0.2,0.5-0.3,0.9-0.5,1.3
	s-0.3,0.9-0.4,1.3c-0.1,0.3-0.2,0.5-0.3,0.7c-0.1,0.2-0.2,0.4-0.3,0.7c-0.1,0.4-0.2,0.7-0.4,1c-0.2,0.3-0.3,0.6-0.4,0.9
	c-0.2,0.5-0.4,0.9-0.6,1.4c-0.2,0.4-0.3,0.9-0.5,1.4c0,0.1-0.1,0.2-0.1,0.2c0,0.1,0,0.1-0.1,0.2c-0.2,0.5-0.4,1-0.7,1.5
	c-0.2,0.5-0.5,1-0.7,1.5c-0.1,0.2-0.1,0.3-0.1,0.4c-0.2,0.3-0.4,0.6-0.6,0.9c-0.2,0.3-0.3,0.6-0.5,0.9c-0.1,0.2-0.2,0.4-0.3,0.4
	c-0.2,0.2-0.3,0.3-0.4,0.5c-0.1,0.1-0.3,0.3-0.5,0.4c-0.5,0.2-0.9,0.1-1.3-0.3c-0.4-0.4-0.7-0.8-0.9-1.2c-0.2-0.4-0.3-0.8-0.4-1.1
	c0-0.4-0.1-0.8-0.2-1.2c-0.1-0.3-0.2-0.5-0.2-0.7c-0.1-0.2-0.1-0.5-0.2-0.8c0-0.3,0-0.5,0-0.8s0-0.5,0-0.8c0-0.6,0.1-1.1,0.1-1.7
	c0-0.6,0.1-1.1,0.3-1.7c0.1-0.5,0.2-0.9,0.3-1.4c0.1-0.5,0.2-1,0.3-1.5c0.1-0.2,0.1-0.4,0.2-0.7c0-0.2,0.1-0.5,0.1-0.7
	c0.1-0.2,0.2-0.4,0.3-0.6c0.1-0.2,0.2-0.4,0.2-0.6c0-0.3,0.1-0.6,0.2-0.8c0.1-0.3,0.2-0.5,0.1-0.8v-0.1c0.1-0.3,0.1-0.7,0.1-1
	s0-0.6-0.1-0.9c0-0.1,0-0.1-0.1-0.2s0-0.1,0.1-0.1c0-0.2,0-0.4-0.1-0.6c-0.1-0.2-0.2-0.4-0.4-0.6c-0.1-0.3-0.3-0.5-0.5-0.6
	c-0.2-0.2-0.4-0.3-0.6-0.5c-0.7-0.5-1.4-0.9-2-1.1c-0.4-0.2-0.8-0.4-1.1-0.5c-0.4-0.1-0.8-0.3-1.2-0.5c-0.6-0.3-1-0.6-1.4-1.1
	c-0.4-0.4-0.7-0.9-1.1-1.4c-0.1-0.2-0.1-0.3,0.1-0.5l0.4-0.4c0.7-0.5,1.3-1.2,1.8-2c0.2-0.2,0.3-0.4,0.4-0.6
	c0.1-0.2,0.2-0.4,0.3-0.6c0.1-0.2,0.2-0.4,0.3-0.6c0.1-0.2,0.2-0.4,0.3-0.6c0.2-0.4,0.3-0.7,0.3-0.9c0-0.1,0-0.2,0-0.4
	c0-0.1,0.1-0.2,0.1-0.4c0-0.1,0.1-0.3,0.1-0.4c0-0.1,0-0.3,0-0.4c0-0.2-0.1-0.4-0.1-0.7c0-0.2,0-0.5-0.1-0.8
	c-0.1-0.3-0.3-0.5-0.6-0.7c-0.1-0.1-0.2-0.2-0.3-0.3c-0.1-0.1-0.2-0.2-0.3-0.3c-0.3-0.3-0.6-0.4-0.8-0.4c-0.3-0.1-0.6-0.2-0.9-0.2
	c-0.3-0.1-0.6-0.1-0.9-0.2c-0.3-0.1-0.7-0.1-1.1-0.1c-0.4,0-0.7,0-1.1,0.1c-0.3,0.1-0.6,0.3-0.9,0.6c0,0.1-0.2,0.3-0.4,0.5
	c-0.2,0.2-0.3,0.4-0.5,0.6c-0.2,0.2-0.3,0.4-0.4,0.6c0,0.2-0.1,0.4-0.3,0.8c-0.1,0.1-0.1,0.3-0.2,0.4s-0.1,0.3-0.2,0.4
	c-0.2,0.3-0.3,0.7-0.5,1.1c-0.1,0.4-0.3,0.7-0.4,1.1c-0.3,1.3-0.3,2.6-0.2,3.8c0,0.2,0.1,0.4,0.1,0.5c0,0.2,0.1,0.4,0.1,0.6
	c0.2,0.8,0.6,1.5,1.1,2.1c0.5,0.6,1.1,1.1,1.7,1.6c0.4,0.3,0.8,0.6,1.2,0.9c0.4,0.2,0.8,0.5,1.2,0.8c0.4,0.2,0.8,0.4,1.2,0.6
	c0.4,0.2,0.8,0.4,1.2,0.6c0.8,0.4,1.2,1.1,1.1,1.9c0,0.1,0,0.3-0.1,0.4c-0.1,0.3-0.2,0.7-0.2,1c-0.1,0.3-0.2,0.7-0.3,1.1
	c-0.2,0.6-0.4,1.2-0.5,1.8c-0.2,0.6-0.3,1.3-0.4,1.9c0,0.2,0,0.3,0,0.5s-0.1,0.3-0.1,0.5c-0.1,0.5-0.1,1-0.2,1.5
	c0,0.5-0.1,1-0.2,1.5c-0.1,0.4-0.1,0.8-0.1,1.2s0,0.8-0.1,1.2C52.5,125.7,52.5,126,52.6,126.3 M41.3,92.9c0.1-0.1,0.1-0.2,0.2-0.3
	c0-0.1,0.1-0.2,0.2-0.3c0.4-0.6,0.6-1.2,0.8-1.8c0.1-0.6,0.3-1.2,0.4-1.9c0.1-0.3,0.1-0.6,0.2-0.9c0-0.3,0.1-0.6,0.1-0.9
	c0-0.3,0-0.7,0-1c0-0.3-0.1-0.6-0.1-1c0-0.3-0.1-0.6-0.1-0.9s-0.1-0.6-0.2-1c-0.2-0.7-0.5-1.3-1-1.8c-0.4-0.5-1.1-0.8-1.9-0.9
	c-1.2-0.2-2.4-0.1-3.7,0.1c-1.3,0.3-2.5,0.6-3.6,0.9c-2.3,0.6-4.4,1.7-6.1,3.3c-2,1.8-3.5,3.9-4.6,6.2c-1.1,2.3-2.1,4.6-2.9,7.1
	c-0.5,1.3-0.9,2.6-1.2,3.9c-0.3,1.3-0.6,2.6-1,4c-0.4,1.7-0.8,3.5-1.2,5.2c-0.4,1.7-0.7,3.5-0.9,5.2c-0.2,1.8-0.3,3.5-0.4,5.3
	c0,1.7,0.1,3.5,0.4,5.3c0.2,1.1,0.5,2.2,1,3.2c0.4,1,1.2,1.9,2.1,2.6c0.8,0.7,1.7,1.1,2.6,1.3c1.8,0.3,3.6,0.1,5.4-0.6
	c3.5-1.4,6.8-3.4,9.8-5.9c3-2.5,5.7-5.2,8.2-8c1-1.2,1.9-2.6,2.7-4c0.8-1.4,1.6-2.8,2.5-4.1c0.2-0.3,0.4-0.6,0.6-0.9
	c0.2-0.3,0.4-0.6,0.5-0.9c0.2-0.3,0.3-0.6,0.5-0.9c0.2-0.3,0.2-0.6,0.1-1c0-0.1,0-0.2,0-0.2s0.1-0.1,0.2-0.2c0-0.2,0-0.4,0.1-0.6
	c-0.4,0.1-0.8,0.2-1.2,0.3c-0.4,0.1-0.7,0.2-1.1,0.4c-0.2,0.1-0.3,0.3-0.4,0.5c-0.6,1-1.2,2-1.8,2.9c-0.6,1-1.2,2-1.8,2.9
	c-0.6,1.1-1.3,2.1-2,3c-0.7,0.9-1.5,1.8-2.4,2.6c-0.9,1-1.8,1.9-2.6,2.9c-0.9,0.9-1.8,1.8-2.8,2.7c-0.7,0.6-1.3,1.1-2,1.7
	c-0.6,0.6-1.4,1-2.2,1.4c-1.8,0.8-3.7,1-5.8,0.7c-0.8-0.2-1.4-0.6-1.9-1.1c-0.4-0.6-0.7-1.3-0.7-2.1c0-1,0-1.9-0.1-2.9
	s-0.1-1.9,0-2.9c0.1-0.7,0.2-1.4,0.3-2.1s0.2-1.4,0.3-2.1c0.3-1.9,0.7-3.7,1.2-5.4c0.5-1.7,1-3.5,1.5-5.3c0.2-0.8,0.5-1.7,0.8-2.5
	c0.3-0.8,0.6-1.6,1-2.5c0.4-0.8,0.7-1.7,1.1-2.6c0.3-0.9,0.7-1.7,1-2.6c0.5-1.2,1-2.3,1.6-3.5c0.6-1.1,1.2-2.2,1.8-3.3
	c0.3-0.6,0.6-1.1,0.9-1.6c0.3-0.5,0.7-1,1.1-1.4c0.3-0.3,0.7-0.5,1.2-0.8c0.5-0.3,1-0.5,1.5-0.5s1,0,1.4,0.1
	c0.4,0.2,0.7,0.6,0.8,1.1c0.1,0.6,0.2,1.1,0.3,1.7c0.1,0.6,0.1,1.1,0,1.7c-0.1,0.8-0.3,1.7-0.4,2.6c-0.2,0.8-0.4,1.6-0.8,2.4
	l0.4,0.9c0.1,0.2,0.2,0.3,0.3,0.4c0.2,0.1,0.4,0.2,0.6,0.2c0.2,0,0.3,0.1,0.4,0.1C40.6,93.8,41,93.3,41.3,92.9"/>
<rect x="14.2" y="16.7" class="st2" width="213.2" height="120.3"/>
</svg>
