<?xml version="1.0" encoding="utf-8"?>
<!-- Generator: Adobe Illustrator 21.0.0, SVG Export Plug-In . SVG Version: 6.00 Build 0)  -->
<svg version="1.1" id="Layer_1" xmlns="http://www.w3.org/2000/svg" xmlns:xlink="http://www.w3.org/1999/xlink" x="0px" y="0px"
	 viewBox="0 0 450 81" style="enable-background:new 0 0 450 81;" xml:space="preserve">
<style type="text/css">
	.st0{fill:#C7D8F0;}
	.st1{fill:#FFFFFF;}
	.st2{fill:none;}
</style>
<g>
	<path class="st0" d="M207.3,44c0,0.5,0,1,0,1.4c0,0.5-0.1,0.9-0.1,1.4c0,0.1,0,0.1,0,0.1s0,0,0,0.1c-0.1,0.3-0.1,0.6-0.2,0.8
		c-0.1,0.2-0.1,0.5-0.1,0.8c0,0.1,0,0.1-0.1,0.2c0,0.1-0.1,0.1-0.1,0.2c-0.1-0.1-0.1-0.3-0.1-0.4s0-0.3,0-0.4c0-0.2,0-0.4,0-0.7
		c0-0.2,0-0.4,0-0.7v-0.6c0-0.2,0-0.4,0.1-0.7v-0.6v-0.8c0-0.2,0.1-0.4,0.1-0.5s0-0.3,0.1-0.5c0,0,0-0.2,0.1-0.4
		C207.1,43.2,207.3,43.6,207.3,44 M217,48.1c-0.1,0.1-0.3,0.2-0.4,0.5c-0.1,0.3-0.3,0.6-0.4,0.8c-0.1,0.3-0.3,0.5-0.5,0.8
		c-0.4,0.5-0.8,1.1-1.3,1.6c-0.5,0.6-1.1,1.1-1.6,1.5c-0.6,0.4-1.2,0.7-1.9,0.9s-1.4,0.1-2.1-0.2c-0.5-0.1-0.9-0.5-1.2-1
		c-0.1-0.1-0.1-0.2-0.1-0.2c0-0.1,0-0.2-0.1-0.3c-0.2-0.3-0.2-0.7-0.1-1c0.1-0.3,0.2-0.6,0.2-0.9s0.1-0.6,0.2-0.9
		c0.1-0.3,0.1-0.5,0.2-0.8c0-0.2,0.1-0.5,0.2-0.8c0.1-0.2,0.1-0.4,0.2-0.6c0-0.2,0.1-0.4,0.1-0.6c0.1-0.3,0.1-0.6,0.1-0.8
		c0-0.3,0-0.5,0.1-0.8c0.1-0.4,0.1-0.7-0.1-0.9c-0.2-0.6-0.2-1.1-0.1-1.6c0.1-0.3,0-0.6-0.1-0.9s-0.3-0.5-0.5-0.8
		c-0.1,0-0.3-0.1-0.3-0.2c-0.1-0.1-0.2-0.2-0.3-0.3c-0.1-0.2-0.4-0.3-0.6-0.2h-1.1c-0.7-0.1-1.3,0-1.8,0.3c-0.1,0.3-0.3,0.7-0.4,1
		c-0.1,0.3-0.2,0.6-0.3,1c-0.1,0.5-0.3,0.9-0.3,1.4c-0.1,0.4-0.1,0.9-0.1,1.5c0,0.2,0,0.4,0,0.7c0,0.2,0,0.4-0.1,0.6v0.2
		c0.1,0.4,0.1,0.7,0.2,1.1c0,0.4,0.1,0.7,0.2,1.1c0.1,0.9,0.5,1.9,0.9,2.8c0.3,0.6,0.7,1.1,1.1,1.6c0.1,0,0.1,0.1,0.2,0.3
		c-0.1,0.2-0.2,0.5-0.3,0.7s-0.2,0.5-0.3,0.6c-0.3,0.5-0.5,0.9-0.7,1.4c-0.2,0.4-0.5,0.9-0.8,1.3c-0.3,0.5-0.6,0.9-0.9,1.4
		s-0.6,0.9-1,1.3c-0.3,0.3-0.5,0.7-0.8,1s-0.5,0.6-0.8,0.9c-0.1,0.1-0.2,0.2-0.3,0.2c0,0-0.1,0.1-0.2,0.1c-0.1,0-0.3-0.1-0.4-0.1
		c-0.1,0-0.3-0.1-0.4-0.2c-0.2-0.1-0.4-0.3-0.6-0.5c-0.2-0.2-0.3-0.4-0.4-0.7c0-0.1-0.1-0.3-0.1-0.4c0-0.1-0.1-0.2-0.2-0.4
		c-0.1-0.2-0.2-0.5-0.1-0.8c0.1-1.1,0.2-2.1,0.1-3.2c0-1.1,0-2.1,0-3.2s-0.1-2.1-0.1-3.2c-0.1-1-0.2-2.1-0.4-3.1
		c-0.1-0.3-0.1-0.6-0.1-0.8c0-0.3-0.1-0.5-0.1-0.8c-0.1-0.2-0.1-0.4-0.1-0.6v-0.6c0-0.1,0-0.3,0-0.4s0-0.2-0.1-0.4
		c-0.1-0.4-0.4-0.6-0.8-0.5c-0.4,0.1-0.8,0.2-1.2,0.3c-0.3,0.1-0.5,0.3-0.6,0.6c-0.1,0.3-0.2,0.5-0.3,0.8c-0.1,0.2-0.2,0.5-0.3,0.7
		c-0.1,0.4-0.3,0.8-0.4,1.1c-0.1,0.4-0.2,0.7-0.4,1.1c0,0.1,0,0.1,0,0.1v0.1c-0.1,0.5-0.2,1-0.3,1.5s-0.2,1-0.2,1.5
		c-0.1,0.4-0.2,0.8-0.3,1.2c-0.1,0.4-0.3,0.8-0.5,1.1c-0.1,0.1-0.1,0.2-0.2,0.3c0,0.1-0.1,0.2-0.2,0.3c-0.1,0.2-0.2,0.3-0.3,0.5
		c-0.1,0.1-0.2,0.3-0.2,0.4c-0.1,0.1-0.1,0.2-0.2,0.3c-0.1,0.1-0.1,0.2-0.2,0.3c-0.3,0.4-0.5,0.8-0.7,1.2s-0.4,0.8-0.7,1.2
		c-0.2,0.4-0.5,0.7-0.9,1.1c-0.2,0.2-0.4,0.1-0.5-0.1c0-0.1-0.1-0.2-0.1-0.4s0-0.3,0-0.5c0-0.1,0-0.3-0.1-0.4
		c-0.1-0.7,0-1.4,0.1-2.1s0.3-1.5,0.4-2.1c0.1-0.5,0.1-1.1,0.1-1.6c0-0.6,0-1.1,0.1-1.7c0.1-0.3,0.1-0.6,0.2-0.9
		c0-0.3,0.1-0.6,0.1-0.9c0-0.1,0-0.2,0-0.3c0-0.1,0-0.2,0-0.3c0-0.2,0.1-0.4,0.1-0.5s0-0.3,0-0.5s0-0.4,0-0.6s0-0.4,0.1-0.6
		c0-0.1,0-0.2-0.1-0.4c0-0.2-0.1-0.4-0.1-0.7c0-0.2,0-0.5,0.1-0.7c0-0.1,0-0.2,0-0.4c0-0.1-0.1-0.3-0.1-0.4s-0.1-0.2-0.1-0.3
		c0-0.1-0.1-0.2-0.1-0.3c-0.1-0.2-0.1-0.4-0.2-0.6c-0.1-0.2-0.1-0.4-0.2-0.6c-0.1-0.3-0.2-0.6-0.4-0.9c-0.2-0.2-0.4-0.5-0.6-0.7
		c-0.1-0.1-0.2-0.2-0.3-0.2c-0.2-0.1-0.4-0.1-0.6-0.1c-0.2,0-0.4,0-0.6-0.1c-0.3,0-0.5,0.1-0.6,0.4c-0.1,0.2-0.1,0.4-0.2,0.7
		c-0.1,0.2-0.1,0.4-0.2,0.7c-0.2,1-0.4,2-0.6,3c-0.2,1-0.4,2-0.6,3c-0.1,0.4-0.1,0.7-0.2,1.1c-0.1,0.4-0.1,0.7-0.1,1.1
		c0,0.1,0,0.1,0,0.1V49c-0.1,0.3-0.1,0.6-0.1,0.9s0,0.6,0,0.9s0,0.6-0.1,0.8c0,0.3-0.1,0.5-0.1,0.8v0.8c0,0.1,0,0.3,0,0.4
		s0,0.2,0,0.4v0.3c0.1,1.2,0.2,2.3,0.5,3.3s0.9,1.9,2,2.7c0.1,0.1,0.2,0.1,0.3,0.2c0.1,0.1,0.2,0.1,0.3,0.2c0.4,0.4,1,0.5,1.7,0.5
		c0.7-0.1,1.3-0.2,1.8-0.4c1.1-0.3,1.9-1.1,2.3-2.2c0.1-0.3,0.3-0.5,0.4-0.8c0.1-0.1,0.2-0.2,0.3-0.1c0,0.1,0.1,0.2,0.1,0.3
		s0,0.2,0.1,0.2c0,0.5,0.1,1,0.2,1.5c0.1,0.5,0.2,1,0.4,1.5c0.4,0.9,1,1.6,1.8,2.1c0.4,0.3,0.8,0.5,1.3,0.6c0.5,0.2,0.9,0.3,1.3,0.5
		c0.1,0.1,0.3,0.1,0.4,0.1c0.1,0,0.3,0,0.4,0.1c0.2,0,0.4,0,0.6,0c0.2,0,0.4,0,0.5,0c0.4-0.1,0.8-0.1,1.1-0.1c0.4,0,0.8,0,1.1-0.2
		c0.4-0.2,0.7-0.4,1-0.7c0.1-0.1,0.2-0.3,0.4-0.4c0.1-0.1,0.3-0.3,0.4-0.4c0.4-0.4,0.7-0.9,0.9-1.4s0.4-1,0.7-1.5
		c0.5-0.8,0.9-1.7,1.3-2.7c0.1-0.2,0.2-0.4,0.2-0.5c0.1-0.1,0.2-0.3,0.3-0.5s0.2-0.4,0.3-0.6s0.2-0.4,0.3-0.6
		c0.1-0.1,0.1-0.3,0.2-0.4c0-0.1,0.1-0.2,0.2-0.3h0.1c0.8,0.4,1.7,0.8,2.7,0.9c0.5,0.1,0.9,0.1,1.3-0.1c0.2-0.1,0.4-0.1,0.5-0.1
		s0.3-0.1,0.5-0.1c0.1,0,0.1,0,0.2,0s0.1,0,0.2,0c0.5-0.2,1-0.4,1.4-0.6s0.8-0.5,1.2-0.9c0.3-0.3,0.6-0.5,0.9-0.7
		c0.3-0.2,0.5-0.5,0.8-0.8s0.4-0.6,0.6-0.9c0.1-0.3,0.2-0.6,0.3-0.9c0-0.1,0.1-0.1,0.1-0.2s0-0.1,0.1-0.2c0-0.1,0.1-0.1,0.1-0.2
		s0-0.1,0.1-0.2c0.4-0.5,0.6-1,0.6-1.7C217.4,48.1,217.2,48.1,217,48.1 M170.7,51.7c-0.1-0.1-0.3-0.3-0.4-0.4c-0.4-0.6-0.8-1.2-1-2
		c-0.2-0.7-0.2-1.4,0.2-2.1c0.1-0.1,0.1-0.3,0.1-0.3c0.1-0.7,0.3-1.3,0.6-1.8c0.1-0.1,0.1-0.2,0.1-0.3c0-0.1,0-0.2,0.1-0.3
		c0-0.1,0.1-0.2,0.3-0.2c0.1,0,0.1,0,0.1,0.1l0.1,0.1v0.1c0.1,0.3,0.2,0.6,0.3,0.8c0.1,0.2,0.3,0.4,0.4,0.7c0.2,0.4,0.3,0.9,0.4,1.4
		s0,1,0.1,1.4c0,0.3,0,0.7,0,1.1s-0.2,0.7-0.4,1c0,0.1-0.1,0.2-0.1,0.3c0,0.2,0,0.3-0.1,0.5s-0.2,0.3-0.3,0.4
		C171,51.9,170.8,51.8,170.7,51.7 M165.8,39.9c-0.3,0-0.6,0-0.8,0.2c-0.3,0.2-0.7,0.4-1,0.6s-0.6,0.4-0.9,0.6
		c-0.2,0.1-0.4,0.3-0.6,0.4s-0.4,0.3-0.6,0.5c-0.2,0.2-0.4,0.4-0.5,0.7c-0.2,0.2-0.3,0.4-0.5,0.6c-0.3,0.3-0.6,0.7-0.7,1.1
		c-0.3,0.6-0.6,1.3-0.9,1.9c-0.3,0.6-0.5,1.3-0.8,2c-0.3,1-0.5,1.9-0.6,2.8c0,0.5,0,1,0,1.5s0.1,1,0.1,1.5c0,0.4,0.1,0.9,0.2,1.3
		c0.1,0.4,0.2,0.9,0.4,1.3c0.4,0.7,1,1.4,1.7,2.1c0.7,0.6,1.4,1.2,2.2,1.6c0.4,0.2,0.8,0.4,1.2,0.6c0.4,0.2,0.8,0.3,1.2,0.4
		s0.8,0,1.1-0.2s0.7-0.4,1-0.6c0.3-0.2,0.5-0.4,0.7-0.6c0.2-0.2,0.4-0.4,0.7-0.6c0.2-0.1,0.4-0.3,0.6-0.6c0.2-0.2,0.4-0.5,0.6-0.7
		c0.2-0.3,0.5-0.6,0.8-0.9s0.6-0.6,0.8-1c0.1-0.3,0.2-0.6,0.3-0.8c0.1-0.3,0.2-0.5,0.4-0.8c0.1-0.4,0.3-0.6,0.6-0.6
		c0.2,0,0.4-0.1,0.6-0.1s0.4,0,0.6,0c0.5,0.1,0.9,0.1,1.3,0c0.4-0.1,0.8-0.2,1.3-0.4c0.5-0.2,1-0.4,1.5-0.7c0.4-0.3,0.9-0.5,1.5-0.7
		c0.2-0.1,0.5-0.2,0.8-0.5c0.4-0.3,0.7-0.6,1.1-0.9c0.4-0.3,0.7-0.7,1-1s0.5-0.6,0.6-0.9c-0.1-0.2-0.3-0.3-0.7-0.4
		c-0.1-0.1-0.3-0.1-0.6,0c-0.1,0-0.1,0.1-0.1,0.1c0,0.1-0.1,0.1-0.1,0.2c-0.1,0.1-0.2,0.3-0.3,0.4c-0.8,0.8-1.7,1.5-2.8,2.1
		c-1,0.6-2.1,1-3.2,1.2c-0.2,0-0.4,0.1-0.6,0.1c-0.2,0-0.4,0-0.6,0c-0.1,0-0.1,0-0.2-0.1c-0.1,0-0.1-0.1-0.2-0.1
		c0.1-0.2,0.1-0.4,0.1-0.6s0-0.4,0.1-0.6c0-0.3,0.1-0.5,0.2-0.7c0.1-0.2,0.2-0.5,0.3-0.8c0-0.3,0-0.7,0-1.1s-0.1-0.8-0.1-1.1
		c0-0.1-0.1-0.3-0.1-0.4s0-0.3-0.1-0.5c0-0.4-0.1-0.8-0.2-1.1c-0.1-0.3-0.3-0.7-0.4-1.1c-0.2-0.4-0.5-0.8-1-1
		c-0.4-0.2-0.8-0.5-1.3-0.7c-0.3-0.2-0.7-0.4-0.9-0.5c-0.3-0.1-0.7-0.2-1.1-0.1c-0.3,0.1-0.5,0.1-0.7,0.1c-0.3,0-0.5,0.1-0.6,0.3
		c-0.1,0.2-0.3,0.3-0.6,0.4l-0.1,0.1c-0.2,0.4-0.4,0.8-0.6,1.2c-0.2,0.4-0.3,0.8-0.4,1.3c-0.2,0.7-0.3,1.5-0.2,2.2s0.3,1.4,0.6,2.1
		c0.1,0.2,0.2,0.4,0.4,0.6c0.1,0.2,0.3,0.4,0.4,0.6c0.6,0.8,1.5,1.6,2.5,2.2c0.2,0.1,0.4,0.2,0.5,0.3c0.1,0.1,0.3,0.2,0.5,0.3
		c0,0.1-0.1,0.1-0.1,0.2s0,0.1-0.1,0.2c-0.2,0.3-0.4,0.6-0.5,0.9c0,0,0,0.1-0.1,0.1c-0.3,0.5-0.7,1-1.2,1.5
		c-0.1,0.1-0.2,0.2-0.3,0.3s-0.2,0.2-0.4,0.3c-0.2,0.2-0.4,0.3-0.6,0.5c-0.2,0.1-0.5,0.3-0.6,0.4c-0.4,0.3-0.8,0.6-1.3,0.7
		c-0.4,0.1-0.9,0.3-1.4,0.5c-0.3,0.1-0.6,0.1-0.8-0.2c-0.1-0.1-0.2-0.2-0.4-0.3c-0.1-0.1-0.2-0.2-0.4-0.3c-0.3-0.2-0.4-0.4-0.4-0.7
		c-0.1-0.4-0.1-0.8-0.1-1.2c0-0.4,0-0.8-0.1-1.2c0-0.4,0-0.7,0-1.1c0.1-0.4,0.2-0.7,0.4-1c0.1-0.1,0.1-0.2,0.1-0.3
		c0.1-0.4,0.2-0.8,0.4-1.1c0.2-0.4,0.3-0.7,0.4-1.1s0.2-0.8,0.3-1.2s0.2-0.8,0.4-1.2c0.2-0.6,0.4-1.2,0.5-1.8
		c0.1-0.6,0.3-1.2,0.4-1.8c0.1-0.3,0.2-0.6,0.2-0.8c0.1-0.2,0.2-0.5,0.3-0.7c0.1-0.1,0.2-0.3,0.3-0.4s0.2-0.3,0.3-0.5
		c0.2-0.1,0.4-0.3,0.5-0.7c0-0.1,0.1-0.2,0.3-0.3c0.3-0.3,0.5-0.7,0.4-1.1C166.8,40.1,166.3,39.9,165.8,39.9 M147.8,45.6
		c0-0.3,0.1-0.7,0.2-0.9c0.1-0.3,0.2-0.6,0.3-0.9s0.2-0.6,0.3-0.9c0.1-0.4,0.1-0.7,0.2-1.1c0.1-0.4,0.1-0.7,0.2-1.1
		c0.1-0.9,0.2-1.7,0.3-2.6s0.2-1.7,0.4-2.6s0.4-1.7,0.6-2.5c0.2-0.8,0.5-1.7,0.8-2.5c0.4-1.3,0.8-2.6,1.3-3.9c0.4-1.3,1-2.5,1.8-3.7
		c0.2-0.4,0.5-0.8,0.7-1.2c0.2-0.4,0.5-0.8,0.8-1.2c0.1-0.1,0.2-0.3,0.4-0.5c0.3-0.4,0.7-0.4,1.1-0.2c0.1,0.1,0.2,0.1,0.4,0.2
		c0.1,0,0.3,0.1,0.4,0.2s0.2,0.2,0.3,0.3c0.1,0.1,0.2,0.3,0.2,0.4c0,0.2,0.1,0.4,0.2,0.5c0.3,0.3,0.5,0.6,0.6,1.1
		c0.1,0.3,0.1,0.5,0.2,0.8c0.1,0.3,0.1,0.5,0.2,0.8c0.1,0.4,0.1,0.8,0.1,1.3c0,0.4-0.1,0.9-0.1,1.3c-0.1,0.3-0.1,0.7-0.2,1
		c0,0.4-0.1,0.7-0.2,1c-0.1,0.6-0.4,1.2-0.6,1.9c-0.2,0.6-0.4,1.3-0.6,1.9s-0.4,1.2-0.7,1.8c-0.2,0.5-0.5,1-0.7,1.5s-0.5,1-0.8,1.5
		c-0.4,0.9-0.9,1.7-1.4,2.5s-1.1,1.5-1.6,2.3c-1.1,1.4-2.4,2.7-3.9,3.8c-0.2,0.1-0.4,0.3-0.6,0.4c-0.2,0.1-0.4,0.2-0.6,0.4
		c0,0-0.1-0.1-0.2-0.1C147.7,46.3,147.8,45.9,147.8,45.6 M160.3,47.8c-0.2,0.2-0.4,0.3-0.6,0.5c-0.2,0.1-0.4,0.3-0.5,0.6
		c-0.1,0.2-0.2,0.4-0.3,0.7c-0.1,0.2-0.2,0.4-0.2,0.6c-1,2-1.9,4-2.9,6c-1,2-2,4-3,5.9c-0.3,0.5-0.5,0.9-0.7,1.4
		c-0.2,0.4-0.5,0.9-0.8,1.3c-0.1,0.2-0.3,0.4-0.5,0.6c-0.2,0.2-0.4,0.3-0.6,0.5c-0.1,0.1-0.2,0.1-0.3,0.1s-0.2,0-0.3-0.1
		c-0.8-0.5-1.4-1.2-1.8-2c-0.1-0.2-0.1-0.4-0.2-0.5c-0.1-0.2-0.1-0.3-0.1-0.5c-0.1-1.2-0.1-2.4-0.1-3.6s-0.1-2.4-0.3-3.6
		c-0.1-0.5-0.1-1.1,0-1.6c0.1-0.6,0.1-1.1,0.2-1.6c0.1-0.6,0.1-1.3,0.2-1.9s0.1-1.3,0.2-1.9c0-0.4,0.1-0.6,0.4-0.8
		c0.2-0.1,0.4-0.3,0.6-0.4c0.2-0.1,0.4-0.3,0.6-0.4c0.3-0.3,0.7-0.5,1-0.8s0.6-0.5,0.9-0.8c0.3-0.2,0.5-0.5,0.7-0.7s0.5-0.5,0.7-0.7
		c0.5-0.4,0.9-0.8,1.4-1.3c0.4-0.5,0.8-1,1.1-1.5c0.4-0.5,0.7-1,1.1-1.6c0.4-0.5,0.7-1,1-1.6c0.2-0.4,0.5-0.8,0.7-1.1
		s0.5-0.7,0.7-1.1c0.2-0.3,0.3-0.7,0.4-1.1s0.3-0.7,0.4-1.1c0.5-0.9,1-1.8,1.3-2.7c0.4-0.9,0.7-1.9,1-2.8c0.3-1,0.6-2,0.8-3
		s0.2-2.1,0-3.1c-0.1-0.3-0.2-0.6-0.3-0.9s-0.2-0.6-0.3-0.9s-0.2-0.6-0.4-0.8c-0.2-0.2-0.3-0.5-0.4-0.8c0,0-0.1-0.1-0.3-0.2
		c-0.1,0-0.1-0.1-0.2-0.1c-0.1,0-0.1-0.1-0.2-0.1c-0.4-0.5-1-0.7-1.7-0.7c-0.2,0-0.4,0-0.5-0.1c-0.2-0.1-0.3-0.1-0.5,0
		c-1.3,0.1-2.5,0.3-3.5,0.8s-2.1,1.1-3.1,1.8c-0.7,0.5-1.3,1.2-1.8,2c-0.4,0.8-0.8,1.6-1.2,2.3c-0.4,1-0.8,1.9-1.1,2.9
		c-0.4,1-0.7,2-1,2.9c-0.4,1.1-0.8,2.1-1.2,3.2c-0.4,1-0.6,2.1-0.8,3.2c-0.1,1.2-0.3,2.3-0.6,3.5c-0.3,1.1-0.6,2.2-0.8,3.4
		c-0.3,1.1-0.5,2.2-0.5,3.2c-0.1,1.1-0.1,2.2-0.2,3.2c-0.1,1.4-0.1,2.7-0.2,4.1c-0.1,1.3-0.1,2.7,0.1,4.1c0,0.4,0.1,0.9,0.2,1.3
		c0.1,0.4,0.1,0.9,0.2,1.4c0.1,0.6,0.2,1.3,0.3,2s0.2,1.3,0.4,2c0.3,1,0.6,1.8,1,2.5s1,1.3,1.9,1.8c0.4,0.2,0.8,0.3,1.1,0.2
		c0.6-0.1,1.2-0.2,1.8-0.5c0.5-0.3,1.1-0.6,1.5-1c0.3-0.3,0.6-0.5,0.8-0.8s0.5-0.5,0.7-0.8c0.1-0.2,0.3-0.4,0.4-0.6
		c0.1-0.2,0.2-0.4,0.3-0.6c0.6-0.9,1.2-1.8,1.6-2.7c0.4-0.9,0.9-1.9,1.5-2.8c0.3-0.6,0.6-1.2,1-1.7s0.7-1.1,1-1.7
		c0.3-0.7,0.7-1.4,1-2.1s0.6-1.4,1-2.1c0.2-0.4,0.4-0.8,0.6-1.3c0.1-0.4,0.3-0.9,0.3-1.4c0.1-0.3,0.1-0.5,0.1-0.8s0-0.5,0.1-0.8
		C160.4,47.8,160.4,47.8,160.3,47.8 M144.6,22.6L144.6,22.6c0.1,0,0.1,0,0.1,0s0,0,0.1,0c0,0-0.1,0-0.1,0.1L144.6,22.6z M127.5,63
		c0.2,0.1,0.3,0.4,0.4,0.6c0.1,0.3,0.3,0.6,0.4,0.8c0.1,0.2,0.3,0.5,0.5,0.7c0.1,0.1,0.1,0.2,0.2,0.3s0.1,0.2,0.2,0.3
		c0.1,0.1,0.1,0.2,0.2,0.4c0,0.1,0.1,0.2,0.2,0.4c0.1,0.1,0.1,0.3,0.2,0.4c0,0.1,0.1,0.2,0.1,0.4c0,0.1,0.1,0.2,0.1,0.3
		s0,0.2,0.1,0.3c0.2,0.5,0.4,1.1,0.6,1.6c0.1,0.6,0.3,1.1,0.4,1.7c0,0.1,0.1,0.3,0.1,0.6s0,0.6,0,0.9c0,0.3-0.1,0.6-0.2,0.9
		c-0.1,0.4-0.4,0.5-0.7,0.4c-0.1,0-0.2,0-0.2-0.1c-0.2-0.1-0.4-0.3-0.6-0.5c-0.2-0.2-0.3-0.4-0.4-0.7c0-0.1-0.1-0.2-0.1-0.3
		s-0.1-0.2-0.1-0.3c0-0.3-0.1-0.6-0.2-0.8c-0.1-0.1-0.2-0.3-0.2-0.5s0-0.4-0.1-0.6v-0.4c0-0.1,0-0.3-0.1-0.5c-0.1-0.3-0.2-0.7-0.3-1
		s-0.2-0.7-0.3-1c-0.1-0.5-0.3-1-0.3-1.5s-0.2-1-0.3-1.5c-0.1-0.3-0.1-0.6-0.1-0.9c0-0.3,0-0.6,0.1-0.9
		C127.1,62.6,127.3,62.8,127.5,63 M128,47.6c0-0.1,0-0.2,0-0.3c0-0.1,0-0.2,0.1-0.3c0-0.1,0.1-0.2,0.1-0.3c0.1-0.3,0.2-0.5,0.2-0.8
		c0-0.2,0-0.4,0.2-0.7c0.6-1.7,1.1-3.4,1.4-5.1c0.3-1.7,0.8-3.4,1.3-5.1c0.2-0.6,0.5-1.2,0.7-1.7c0.3-0.5,0.5-1.1,0.6-1.7
		c0.2-0.6,0.4-1.2,0.5-1.8c0.2-0.6,0.4-1.2,0.7-1.8c0.3-0.7,0.7-1.5,1-2.3s0.7-1.6,1.1-2.2c0.1-0.1,0.1-0.3,0.2-0.4s0.1-0.4,0.2-0.5
		c0.1-0.2,0.2-0.4,0.4-0.6c0.1-0.2,0.3-0.4,0.4-0.6c0.2-0.3,0.4-0.7,0.8-1.1c0.3-0.4,0.7-0.6,1.1-0.5c0.3,0.1,0.6,0.2,0.9,0.2
		s0.6,0.1,0.8,0.3c0.6,0.4,1,1,1.3,1.7s0.5,1.4,0.6,2.1c0.3,1.4,0.3,2.7,0.1,4s-0.6,2.6-1.1,3.9c-0.3,0.9-0.6,1.8-1,2.7
		c-0.4,0.9-0.8,1.7-1.3,2.6c-0.3,0.4-0.5,0.8-0.8,1.3c-0.2,0.4-0.5,0.9-0.9,1.3c-0.2,0.3-0.4,0.6-0.6,0.9c-0.2,0.4-0.5,0.8-0.8,1.1
		c-1.9,1.9-3.9,3.6-6.1,5.1c-0.6,0.4-1.2,0.8-1.8,1.1c-0.1,0.1-0.2,0.1-0.3,0.1C128.1,47.8,128,47.7,128,47.6 M126.6,60.6
		c0.1-0.2,0.1-0.4,0.1-0.6c0-0.2,0-0.4-0.1-0.6c0-0.1,0-0.1,0-0.2s0.1-0.1,0.1-0.2c0.1-0.8,0.1-1.6,0.2-2.3c0.1-0.8,0.1-1.6,0.2-2.4
		c0.1-0.6,0.2-1.2,0.3-1.9s0.1-1.3-0.1-1.9c0-0.3,0-0.5,0.1-0.7c0-0.1,0.1-0.1,0.1-0.1l0.1-0.1c0.1-0.3,0.4-0.5,0.8-0.6
		c0.3-0.1,0.6-0.2,0.9-0.3c0.3-0.1,0.6-0.3,0.9-0.4c0.1,0,0.1,0,0.2-0.1c0.1-0.1,0.2-0.1,0.3-0.2s0.2-0.1,0.3-0.2
		c0.5-0.2,0.9-0.5,1.2-0.7c0.4-0.3,0.7-0.5,1.1-0.8c0.3-0.3,0.7-0.6,1.1-0.9c0.1-0.1,0.2-0.2,0.2-0.3c0.1,0,0.2-0.1,0.3-0.3
		c0.2-0.2,0.4-0.4,0.7-0.6c0.2-0.2,0.4-0.4,0.6-0.6c0.3-0.3,0.6-0.6,0.8-0.8c0.2-0.3,0.5-0.5,0.8-0.8c0.1-0.1,0.2-0.3,0.3-0.4
		s0.2-0.2,0.3-0.4c0.2-0.3,0.3-0.5,0.4-0.8c0.1-0.3,0.3-0.5,0.4-0.7c0.1-0.1,0.2-0.2,0.3-0.4s0.2-0.3,0.3-0.4
		c0.6-0.7,1.1-1.5,1.6-2.5c0.1-0.3,0.3-0.6,0.4-0.8c0.1-0.3,0.2-0.5,0.4-0.8c0.4-0.7,0.6-1.3,0.8-1.8c0.1-0.1,0.1-0.3,0.1-0.4
		s0-0.3,0-0.4s0.1-0.3,0.1-0.4c0.2-0.5,0.4-1,0.5-1.5c0-0.1,0.1-0.1,0.1-0.2s0.1-0.1,0.1-0.2c0.1-0.5,0.2-1,0.3-1.5l0.2-0.5
		c0.1-0.5,0.2-1,0.4-1.6s0.3-1.1,0.3-1.6c0.1-0.9,0-1.9-0.2-3c-0.3-1.1-0.8-1.9-1.5-2.5c-0.4-0.4-0.9-0.6-1.5-0.8
		c-0.5-0.2-1-0.3-1.6-0.3c-0.5-0.1-1.1-0.1-1.6,0c-0.6,0-1.1,0.1-1.6,0.1c-0.7,0-1.4,0.2-2,0.4c-0.6,0.2-1.2,0.6-1.7,1.1
		c-0.4,0.4-0.8,0.8-1.1,1.1c-0.4,0.3-0.7,0.7-1,1.2c-0.9,1.4-1.7,2.9-2.4,4.3c-0.8,1.5-1.4,3-1.9,4.6c-0.2,0.7-0.5,1.5-0.7,2.1
		c-0.3,0.7-0.5,1.4-0.7,2.1c-0.1,0.4-0.2,0.7-0.4,1.1c-0.1,0.4-0.3,0.7-0.5,1.1c-0.3,0.6-0.4,1.2-0.5,1.8c0,0.2-0.1,0.4-0.1,0.6
		s-0.1,0.4-0.1,0.6c-0.4,1.8-0.7,3.6-1,5.2c-0.1,0.5-0.1,1-0.2,1.4c-0.1,0.5-0.1,0.9-0.2,1.4c-0.1,0.7-0.2,1.3-0.3,1.9
		c0,0.2-0.1,0.5-0.1,0.9c0,0.5,0,1,0.1,1.6c0,0.5,0,1-0.1,1.6v0.6c0,0.2,0.1,0.4,0.1,0.7s0,0.4,0,0.7c0,0.6,0.1,1.1,0.2,1.7
		c0,0.1,0,0.2,0,0.3s0,0.2,0,0.3c0.1,0.5,0.1,1,0.2,1.5c0.1,0.5,0.1,1,0.2,1.5c0.1,0.7,0.2,1.5,0.2,2.3v0.6c0.1,0.5,0.3,1,0.3,1.6
		c0.1,0.5,0.2,1.1,0.4,1.6c0.1,0.3,0.1,0.5,0.2,0.7c0,0.4,0.1,0.9,0.3,1.3c0.1,0.1,0.1,0.2,0.2,0.4c0.2,0.5,0.4,1,0.6,1.4
		c0.2,0.5,0.5,0.9,0.8,1.4c0.1,0.2,0.2,0.4,0.3,0.5s0.2,0.3,0.3,0.4s0.2,0.3,0.3,0.4c0.1,0.1,0.2,0.3,0.4,0.4
		c0.3,0.2,0.6,0.3,0.9,0.4c0.3,0.1,0.6,0.1,1,0c0.1,0,0.3-0.1,0.4-0.1c0.1,0,0.2-0.1,0.3-0.1c0.3-0.1,0.5-0.2,0.8-0.4
		c0.2-0.2,0.4-0.4,0.6-0.6c0.9-1.3,1.3-2.7,1.4-4.2c0-0.7-0.1-1.3-0.3-1.9c-0.2-0.6-0.4-1.2-0.6-1.8c-0.1-0.3-0.2-0.6-0.2-0.9
		c0-0.3-0.1-0.6-0.1-0.9c-0.1-0.4-0.4-0.9-0.6-1.3c-0.3-0.4-0.5-0.9-0.8-1.2c-0.1-0.1-0.2-0.3-0.4-0.4c-0.1-0.1-0.3-0.3-0.4-0.5
		l-0.2-0.3c-0.1-0.2-0.1-0.3,0.2-0.4c0.6-0.3,1.1-0.6,1.6-0.9c0.6-0.3,1.2-0.7,1.7-1.2c0.2-0.2,0.5-0.4,0.7-0.6s0.5-0.3,0.8-0.5
		s0.6-0.4,0.8-0.6s0.5-0.4,0.8-0.6c0.1-0.1,0.1-0.1,0.1-0.2c0.2-0.2,0.4-0.4,0.6-0.7c0.2-0.2,0.4-0.4,0.7-0.6
		c0.2-0.1,0.4-0.3,0.6-0.5c0.2-0.2,0.4-0.4,0.6-0.6c0.3-0.3,0.5-0.6,0.5-0.9c0-0.1,0.1-0.2,0.3-0.3c0.1-0.2,0.3-0.4,0.4-0.5l0.5-0.5
		l0.7-0.8c0.1-0.1,0.2-0.3,0.3-0.4s0.1-0.3,0.1-0.5V49v-0.1c0.1-0.2,0.2-0.3,0.3-0.4s0.2-0.2,0.2-0.4c0.2-0.2,0.3-0.4,0.3-0.5
		c-0.3,0-0.5,0.1-0.7,0.1s-0.4,0.1-0.6,0.3c0.1,0.3,0.1,0.5,0,0.7c-0.4,0.4-0.7,0.9-1.1,1.4s-0.7,0.9-1.1,1.4
		c-0.2,0.3-0.4,0.5-0.6,0.7c-0.2,0.2-0.4,0.5-0.6,0.7c-0.1,0.1-0.2,0.3-0.3,0.4l-0.3,0.3c-0.3,0.3-0.5,0.6-0.7,0.8
		c-0.2,0.2-0.5,0.5-0.7,0.8c-0.2,0.2-0.4,0.4-0.6,0.5c-0.2,0.2-0.4,0.3-0.6,0.4c-0.4,0.3-0.8,0.6-1.2,0.9s-0.8,0.6-1.1,0.9
		c-0.4,0.3-0.7,0.6-1.1,0.8c-0.4,0.2-0.8,0.4-1.2,0.6c-0.6,0.2-1.2,0.5-1.7,0.8c-0.1,0.1-0.3,0.1-0.4,0.2c-0.1,0.1-0.3,0.2-0.5,0.3
		C126.6,60.7,126.6,60.6,126.6,60.6 M101.1,46.9c0.2-0.2,0.3-0.5,0.3-0.9c0-0.1,0-0.2,0.1-0.2c0.1-0.2,0.2-0.5,0.2-0.7
		s0.1-0.5,0.1-0.8c0-0.2,0.1-0.3,0.1-0.5c0-0.1,0.1-0.3,0.1-0.4c0.1-0.3,0.1-0.6,0.2-0.9c0.1-0.3,0.1-0.6,0.2-0.9
		c0-0.2,0.1-0.4,0.2-0.6c0.1-0.2,0.1-0.4,0.2-0.6c0.2-0.4,0.4-0.8,0.6-1.3c0.2-0.4,0.3-0.9,0.4-1.4c0-0.2,0.1-0.3,0.1-0.5
		c0-0.1,0.1-0.3,0.2-0.5c0.1-0.4,0.3-0.8,0.4-1.2c0.1-0.4,0.3-0.8,0.4-1.2c0.1-0.2,0.1-0.5,0.2-0.7c0.1-0.2,0.1-0.5,0.3-0.6
		c0.1-0.3,0.2-0.6,0.3-0.9s0.2-0.7,0.3-0.9c0.1-0.3,0.2-0.6,0.3-1s0.2-0.7,0.3-1c0.1-0.1,0.1-0.2,0.1-0.3c0-0.1,0.1-0.2,0.1-0.3
		c0.4-0.6,0.6-1.2,0.7-2c0.1-0.3,0.2-0.5,0.3-0.7c0-0.1,0.1-0.1,0.1-0.2s0.1-0.1,0.1-0.2s0-0.2,0.1-0.3c0-0.1,0.1-0.1,0.1-0.2
		c0.2-0.4,0.4-0.8,0.5-1.1c0.1-0.4,0.3-0.7,0.6-1.1c0.1-0.1,0.1-0.2,0.1-0.3c0-0.2,0-0.3,0.1-0.4s0.1-0.2,0.2-0.3
		c0.1-0.1,0.2-0.3,0.3-0.4s0.2-0.3,0.3-0.4l0.5-0.5c0.3-0.2,0.6-0.4,0.9-0.5c0.3-0.1,0.6-0.3,0.9-0.3c0.5-0.1,1-0.1,1.4,0.2
		c0.1,0.1,0.2,0.1,0.3,0.2c0.1,0,0.2,0.1,0.3,0.2c0.4,0.2,0.6,0.5,0.7,0.8c0.1,0.2,0.1,0.3,0.2,0.5c0.1,0.1,0.1,0.3,0.2,0.4
		c0.3,0.4,0.5,0.9,0.6,1.2c0,0.1,0,0.2,0.1,0.3c0.2,0.4,0.3,0.9,0.3,1.4c0,0.1,0,0.3,0.1,0.4c0.1,0.3,0.1,0.5,0,0.7
		c0,0.2-0.1,0.4-0.1,0.7v0.7c0,0.3-0.1,0.6-0.1,0.9s-0.1,0.6-0.1,0.9c0,0.2-0.1,0.4-0.1,0.5c0,0.2,0,0.3-0.1,0.5s-0.1,0.4-0.2,0.6
		c-0.1,0.2-0.1,0.4-0.2,0.6c-0.6,1.5-1.4,2.8-2.2,4.2c-0.2,0.3-0.4,0.7-0.6,1c-0.2,0.3-0.4,0.6-0.7,0.9c-0.1,0.1-0.1,0.2-0.2,0.3
		c-0.1,0.1-0.1,0.2-0.2,0.2c-0.3,0.3-0.7,0.7-1,1c-0.3,0.4-0.7,0.7-1,1c-0.1,0.1-0.2,0.2-0.3,0.3c-0.1,0.1-0.2,0.2-0.3,0.3
		c-0.5,0.6-1.1,1.2-1.6,1.7c-0.6,0.5-1.2,1.1-1.8,1.6c-0.4,0.3-0.9,0.7-1.3,1c-0.4,0.4-0.9,0.7-1.4,1.1c-0.3,0.2-0.6,0.4-1,0.7
		c-0.4,0.2-0.7,0.4-1,0.7c-0.1,0-0.2,0.1-0.4,0.2C100.9,47.4,101,47.2,101.1,46.9 M107.9,50.5c0,0.4,0,0.8,0,1.2
		c0,0.4-0.1,0.8-0.1,1.2c-0.1,1.5-0.2,2.9-0.5,4.2c-0.2,1.4-0.4,2.8-0.5,4.2c0,0.5,0,1.1,0,1.6s0,1.1,0,1.6c0.1,0.9,0.2,1.8,0.2,2.7
		s0.1,1.8,0.2,2.7c0.1,0.4,0.2,0.7,0.3,1s0.3,0.6,0.5,0.9c0.3,0.6,0.8,1.1,1.5,1.4c0.7,0.3,1.3,0.4,1.9,0.2c0.1,0,0.1,0,0.2,0
		c0.1,0,0.1,0,0.2,0c0.2,0,0.3,0,0.5,0c0.1,0,0.3-0.1,0.4-0.2c0.1,0,0.1-0.1,0.2-0.1c0.1,0,0.1-0.1,0.2-0.1c0.4-0.1,0.7-0.2,1-0.4
		s0.6-0.4,1-0.6c0.5-0.3,0.9-0.7,1.3-1.1c0.4-0.4,0.7-0.9,1-1.5c0.3-0.5,0.6-1.1,0.8-1.6s0.5-1.1,0.8-1.5c0.6-1.2,1.2-2.4,1.8-3.7
		c0.5-1.2,0.9-2.5,1.1-3.9c0.3-1.7,0.7-3.5,1.4-5.1c0.1-0.2,0.1-0.4,0.2-0.5c0.1-0.2,0.1-0.3,0.2-0.5c0.1-0.3,0.2-0.7,0.2-1
		c0.1-0.3,0.2-0.6,0.3-0.9c0.1-0.1,0.1-0.3,0.1-0.4c0-0.2,0-0.4,0.1-0.6s0.1-0.4,0.2-0.5s0.1-0.3,0.1-0.5c0.1-0.2,0.1-0.4,0.1-0.5
		c0-0.2,0-0.3-0.1-0.5c-0.4,0-0.7,0.1-0.9,0.4c-0.1,0.2-0.2,0.3-0.3,0.5c-0.1,0.1-0.2,0.3-0.3,0.5s-0.2,0.4-0.3,0.7
		c-0.1,0.2-0.2,0.4-0.3,0.7c-0.1,0.5-0.3,1-0.4,1.5c-0.1,0.5-0.2,1-0.4,1.5c-0.1,0.6-0.3,1.3-0.6,1.9c-0.2,0.6-0.5,1.2-0.8,1.8
		c-0.1,0.3-0.2,0.6-0.4,0.8s-0.2,0.5-0.3,0.8c0,0.2-0.1,0.5-0.3,0.8c-0.3,0.6-0.5,1.2-0.7,1.8s-0.4,1.2-0.7,1.8
		c0,0.1-0.1,0.2-0.1,0.3s0,0.2-0.1,0.3c0,0.1-0.1,0.2-0.1,0.3s-0.1,0.2-0.1,0.3c-0.3,0.8-0.7,1.6-1.1,2.3c-0.4,0.8-0.8,1.5-1.2,2.3
		c-0.2,0.3-0.4,0.6-0.6,0.8c-0.2,0.3-0.4,0.5-0.6,0.8c-0.2,0.3-0.5,0.6-0.8,0.8c-0.2,0.1-0.4,0.3-0.6,0.4c-0.2,0.1-0.4,0.1-0.7,0.1
		c-0.2,0-0.4-0.1-0.5-0.2c-0.4-0.6-0.6-1.2-0.6-1.8c0-0.1,0-0.3,0-0.4c0-0.1,0-0.3,0-0.5c0-0.5-0.1-1-0.1-1.4c0-0.5-0.1-0.9-0.1-1.4
		c-0.1-1.7,0-3.3,0.3-5c0.3-1.6,0.5-3.3,0.5-5c0-1-0.1-2-0.4-2.8s-0.5-1.8-0.8-2.7c-0.1-0.4-0.2-0.7-0.4-0.8
		c-0.2-0.3-0.4-0.5-0.4-0.7c-0.3-0.3-0.5-0.5-0.8-0.5c-0.8-0.1-1.5,0-2.2,0.4c-0.4,0.2-0.7,0.5-1.1,0.7s-0.7,0.5-1,0.8
		c-0.1,0.1-0.2,0.2-0.3,0.4s-0.2,0.2-0.3,0.4c-0.1,0.2-0.3,0.4-0.4,0.6c-0.1,0.2-0.2,0.4-0.4,0.6c-0.2,0.3-0.4,0.6-0.5,0.8
		c-0.2,0.2-0.3,0.5-0.5,0.8c-0.3,0.6-0.6,1.2-0.9,1.7c-0.3,0.6-0.6,1.1-0.8,1.7c-0.1,0.1-0.1,0.3-0.2,0.4c0-0.1-0.1-0.1-0.1-0.2
		c0,0,0-0.1-0.1-0.2c0-0.3,0-0.5,0-0.8s0-0.5,0.1-0.8v-1.1c0-0.4,0-0.7,0.1-1.1c0-0.2,0.1-0.4,0.1-0.5c0-0.2,0-0.3,0.1-0.5
		c0-0.1,0-0.3,0-0.4s0-0.3,0-0.5s0-0.4,0-0.6s0-0.4,0-0.6c0-0.4,0.1-0.8,0.2-1.3c0.1-0.4,0.1-0.7,0.2-0.8s0.3-0.2,0.8-0.3
		c1.2-0.3,2.2-0.8,3.1-1.5c0.9-0.7,1.7-1.4,2.7-2.1c0.5-0.4,1.1-0.8,1.6-1.2c0.6-0.4,1.1-0.8,1.6-1.2c0.6-0.4,1-0.9,1.5-1.4
		c0.4-0.5,0.8-1,1.3-1.6s1-1.3,1.5-1.9s1-1.3,1.5-2s0.9-1.4,1.3-2.1c0.4-0.7,0.7-1.5,0.9-2.3c0.1-0.5,0.2-1,0.3-1.5s0.2-1,0.3-1.5
		c0.1-0.4,0.1-0.9,0.1-1.4s0-0.9,0.1-1.4c0-0.2,0-0.5-0.1-0.8c0-0.1,0-0.2,0-0.3c0-0.1,0-0.2,0-0.3c0-0.3-0.1-0.6-0.2-0.9
		c0-0.1-0.1-0.1-0.1-0.2s0-0.1-0.1-0.2c-0.2-0.7-0.4-1.2-0.7-1.7c-0.2-0.3-0.5-0.6-0.7-0.8c-0.2-0.2-0.5-0.5-0.8-0.6
		c-0.5-0.3-1-0.5-1.5-0.7s-1.1-0.3-1.6-0.4c-0.3-0.1-0.6-0.1-0.9-0.2c-0.3-0.1-0.7-0.1-0.9,0c-0.2,0-0.4,0-0.5,0s-0.3,0-0.5,0
		c-0.8,0.1-1.5,0.2-2.2,0.4c-0.7,0.2-1.4,0.6-2,1.1c-0.4,0.3-0.7,0.7-0.9,1.2c-0.3,0.5-0.5,0.9-0.8,1.1s-0.5,0.5-0.7,0.8
		c-0.1,0.3-0.3,0.6-0.4,0.9c-0.1,0.2-0.2,0.4-0.3,0.6s-0.2,0.4-0.3,0.6s-0.3,0.4-0.4,0.6c-0.1,0.2-0.2,0.5-0.3,0.7
		c-0.1,0.3-0.3,0.6-0.4,0.9c-0.1,0.3-0.2,0.6-0.4,0.9c-0.2,0.6-0.4,1.1-0.7,1.7c-0.2,0.6-0.4,1.2-0.6,1.8L99,35.8v0.1V36
		c-0.1,0.5-0.3,1-0.4,1.5c-0.1,0.5-0.2,1-0.4,1.5c-0.1,0.3-0.2,0.6-0.2,0.8c-0.1,0.5-0.2,1.1-0.3,1.6s-0.2,1.1-0.3,1.6
		s-0.2,1.1-0.3,1.6c-0.1,0.6-0.2,1.1-0.2,1.6c-0.1,0.3-0.1,0.6-0.1,0.8c0,0.3-0.1,0.5-0.1,0.8c-0.2,1-0.2,2-0.2,3c0,0.6,0,1.2,0,1.9
		c-0.1,0.4-0.1,0.7-0.1,1.1V55c0,0.2,0,0.4,0,0.6s0,0.4,0,0.6c0,0.3-0.1,0.5-0.1,0.8s0,0.5,0,0.8c0,0.6,0.1,1.1,0.1,1.7
		c0,0.6,0.1,1.1,0.1,1.7v0.1c0.1,0.4,0.1,0.8,0.1,1.2s0,0.8,0,1.2c0,0.3,0.1,0.6,0.1,0.9c0,0.3,0.1,0.7,0.2,0.9
		c0.1,0.3,0.2,0.6,0.2,0.8c0.1,0.2,0.1,0.5,0.1,0.8v0.1c0,0,0,0,0,0.1c0.1,0.3,0.3,0.4,0.6,0.3h0.1c0,0,0,0,0.1,0
		c0.3-0.1,0.6,0,0.8,0.2c0.1,0.1,0.3,0.2,0.4,0.2c0.1-0.2,0.3-0.4,0.3-0.4c0.2,0,0.4,0.1,0.6,0.2c0.2,0.1,0.4,0.2,0.6,0.2l0.1-0.1
		c0.1,0,0.1,0,0.1-0.1c0.1-0.2,0.2-0.4,0.3-0.6c0.1-0.2,0.2-0.4,0.3-0.6c0.1-0.4,0.2-0.7,0.3-1.1c0.1-0.4,0.3-0.7,0.4-1.1
		c0.1-0.4,0.1-0.7,0.1-0.8c-0.1-0.4-0.1-0.9,0.1-1.3c0.1-0.3,0.1-0.6,0.2-0.9c0.1-0.3,0.1-0.6,0.1-0.9c0-0.5,0.1-1,0.2-1.5
		c0.1-0.5,0.2-1,0.4-1.5c0.1-0.1,0.1-0.2,0.1-0.3c0-0.3,0.1-0.6,0.2-0.9c0.1-0.2,0.3-0.5,0.4-0.8c0.1-0.1,0.2-0.2,0.2-0.3
		c0.1-0.1,0.2-0.2,0.2-0.3c0.1-0.4,0.3-0.8,0.5-1.1c0.2-0.3,0.4-0.7,0.5-1c0-0.1,0.1-0.2,0.2-0.3c0.3-0.1,0.5-0.3,0.6-0.6
		c0.1-0.2,0.2-0.5,0.3-0.7c0.1-0.3,0.3-0.6,0.7-0.8c0.3-0.3,0.6-0.4,0.9-0.6C107.9,50.1,107.9,50.3,107.9,50.5 M79.5,37.1
		c0,0.1,0,0.2-0.1,0.4c0,0.3-0.1,0.6-0.1,0.9s-0.1,0.6-0.1,0.9c-0.1,0.6-0.3,1.3-0.3,2c-0.1,0.7-0.1,1.3-0.2,2
		c0,0.4-0.1,0.8-0.1,1.2c0,0.4,0,0.8-0.1,1.1c-0.1,0.6-0.2,1.1-0.3,1.7c-0.1,0.6-0.1,1.2-0.2,1.8c0,0.3,0,0.5-0.1,0.7l-0.2,3
		c0,0.2,0,0.4,0,0.7s0,0.4,0,0.7v0.4c0,0.1,0,0.3-0.1,0.4c0,0.3,0,0.6,0,0.9s0,0.6,0,0.9v1.6v0.8c0,0.3,0,0.5,0,0.8
		c0,0.2,0,0.5,0.1,0.8c0,0.1,0.1,0.3,0.1,0.6c0,0.2,0.1,0.4,0.1,0.5c0,0.2,0,0.3,0.1,0.5c0,0.4,0.1,0.8,0.1,1.2
		c0.1,0.4,0.2,0.8,0.4,1.2c0.4,1.3,1.3,2.1,2.6,2.3c0.4,0.1,0.8,0.2,1.2,0.2c0.4,0,0.7,0,1.1,0c0.2,0,0.5-0.1,0.7-0.2
		c0,0,0.1,0,0.1-0.1s0.1-0.1,0.1-0.1c0.4-0.1,0.7-0.4,1-0.8c0.4-0.4,0.8-0.8,1.3-1.1s0.9-0.8,1.2-1.3c0.3-0.5,0.6-1,0.9-1.6
		c0.3-0.5,0.5-1,0.8-1.6c0.5-1.2,1.1-2.2,1.8-3.3c0.7-1,1.4-2.1,2.1-3.1c0.4-0.6,0.8-1.3,1.1-2s0.7-1.3,1.1-2
		c0.1-0.2,0.2-0.3,0.2-0.5s0.2-0.3,0.3-0.4s0.1-0.3,0.2-0.6c0,0,0-0.1,0.1-0.1c0,0,0.1-0.1,0.1-0.2l0.1-0.1c0.2-0.4,0.1-0.7-0.4-0.9
		c-0.2-0.1-0.4,0-0.6,0.1c-0.1,0.1-0.2,0.3-0.3,0.4s-0.1,0.3-0.2,0.4c-0.2,0.5-0.4,0.9-0.7,1.2c-0.1,0.2-0.2,0.4-0.3,0.5
		s-0.2,0.3-0.3,0.5l-0.1,0.1c0,0,0,0.1-0.1,0.2c-0.3,0.4-0.6,0.9-0.9,1.3c-0.3,0.4-0.6,0.9-0.9,1.4c-0.2,0.2-0.4,0.4-0.5,0.7
		c-0.1,0.2-0.3,0.4-0.4,0.7c-0.2,0.3-0.4,0.6-0.6,0.9s-0.4,0.6-0.6,0.9c-0.2,0.3-0.4,0.6-0.6,0.9c-0.2,0.3-0.4,0.6-0.6,0.9
		c-0.1,0-0.1,0.2-0.2,0.4c-0.5,0.8-1.1,1.6-1.6,2.4c-0.5,0.8-1.1,1.6-1.7,2.4c-0.2,0.2-0.4,0.5-0.5,0.7c-0.2,0.2-0.3,0.5-0.5,0.7
		c-0.1,0.1-0.3,0.3-0.4,0.3c-0.1,0.1-0.2,0.2-0.3,0.3c-0.2,0.1-0.4,0.1-0.6,0.1c-0.2-0.1-0.4-0.2-0.5-0.4s-0.1-0.4-0.1-0.6
		c0-0.1,0-0.3,0-0.4c0-0.1,0-0.3,0-0.4v-0.2c0-0.1,0-0.2,0-0.3s0-0.2,0-0.3v-0.6c0-1.7,0-3.3,0.1-5s0.2-3.3,0.3-5
		c0.1-1.7,0.1-3.3,0.1-5s0-3.3-0.1-4.9c-0.1-0.3-0.1-0.6,0.1-0.8v-0.3v-0.7c0-0.4,0-0.8,0-1.2c0-0.4,0-0.8,0-1.1c0-0.2,0-0.4,0-0.6
		s0-0.4,0-0.6H83h0.3c0.2,0,0.4,0.1,0.6,0.1h0.6c0.2,0,0.4,0,0.6,0s0.4-0.1,0.6-0.1l0.1-0.1c0.2,0,0.4-0.1,0.5-0.2s0.2-0.1,0.3-0.2
		c0.1,0,0.2-0.1,0.3-0.1c0.2,0.1,0.3,0.2,0.4,0.2s0.1-0.1,0.2-0.2c0,0,0.1,0,0.1-0.1c0.1-0.2,0.2-0.3,0.4-0.3c0.1,0,0.1,0,0.2-0.1
		c0.1,0,0.1-0.1,0.2-0.1c0.1-0.1,0.1-0.1,0.2-0.2c0.1,0,0.1-0.1,0.2-0.1s0.1-0.1,0.2-0.1c0,0,0.1,0,0.2-0.1s0.3-0.2,0.4-0.2
		s0.3-0.1,0.5-0.2h0.2c0.2-0.1,0.4-0.2,0.6-0.3c0.2-0.1,0.4-0.2,0.6-0.3c0.1-0.1,0.2-0.1,0.3-0.2s0.3-0.2,0.4-0.3
		c0.1-0.1,0.3-0.3,0.4-0.4c-0.1-0.1-0.1-0.3,0-0.4s0.1-0.3,0.1-0.4c-0.3-0.2-0.7-0.3-1-0.1c-0.1,0.1-0.2,0.1-0.4,0.1
		c-0.1,0-0.3,0.1-0.4,0.1c-0.5,0.2-1,0.4-1.6,0.6c-0.5,0.2-1,0.4-1.6,0.6c-0.7,0.3-1.5,0.4-2.4,0.3c-0.1,0-0.2,0-0.4-0.1
		c-0.3-0.1-0.6-0.2-1-0.3c-0.4-0.1-0.7-0.2-1-0.4c-0.4-0.1-0.6-0.4-0.6-0.8c0-0.1,0-0.2,0-0.2s0-0.2,0-0.3v-0.3
		c-0.1-0.3-0.1-0.5-0.1-0.8s0-0.5-0.1-0.8v-0.3c0-0.1,0-0.2,0.1-0.3c0.1-0.3,0.1-0.6-0.1-1c0-0.1-0.1-0.2-0.1-0.2
		c0-0.1-0.1-0.2-0.2-0.3c-0.2-0.3-0.5-0.4-0.9-0.4l-0.1,0.1c-0.3,0.6-0.4,1.1-0.4,1.6c-0.1,0.4-0.1,0.9-0.2,1.3s-0.1,0.9-0.2,1.3
		c0,0.1,0,0.2,0,0.3c0,0.1-0.1,0.2-0.1,0.2c-0.1,0-0.4,0-0.6-0.1c-0.6,0-1.2,0-1.8,0c-0.4,0.1-0.8,0.1-1.2-0.1
		c-0.1,0-0.2-0.1-0.4-0.1c-0.1,0-0.3,0-0.4-0.1c-0.3,0-0.5-0.1-0.8-0.1c-0.2,0-0.5,0-0.8,0s-0.7-0.1-1-0.1s-0.7,0-1,0
		s-0.7,0.1-1,0.1s-0.6,0.1-1,0.3c-0.2,0.1-0.4,0.2-0.6,0.3c-0.2,0.1-0.4,0.2-0.6,0.3c0,0,0,0.1-0.1,0.2s-0.1,0.1,0.1,0.2
		c0.1,0,0.2,0,0.4,0c0.1,0,0.3,0,0.4,0s0.3,0,0.5,0s0.3,0,0.5,0c0.3-0.1,0.6-0.1,0.8-0.1c0.2,0,0.5,0.1,0.8,0.2
		c0.1,0.1,0.3,0.1,0.5,0.2s0.3,0.1,0.5,0.1c0.7,0,1.5,0.2,2.3,0.5c0.2,0.1,0.4,0.2,0.6,0.3c0.2,0.1,0.4,0.1,0.6,0.2
		c0.2,0,0.4,0.1,0.6,0.2c0.3,0.1,0.5,0.2,0.8,0.3s0.6,0.2,0.9,0.2c0.1,0.1,0.2,0.1,0.3,0.2c0.1,0.1,0.2,0.1,0.4,0.1
		C79.6,36.9,79.5,37,79.5,37.1 M60.9,44.7c0-0.3-0.1-0.5-0.1-0.7s0.1-0.4,0.1-0.6v-0.6v-0.6c0-0.1,0-0.1,0-0.2c0,0,0-0.1,0-0.2
		c0-0.4,0.1-0.8,0.2-1.1c0.1-0.4,0.2-0.7,0.4-1c0.1-0.1,0.2-0.3,0.2-0.4c0-0.2,0.1-0.5,0.3-0.7c0-0.1,0.1-0.2,0.2-0.2
		c0.1-0.1,0.1-0.2,0.1-0.3c0-0.1,0.1-0.1,0.2-0.1h0.2c0.5,0.3,0.9,0.6,1.2,1.1c0,0.1,0.1,0.2,0.1,0.4c-0.1,0.4-0.1,0.8-0.2,1.2
		s-0.1,0.8-0.1,1.1c0,0.3-0.1,0.5-0.2,0.8c-0.1,0.2-0.2,0.4-0.3,0.6c-0.1,0.2-0.2,0.4-0.4,0.6c-0.1,0.1-0.2,0.2-0.3,0.3
		s-0.1,0.3-0.2,0.4c-0.1,0.2-0.3,0.4-0.5,0.6s-0.4,0.4-0.6,0.5C60.9,45.2,60.9,45,60.9,44.7 M62.1,65.5c0,0.2,0,0.5,0.1,0.8
		c0.1,0.4,0.1,0.8,0.2,1.2c0,0.4,0.1,0.8,0.2,1.2c0.3,1.4,1.1,2.4,2.3,3.1c0.2,0.1,0.4,0.2,0.6,0.3s0.4,0.1,0.6,0.1
		c0.3,0.1,0.5,0.2,0.8,0.2c0.5,0.2,0.9,0.1,1.2-0.3c0.1-0.1,0.1-0.1,0.2-0.1c0,0,0.1,0,0.2-0.1c0.2,0,0.4-0.1,0.6-0.3
		c0.3-0.1,0.6-0.2,0.8-0.3c0.1-0.1,0.1-0.1,0.2-0.2c0.1,0,0.2-0.1,0.3-0.2c0.2-0.1,0.3-0.3,0.5-0.5c0.1-0.2,0.3-0.3,0.5-0.5
		c0.1-0.1,0.2-0.3,0.4-0.4c0.1-0.1,0.3-0.3,0.4-0.4c0.1-0.1,0.1-0.1,0.1-0.2c0-0.1,0-0.1,0.1-0.2c0.1-0.1,0.1-0.2,0.2-0.3
		c0-0.1,0.1-0.2,0.1-0.3c0.2-0.4,0.4-0.7,0.5-1.1c0.1-0.4,0.3-0.7,0.5-1s0.4-0.6,0.4-0.8c0.1-0.3,0.2-0.5,0.3-0.8
		c0.1-0.3,0.2-0.6,0.4-0.9c0.2-0.4,0.4-1.1,0.7-1.8c0.3-0.8,0.6-1.6,0.9-2.3c0.3-0.8,0.6-1.5,0.8-2.1c0.2-0.6,0.4-1,0.4-1.2
		c0.1-0.5,0.3-1,0.5-1.6c0.2-0.5,0.4-1.1,0.6-1.6c0.1-0.3,0.3-0.5,0.4-0.8s0.1-0.5,0.2-0.8c0.1-0.2,0.1-0.5,0.1-0.8
		c0-0.1,0-0.2,0.1-0.3c0.1-0.1,0.1-0.2,0.1-0.3v-0.3c0-0.1,0-0.3,0-0.5s0-0.3,0.1-0.5l-0.1-0.1c-0.1-0.1-0.2-0.2-0.4-0.2
		c-0.2,0-0.3,0-0.4,0.1c-0.3,0.3-0.5,0.7-0.7,1.2c-0.2,0.4-0.4,0.8-0.6,1.3s-0.4,1-0.6,1.5c-0.1,0.2-0.1,0.4-0.2,0.5
		c0,0.2-0.1,0.3-0.2,0.5c0,0.2-0.1,0.4-0.1,0.5s-0.1,0.3-0.2,0.5c-0.1,0.3-0.1,0.6-0.2,0.9s-0.1,0.7-0.2,0.9
		c-0.1,0.4-0.3,0.8-0.4,1.2s-0.2,0.8-0.4,1.2c-0.1,0.2-0.1,0.4-0.2,0.6c-0.1,0.2-0.1,0.4-0.2,0.6c-0.1,0.3-0.2,0.6-0.3,0.9
		c-0.1,0.2-0.2,0.5-0.3,0.8c-0.2,0.4-0.4,0.8-0.5,1.2s-0.3,0.8-0.4,1.2c0,0.1-0.1,0.1-0.1,0.2s0,0.1-0.1,0.2
		c-0.2,0.4-0.4,0.8-0.6,1.3c-0.2,0.4-0.4,0.9-0.6,1.3c-0.1,0.1-0.1,0.3-0.1,0.3c-0.2,0.3-0.4,0.5-0.5,0.8s-0.3,0.5-0.4,0.8
		c-0.1,0.2-0.1,0.3-0.2,0.4c-0.1,0.1-0.3,0.3-0.4,0.4c-0.1,0.1-0.3,0.2-0.4,0.4c-0.4,0.2-0.8,0.1-1.1-0.2s-0.6-0.7-0.8-1.1
		c-0.2-0.3-0.3-0.7-0.3-1s-0.1-0.7-0.2-1.1c-0.1-0.2-0.1-0.4-0.2-0.6C67,65.8,67,65.6,67,65.3c0-0.2,0-0.4,0-0.7c0-0.2,0-0.4,0-0.7
		c0-0.5,0.1-1,0.1-1.5s0.1-1,0.3-1.5c0.1-0.4,0.2-0.8,0.2-1.3c0.1-0.4,0.2-0.9,0.3-1.3c0.1-0.2,0.1-0.4,0.2-0.6
		c0-0.2,0.1-0.4,0.1-0.6c0.1-0.2,0.2-0.4,0.2-0.6c0.1-0.2,0.2-0.4,0.2-0.5c0-0.3,0.1-0.5,0.2-0.7s0.2-0.5,0.1-0.7v-0.1
		c0.1-0.3,0.1-0.6,0.1-0.9s0-0.5-0.1-0.8c0-0.1,0-0.1-0.1-0.2c0,0,0-0.1,0.1-0.1c0-0.2,0-0.4-0.1-0.6s-0.2-0.4-0.3-0.6
		c-0.1-0.2-0.3-0.4-0.4-0.6c-0.2-0.1-0.4-0.3-0.6-0.4c-0.6-0.4-1.2-0.8-1.7-0.9c-0.3-0.2-0.7-0.3-1-0.5s-0.7-0.3-1-0.5
		c-0.5-0.2-0.9-0.5-1.2-0.9c-0.3-0.4-0.7-0.8-0.9-1.3c-0.1-0.1-0.1-0.3,0.1-0.4l0.4-0.4c0.6-0.4,1.2-1,1.6-1.8
		c0.1-0.2,0.3-0.4,0.4-0.6s0.2-0.4,0.3-0.6c0.1-0.2,0.2-0.4,0.2-0.5c0.1-0.2,0.2-0.3,0.3-0.5c0.1-0.4,0.2-0.6,0.2-0.8
		c0-0.1,0-0.2,0-0.3c0-0.1,0-0.2,0.1-0.4c0-0.1,0.1-0.2,0.1-0.3c0-0.1,0-0.2,0-0.3c0-0.1-0.1-0.4-0.1-0.6s0-0.4-0.1-0.7
		c-0.1-0.2-0.3-0.4-0.6-0.6c-0.1-0.1-0.2-0.1-0.3-0.2c-0.1-0.1-0.2-0.2-0.2-0.3c-0.3-0.2-0.5-0.4-0.7-0.4c-0.3-0.1-0.5-0.1-0.8-0.2
		c-0.2-0.1-0.5-0.1-0.8-0.1c-0.3-0.1-0.6-0.1-0.9-0.1s-0.6,0-0.9,0.1s-0.5,0.3-0.8,0.6c0,0.1-0.1,0.3-0.3,0.4
		c-0.1,0.2-0.3,0.4-0.4,0.5s-0.3,0.3-0.3,0.6c0,0.1-0.1,0.4-0.3,0.7c-0.1,0.1-0.1,0.2-0.2,0.3c0,0.1-0.1,0.2-0.2,0.3
		c-0.1,0.3-0.3,0.6-0.4,0.9s-0.2,0.6-0.3,0.9c-0.2,1.1-0.3,2.2-0.2,3.3c0,0.1,0.1,0.3,0.1,0.5s0,0.3,0.1,0.5
		c0.2,0.7,0.5,1.3,0.9,1.8s0.9,1,1.5,1.4c0.3,0.3,0.7,0.5,1,0.8c0.4,0.2,0.7,0.4,1.1,0.7c0.3,0.2,0.7,0.4,1.1,0.5s0.7,0.3,1.1,0.5
		c0.7,0.4,1.1,0.9,0.9,1.7c0,0.1,0,0.2-0.1,0.3c-0.1,0.3-0.1,0.6-0.2,0.9s-0.1,0.6-0.2,0.9c-0.1,0.5-0.3,1.1-0.5,1.6
		c-0.2,0.5-0.3,1.1-0.4,1.7c0,0.1,0,0.3,0,0.4c0,0.1,0,0.3-0.1,0.5c-0.1,0.4-0.1,0.9-0.2,1.3c0,0.4-0.1,0.9-0.2,1.3
		c-0.1,0.3-0.1,0.7-0.1,1.1c0,0.4,0,0.7-0.1,1.1C62.1,65,62.1,65.2,62.1,65.5 M45,54.8c-0.1,0.5-0.1,1-0.2,1.6c0,0.5-0.1,1-0.1,1.6
		c0,0.7,0,1.3,0.1,2s0.3,1.3,0.7,1.9c0.1,0.3,0.3,0.5,0.5,0.6c0.4,0.3,0.9,0.5,1.6,0.6s1.2,0,1.7-0.1c0.9-0.3,1.8-0.9,2.5-1.6
		c0.7-0.7,1.4-1.5,2-2.4s1.1-1.8,1.5-2.8c0.4-0.9,0.9-1.9,1.2-2.7c0.1-0.2,0.2-0.5,0.4-0.9c0.2-0.4,0.3-0.8,0.5-1.2
		c0.2-0.4,0.4-0.8,0.6-1.2c0.2-0.4,0.3-0.7,0.4-0.9c0.1-0.1,0.1-0.3,0.1-0.5s0-0.3,0.1-0.5c0-0.2-0.1-0.3-0.3-0.3
		c-0.1,0-0.3,0.1-0.4,0.1s-0.2,0-0.3,0.1c-0.2,0-0.3,0.1-0.3,0.2c0,0.2,0,0.3-0.1,0.5c-0.4,0.9-1,2-1.5,3.3
		c-0.6,1.3-1.1,2.4-1.5,3.3c-0.2,0.5-0.5,1-0.9,1.6s-0.8,1.1-1.1,1.5c-0.1,0.2-0.5,0.5-0.9,0.9c-0.5,0.4-0.8,0.7-1,0.8
		c-0.4,0.2-0.7,0.2-0.9,0c-0.2-0.2-0.3-0.4-0.3-0.7s0-0.6,0-0.9c0-0.3,0.1-0.5,0.1-0.6c0-0.2,0-0.4,0-0.5c0-0.2,0-0.3,0.1-0.5
		c0.1-0.4,0.1-0.9,0.2-1.3c0-0.4,0.1-0.8,0.2-1.3c0-0.2,0.1-0.4,0.1-0.6s0.1-0.4,0.2-0.6c0.1-0.7,0.2-1.3,0.2-1.8s0.1-1.1,0.2-1.8
		c0.1-0.6,0.2-1.3,0.4-2c0.2-0.7,0.3-1.4,0.3-2c0-0.1,0-0.3,0-0.4s0-0.3,0-0.4c-0.1-0.3-0.1-0.6,0-0.8c0.1-0.2,0.2-0.5,0.1-0.8
		L51,43c-0.1-0.4-0.4-0.6-0.8-0.6c-0.2,0-0.4,0.1-0.5,0.1s-0.3,0.1-0.5,0.1c-0.4,0-0.8,0.4-0.9,0.9c-0.1,0.4-0.2,0.7-0.3,1.1
		c-0.1,0.3-0.2,0.7-0.4,1.1c-0.1,0.3-0.2,0.7-0.4,1c-0.1,0.3-0.2,0.7-0.3,1c-0.1,0.2-0.1,0.4-0.2,0.6c0,0.2-0.1,0.5-0.2,0.7
		s-0.1,0.4-0.2,0.7c0,0.2-0.1,0.4-0.2,0.6c-0.3,0.6-0.8,1.3-1.3,2.1c-0.5,0.8-1.1,1.4-1.8,1.7c-0.5,0.2-1,0.2-1.6-0.2
		c-0.6-0.3-0.9-0.8-1.1-1.3c-0.2-0.9-0.3-1.8-0.1-2.7c0.2-0.9,0.4-1.7,0.7-2.6c0.1-0.4,0.3-0.7,0.4-1.1s0.2-0.7,0.4-1.1
		c0.3-0.7,0.6-1.5,0.8-2.3c0.3-0.8,0.6-1.6,1-2.3c0.3-0.5,0.7-0.8,1.1-1.1s0.9-0.4,1.5-0.5s1.2-0.1,1.9,0.1l0.2,0.2
		c0.3,0.3,0.6,0.7,0.8,1c0.3,0.3,0.4,0.7,0.5,1.1c0.1,0.2,0.2,0.3,0.3,0.3c0.3,0,0.4-0.1,0.6-0.2c0.5-0.4,0.6-1,0.2-1.6
		c-0.1-0.2-0.2-0.4-0.3-0.5c-0.1-0.2-0.2-0.3-0.4-0.5c-0.2-0.2-0.4-0.4-0.6-0.6s-0.4-0.3-0.7-0.3c-0.3-0.1-0.7-0.1-1-0.1
		s-0.6,0-1,0.1c-0.1,0-0.3,0.1-0.5,0.1c-0.4,0.1-0.8,0.1-1.2,0.1c-0.4,0-0.8,0.1-1.2,0.2l-1.3,0.5c-0.3,0.1-0.7,0.3-1,0.4
		c-0.3,0.2-0.6,0.4-0.8,0.7c-0.3,0.4-0.6,0.8-0.9,1.1c-0.9,1.1-1.6,2.3-2,3.6c-0.1,0.3-0.2,0.7-0.3,1c-0.1,0.3-0.2,0.7-0.4,1
		l-0.5,1.7c-0.1,0.3-0.1,0.6-0.1,0.8c0,0.3-0.1,0.5-0.1,0.8c-0.3,1.2-0.2,2.5,0.1,3.7c0.1,0.5,0.3,0.9,0.6,1.2
		c0.4,0.6,0.9,1,1.5,1.2s1.2,0.3,1.8,0.2c0.3,0,0.7-0.1,1-0.2s0.6-0.2,1-0.2c0.5,0,1-0.2,1.4-0.4c0.4-0.2,0.8-0.5,1.1-0.8
		c0.1-0.1,0.1-0.1,0.2-0.2s0.1-0.1,0.2-0.2v0.6H45z M21.9,26.5c0.1-0.1,0.2-0.1,0.3-0.2c0.2-0.3,0.6-0.4,1.1-0.4s1,0,1.5,0
		s1,0,1.5,0.1c0.4,0.1,0.9,0.2,1.3,0.3s0.9,0.2,1.3,0.4c0.2,0.1,0.3,0.3,0.1,0.6c0,0.1-0.1,0.3-0.1,0.5s-0.1,0.4-0.2,0.6
		c-0.1,0.1-0.1,0.2-0.2,0.3c-0.4,0.3-0.8,0.6-1.2,0.9s-0.8,0.5-1.3,0.6c-0.4,0.1-0.9,0.1-1.4,0.1s-0.9-0.1-1.4-0.3
		c-0.2-0.1-0.4-0.2-0.6-0.4c-0.2-0.1-0.4-0.3-0.6-0.4c-0.2-0.2-0.4-0.4-0.7-0.6c-0.2-0.2-0.4-0.4-0.7-0.6c-0.2-0.2-0.3-0.3-0.3-0.4
		s0.2-0.2,0.4-0.4S21.5,26.6,21.9,26.5 M36.1,49.2c-0.3,1-0.8,2.1-1.3,3.5c-0.6,1.4-1.2,2.9-2,4.4c-0.8,1.6-1.6,3-2.5,4.4
		c-0.9,1.3-1.9,2.4-3,3.4s-2.4,1.7-3.9,2.2c-1.2,0.4-2.5,0.5-4,0.4s-2.7-0.5-3.8-1.2c-1.2-0.7-2-1.7-2.5-2.9s-0.9-2.4-1-3.7
		c-0.1-0.9,0-1.8,0.2-2.6c0.2-0.9,0.5-1.7,0.8-2.5c0.3-0.7,0.6-1.5,0.8-2.4c0.2-0.8,0.6-1.6,1.1-2.3c0.8-1.2,1.9-2.1,3.3-2.8
		c0.3-0.1,0.6-0.3,0.9-0.4c0.3-0.1,0.6-0.1,0.9,0c0.1,0,0.4,0,0.7,0s0.6-0.1,1-0.2c0.3-0.1,0.6-0.3,0.9-0.4c0.3-0.2,0.4-0.3,0.5-0.5
		c0.1-0.3,0-0.4-0.3-0.6c-0.3-0.1-0.5-0.2-0.7-0.3c-0.2-0.1-0.4-0.2-0.6-0.3c-0.2-0.1-0.4-0.3-0.6-0.4c-0.2-0.1-0.4-0.1-0.7-0.1
		c-0.2,0-0.5,0-0.7,0.1c-0.7,0.1-1.4-0.1-2.1-0.4c-0.6-0.4-1.2-0.8-1.7-1.3c-0.6-0.6-1.1-1.4-1.4-2.2c-0.3-0.9-0.5-1.7-0.5-2.6
		s0.1-1.8,0.4-2.7c0.3-0.9,0.7-1.6,1.3-2.3c0.3-0.3,0.5-0.6,0.7-0.9s0.4-0.6,0.7-0.9s0.6-0.6,0.9-0.8c0.3-0.3,0.7-0.5,1-0.8
		c0.2-0.1,0.4-0.1,0.6,0.1c0.2,0.2,0.5,0.4,0.7,0.7c0.2,0.2,0.5,0.4,0.7,0.6c0.8,0.6,1.6,1.2,2.6,1.6c0.9,0.4,1.9,0.5,3,0.4
		c0.9-0.1,1.8-0.5,2.7-0.9c0.9-0.5,1.7-1,2.4-1.5c0.5-0.4,1-1,1.4-1.7c0.2-0.3,0.3-0.7,0.4-1c0-0.4,0-0.7-0.1-1.1
		c-0.1-0.3-0.2-0.6-0.3-0.8s-0.9-0.8-1-1.1c0-0.1-0.1-0.1-0.2-0.2s-0.3-0.1-0.4-0.2s-0.3-0.1-0.5-0.2l-4-1.7
		c-0.7-0.3-1.4-0.5-2.1-0.6c-0.7-0.1-1.4-0.1-2.2,0c-0.7,0.1-1.3,0.3-2,0.4c-0.6,0.2-1.3,0.4-1.9,0.7c-0.1,0.1-0.3,0.1-0.4,0.2
		c-0.1,0.1-0.3,0.1-0.4,0.2c-0.2-0.3-0.4-0.5-0.5-0.7c-0.2-0.2-0.3-0.5-0.5-0.7c-0.2-0.3-0.4-0.5-0.6-0.7c-0.2-0.2-0.5-0.3-0.8-0.5
		c-0.1,0-0.2-0.1-0.2-0.1c-0.1,0-0.2,0-0.4-0.1c0.1,0.7,0.3,1.4,0.6,2s0.5,1.3,0.6,2c-0.2,0.1-0.4,0.3-0.6,0.4
		c-0.2,0.1-0.4,0.3-0.6,0.4c-0.5,0.3-1,0.7-1.5,1s-1,0.7-1.4,1.1c-0.2,0.3-0.4,0.5-0.7,0.8c-0.2,0.2-0.4,0.5-0.6,0.8
		c-0.7,1-1.3,2-1.8,3.1c-0.4,1.1-0.7,2.2-0.7,3.5c0,0.9,0,1.7,0.2,2.5c0.1,0.8,0.4,1.6,0.8,2.3c1.1,1.9,2.6,3.3,4.4,4.2
		c0.1,0.1,0.2,0.1,0.3,0.2s0.3,0.2,0.4,0.3c-0.3,0.1-0.6,0.2-0.9,0.3c-0.3,0.1-0.6,0.2-0.9,0.1c-0.1,0-0.1,0-0.2,0.1
		c-0.1,0-0.1,0.1-0.2,0.1c-0.5,0.3-0.9,0.6-1.4,0.9c-0.4,0.3-0.9,0.7-1.3,1c-0.6,0.5-1.1,1.1-1.5,1.8c-0.4,0.7-0.8,1.3-1.2,2
		c-0.1,0.3-0.3,0.6-0.5,0.9s-0.3,0.6-0.4,0.9c-0.2,0.9-0.3,1.7-0.5,2.6c-0.1,0.9-0.2,1.7-0.1,2.6c0.1,1.1,0.3,2.2,0.6,3.2
		s0.7,2,1.1,3c0.5,1.1,1.2,2.1,2,2.8c0.8,0.8,1.8,1.4,2.8,2c1.3,0.7,2.7,1.2,4.1,1.4c1.4,0.2,2.8,0.3,4.2,0.1s2.7-0.6,4-1.3
		s2.5-1.5,3.5-2.6c1.2-1.2,2.4-2.6,3.4-4c1.2-1.7,2.2-3.5,3.1-5.2c0.9-1.8,1.6-3.4,2.2-4.9s1.2-3.1,1.8-5c-0.2-0.1-0.5-0.2-0.8-0.2
		s-0.5,0-0.8,0.1C36.6,47.7,36.4,48.2,36.1,49.2"/>
	<path class="st1" d="M424.3,56.7c0.5,0.7,0.8,1.5,1,2.2c0,0.1,0.1,0.2,0.1,0.3s0,0.2,0.1,0.3c0.2,0.6,0.4,1.3,0.4,2
		c0.1,0.7,0.1,1.4,0.1,2c0,0.8-0.1,1.7-0.4,2.7c-0.2,0.3-0.3,0.4-0.4,0.6c-0.2,0.2-0.4,0.3-0.6,0.4c-0.2,0.1-0.4,0.2-0.7,0.3
		c-0.3,0.1-0.6,0.2-0.8,0.4c-0.3,0.2-0.7,0.4-1,0.6c-0.3,0.2-0.6,0.4-1,0.6c-0.6,0.4-1.3,0.7-2,0.8c-0.1,0-0.2,0.1-0.3,0.1
		s-0.2,0-0.3,0.1c-0.3,0.1-0.5,0.1-0.7,0.1c-0.3,0.1-0.6,0-0.9-0.2c-0.3-0.2-0.4-0.5-0.4-0.8c0-0.5-0.1-0.9-0.1-1.4s0.1-1,0.2-1.4
		c0.1-0.3,0.1-0.5,0.2-0.7c0-0.2,0.1-0.5,0.2-0.7c0.1-0.2,0.1-0.4,0.2-0.6c0-0.2,0.1-0.4,0.3-0.6v-0.1c0.1-0.3,0.2-0.5,0.4-0.7
		c0.1-0.2,0.3-0.4,0.5-0.6c0.3-0.4,0.7-0.8,1-1.2c0.3-0.4,0.7-0.7,1.2-1.1c0.3-0.2,0.4-0.3,0.4-0.4c0.1-0.2,0.3-0.3,0.4-0.4
		c0.1-0.1,0.3-0.3,0.4-0.4c0.2-0.2,0.4-0.3,0.5-0.5c0.1-0.1,0.3-0.3,0.4-0.5c0.2-0.2,0.4-0.4,0.6-0.7c0.2-0.2,0.5-0.4,0.8-0.5
		L424.3,56.7z M422.6,55c-0.1,0.1-0.2,0.2-0.3,0.3c-0.4,0.5-0.9,1-1.3,1.5s-0.9,0.9-1.4,1.4c-0.2,0.2-0.4,0.4-0.5,0.6
		c-0.1,0.2-0.3,0.4-0.5,0.6c-0.1,0.2-0.3,0.4-0.4,0.6c-0.1,0.2-0.3,0.4-0.4,0.5c-1.1,1.4-1.9,2.9-2.5,4.6c-0.6,1.7-0.7,3.4-0.4,5
		c0.1,0.3,0.2,0.6,0.4,0.7c0.2,0.1,0.4,0.3,0.5,0.5s0.2,0.3,0.3,0.4c0.1,0.1,0.3,0.2,0.4,0.3c0.2,0,0.3,0.1,0.4,0.3
		c0.6,0.6,1.3,1.2,2,1.6c0.7,0.4,1.5,0.7,2.5,0.8c0.8,0,1.7,0,2.7-0.2s1.8-0.6,2.4-1.1c1-0.9,1.9-1.7,2.7-2.5
		c0.8-0.8,1.5-1.9,1.9-3.2c0.2-0.6,0.3-1.3,0.5-2c0.1-0.7,0.3-1.4,0.4-2.2c0.1-0.7,0.1-1.4,0-2.2c-0.1-0.7-0.2-1.4-0.5-2
		c-0.2-0.4-0.2-0.8-0.2-1.3c0-0.4,0-0.8-0.1-1.3c-0.2-0.5-0.4-0.9-0.5-1.4s-0.4-0.9-0.7-1.2c-0.1-0.1-0.1-0.2-0.2-0.3
		c0-0.1-0.1-0.2-0.2-0.3s-0.2-0.3-0.3-0.4c-0.1-0.1-0.2-0.3-0.3-0.4c-0.3-0.3-0.3-0.5,0-0.7c0.2-0.2,0.4-0.4,0.6-0.6
		c0.2-0.2,0.4-0.4,0.6-0.6c0,0,0.2-0.1,0.4-0.3c0,0,0.1-0.1,0.2-0.1c0.1,0,0.1-0.1,0.1-0.1c0-0.2,0.1-0.4,0.2-0.5
		c0.1-0.1,0.2-0.2,0.4-0.3c0.3-0.3,0.6-0.6,0.8-0.9c0.3-0.3,0.4-0.5,0.6-0.6c0.1-0.1,0.2-0.2,0.3-0.3s0.2-0.2,0.3-0.3
		c0.2-0.2,0.3-0.4,0.4-0.6c0.1-0.2,0.3-0.4,0.5-0.5c0.2-0.1,0.3-0.3,0.4-0.4c0.1-0.1,0.3-0.2,0.4-0.3c0.2-0.1,0.3-0.2,0.4-0.4
		c0-0.2,0.1-0.4,0.2-0.5l0.2-0.2c0.2-0.3,0.1-0.5-0.2-0.6c-0.2,0-0.4-0.1-0.6-0.1c-0.2,0-0.3-0.1-0.5-0.2c-0.3-0.1-0.6-0.1-0.8,0.1
		c-0.1,0.1-0.2,0.2-0.2,0.2c-0.1,0.1-0.1,0.1-0.2,0.2c-0.3,0.4-0.6,0.8-0.9,1.1c-0.4,0.3-0.7,0.6-1.1,1c-0.2,0.2-0.4,0.4-0.6,0.6
		c-0.2,0.2-0.4,0.4-0.6,0.6c-0.3,0.3-0.5,0.6-0.7,0.9c-0.2,0.3-0.5,0.5-0.9,0.7c-0.2,0.2-0.3,0.3-0.4,0.4c-0.3,0.3-0.6,0.5-1,0.7
		c-0.1-0.1-0.3-0.2-0.4-0.4c-0.1-0.1-0.3-0.2-0.4-0.4c-0.2-0.2-0.4-0.4-0.6-0.7c-0.2-0.3-0.4-0.5-0.6-0.7c-0.3-0.3-0.7-0.7-1-1
		c-0.3-0.3-0.6-0.7-1-1c-0.6-0.6-1.2-1.1-1.8-1.6s-1.2-1-1.8-1.6c-0.1-0.1-0.2-0.2-0.3-0.3s-0.2-0.2-0.3-0.3c-0.3-0.3-0.5-0.7-0.8-1
		c-0.3-0.3-0.5-0.6-0.7-1c0,0,0-0.1-0.1-0.1c-0.2-0.2-0.3-0.3-0.4-0.5s-0.1-0.4-0.2-0.6c-0.1-0.6-0.1-1.2,0.1-1.7
		c0.1-0.1,0.1-0.2,0.2-0.4c0-0.1,0.1-0.2,0.1-0.4c0.1-0.3,0.2-0.6,0.4-0.9c0.2-0.2,0.4-0.5,0.6-0.7c0.2-0.1,0.4-0.2,0.6-0.3
		c0.3,0,0.7-0.1,1-0.3c0.3-0.1,0.6-0.2,0.9-0.3c0.6-0.3,0.7-0.6,0.1-1c-0.3-0.2-0.7-0.4-1-0.6c-0.3-0.2-0.7-0.3-1.1-0.4
		c-0.1,0-0.4-0.1-0.7-0.2c-0.4-0.2-0.9-0.2-1.3-0.2c-0.4,0-0.9,0.1-1.3,0.2c-0.8,0.3-1.4,0.7-1.9,1.3c-1.1,1.2-1.7,2.5-2,4
		c-0.1,0.5-0.2,0.9-0.2,1.4c0.1,1.5,0.5,2.8,1.1,4c0.5,0.8,1,1.6,1.5,2.3s1.1,1.4,1.7,2.1c0.7,0.9,1.6,1.8,2.6,2.7
		c0.6,0.5,1.1,1,1.6,1.6c0.5,0.5,1.1,1.1,1.6,1.6c0.4,0.5,0.9,1,1.3,1.5C422.8,54.8,422.7,54.9,422.6,55 M406.4,42.1
		c0-0.3,0.1-0.6,0.1-0.9c0.1-0.7,0.1-1.6,0.1-2.5s-0.1-1.7-0.4-2.4c-0.1-0.2-0.2-0.4-0.2-0.5s0-0.3,0-0.5s-0.1-0.4-0.3-0.8
		c-0.2-0.2-0.4-0.4-0.6-0.6s-0.4-0.4-0.6-0.6c-0.4-0.3-0.9-0.5-1.3-0.4h-1.5c-1.3-0.1-2.4,0.3-3.3,1.1c-0.4,0.4-0.9,0.9-1.4,1.5
		c-0.2,0.3-0.4,0.7-0.7,1c-0.2,0.3-0.5,0.6-0.7,1c-0.2,0.3-0.4,0.7-0.6,1c-0.2,0.3-0.4,0.6-0.6,1l-2.1,3.8c-0.2,0.3-0.3,0.6-0.4,0.8
		s-0.2,0.4-0.4,0.7c-0.1,0.3-0.2,0.5-0.3,0.7c-0.2,0.4-0.3,0.7-0.4,0.9c-0.1,0.2-0.2,0.3-0.2,0.4c-0.1,0.1-0.1,0.3-0.2,0.4
		c-0.3,0.5-0.5,0.9-0.7,1.4c-0.2,0.5-0.5,1-0.7,1.4c0,0.1-0.1,0.2-0.1,0.2c0,0.1-0.1,0.1-0.2,0.1c0-0.3-0.1-0.5-0.1-0.7v-0.7
		c0-0.6,0-1.1,0-1.7c0-0.2,0-0.4,0-0.7s0.1-0.5,0.1-0.7s0-0.4-0.1-0.6s-0.1-0.4-0.1-0.6c0-0.5,0-1,0-1.5c0.1-0.5,0.1-1,0.2-1.5
		c0.1-0.4,0.1-0.8,0.2-1.2c0-0.4,0.1-0.8,0.1-1.3c0.1-0.3,0.1-0.7-0.1-1c-0.1-0.3-0.2-0.6-0.3-1s-0.2-0.8-0.2-1.2s0-0.8,0-1.2
		c-0.1-0.6-0.4-1.1-0.9-1.3l-0.1-0.1c0-0.1-0.1-0.3-0.1-0.4c0-0.1-0.1-0.3-0.1-0.4c-0.1-0.1-0.3-0.2-0.4-0.3
		c-0.2-0.1-0.3-0.2-0.4-0.4c0-0.1,0-0.1-0.1-0.1c-0.7-0.3-1.4-0.4-2.3-0.3c-0.4,0.1-0.6,0.3-0.6,0.6c-0.1,0.2-0.1,0.4-0.2,0.7
		c0,0.2-0.1,0.5-0.1,0.7c-0.1,0.5-0.1,1-0.2,1.6c-0.1,0.6-0.1,1.1-0.1,1.6c-0.1,0.9-0.1,1.8-0.2,2.7c0,0.9-0.1,1.8-0.2,2.6v0.4
		c0,0.2,0.1,0.4,0.1,0.5v0.5v1.6c0,0.5,0,1,0.1,1.6V48v1.1c0,0.4,0,0.7,0.1,1.1c0,0.1,0.1,0.3,0.1,0.6v1.6c0,0.5,0,1.1,0.1,1.6
		c0,0.1,0.1,0.2,0,0.3c0,0.1,0,0.2,0,0.3s0.1,0.3,0.1,0.6s0,0.6,0,0.9c0,0.3,0.1,0.6,0.1,0.9c0,0.1,0.1,0.3,0.1,0.4
		c0,0.1,0,0.3,0.1,0.4c0.2,0.4,0.4,0.6,0.6,0.6c0.3,0.1,0.7,0.2,1,0.2c0.3,0,0.6,0,1-0.2c0.2-0.1,0.4-0.2,0.6-0.3
		c0.2-0.1,0.4-0.1,0.7-0.1c0,0,0.1-0.1,0.3-0.2c0.3-0.2,0.5-0.2,0.8-0.1c0.3,0,0.4,0,0.6-0.3c0.1-0.3,0.3-0.5,0.4-0.7
		c0.1-0.2,0.2-0.5,0.3-0.7s0.1-0.3,0.1-0.4c-0.1-0.2-0.1-0.4,0-0.6c0.1-0.2,0.2-0.4,0.3-0.6c0.1-0.2,0.2-0.3,0.3-0.5
		s0.1-0.4,0.2-0.6c0.1-0.3,0.2-0.6,0.2-0.9c0.1-0.3,0.2-0.5,0.4-0.7c0,0,0.1,0,0.1-0.1c0.2-0.6,0.5-1.1,0.8-1.6
		c0.3-0.5,0.6-1.1,0.8-1.6c0.3-0.6,0.6-1.2,0.9-1.8s0.6-1.1,1-1.7c0.4-0.6,0.8-1.2,1.3-1.7c0.4-0.6,0.8-1.1,1.2-1.7
		c0.3-0.5,0.6-1,0.9-1.6s0.7-1,1.1-1.3c0.1-0.1,0.1-0.2,0.2-0.2c0-0.1,0.1-0.1,0.2-0.2c0.1-0.1,0.1-0.2,0.2-0.3
		c0-0.1,0.1-0.2,0.2-0.3c0.1-0.2,0.2-0.3,0.3-0.3c0.2-0.2,0.5-0.3,0.8-0.4v0.3c0,0.6,0,1.2-0.1,1.7s-0.2,1.1-0.3,1.7
		c-0.1,0.5-0.2,0.9-0.3,1.4s-0.2,1-0.3,1.4c-0.1,0.6-0.2,1.2-0.3,1.8s-0.2,1.3-0.3,1.8s-0.2,0.9-0.3,1.4s-0.2,1-0.3,1.4
		c-0.5,2.4-0.8,4.7-1,7.1v1.7c0,1.4,0.1,2.9,0.4,4.3c0,0.3,0.1,0.6,0.2,0.8c0.1,0.3,0.2,0.5,0.3,0.8c0.3,0.8,0.9,1.2,1.6,1.4
		c1.1,0.2,2.3,0,3.4-0.6c1.1-0.6,2-1.4,2.7-2.2c0.7-0.9,1.3-1.8,1.8-2.8s1-2,1.5-3c0.5-0.8,0.9-1.7,1.3-2.6c0.4-0.9,0.9-1.8,1.4-2.6
		c0.2-0.3,0.4-0.6,0.5-0.9s0.3-0.6,0.5-1c0.2-0.3,0.4-0.7,0.5-1.1s0.2-0.8,0.4-1.1c0.2-0.5,0.4-1,0.4-1.5v-0.3
		c0-0.2,0.1-0.4,0.1-0.6c0-0.2,0.1-0.4,0.2-0.6c0.1-0.1,0.1-0.3,0.2-0.4c0-0.1,0.1-0.3,0.2-0.4c-0.3-0.2-0.6-0.1-0.8,0.1
		c-0.1,0.2-0.2,0.3-0.3,0.5s-0.2,0.4-0.3,0.6c-0.1,0.2-0.2,0.4-0.3,0.6c-0.1,0.2-0.2,0.4-0.3,0.6c-0.1,0.2-0.3,0.4-0.4,0.6
		c-0.1,0.2-0.3,0.4-0.4,0.6c-0.2,0.3-0.4,0.7-0.5,1c-0.2,0.3-0.3,0.6-0.5,1c-0.2,0.4-0.4,0.8-0.6,1.2s-0.4,0.8-0.7,1.1
		c-0.5,0.7-0.9,1.4-1.3,2c-0.4,0.8-0.8,1.7-1.3,2.5c-0.4,0.8-0.9,1.6-1.3,2.5c-0.3,0.6-0.7,1.2-1.1,1.8s-0.8,1.2-1.1,1.8
		c-0.1,0.1-0.1,0.2-0.2,0.2c0,0-0.1,0.1-0.2,0.2l-0.2,0.2c-0.1-0.2-0.2-0.3-0.2-0.4c0-0.1,0-0.2,0-0.3c0.1-0.2,0.1-0.3,0.1-0.4
		c0-0.3-0.1-0.6,0-0.8c0-0.3,0.1-0.5,0.1-0.8c0.1-1.5,0.2-3,0.3-4.5s0.3-3,0.6-4.5c0.3-1.5,0.6-2.9,1-4.4c0.4-1.4,0.7-2.9,1.1-4.3
		C406.3,42.7,406.4,42.4,406.4,42.1 M372.6,48.3c-0.1-0.1-0.3-0.3-0.5-0.5c-0.5-0.6-0.9-1.4-1.1-2.2c-0.3-0.8-0.2-1.6,0.2-2.4
		c0.1-0.2,0.1-0.3,0.1-0.4c0.1-0.8,0.3-1.5,0.6-2.1c0.1-0.1,0.1-0.2,0.2-0.3c0-0.1,0.1-0.2,0.1-0.3c0-0.2,0.1-0.3,0.3-0.3
		c0.1,0,0.1,0,0.2,0.1c0,0,0.1,0.1,0.2,0.1v0.1c0.1,0.3,0.2,0.6,0.4,0.9c0.2,0.3,0.3,0.5,0.5,0.8c0.3,0.5,0.4,1,0.4,1.6
		s0.1,1.1,0.1,1.6c0,0.3,0,0.7,0,1.2c-0.1,0.5-0.2,0.8-0.5,1.1c0,0.1-0.1,0.2-0.1,0.4s0,0.4-0.1,0.5c-0.1,0.2-0.2,0.3-0.4,0.5
		C373,48.5,372.8,48.4,372.6,48.3 M367,34.8c-0.4,0-0.7,0-1,0.2c-0.4,0.3-0.8,0.5-1.1,0.7c-0.4,0.2-0.7,0.4-1.1,0.7
		c-0.2,0.2-0.4,0.3-0.7,0.5c-0.2,0.2-0.5,0.3-0.7,0.5c-0.2,0.3-0.4,0.5-0.6,0.8c-0.2,0.3-0.4,0.5-0.6,0.7c-0.4,0.4-0.7,0.8-0.8,1.2
		c-0.3,0.7-0.7,1.4-1,2.2c-0.3,0.7-0.6,1.5-0.9,2.2c-0.3,1.1-0.6,2.2-0.7,3.2c0,0.6-0.1,1.2,0,1.7c0,0.6,0.1,1.1,0.2,1.7
		c0,0.5,0.1,1,0.2,1.5c0.1,0.5,0.3,1,0.5,1.5c0.5,0.8,1.1,1.6,1.9,2.4s1.6,1.3,2.5,1.8c0.4,0.2,0.9,0.4,1.3,0.7
		c0.5,0.2,0.9,0.4,1.4,0.4s0.9-0.1,1.3-0.3s0.8-0.5,1.1-0.7c0.3-0.2,0.6-0.4,0.8-0.6c0.2-0.2,0.5-0.4,0.8-0.6
		c0.3-0.2,0.5-0.4,0.7-0.7c0.2-0.3,0.4-0.5,0.6-0.8c0.3-0.4,0.6-0.7,1-1s0.7-0.7,0.9-1.1c0.1-0.3,0.3-0.7,0.4-1s0.3-0.6,0.4-0.9
		c0.2-0.4,0.4-0.7,0.6-0.7c0.2,0,0.4-0.1,0.7-0.2c0.2-0.1,0.5-0.1,0.7,0c0.6,0.1,1.1,0.1,1.5,0c0.5-0.1,1-0.3,1.5-0.5
		c0.6-0.2,1.1-0.5,1.7-0.8c0.5-0.3,1.1-0.6,1.7-0.8c0.2-0.1,0.5-0.3,1-0.6c0.4-0.3,0.8-0.6,1.2-1s0.8-0.8,1.1-1.2
		c0.3-0.4,0.6-0.7,0.6-1c-0.1-0.2-0.4-0.4-0.8-0.5c-0.1-0.1-0.4-0.1-0.7,0c-0.1,0-0.1,0.1-0.2,0.2c0,0.1-0.1,0.1-0.2,0.2
		c-0.1,0.2-0.2,0.3-0.3,0.4c-0.9,0.9-2,1.7-3.2,2.4c-1.2,0.7-2.4,1.1-3.7,1.3c-0.2,0-0.4,0.1-0.6,0.1s-0.4,0-0.6,0
		c-0.1,0-0.2,0-0.2-0.1c-0.1,0-0.1-0.1-0.2-0.1c0.1-0.3,0.1-0.5,0.1-0.7s0-0.4,0.1-0.6c0-0.3,0.1-0.6,0.3-0.8
		c0.1-0.3,0.2-0.6,0.3-0.9c0-0.4,0.1-0.8,0-1.2c0-0.4-0.1-0.9-0.2-1.2c0-0.2-0.1-0.3-0.1-0.5c0-0.1-0.1-0.3-0.1-0.5
		c0-0.5-0.1-0.9-0.2-1.3c-0.1-0.4-0.3-0.8-0.5-1.2c-0.3-0.5-0.6-0.9-1.1-1.2s-1-0.5-1.4-0.8c-0.4-0.2-0.7-0.4-1.1-0.6
		c-0.3-0.2-0.7-0.2-1.2-0.1c-0.3,0.1-0.6,0.1-0.8,0.1c-0.3,0-0.5,0.2-0.7,0.4c-0.2,0.2-0.4,0.4-0.6,0.4l-0.1,0.1
		c-0.2,0.5-0.4,0.9-0.6,1.4c-0.2,0.4-0.4,0.9-0.4,1.4c-0.2,0.8-0.3,1.7-0.2,2.5s0.3,1.6,0.7,2.4c0.1,0.2,0.3,0.4,0.4,0.7
		c0.1,0.2,0.3,0.5,0.5,0.7c0.7,0.9,1.7,1.8,2.8,2.6c0.2,0.1,0.4,0.3,0.6,0.4c0.2,0.1,0.4,0.2,0.6,0.3c0,0.1-0.1,0.2-0.1,0.2
		s0,0.1-0.1,0.2c-0.3,0.3-0.4,0.7-0.6,1.1c0,0,0,0.1-0.1,0.1c-0.3,0.6-0.8,1.1-1.3,1.7c-0.1,0.1-0.2,0.3-0.4,0.4
		c-0.1,0.1-0.2,0.2-0.4,0.3c-0.2,0.2-0.5,0.4-0.7,0.5c-0.3,0.1-0.5,0.3-0.7,0.5c-0.5,0.4-1,0.7-1.5,0.8s-1,0.4-1.6,0.6
		c-0.3,0.1-0.7,0.1-1-0.2c-0.1-0.1-0.3-0.3-0.4-0.4c-0.1-0.1-0.3-0.3-0.4-0.4c-0.3-0.2-0.4-0.5-0.4-0.8c-0.1-0.5-0.1-0.9-0.2-1.3
		c0-0.4-0.1-0.9-0.1-1.3c0-0.4,0-0.8,0-1.2s0.2-0.8,0.5-1.1c0.1-0.2,0.1-0.3,0.1-0.3c0.1-0.5,0.2-0.9,0.4-1.3
		c0.2-0.4,0.4-0.8,0.5-1.3s0.2-0.9,0.4-1.4c0.1-0.4,0.2-0.9,0.4-1.4c0.2-0.7,0.4-1.4,0.6-2c0.2-0.7,0.3-1.4,0.5-2
		c0.1-0.3,0.2-0.6,0.3-0.9c0.1-0.3,0.2-0.5,0.4-0.8c0.1-0.2,0.2-0.3,0.3-0.5s0.2-0.3,0.3-0.5c0.3-0.1,0.4-0.4,0.6-0.8
		c0-0.1,0.1-0.2,0.3-0.4c0.4-0.4,0.6-0.8,0.5-1.2C368.2,35.1,367.6,34.9,367,34.8 M347.6,29.2c0,0.2,0,0.3,0,0.5
		c0,0.5,0.1,0.9,0.4,1.3c0.1,0.2,0.3,0.5,0.6,0.8c0.2,0.2,0.4,0.3,0.7,0.3h0.7l0.1-0.1c0.1-0.2,0.3-0.4,0.6-0.6
		c0.1-0.4,0.2-0.8,0.3-1.1c0.1-0.4,0.1-0.8,0.2-1.1c-0.4-0.6-1-0.8-1.7-0.7c-0.2,0-0.3,0-0.5,0c-0.2,0-0.3,0-0.4,0
		c0-0.1-0.1-0.1-0.3,0c-0.2,0-0.3,0-0.4,0.1c-0.1,0-0.2,0.1-0.4,0.1C347.5,28.8,347.5,29,347.6,29.2 M360.8,45
		c-0.1,0.2-0.2,0.4-0.3,0.5s-0.1,0.2-0.2,0.4c-0.2,0.5-0.4,1-0.5,1.4c-0.2,0.4-0.4,0.8-0.6,1.3c-0.2,0.4-0.3,0.7-0.5,1
		c-0.2,0.3-0.3,0.6-0.5,0.9c-0.1,0.3-0.3,0.6-0.4,0.9c-0.2,0.3-0.3,0.6-0.4,0.9c-0.4,0.7-0.8,1.3-1.3,1.9c-0.5,0.6-1,1.2-1.5,1.8
		c-0.1,0.2-0.2,0.3-0.3,0.4s-0.3,0.3-0.4,0.4c-0.2,0.2-0.4,0.3-0.6,0.5c-0.2,0.2-0.4,0.3-0.7,0.4c-0.1,0-0.3,0.1-0.6,0.1
		c-0.2,0-0.3,0-0.3-0.1c-0.3-0.4-0.4-0.9-0.4-1.4c0-0.6,0-1.2-0.1-1.8c0-0.2-0.1-0.4,0-0.6c0-0.2,0.1-0.4,0.1-0.6v-0.5
		c0-0.2,0-0.4-0.1-0.6c0,0,0-0.1,0-0.2c0-0.1,0-0.1,0-0.2c0-0.3,0.1-0.7,0.2-1s0.1-0.7,0-1.1l0.1-0.1v-0.8c0-0.5,0.1-0.9,0.1-1.2
		c0-0.4,0-0.7,0.1-1.1c0.1-0.3,0.1-0.6,0.1-0.9c0-0.3,0-0.6-0.1-0.9c0-0.1,0-0.3,0-0.4c0-0.1,0-0.3,0-0.4c0.1-0.4,0.1-0.9,0.1-1.3
		c0-0.6,0-1.1,0.1-1.6c0-0.5,0-1.1-0.1-1.7c-0.1-0.3-0.1-0.6-0.1-0.9c0-0.3,0-0.6-0.1-0.9c0-0.1,0-0.2-0.1-0.3
		c0-0.1-0.1-0.2-0.1-0.3c-0.1-0.2-0.2-0.4-0.3-0.5s-0.2-0.3-0.3-0.5s-0.3-0.4-0.6-0.5c-0.2-0.1-0.4-0.2-0.7-0.2
		c-0.3,0-0.5,0-0.7-0.1c-0.3,0-0.4,0.1-0.4,0.3c-0.1,0.4-0.3,0.8-0.4,1.2c-0.1,0.4-0.3,0.7-0.4,1.1c-0.1,0.5-0.2,0.9-0.2,1.3
		c-0.1,0.4-0.1,0.8-0.2,1.3c-0.1,0.5-0.1,0.9-0.2,1.3c0,0.4-0.1,0.9-0.2,1.3c-0.2,1.8-0.2,3.6-0.2,5.3c0,0.6,0,1.1,0,1.6
		s0,1.1,0,1.6s0,0.9,0,1.4s0,0.9,0.1,1.4s0.2,0.9,0.2,1.4c0.1,0.4,0.2,0.9,0.4,1.4c0.2,0.4,0.5,0.8,0.8,1.1c0.3,0.3,0.7,0.6,1.1,0.8
		c0.3,0.1,0.6,0.2,0.9,0.3c0.3,0.1,0.6,0.2,1,0.3c0.2,0.1,0.6,0.1,1,0.1c0.2-0.1,0.5-0.1,0.7-0.2c0.3,0,0.6-0.1,0.9-0.2
		c0.1-0.1,0.2-0.1,0.3-0.1c0.3-0.1,0.5-0.2,0.8-0.4c0.3-0.1,0.5-0.3,0.7-0.5c0.4-0.3,0.8-0.6,1.2-0.9c0.4-0.3,0.7-0.6,0.9-1
		c0.2-0.3,0.4-0.5,0.5-0.7s0.3-0.5,0.4-0.7l0.1-0.1c0.1-0.5,0.3-1,0.5-1.5c0.2-0.5,0.4-0.9,0.6-1.4c0-0.1,0.1-0.2,0.2-0.3
		c0.1-0.1,0.1-0.2,0.2-0.3c0-0.2,0.1-0.4,0.2-0.5c0.1-0.1,0.2-0.3,0.3-0.5c0.1-0.1,0.1-0.2,0.2-0.4c0-0.1,0.1-0.2,0.2-0.3
		c0.1-0.2,0.2-0.4,0.2-0.6c0.1-0.2,0.2-0.3,0.4-0.4c0.1-0.2,0.2-0.4,0.3-0.6c0.2-0.3,0.3-0.7,0.4-1c0.1-0.3,0.2-0.6,0.4-1
		c0-0.1,0.1-0.3,0.1-0.4c0-0.1,0.1-0.3,0.2-0.5c0-0.3-0.1-0.5-0.4-0.8C361.6,44.3,361.1,44.6,360.8,45 M328.9,31.7
		c0,0.1,0,0.3-0.1,0.4c0,0.3-0.1,0.7-0.1,1.1c0,0.4-0.1,0.7-0.2,1.1c-0.2,0.7-0.3,1.5-0.4,2.2c-0.1,0.8-0.2,1.5-0.3,2.2
		c0,0.5-0.1,0.9-0.1,1.4s-0.1,0.9-0.1,1.3c-0.1,0.6-0.2,1.3-0.3,1.9c-0.1,0.7-0.1,1.3-0.2,2c0,0.3,0,0.6-0.1,0.8l-0.2,3.4
		c0,0.3,0,0.5,0,0.8s0,0.5,0,0.8v0.5c0,0.1,0,0.3-0.1,0.5c0,0.3,0,0.7,0,1s0,0.7,0,1v1.8v1c0,0.3,0,0.6,0,0.9c0,0.3,0.1,0.6,0.1,0.9
		c0,0.2,0.1,0.4,0.1,0.6c0,0.2,0.1,0.4,0.1,0.6c0,0.2,0.1,0.4,0.1,0.6c0,0.5,0.1,0.9,0.2,1.4c0.1,0.4,0.2,0.9,0.4,1.4
		c0.5,1.5,1.5,2.4,2.9,2.6c0.5,0.1,0.9,0.2,1.3,0.2c0.4,0,0.8,0,1.3,0c0.3,0,0.5-0.1,0.8-0.3c0,0,0.1,0,0.1-0.1c0,0,0.1-0.1,0.2-0.1
		c0.4-0.1,0.8-0.4,1.1-0.9c0.5-0.5,1-0.9,1.5-1.3c0.5-0.4,1-0.9,1.4-1.5s0.7-1.2,1-1.8c0.3-0.6,0.6-1.2,1-1.8c0.6-1.3,1.3-2.6,2-3.7
		c0.8-1.2,1.6-2.4,2.4-3.5c0.5-0.7,0.9-1.5,1.3-2.2c0.4-0.8,0.8-1.5,1.2-2.2c0.1-0.2,0.2-0.4,0.3-0.5s0.2-0.3,0.3-0.5
		s0.2-0.4,0.3-0.6c0,0,0-0.1,0.1-0.1c0,0,0.1-0.1,0.1-0.2l0.1-0.1c0.3-0.5,0.1-0.8-0.4-1c-0.3-0.1-0.5,0-0.6,0.1
		c-0.1,0.2-0.2,0.3-0.3,0.5s-0.2,0.3-0.3,0.5c-0.2,0.6-0.5,1.1-0.8,1.4c-0.1,0.2-0.3,0.4-0.4,0.6c-0.1,0.2-0.3,0.4-0.4,0.6l-0.1,0.1
		c0,0,0,0.1-0.1,0.2c-0.3,0.5-0.7,1-1.1,1.5c-0.4,0.5-0.7,1-1.1,1.6c-0.2,0.3-0.4,0.5-0.6,0.8c-0.2,0.3-0.3,0.5-0.5,0.8
		c-0.2,0.3-0.4,0.7-0.7,1c-0.2,0.3-0.5,0.7-0.7,1c-0.2,0.3-0.4,0.7-0.6,1c-0.2,0.3-0.4,0.6-0.6,1c-0.1,0-0.2,0.2-0.3,0.4
		c-0.6,0.9-1.2,1.8-1.8,2.7s-1.3,1.8-1.9,2.8c-0.2,0.3-0.4,0.5-0.6,0.8c-0.2,0.3-0.4,0.5-0.6,0.8c-0.2,0.2-0.3,0.3-0.4,0.4
		c-0.1,0.1-0.2,0.2-0.4,0.3c-0.2,0.1-0.4,0.2-0.6,0.1c-0.3-0.1-0.4-0.2-0.6-0.5c-0.1-0.2-0.2-0.5-0.1-0.7c0-0.2,0-0.3,0-0.5
		c0-0.1,0-0.3,0-0.4v-0.3c0-0.1,0-0.3,0-0.4c0-0.1,0-0.3,0-0.4v-0.6c0-1.9,0.1-3.8,0.2-5.7c0.1-1.9,0.2-3.8,0.3-5.7s0.1-3.8,0.2-5.7
		c0-1.9,0-3.8-0.2-5.6c-0.1-0.3-0.1-0.6,0.1-0.9V37v-0.8c0-0.5,0.1-0.9,0-1.4s0-0.9,0-1.3c0-0.2,0-0.4,0-0.7s0-0.5,0-0.7h0.5h0.4
		c0.2,0,0.4,0.1,0.6,0.1h0.6c0.2,0,0.4,0.1,0.7,0c0.2,0,0.5-0.1,0.7-0.2l0.1-0.1c0.3,0,0.4-0.1,0.6-0.2c0.1-0.1,0.2-0.1,0.4-0.2
		c0.1,0,0.2-0.1,0.3-0.1c0.2,0.1,0.4,0.2,0.4,0.2c0.1,0,0.1-0.1,0.2-0.3c0,0,0.1,0,0.1-0.1c0.1-0.2,0.3-0.3,0.5-0.3
		c0.1,0,0.2,0,0.2-0.1s0.1-0.1,0.2-0.1c0.1-0.1,0.2-0.1,0.3-0.2c0.1,0,0.2-0.1,0.3-0.1s0.1-0.1,0.2-0.1c0.1,0,0.1,0,0.2-0.1
		c0.2-0.1,0.3-0.2,0.5-0.3c0.2-0.1,0.3-0.1,0.5-0.2h0.2c0.2-0.1,0.4-0.2,0.7-0.4c0.3-0.2,0.5-0.2,0.7-0.3c0.2-0.1,0.3-0.1,0.3-0.2
		c0.2-0.1,0.3-0.3,0.5-0.4c0.2-0.1,0.3-0.3,0.5-0.5c-0.1-0.2-0.1-0.3,0-0.4c0.1-0.1,0.1-0.3,0.1-0.5c-0.4-0.3-0.8-0.3-1.1-0.1
		c-0.1,0.1-0.3,0.1-0.4,0.2c-0.2,0-0.3,0.1-0.4,0.2c-0.6,0.2-1.2,0.4-1.8,0.7c-0.6,0.2-1.2,0.5-1.8,0.7c-0.8,0.3-1.7,0.4-2.7,0.3
		c-0.1,0-0.3,0-0.4-0.1c-0.3-0.1-0.7-0.2-1.1-0.4c-0.4-0.2-0.8-0.2-1.1-0.4c-0.4-0.2-0.6-0.5-0.6-0.9c0-0.1,0.1-0.2,0-0.3
		c0-0.1,0-0.2,0-0.3v-0.3c-0.1-0.3-0.1-0.6-0.2-0.9c-0.1-0.3-0.1-0.6-0.1-0.9v-0.4c0-0.1,0-0.3,0.1-0.4c0.2-0.3,0.1-0.7-0.1-1.1
		c0-0.1-0.1-0.2-0.1-0.3s-0.1-0.2-0.2-0.4c-0.2-0.3-0.6-0.4-1.1-0.4l-0.1,0.1c-0.3,0.6-0.5,1.2-0.5,1.8c-0.1,0.5-0.2,1-0.3,1.5
		s-0.2,1-0.3,1.5c0,0.1,0,0.2,0,0.3s-0.1,0.2-0.2,0.3c-0.2,0-0.4,0-0.7-0.1c-0.7,0-1.4,0-2.1,0c-0.4,0.1-0.9,0.1-1.3-0.1
		c-0.1,0-0.3-0.1-0.4-0.1s-0.3,0-0.5-0.1c-0.3,0-0.6-0.1-0.9-0.1s-0.6,0-0.9,0c-0.4,0-0.8-0.1-1.2-0.1s-0.8,0-1.2,0
		s-0.8,0.1-1.1,0.1c-0.4,0-0.7,0.2-1.1,0.4c-0.2,0.1-0.4,0.2-0.6,0.3c-0.2,0.1-0.4,0.2-0.6,0.3c0,0,0,0.1-0.1,0.2
		c-0.2,0.1-0.1,0.2,0.1,0.3c0.1,0,0.3,0,0.4,0s0.3,0,0.4,0c0.2,0,0.4,0,0.5,0c0.2,0,0.4,0,0.6,0c0.3-0.1,0.6-0.1,0.9-0.1
		c0.3,0,0.6,0.1,0.9,0.2c0.2,0.1,0.4,0.2,0.5,0.2c0.2,0.1,0.4,0.1,0.5,0.2c0.8,0,1.7,0.2,2.6,0.6c0.2,0.1,0.4,0.2,0.6,0.3
		s0.4,0.1,0.7,0.2c0.3,0,0.5,0.1,0.7,0.2c0.3,0.1,0.6,0.2,0.9,0.3c0.3,0.1,0.6,0.2,1,0.3c0.1,0.1,0.3,0.2,0.4,0.2
		c0.1,0.1,0.3,0.1,0.4,0.2C328.9,31.4,328.9,31.5,328.9,31.7 M313.7,51.9c-0.1,0.6-0.1,1.2-0.2,1.8c-0.1,0.6-0.1,1.2-0.1,1.8
		c0,0.8,0,1.5,0.1,2.3c0.1,0.7,0.3,1.5,0.8,2.1c0.1,0.3,0.3,0.5,0.6,0.7c0.4,0.4,1,0.6,1.8,0.7c0.8,0.1,1.4,0,1.9-0.1
		c1.1-0.4,2-1,2.8-1.8c0.8-0.8,1.6-1.7,2.2-2.7c0.7-1,1.2-2.1,1.8-3.2c0.5-1.1,1-2.1,1.4-3.1c0.1-0.2,0.2-0.5,0.4-1
		c0.2-0.5,0.4-0.9,0.6-1.4c0.2-0.5,0.4-1,0.6-1.4c0.2-0.4,0.4-0.8,0.5-1s0.1-0.4,0.2-0.5c0-0.2,0.1-0.4,0.1-0.6
		c0-0.3-0.1-0.4-0.4-0.4c-0.2,0-0.3,0.1-0.4,0.1s-0.3,0-0.4,0.1c-0.2,0-0.3,0.1-0.3,0.3s0,0.4-0.1,0.5c-0.5,1.1-1.1,2.3-1.8,3.8
		c-0.7,1.5-1.2,2.7-1.8,3.8c-0.3,0.6-0.6,1.2-1.1,1.9s-0.9,1.3-1.2,1.8c-0.2,0.2-0.5,0.6-1.1,1.1c-0.5,0.5-0.9,0.8-1.2,0.9
		c-0.5,0.2-0.8,0.2-1,0c-0.2-0.2-0.3-0.5-0.3-0.8c0-0.4,0-0.7,0-1.1s0.1-0.6,0.1-0.7c0-0.2,0-0.4,0-0.6s0.1-0.4,0.1-0.6
		c0.1-0.5,0.1-1,0.2-1.5c0-0.5,0.1-1,0.2-1.4c0-0.3,0.1-0.5,0.1-0.7s0.1-0.5,0.2-0.7c0.1-0.8,0.2-1.4,0.3-2c0-0.6,0.1-1.3,0.3-2
		c0.1-0.7,0.3-1.4,0.5-2.3c0.2-0.8,0.3-1.6,0.3-2.3c0-0.2,0-0.3,0-0.5c0-0.1,0-0.3,0-0.5c-0.2-0.3-0.2-0.6,0-0.9
		c0.2-0.3,0.2-0.6,0.1-0.9l-0.2-0.4c-0.1-0.5-0.4-0.7-1-0.6c-0.2,0-0.4,0.1-0.6,0.1s-0.4,0.1-0.6,0.2c-0.5,0-0.9,0.4-1.1,1.1
		c-0.1,0.4-0.2,0.8-0.4,1.2c-0.1,0.4-0.3,0.8-0.4,1.2c-0.1,0.4-0.3,0.8-0.4,1.1c-0.2,0.4-0.3,0.8-0.4,1.1c-0.1,0.2-0.2,0.5-0.2,0.7
		c0,0.3-0.1,0.5-0.2,0.8s-0.1,0.5-0.2,0.8c-0.1,0.3-0.1,0.5-0.2,0.7c-0.4,0.7-0.9,1.5-1.5,2.4s-1.3,1.6-2,1.9
		c-0.6,0.3-1.2,0.2-1.9-0.2s-1.1-0.9-1.2-1.5c-0.3-1.1-0.3-2.1-0.1-3.1c0.2-1,0.5-2,0.8-3c0.2-0.4,0.3-0.8,0.4-1.3
		c0.1-0.4,0.3-0.8,0.4-1.3c0.3-0.8,0.7-1.7,1-2.6c0.3-0.9,0.7-1.8,1.1-2.6c0.3-0.6,0.8-1,1.3-1.2c0.5-0.3,1.1-0.4,1.7-0.6
		c0.7-0.2,1.4-0.1,2.2,0.1l0.2,0.2c0.3,0.4,0.7,0.8,1,1.1c0.3,0.3,0.5,0.8,0.6,1.3c0.1,0.3,0.2,0.4,0.4,0.3c0.3,0,0.5-0.1,0.6-0.2
		c0.6-0.5,0.6-1.1,0.3-1.8c-0.1-0.2-0.2-0.4-0.4-0.6c-0.1-0.2-0.3-0.4-0.4-0.6c-0.2-0.3-0.4-0.5-0.7-0.7c-0.3-0.2-0.5-0.3-0.8-0.4
		c-0.4-0.1-0.8-0.1-1.1-0.2c-0.4,0-0.7,0-1.1,0.2c-0.1,0-0.3,0.1-0.6,0.1c-0.5,0.1-0.9,0.1-1.4,0.2c-0.4,0-0.9,0.1-1.4,0.3l-1.5,0.6
		c-0.4,0.1-0.8,0.3-1.1,0.5c-0.4,0.2-0.7,0.5-0.9,0.8c-0.3,0.5-0.7,0.9-1,1.2c-1.1,1.2-1.8,2.6-2.2,4.1c-0.1,0.4-0.2,0.8-0.4,1.1
		c-0.1,0.4-0.3,0.8-0.4,1.1l-0.6,1.9c-0.1,0.3-0.1,0.7-0.2,1c0,0.3-0.1,0.6-0.2,1c-0.3,1.4-0.3,2.8,0.1,4.3c0.2,0.6,0.4,1.1,0.6,1.4
		c0.5,0.7,1,1.1,1.7,1.3c0.6,0.2,1.3,0.3,2,0.3c0.4,0,0.8-0.1,1.1-0.2c0.4-0.1,0.7-0.2,1.1-0.2c0.6,0,1.1-0.2,1.6-0.5
		c0.4-0.3,0.9-0.6,1.2-0.9c0.1-0.1,0.2-0.2,0.3-0.2s0.2-0.1,0.3-0.2v0.4H313.7z M299,37.1c0,0.1-0.1,0.2-0.1,0.3
		c-0.1,0.3-0.2,0.6-0.1,0.9c0.1,0.1,0.1,0.3-0.1,0.5c-0.3,0.4-0.5,0.8-0.7,1.2c-0.2,0.4-0.5,0.8-0.8,1.1c-0.3,0.5-0.8,0.9-1.5,1.3
		c-0.9,0.4-1.9,0.7-3,0.8c-0.1-0.2-0.1-0.4-0.1-0.5s0.1-0.3,0.2-0.5c0.1-0.3,0.1-0.5,0.2-0.8c0-0.3,0.1-0.5,0.1-0.8
		c0.1-0.3,0.1-0.7,0.2-1.1c0.1-0.4,0.1-0.7,0.3-1.1c0.1-0.2,0.2-0.4,0.2-0.6c0-0.4,0.1-0.8,0.3-1.2c0.1-0.4,0.3-0.7,0.4-1.1
		c0.2-0.6,0.7-1,1.5-1.1c0.5-0.1,0.9,0,1.2,0.1c0.4,0.2,0.7,0.4,1.1,0.8c0.1,0.1,0.2,0.2,0.2,0.3c0.1,0.4,0.3,0.8,0.6,1.1
		C299,36.8,299,37,299,37.1 M306.2,44.6c-0.3,0.5-0.6,0.9-0.9,1.4c-0.3,0.4-0.5,0.9-0.7,1.4c0,0.1-0.2,0.3-0.3,0.6
		c-0.4,0.6-0.8,1.3-1.2,2s-0.8,1.3-1.3,1.9c-0.1,0.1-0.2,0.2-0.2,0.3s-0.1,0.2-0.2,0.4c-0.3,0.6-0.6,1.1-1,1.6
		c-0.4,0.5-0.7,1-1.1,1.5c-0.3,0.3-0.5,0.6-0.8,0.8c-0.3,0.3-0.7,0.5-1.1,0.8c-0.4,0.3-0.7,0.5-1.1,0.8s-1,0.6-1.7,0.8
		c-0.4,0.1-0.7,0.1-0.8-0.1c-0.6-0.2-1-0.5-1.3-1c-0.5-0.7-0.8-1.5-0.9-2.5s0-1.9,0.1-3c0.1-1,0.2-2,0.4-3.1c0.1-1,0.2-1.9,0.2-2.7
		c0-0.1,0-0.3,0-0.4c0-0.1,0.1-0.3,0.1-0.4c0.1-0.5,0.2-0.7,0.3-0.8s0.4-0.2,1-0.3c0.3-0.1,0.7-0.2,1.1-0.3c0.4-0.1,0.7-0.3,1.1-0.4
		c0.2-0.1,0.4-0.2,0.5-0.3c0.1-0.1,0.3-0.2,0.5-0.3c0.1,0,0.2-0.1,0.3-0.2c0.1-0.2,0.3-0.3,0.4-0.4c0.2-0.1,0.3-0.2,0.5-0.3
		c0.6-0.4,1.1-1.1,1.5-2.1s0.7-2,0.8-3.1c0.1-1.1,0-2-0.4-2.8c-0.4-0.8-1.1-1.2-2.1-1.3c-0.1,0-0.1,0-0.2,0c0,0-0.1,0-0.2,0
		c-0.4-0.1-0.8-0.1-1.1-0.1c-0.3-0.1-0.7-0.1-1,0c-0.3,0.1-0.7,0.1-1,0.2c-0.6,0.1-1.2,0.2-1.7,0.4c-0.6,0.2-1.1,0.5-1.7,0.8
		c-0.2,0.1-0.3,0.2-0.4,0.3c-0.3,0.3-0.7,0.7-1,1.1c-0.3,0.4-0.5,0.8-0.6,1.2v0.1v0.1c-0.1,0.2-0.2,0.4-0.3,0.6
		c-0.1,0.2-0.3,0.4-0.5,0.6c0,0.1-0.1,0.2-0.1,0.3S288,38.9,288,39c-0.3,0.6-0.5,1.3-0.7,1.9c-0.2,0.6-0.4,1.3-0.6,1.9
		c-0.1,0.6-0.2,1.1-0.3,1.6s-0.2,1-0.4,1.5c0,0.1-0.1,0.2-0.1,0.4s0,0.2,0,0.4c0,0.5-0.1,1-0.1,1.6c0,0.5-0.1,1.1-0.2,1.6
		c-0.1,0.8-0.1,1.7-0.2,2.5c0,0.8,0,1.6,0,2.5c0.1,1.5,0.5,2.8,1.3,4c0.3,0.4,0.6,0.7,1,1c0.3,0.3,0.7,0.5,1.1,0.8l0.3,0.1
		c0.5,0.1,0.9,0.3,1.4,0.4c0.5,0.1,0.9,0.2,1.4,0.3c0.7,0,1.3,0,1.9-0.2s1.2-0.4,1.7-0.8c0.5-0.3,1.1-0.7,1.6-1.1
		c0.5-0.4,1-0.8,1.5-1.2c0.6-0.5,1.2-1,1.7-1.6s0.9-1.2,1.3-1.8s0.8-1.3,1.2-1.9s0.8-1.3,1.3-1.8c0.2-0.3,0.4-0.5,0.5-0.8
		s0.3-0.6,0.5-0.8c0.1-0.3,0.2-0.6,0.4-0.9c0.2-0.3,0.3-0.6,0.3-1c0-0.1,0-0.2,0.1-0.3c0.3-0.8,0.7-1.5,1.2-2.1
		c0.1-0.1,0.2-0.3,0.3-0.5c-0.2-0.2-0.3-0.4-0.4-0.4C306.6,44.1,306.3,44.3,306.2,44.6 M268.4,40.3c0-0.3-0.1-0.6-0.1-0.8
		c0-0.3,0.1-0.5,0.1-0.7v-0.7v-0.6c0-0.1,0-0.1,0-0.2c0,0,0-0.1,0-0.2c0-0.4,0.1-0.9,0.2-1.3c0.1-0.4,0.3-0.8,0.5-1.2
		c0.1-0.2,0.2-0.3,0.2-0.5c0-0.3,0.1-0.5,0.3-0.8c0-0.1,0.1-0.2,0.2-0.3c0.1-0.1,0.2-0.2,0.2-0.4c0-0.1,0.1-0.1,0.2-0.1h0.2
		c0.6,0.3,1,0.7,1.3,1.2c0,0.1,0.1,0.3,0.1,0.4c-0.1,0.5-0.2,0.9-0.2,1.4c-0.1,0.4-0.1,0.9-0.2,1.3c0,0.3-0.1,0.6-0.3,0.9
		c-0.1,0.3-0.2,0.5-0.4,0.7c-0.1,0.2-0.2,0.5-0.4,0.7c-0.1,0.1-0.2,0.2-0.3,0.4s-0.2,0.3-0.3,0.5s-0.3,0.4-0.5,0.7
		c-0.2,0.2-0.5,0.4-0.7,0.5C268.5,40.9,268.4,40.6,268.4,40.3 M269.8,64.1c0,0.3,0.1,0.6,0.1,0.9c0.1,0.4,0.1,0.9,0.2,1.3
		c0,0.5,0.1,0.9,0.2,1.4c0.4,1.6,1.3,2.8,2.7,3.6c0.2,0.1,0.4,0.2,0.7,0.3c0.2,0.1,0.5,0.2,0.7,0.2c0.3,0.1,0.6,0.2,1,0.2
		c0.6,0.2,1,0.1,1.4-0.3c0.1-0.1,0.1-0.1,0.2-0.1c0,0,0.1,0,0.2-0.1c0.3,0,0.5-0.1,0.7-0.3c0.4-0.1,0.7-0.3,1-0.4
		c0.1-0.1,0.2-0.1,0.3-0.2c0.1,0,0.2-0.1,0.3-0.2c0.2-0.2,0.4-0.4,0.5-0.5c0.1-0.2,0.3-0.4,0.5-0.5c0.1-0.2,0.3-0.3,0.4-0.4
		c0.1-0.1,0.3-0.3,0.4-0.5c0.1-0.1,0.1-0.2,0.2-0.3c0-0.1,0.1-0.2,0.1-0.3c0.1-0.1,0.1-0.2,0.2-0.4c0-0.1,0.1-0.2,0.1-0.4
		c0.2-0.4,0.4-0.8,0.6-1.2c0.2-0.4,0.4-0.8,0.6-1.2c0.3-0.3,0.4-0.6,0.4-0.9c0.1-0.3,0.2-0.6,0.4-0.9c0.1-0.3,0.2-0.6,0.4-1
		c0.2-0.5,0.5-1.2,0.8-2.1c0.3-0.9,0.7-1.8,1-2.7c0.3-0.9,0.6-1.7,0.9-2.4c0.3-0.7,0.4-1.2,0.4-1.4c0.2-0.6,0.4-1.2,0.6-1.8
		c0.2-0.6,0.5-1.2,0.7-1.8c0.2-0.3,0.3-0.6,0.4-1c0.1-0.3,0.2-0.6,0.3-0.9c0.1-0.3,0.1-0.6,0.1-0.9c0-0.1,0-0.2,0.1-0.3
		c0.1-0.1,0.1-0.2,0.1-0.4v-0.4c0-0.2,0-0.4,0-0.5s0-0.4,0.1-0.6l-0.1-0.1c-0.1-0.1-0.2-0.2-0.4-0.2s-0.4,0-0.4,0.2
		c-0.3,0.4-0.6,0.8-0.8,1.4c-0.2,0.5-0.4,1-0.6,1.5c-0.2,0.5-0.4,1.1-0.6,1.7c-0.1,0.2-0.1,0.4-0.2,0.6c0,0.2-0.1,0.4-0.2,0.6
		c0,0.2-0.1,0.4-0.2,0.6c-0.1,0.2-0.1,0.4-0.2,0.6c-0.1,0.3-0.2,0.7-0.2,1.1c-0.1,0.4-0.1,0.7-0.2,1.1c-0.2,0.5-0.3,0.9-0.5,1.3
		c-0.1,0.4-0.3,0.9-0.4,1.3c-0.1,0.3-0.2,0.5-0.3,0.7s-0.2,0.4-0.3,0.7c-0.1,0.4-0.2,0.7-0.4,1c-0.2,0.3-0.3,0.6-0.4,0.9
		c-0.2,0.5-0.4,0.9-0.6,1.4c-0.2,0.4-0.3,0.9-0.5,1.4c0,0.1-0.1,0.2-0.1,0.2s0,0.1-0.1,0.2c-0.2,0.5-0.4,1-0.7,1.5
		c-0.2,0.5-0.5,1-0.7,1.5c-0.1,0.2-0.1,0.3-0.1,0.4c-0.2,0.3-0.4,0.6-0.6,0.9c-0.2,0.3-0.3,0.6-0.5,0.9c-0.1,0.2-0.2,0.4-0.3,0.4
		c-0.2,0.2-0.3,0.3-0.4,0.5c-0.1,0.2-0.3,0.3-0.5,0.4c-0.5,0.2-0.9,0.1-1.3-0.3c-0.4-0.4-0.7-0.8-0.9-1.2c-0.2-0.4-0.3-0.8-0.4-1.1
		c0-0.4-0.1-0.8-0.2-1.2c-0.1-0.3-0.2-0.5-0.2-0.7c-0.1-0.2-0.1-0.5-0.2-0.8c0-0.3,0-0.5,0-0.8s0-0.5,0-0.8c0-0.6,0.1-1.1,0.1-1.7
		c0-0.6,0.1-1.1,0.3-1.7c0.1-0.5,0.2-0.9,0.3-1.4c0.1-0.5,0.2-1,0.3-1.5c0.1-0.2,0.1-0.4,0.2-0.7c0-0.2,0.1-0.5,0.1-0.7
		c0.1-0.2,0.2-0.4,0.3-0.6c0.1-0.2,0.2-0.4,0.2-0.6c0-0.3,0.1-0.6,0.2-0.8c0.1-0.3,0.2-0.5,0.1-0.8v-0.1c0.1-0.3,0.1-0.7,0.1-1
		s0-0.6-0.1-0.9c0-0.1,0-0.1-0.1-0.2s0-0.1,0.1-0.1c0-0.2,0-0.4-0.1-0.6c-0.1-0.2-0.2-0.4-0.4-0.6c-0.1-0.3-0.3-0.5-0.5-0.6
		c-0.2-0.2-0.4-0.3-0.6-0.5c-0.7-0.5-1.4-0.9-2-1.1c-0.4-0.2-0.8-0.4-1.1-0.5c-0.4-0.1-0.8-0.3-1.2-0.5c-0.6-0.3-1-0.6-1.4-1.1
		c-0.4-0.5-0.7-0.9-1.1-1.4c-0.1-0.2-0.1-0.3,0.1-0.5l0.4-0.4c0.7-0.5,1.3-1.2,1.8-2c0.2-0.2,0.3-0.4,0.4-0.6
		c0.1-0.2,0.2-0.4,0.3-0.6c0.1-0.2,0.2-0.4,0.3-0.6c0.1-0.2,0.2-0.4,0.3-0.6c0.2-0.4,0.3-0.7,0.3-0.9c0-0.1,0-0.2,0-0.4
		c0-0.1,0.1-0.2,0.1-0.4c0-0.1,0.1-0.3,0.1-0.4c0-0.1,0-0.3,0-0.4c0-0.2-0.1-0.4-0.1-0.7c0-0.2,0-0.5-0.1-0.8
		c-0.1-0.3-0.3-0.5-0.6-0.7c-0.1-0.1-0.2-0.2-0.3-0.3s-0.2-0.2-0.3-0.3c-0.3-0.3-0.6-0.4-0.8-0.4c-0.3-0.1-0.6-0.2-0.9-0.2
		c-0.3-0.1-0.6-0.1-0.9-0.2c-0.3-0.1-0.7-0.1-1.1-0.1s-0.7,0-1.1,0.1c-0.3,0.1-0.6,0.3-0.9,0.6c0,0.1-0.2,0.3-0.4,0.5
		c-0.2,0.2-0.3,0.4-0.5,0.6c-0.2,0.2-0.3,0.4-0.4,0.6c0,0.2-0.1,0.4-0.3,0.8c-0.1,0.1-0.1,0.3-0.2,0.4c0,0.1-0.1,0.3-0.2,0.4
		c-0.2,0.3-0.3,0.7-0.5,1.1c-0.2,0.4-0.3,0.7-0.4,1.1c-0.3,1.3-0.3,2.6-0.2,3.8c0,0.2,0.1,0.4,0.1,0.5s0.1,0.4,0.1,0.6
		c0.2,0.8,0.6,1.5,1.1,2.1s1.1,1.1,1.7,1.6c0.4,0.3,0.8,0.6,1.2,0.9c0.4,0.2,0.8,0.5,1.2,0.8c0.4,0.2,0.8,0.4,1.2,0.6
		c0.4,0.2,0.8,0.4,1.2,0.6c0.8,0.4,1.2,1.1,1.1,1.9c0,0.1,0,0.3-0.1,0.4c-0.1,0.3-0.2,0.7-0.2,1c-0.1,0.3-0.2,0.7-0.3,1.1
		c-0.2,0.6-0.4,1.2-0.5,1.8s-0.3,1.3-0.4,1.9c0,0.2,0,0.3,0,0.5s-0.1,0.3-0.1,0.5c-0.1,0.5-0.1,1-0.2,1.5c0,0.5-0.1,1-0.2,1.5
		c-0.1,0.4-0.1,0.8-0.1,1.2s0,0.8-0.1,1.2C269.8,63.5,269.8,63.8,269.8,64.1 M258.5,30.6c0.1-0.1,0.1-0.2,0.2-0.3
		c0-0.1,0.1-0.2,0.2-0.3c0.4-0.6,0.6-1.2,0.8-1.8c0.2-0.6,0.3-1.2,0.4-1.9c0.1-0.3,0.1-0.6,0.2-0.9c0-0.3,0.1-0.6,0.1-0.9
		c0-0.3,0-0.7,0-1s-0.1-0.6-0.1-1c0-0.3-0.1-0.6-0.1-0.9s-0.1-0.6-0.2-1c-0.2-0.7-0.5-1.3-1-1.8s-1.1-0.8-1.9-0.9
		c-1.2-0.2-2.4-0.1-3.7,0.1c-1.3,0.3-2.5,0.6-3.6,0.9c-2.3,0.6-4.4,1.7-6.1,3.3c-2,1.8-3.5,3.9-4.6,6.2s-2.1,4.6-2.9,7.1
		c-0.5,1.3-0.9,2.6-1.2,3.9c-0.3,1.3-0.6,2.6-1,4c-0.4,1.7-0.8,3.5-1.2,5.2s-0.7,3.5-0.9,5.2c-0.2,1.8-0.3,3.5-0.4,5.3
		c0,1.7,0.1,3.5,0.4,5.3c0.2,1.1,0.5,2.2,1,3.2c0.4,1,1.2,1.9,2.1,2.6c0.8,0.7,1.7,1.1,2.6,1.3c1.8,0.3,3.6,0.1,5.4-0.6
		c3.5-1.4,6.8-3.4,9.8-5.9c3-2.5,5.7-5.2,8.2-8c1-1.2,1.9-2.6,2.7-4c0.8-1.4,1.6-2.8,2.5-4.1c0.2-0.3,0.4-0.6,0.6-0.9
		c0.2-0.3,0.4-0.6,0.5-0.9c0.2-0.3,0.3-0.6,0.5-0.9c0.2-0.3,0.2-0.6,0.1-1c0-0.1,0-0.2,0-0.2c0.1-0.1,0.1-0.1,0.2-0.2
		c0-0.2,0-0.4,0.1-0.6c-0.4,0.1-0.8,0.2-1.2,0.3c-0.4,0.1-0.7,0.2-1.1,0.4c-0.2,0.1-0.3,0.3-0.4,0.5c-0.6,1-1.2,2-1.8,2.9
		c-0.6,1-1.2,2-1.8,2.9c-0.6,1.1-1.3,2.1-2,3c-0.7,0.9-1.5,1.8-2.4,2.6c-0.9,1-1.8,1.9-2.6,2.9c-0.9,0.9-1.8,1.8-2.8,2.7
		c-0.7,0.6-1.3,1.1-2,1.7c-0.6,0.6-1.4,1-2.2,1.4c-1.8,0.8-3.7,1-5.8,0.7c-0.8-0.2-1.4-0.6-1.9-1.1c-0.4-0.6-0.7-1.3-0.7-2.1
		c0-1,0-1.9-0.1-2.9c-0.1-0.9-0.1-1.9,0-2.9c0.1-0.7,0.2-1.4,0.3-2.1c0.1-0.7,0.2-1.4,0.3-2.1c0.3-1.9,0.7-3.7,1.2-5.4
		s1-3.5,1.5-5.3c0.2-0.8,0.5-1.7,0.8-2.5s0.6-1.6,1-2.5c0.4-0.8,0.7-1.7,1.1-2.6c0.3-0.9,0.7-1.7,1-2.6c0.5-1.2,1-2.3,1.6-3.5
		c0.6-1.1,1.2-2.2,1.8-3.3c0.3-0.6,0.6-1.1,0.9-1.6s0.7-1,1.1-1.4c0.3-0.3,0.7-0.5,1.2-0.8s1-0.5,1.5-0.5c0.5-0.1,1,0,1.4,0.1
		c0.4,0.2,0.7,0.6,0.8,1.1c0.1,0.6,0.2,1.1,0.3,1.7c0.1,0.6,0.1,1.1,0,1.7c-0.1,0.8-0.3,1.7-0.4,2.6c-0.2,0.8-0.4,1.6-0.8,2.4
		l0.4,0.9c0.1,0.2,0.2,0.3,0.3,0.4c0.2,0.1,0.4,0.2,0.6,0.2c0.2,0,0.3,0.1,0.4,0.1C257.8,31.6,258.2,31.1,258.5,30.6"/>
</g>
<rect x="4.5" y="17.6" class="st2" width="213.2" height="120.3"/>
</svg>
