<?xml version="1.0" encoding="utf-8"?>
<!-- Generator: Adobe Illustrator 21.0.0, SVG Export Plug-In . SVG Version: 6.00 Build 0)  -->
<svg version="1.1" id="Layer_1" xmlns="http://www.w3.org/2000/svg" xmlns:xlink="http://www.w3.org/1999/xlink" x="0px" y="0px"
	 viewBox="0 0 297.6 297.6" style="enable-background:new 0 0 297.6 297.6;" xml:space="preserve">
<style type="text/css">
	.st0{clip-path:url(#SVGID_2_);fill:#C8D9F1;}
	.st1{clip-path:url(#SVGID_2_);fill:#7C6EB0;}
</style>
<g>
	<g>
		<defs>
			<rect id="SVGID_1_" x="41.5" y="89.2" width="213.2" height="120.3"/>
		</defs>
		<clipPath id="SVGID_2_">
			<use xlink:href="#SVGID_1_"  style="overflow:visible;"/>
		</clipPath>
		<path class="st0" d="M244.3,115.6c0,0.5,0,1,0,1.4c0,0.5-0.1,0.9-0.1,1.4c0,0.1,0,0.1,0,0.1c0,0,0,0,0,0.1
			c-0.1,0.3-0.1,0.6-0.2,0.8c-0.1,0.2-0.1,0.5-0.1,0.8c0,0.1,0,0.1-0.1,0.2c0,0.1-0.1,0.1-0.1,0.2c-0.1-0.1-0.1-0.3-0.1-0.4
			c0-0.1,0-0.3,0-0.4c0-0.2,0-0.4,0-0.7c0-0.2,0-0.4,0-0.7v-0.6c0-0.2,0-0.4,0.1-0.7v-0.6v-0.8c0-0.2,0.1-0.4,0.1-0.5s0-0.3,0.1-0.5
			c0,0,0-0.2,0.1-0.4C244.1,114.8,244.3,115.2,244.3,115.6 M254,119.7c-0.1,0.1-0.3,0.2-0.4,0.5c-0.1,0.3-0.3,0.6-0.4,0.8
			c-0.1,0.3-0.3,0.5-0.5,0.8c-0.4,0.5-0.8,1.1-1.3,1.6c-0.5,0.6-1.1,1.1-1.6,1.5c-0.6,0.4-1.2,0.7-1.9,0.9s-1.4,0.1-2.1-0.2
			c-0.5-0.1-0.9-0.5-1.2-1c-0.1-0.1-0.1-0.2-0.1-0.2c0-0.1,0-0.2-0.1-0.3c-0.2-0.3-0.2-0.7-0.1-1c0.1-0.3,0.2-0.6,0.2-0.9
			c0-0.3,0.1-0.6,0.2-0.9c0.1-0.3,0.1-0.5,0.2-0.8c0-0.2,0.1-0.5,0.2-0.8c0.1-0.2,0.1-0.4,0.2-0.6c0-0.2,0.1-0.4,0.1-0.6
			c0.1-0.3,0.1-0.6,0.1-0.8c0-0.3,0-0.5,0.1-0.8c0.1-0.4,0.1-0.7-0.1-0.9c-0.2-0.6-0.2-1.1-0.1-1.6c0.1-0.3,0-0.6-0.1-0.9
			c-0.1-0.3-0.3-0.5-0.5-0.8c-0.1,0-0.3-0.1-0.3-0.2c-0.1-0.1-0.2-0.2-0.3-0.3c-0.1-0.2-0.4-0.3-0.6-0.2h-1.1
			c-0.7-0.1-1.3,0-1.8,0.3c-0.1,0.3-0.3,0.7-0.4,1c-0.1,0.3-0.2,0.6-0.3,1c-0.1,0.5-0.3,0.9-0.3,1.4c-0.1,0.4-0.1,0.9-0.1,1.5
			c0,0.2,0,0.4,0,0.7c0,0.2,0,0.4-0.1,0.6v0.2c0.1,0.4,0.1,0.7,0.2,1.1c0,0.4,0.1,0.7,0.2,1.1c0.1,0.9,0.5,1.9,0.9,2.8
			c0.3,0.6,0.7,1.1,1.1,1.6c0.1,0,0.1,0.1,0.2,0.3c-0.1,0.2-0.2,0.5-0.3,0.7c-0.1,0.2-0.2,0.5-0.3,0.6c-0.3,0.5-0.5,0.9-0.7,1.4
			c-0.2,0.4-0.5,0.9-0.8,1.3c-0.3,0.5-0.6,0.9-0.9,1.4s-0.6,0.9-1,1.3c-0.3,0.3-0.5,0.7-0.8,1c-0.3,0.3-0.5,0.6-0.8,0.9
			c-0.1,0.1-0.2,0.2-0.3,0.2c0,0-0.1,0.1-0.2,0.1c-0.1,0-0.3-0.1-0.4-0.1c-0.1,0-0.3-0.1-0.4-0.2c-0.2-0.1-0.4-0.3-0.6-0.5
			c-0.2-0.2-0.3-0.4-0.4-0.7c0-0.1-0.1-0.3-0.1-0.4c0-0.1-0.1-0.2-0.2-0.4c-0.1-0.2-0.2-0.5-0.1-0.8c0.1-1.1,0.2-2.1,0.1-3.2
			c0-1.1,0-2.1,0-3.2c0-1.1-0.1-2.1-0.1-3.2c-0.1-1-0.2-2.1-0.4-3.1c-0.1-0.3-0.1-0.6-0.1-0.8c0-0.3-0.1-0.5-0.1-0.8
			c-0.1-0.2-0.1-0.4-0.1-0.6v-0.6c0-0.1,0-0.3,0-0.4c0-0.1,0-0.2-0.1-0.4c-0.1-0.4-0.4-0.6-0.8-0.5c-0.4,0.1-0.8,0.2-1.2,0.3
			c-0.3,0.1-0.5,0.3-0.6,0.6c-0.1,0.3-0.2,0.5-0.3,0.8c-0.1,0.2-0.2,0.5-0.3,0.7c-0.1,0.4-0.3,0.8-0.4,1.1c-0.1,0.4-0.2,0.7-0.4,1.1
			c0,0.1,0,0.1,0,0.1c0,0,0,0.1,0,0.1c-0.1,0.5-0.2,1-0.3,1.5c-0.1,0.5-0.2,1-0.2,1.5c-0.1,0.4-0.2,0.8-0.3,1.2
			c-0.1,0.4-0.3,0.8-0.5,1.1c-0.1,0.1-0.1,0.2-0.2,0.3c0,0.1-0.1,0.2-0.2,0.3c-0.1,0.2-0.2,0.3-0.3,0.5c-0.1,0.1-0.2,0.3-0.2,0.4
			c-0.1,0.1-0.1,0.2-0.2,0.3c-0.1,0.1-0.1,0.2-0.2,0.3c-0.3,0.4-0.5,0.8-0.7,1.2c-0.2,0.4-0.4,0.8-0.7,1.2c-0.2,0.4-0.5,0.7-0.9,1.1
			c-0.2,0.2-0.4,0.1-0.5-0.1c0-0.1-0.1-0.2-0.1-0.4c0-0.2,0-0.3,0-0.5c0-0.1,0-0.3-0.1-0.4c-0.1-0.7,0-1.4,0.1-2.1
			c0.1-0.7,0.3-1.5,0.4-2.1c0.1-0.5,0.1-1.1,0.1-1.6c0-0.6,0-1.1,0.1-1.7c0.1-0.3,0.1-0.6,0.2-0.9c0-0.3,0.1-0.6,0.1-0.9
			c0-0.1,0-0.2,0-0.3c0-0.1,0-0.2,0-0.3c0-0.2,0.1-0.4,0.1-0.5c0-0.1,0-0.3,0-0.5c0-0.2,0-0.4,0-0.6c0-0.2,0-0.4,0.1-0.6
			c0-0.1,0-0.2-0.1-0.4c0-0.2-0.1-0.4-0.1-0.7c0-0.2,0-0.5,0.1-0.7c0-0.1,0-0.2,0-0.4c0-0.1-0.1-0.3-0.1-0.4c0-0.1-0.1-0.2-0.1-0.3
			c0-0.1-0.1-0.2-0.1-0.3c-0.1-0.2-0.1-0.4-0.2-0.6c-0.1-0.2-0.1-0.4-0.2-0.6c-0.1-0.3-0.2-0.6-0.4-0.9c-0.2-0.2-0.4-0.5-0.6-0.7
			c-0.1-0.1-0.2-0.2-0.3-0.2c-0.2-0.1-0.4-0.1-0.6-0.1c-0.2,0-0.4,0-0.6-0.1c-0.3,0-0.5,0.1-0.6,0.4c-0.1,0.2-0.1,0.4-0.2,0.7
			c-0.1,0.2-0.1,0.4-0.2,0.7c-0.2,1-0.4,2-0.6,3c-0.2,1-0.4,2-0.6,3c-0.1,0.4-0.1,0.7-0.2,1.1c-0.1,0.4-0.1,0.7-0.1,1.1
			c0,0.1,0,0.1,0,0.1c0,0,0,0.1,0,0.1c-0.1,0.3-0.1,0.6-0.1,0.9c0,0.3,0,0.6,0,0.9c0,0.3,0,0.6-0.1,0.8c0,0.3-0.1,0.5-0.1,0.8v0.8
			c0,0.1,0,0.3,0,0.4c0,0.1,0,0.2,0,0.4v0.3c0.1,1.2,0.2,2.3,0.5,3.3c0.3,1,0.9,1.9,2,2.7c0.1,0.1,0.2,0.1,0.3,0.2
			c0.1,0.1,0.2,0.1,0.3,0.2c0.4,0.4,1,0.5,1.7,0.5c0.7-0.1,1.3-0.2,1.8-0.4c1.1-0.3,1.9-1.1,2.3-2.2c0.1-0.3,0.3-0.5,0.4-0.8
			c0.1-0.1,0.2-0.2,0.3-0.1c0,0.1,0.1,0.2,0.1,0.3c0,0.1,0,0.2,0.1,0.2c0,0.5,0.1,1,0.2,1.5c0.1,0.5,0.2,1,0.4,1.5
			c0.4,0.9,1,1.6,1.8,2.1c0.4,0.3,0.8,0.5,1.3,0.6c0.5,0.2,0.9,0.3,1.3,0.5c0.1,0.1,0.3,0.1,0.4,0.1c0.1,0,0.3,0,0.4,0.1
			c0.2,0,0.4,0,0.6,0c0.2,0,0.4,0,0.5,0c0.4-0.1,0.8-0.1,1.1-0.1c0.4,0,0.8,0,1.1-0.2c0.4-0.2,0.7-0.4,1-0.7
			c0.1-0.1,0.2-0.3,0.4-0.4c0.1-0.1,0.3-0.3,0.4-0.4c0.4-0.4,0.7-0.9,0.9-1.4c0.2-0.5,0.4-1,0.7-1.5c0.5-0.8,0.9-1.7,1.3-2.7
			c0.1-0.2,0.2-0.4,0.2-0.5c0.1-0.1,0.2-0.3,0.3-0.5c0.1-0.2,0.2-0.4,0.3-0.6c0.1-0.2,0.2-0.4,0.3-0.6c0.1-0.1,0.1-0.3,0.2-0.4
			c0-0.1,0.1-0.2,0.2-0.3h0.1c0.8,0.4,1.7,0.8,2.7,0.9c0.5,0.1,0.9,0.1,1.3-0.1c0.2-0.1,0.4-0.1,0.5-0.1c0.1,0,0.3-0.1,0.5-0.1
			c0.1,0,0.1,0,0.2,0s0.1,0,0.2,0c0.5-0.2,1-0.4,1.4-0.6c0.4-0.2,0.8-0.5,1.2-0.9c0.3-0.3,0.6-0.5,0.9-0.7c0.3-0.2,0.5-0.5,0.8-0.8
			c0.3-0.3,0.4-0.6,0.6-0.9c0.1-0.3,0.2-0.6,0.3-0.9c0-0.1,0.1-0.1,0.1-0.2c0-0.1,0-0.1,0.1-0.2c0-0.1,0.1-0.1,0.1-0.2
			c0-0.1,0-0.1,0.1-0.2c0.4-0.5,0.6-1,0.6-1.7C254.4,119.7,254.2,119.7,254,119.7 M207.7,123.3c-0.1-0.1-0.3-0.3-0.4-0.4
			c-0.4-0.6-0.8-1.2-1-2c-0.2-0.7-0.2-1.4,0.2-2.1c0.1-0.1,0.1-0.3,0.1-0.3c0.1-0.7,0.3-1.3,0.6-1.8c0.1-0.1,0.1-0.2,0.1-0.3
			c0-0.1,0-0.2,0.1-0.3c0-0.1,0.1-0.2,0.3-0.2c0.1,0,0.1,0,0.1,0.1c0,0,0.1,0.1,0.1,0.1v0.1c0.1,0.3,0.2,0.6,0.3,0.8
			c0.1,0.2,0.3,0.4,0.4,0.7c0.2,0.4,0.3,0.9,0.4,1.4s0,1,0.1,1.4c0,0.3,0,0.7,0,1.1s-0.2,0.7-0.4,1c0,0.1-0.1,0.2-0.1,0.3
			c0,0.2,0,0.3-0.1,0.5s-0.2,0.3-0.3,0.4C208,123.5,207.8,123.4,207.7,123.3 M202.8,111.5c-0.3,0-0.6,0-0.8,0.2
			c-0.3,0.2-0.7,0.4-1,0.6c-0.3,0.2-0.6,0.4-0.9,0.6c-0.2,0.1-0.4,0.3-0.6,0.4s-0.4,0.3-0.6,0.5c-0.2,0.2-0.4,0.4-0.5,0.7
			c-0.2,0.2-0.3,0.4-0.5,0.6c-0.3,0.3-0.6,0.7-0.7,1.1c-0.3,0.6-0.6,1.3-0.9,1.9c-0.3,0.6-0.5,1.3-0.8,2c-0.3,1-0.5,1.9-0.6,2.8
			c0,0.5,0,1,0,1.5c0,0.5,0.1,1,0.1,1.5c0,0.4,0.1,0.9,0.2,1.3c0.1,0.4,0.2,0.9,0.4,1.3c0.4,0.7,1,1.4,1.7,2.1
			c0.7,0.6,1.4,1.2,2.2,1.6c0.4,0.2,0.8,0.4,1.2,0.6c0.4,0.2,0.8,0.3,1.2,0.4s0.8,0,1.1-0.2c0.3-0.2,0.7-0.4,1-0.6
			c0.3-0.2,0.5-0.4,0.7-0.6c0.2-0.2,0.4-0.4,0.7-0.6c0.2-0.1,0.4-0.3,0.6-0.6c0.2-0.2,0.4-0.5,0.6-0.7c0.2-0.3,0.5-0.6,0.8-0.9
			s0.6-0.6,0.8-1c0.1-0.3,0.2-0.6,0.3-0.8c0.1-0.3,0.2-0.5,0.4-0.8c0.1-0.4,0.3-0.6,0.6-0.6c0.2,0,0.4-0.1,0.6-0.1s0.4,0,0.6,0
			c0.5,0.1,0.9,0.1,1.3,0c0.4-0.1,0.8-0.2,1.3-0.4c0.5-0.2,1-0.4,1.5-0.7c0.4-0.3,0.9-0.5,1.5-0.7c0.2-0.1,0.5-0.2,0.8-0.5
			c0.4-0.3,0.7-0.6,1.1-0.9c0.4-0.3,0.7-0.7,1-1s0.5-0.6,0.6-0.9c-0.1-0.2-0.3-0.3-0.7-0.4c-0.1-0.1-0.3-0.1-0.6,0
			c-0.1,0-0.1,0.1-0.1,0.1c0,0.1-0.1,0.1-0.1,0.2c-0.1,0.1-0.2,0.3-0.3,0.4c-0.8,0.8-1.7,1.5-2.8,2.1c-1,0.6-2.1,1-3.2,1.2
			c-0.2,0-0.4,0.1-0.6,0.1c-0.2,0-0.4,0-0.6,0c-0.1,0-0.1,0-0.2-0.1c-0.1,0-0.1-0.1-0.2-0.1c0.1-0.2,0.1-0.4,0.1-0.6s0-0.4,0.1-0.6
			c0-0.3,0.1-0.5,0.2-0.7c0.1-0.2,0.2-0.5,0.3-0.8c0-0.3,0-0.7,0-1.1c0-0.4-0.1-0.8-0.1-1.1c0-0.1-0.1-0.3-0.1-0.4
			c0-0.1,0-0.3-0.1-0.5c0-0.4-0.1-0.8-0.2-1.1c-0.1-0.3-0.3-0.7-0.4-1.1c-0.2-0.4-0.5-0.8-1-1c-0.4-0.2-0.8-0.5-1.3-0.7
			c-0.3-0.2-0.7-0.4-0.9-0.5c-0.3-0.1-0.7-0.2-1.1-0.1c-0.3,0.1-0.5,0.1-0.7,0.1c-0.3,0-0.5,0.1-0.6,0.3c-0.1,0.2-0.3,0.3-0.6,0.4
			l-0.1,0.1c-0.2,0.4-0.4,0.8-0.6,1.2c-0.2,0.4-0.3,0.8-0.4,1.3c-0.2,0.7-0.3,1.5-0.2,2.2c0.1,0.7,0.3,1.4,0.6,2.1
			c0.1,0.2,0.2,0.4,0.4,0.6c0.1,0.2,0.3,0.4,0.4,0.6c0.6,0.8,1.5,1.6,2.5,2.2c0.2,0.1,0.4,0.2,0.5,0.3c0.1,0.1,0.3,0.2,0.5,0.3
			c0,0.1-0.1,0.1-0.1,0.2c0,0.1,0,0.1-0.1,0.2c-0.2,0.3-0.4,0.6-0.5,0.9c0,0,0,0.1-0.1,0.1c-0.3,0.5-0.7,1-1.2,1.5
			c-0.1,0.1-0.2,0.2-0.3,0.3c-0.1,0.1-0.2,0.2-0.4,0.3c-0.2,0.2-0.4,0.3-0.6,0.5c-0.2,0.1-0.5,0.3-0.6,0.4c-0.4,0.3-0.8,0.6-1.3,0.7
			c-0.4,0.1-0.9,0.3-1.4,0.5c-0.3,0.1-0.6,0.1-0.8-0.2c-0.1-0.1-0.2-0.2-0.4-0.3c-0.1-0.1-0.2-0.2-0.4-0.3c-0.3-0.2-0.4-0.4-0.4-0.7
			c-0.1-0.4-0.1-0.8-0.1-1.2c0-0.4,0-0.8-0.1-1.2c0-0.4,0-0.7,0-1.1c0.1-0.4,0.2-0.7,0.4-1c0.1-0.1,0.1-0.2,0.1-0.3
			c0.1-0.4,0.2-0.8,0.4-1.1c0.2-0.4,0.3-0.7,0.4-1.1s0.2-0.8,0.3-1.2s0.2-0.8,0.4-1.2c0.2-0.6,0.4-1.2,0.5-1.8
			c0.1-0.6,0.3-1.2,0.4-1.8c0.1-0.3,0.2-0.6,0.2-0.8c0.1-0.2,0.2-0.5,0.3-0.7c0.1-0.1,0.2-0.3,0.3-0.4c0.1-0.1,0.2-0.3,0.3-0.5
			c0.2-0.1,0.4-0.3,0.5-0.7c0-0.1,0.1-0.2,0.3-0.3c0.3-0.3,0.5-0.7,0.4-1.1C203.8,111.7,203.3,111.5,202.8,111.5 M184.8,117.2
			c0-0.3,0.1-0.7,0.2-0.9c0.1-0.3,0.2-0.6,0.3-0.9c0.1-0.3,0.2-0.6,0.3-0.9c0.1-0.4,0.1-0.7,0.2-1.1c0.1-0.4,0.1-0.7,0.2-1.1
			c0.1-0.9,0.2-1.7,0.3-2.6c0.1-0.9,0.2-1.7,0.4-2.6c0.2-0.9,0.4-1.7,0.6-2.5c0.2-0.8,0.5-1.7,0.8-2.5c0.4-1.3,0.8-2.6,1.3-3.9
			c0.4-1.3,1-2.5,1.8-3.7c0.2-0.4,0.5-0.8,0.7-1.2c0.2-0.4,0.5-0.8,0.8-1.2c0.1-0.1,0.2-0.3,0.4-0.5c0.3-0.4,0.7-0.4,1.1-0.2
			c0.1,0.1,0.2,0.1,0.4,0.2c0.1,0,0.3,0.1,0.4,0.2s0.2,0.2,0.3,0.3c0.1,0.1,0.2,0.3,0.2,0.4c0,0.2,0.1,0.4,0.2,0.5
			c0.3,0.3,0.5,0.6,0.6,1.1c0.1,0.3,0.1,0.5,0.2,0.8c0.1,0.3,0.1,0.5,0.2,0.8c0.1,0.4,0.1,0.8,0.1,1.3c0,0.4-0.1,0.9-0.1,1.3
			c-0.1,0.3-0.1,0.7-0.2,1c0,0.4-0.1,0.7-0.2,1c-0.1,0.6-0.4,1.2-0.6,1.9c-0.2,0.6-0.4,1.3-0.6,1.9s-0.4,1.2-0.7,1.8
			c-0.2,0.5-0.5,1-0.7,1.5s-0.5,1-0.8,1.5c-0.4,0.9-0.9,1.7-1.4,2.5c-0.5,0.8-1.1,1.5-1.6,2.3c-1.1,1.4-2.4,2.7-3.9,3.8
			c-0.2,0.1-0.4,0.3-0.6,0.4c-0.2,0.1-0.4,0.2-0.6,0.4c0,0-0.1-0.1-0.2-0.1C184.7,117.9,184.8,117.5,184.8,117.2 M197.3,119.4
			c-0.2,0.2-0.4,0.3-0.6,0.5c-0.2,0.1-0.4,0.3-0.5,0.6c-0.1,0.2-0.2,0.4-0.3,0.7c-0.1,0.2-0.2,0.4-0.2,0.6c-1,2-1.9,4-2.9,6
			c-1,2-2,4-3,5.9c-0.3,0.5-0.5,0.9-0.7,1.4c-0.2,0.4-0.5,0.9-0.8,1.3c-0.1,0.2-0.3,0.4-0.5,0.6c-0.2,0.2-0.4,0.3-0.6,0.5
			c-0.1,0.1-0.2,0.1-0.3,0.1s-0.2,0-0.3-0.1c-0.8-0.5-1.4-1.2-1.8-2c-0.1-0.2-0.1-0.4-0.2-0.5c-0.1-0.2-0.1-0.3-0.1-0.5
			c-0.1-1.2-0.1-2.4-0.1-3.6s-0.1-2.4-0.3-3.6c-0.1-0.5-0.1-1.1,0-1.6c0.1-0.6,0.1-1.1,0.2-1.6c0.1-0.6,0.1-1.3,0.2-1.9
			s0.1-1.3,0.2-1.9c0-0.4,0.1-0.6,0.4-0.8c0.2-0.1,0.4-0.3,0.6-0.4c0.2-0.1,0.4-0.3,0.6-0.4c0.3-0.3,0.7-0.5,1-0.8
			c0.3-0.3,0.6-0.5,0.9-0.8c0.3-0.2,0.5-0.5,0.7-0.7c0.2-0.2,0.5-0.5,0.7-0.7c0.5-0.4,0.9-0.8,1.4-1.3c0.4-0.5,0.8-1,1.1-1.5
			c0.4-0.5,0.7-1,1.1-1.6c0.4-0.5,0.7-1,1-1.6c0.2-0.4,0.5-0.8,0.7-1.1s0.5-0.7,0.7-1.1c0.2-0.3,0.3-0.7,0.4-1.1s0.3-0.7,0.4-1.1
			c0.5-0.9,1-1.8,1.3-2.7c0.4-0.9,0.7-1.9,1-2.8c0.3-1,0.6-2,0.8-3c0.2-1,0.2-2.1,0-3.1c-0.1-0.3-0.2-0.6-0.3-0.9
			c-0.1-0.3-0.2-0.6-0.3-0.9c-0.1-0.3-0.2-0.6-0.4-0.8c-0.2-0.2-0.3-0.5-0.4-0.8c0,0-0.1-0.1-0.3-0.2c-0.1,0-0.1-0.1-0.2-0.1
			c-0.1,0-0.1-0.1-0.2-0.1c-0.4-0.5-1-0.7-1.7-0.7c-0.2,0-0.4,0-0.5-0.1c-0.2-0.1-0.3-0.1-0.5,0c-1.3,0.1-2.5,0.3-3.5,0.8
			c-1,0.5-2.1,1.1-3.1,1.8c-0.7,0.5-1.3,1.2-1.8,2c-0.4,0.8-0.8,1.6-1.2,2.3c-0.4,1-0.8,1.9-1.1,2.9c-0.4,1-0.7,2-1,2.9
			c-0.4,1.1-0.8,2.1-1.2,3.2c-0.4,1-0.6,2.1-0.8,3.2c-0.1,1.2-0.3,2.3-0.6,3.5c-0.3,1.1-0.6,2.2-0.8,3.4c-0.3,1.1-0.5,2.2-0.5,3.2
			c-0.1,1.1-0.1,2.2-0.2,3.2c-0.1,1.4-0.1,2.7-0.2,4.1c-0.1,1.3-0.1,2.7,0.1,4.1c0,0.4,0.1,0.9,0.2,1.3c0.1,0.4,0.1,0.9,0.2,1.4
			c0.1,0.6,0.2,1.3,0.3,2c0.1,0.7,0.2,1.3,0.4,2c0.3,1,0.6,1.8,1,2.5s1,1.3,1.9,1.8c0.4,0.2,0.8,0.3,1.1,0.2
			c0.6-0.1,1.2-0.2,1.8-0.5c0.5-0.3,1.1-0.6,1.5-1c0.3-0.3,0.6-0.5,0.8-0.8c0.2-0.3,0.5-0.5,0.7-0.8c0.1-0.2,0.3-0.4,0.4-0.6
			c0.1-0.2,0.2-0.4,0.3-0.6c0.6-0.9,1.2-1.8,1.6-2.7c0.4-0.9,0.9-1.9,1.5-2.8c0.3-0.6,0.6-1.2,1-1.7s0.7-1.1,1-1.7
			c0.3-0.7,0.7-1.4,1-2.1s0.6-1.4,1-2.1c0.2-0.4,0.4-0.8,0.6-1.3c0.1-0.4,0.3-0.9,0.3-1.4c0.1-0.3,0.1-0.5,0.1-0.8
			c0-0.3,0-0.5,0.1-0.8C197.4,119.4,197.4,119.4,197.3,119.4 M181.6,94.2L181.6,94.2c0.1,0,0.1,0,0.1,0c0,0,0,0,0.1,0
			c0,0-0.1,0-0.1,0.1L181.6,94.2z M164.5,134.6c0.2,0.1,0.3,0.4,0.4,0.6c0.1,0.3,0.3,0.6,0.4,0.8c0.1,0.2,0.3,0.5,0.5,0.7
			c0.1,0.1,0.1,0.2,0.2,0.3s0.1,0.2,0.2,0.3c0.1,0.1,0.1,0.2,0.2,0.4c0,0.1,0.1,0.2,0.2,0.4c0.1,0.1,0.1,0.3,0.2,0.4
			c0,0.1,0.1,0.2,0.1,0.4c0,0.1,0.1,0.2,0.1,0.3c0,0.1,0,0.2,0.1,0.3c0.2,0.5,0.4,1.1,0.6,1.6c0.1,0.6,0.3,1.1,0.4,1.7
			c0,0.1,0.1,0.3,0.1,0.6c0,0.3,0,0.6,0,0.9c0,0.3-0.1,0.6-0.2,0.9c-0.1,0.4-0.4,0.5-0.7,0.4c-0.1,0-0.2,0-0.2-0.1
			c-0.2-0.1-0.4-0.3-0.6-0.5c-0.2-0.2-0.3-0.4-0.4-0.7c0-0.1-0.1-0.2-0.1-0.3c0-0.1-0.1-0.2-0.1-0.3c0-0.3-0.1-0.6-0.2-0.8
			c-0.1-0.1-0.2-0.3-0.2-0.5c0-0.2,0-0.4-0.1-0.6v-0.4c0-0.1,0-0.3-0.1-0.5c-0.1-0.3-0.2-0.7-0.3-1c-0.1-0.3-0.2-0.7-0.3-1
			c-0.1-0.5-0.3-1-0.3-1.5s-0.2-1-0.3-1.5c-0.1-0.3-0.1-0.6-0.1-0.9c0-0.3,0-0.6,0.1-0.9C164.1,134.2,164.3,134.4,164.5,134.6
			 M165,119.2c0-0.1,0-0.2,0-0.3c0-0.1,0-0.2,0.1-0.3c0-0.1,0.1-0.2,0.1-0.3c0.1-0.3,0.2-0.5,0.2-0.8c0-0.2,0-0.4,0.2-0.7
			c0.6-1.7,1.1-3.4,1.4-5.1c0.3-1.7,0.8-3.4,1.3-5.1c0.2-0.6,0.5-1.2,0.7-1.7c0.3-0.5,0.5-1.1,0.6-1.7c0.2-0.6,0.4-1.2,0.5-1.8
			c0.2-0.6,0.4-1.2,0.7-1.8c0.3-0.7,0.7-1.5,1-2.3c0.3-0.8,0.7-1.6,1.1-2.2c0.1-0.1,0.1-0.3,0.2-0.4s0.1-0.4,0.2-0.5
			c0.1-0.2,0.2-0.4,0.4-0.6c0.1-0.2,0.3-0.4,0.4-0.6c0.2-0.3,0.4-0.7,0.8-1.1c0.3-0.4,0.7-0.6,1.1-0.5c0.3,0.1,0.6,0.2,0.9,0.2
			s0.6,0.1,0.8,0.3c0.6,0.4,1,1,1.3,1.7c0.3,0.7,0.5,1.4,0.6,2.1c0.3,1.4,0.3,2.7,0.1,4s-0.6,2.6-1.1,3.9c-0.3,0.9-0.6,1.8-1,2.7
			c-0.4,0.9-0.8,1.7-1.3,2.6c-0.3,0.4-0.5,0.8-0.8,1.3c-0.2,0.4-0.5,0.9-0.9,1.3c-0.2,0.3-0.4,0.6-0.6,0.9c-0.2,0.4-0.5,0.8-0.8,1.1
			c-1.9,1.9-3.9,3.6-6.1,5.1c-0.6,0.4-1.2,0.8-1.8,1.1c-0.1,0.1-0.2,0.1-0.3,0.1C165.1,119.4,165,119.3,165,119.2 M163.6,132.2
			c0.1-0.2,0.1-0.4,0.1-0.6c0-0.2,0-0.4-0.1-0.6c0-0.1,0-0.1,0-0.2s0.1-0.1,0.1-0.2c0.1-0.8,0.1-1.6,0.2-2.3
			c0.1-0.8,0.1-1.6,0.2-2.4c0.1-0.6,0.2-1.2,0.3-1.9s0.1-1.3-0.1-1.9c0-0.3,0-0.5,0.1-0.7c0-0.1,0.1-0.1,0.1-0.1
			c0,0,0.1-0.1,0.1-0.1c0.1-0.3,0.4-0.5,0.8-0.6c0.3-0.1,0.6-0.2,0.9-0.3c0.3-0.1,0.6-0.3,0.9-0.4c0.1,0,0.1,0,0.2-0.1
			c0.1-0.1,0.2-0.1,0.3-0.2c0.1-0.1,0.2-0.1,0.3-0.2c0.5-0.2,0.9-0.5,1.2-0.7c0.4-0.3,0.7-0.5,1.1-0.8c0.3-0.3,0.7-0.6,1.1-0.9
			c0.1-0.1,0.2-0.2,0.2-0.3c0.1,0,0.2-0.1,0.3-0.3c0.2-0.2,0.4-0.4,0.7-0.6c0.2-0.2,0.4-0.4,0.6-0.6c0.3-0.3,0.6-0.6,0.8-0.8
			c0.2-0.3,0.5-0.5,0.8-0.8c0.1-0.1,0.2-0.3,0.3-0.4c0.1-0.1,0.2-0.2,0.3-0.4c0.2-0.3,0.3-0.5,0.4-0.8c0.1-0.3,0.3-0.5,0.4-0.7
			c0.1-0.1,0.2-0.2,0.3-0.4s0.2-0.3,0.3-0.4c0.6-0.7,1.1-1.5,1.6-2.5c0.1-0.3,0.3-0.6,0.4-0.8c0.1-0.3,0.2-0.5,0.4-0.8
			c0.4-0.7,0.6-1.3,0.8-1.8c0.1-0.1,0.1-0.3,0.1-0.4c0-0.1,0-0.3,0-0.4c0-0.1,0.1-0.3,0.1-0.4c0.2-0.5,0.4-1,0.5-1.5
			c0-0.1,0.1-0.1,0.1-0.2c0-0.1,0.1-0.1,0.1-0.2c0.1-0.5,0.2-1,0.3-1.5l0.2-0.5c0.1-0.5,0.2-1,0.4-1.6s0.3-1.1,0.3-1.6
			c0.1-0.9,0-1.9-0.2-3c-0.3-1.1-0.8-1.9-1.5-2.5c-0.4-0.4-0.9-0.6-1.5-0.8c-0.5-0.2-1-0.3-1.6-0.3c-0.5-0.1-1.1-0.1-1.6,0
			c-0.6,0-1.1,0.1-1.6,0.1c-0.7,0-1.4,0.2-2,0.4c-0.6,0.2-1.2,0.6-1.7,1.1c-0.4,0.4-0.8,0.8-1.1,1.1c-0.4,0.3-0.7,0.7-1,1.2
			c-0.9,1.4-1.7,2.9-2.4,4.3c-0.8,1.5-1.4,3-1.9,4.6c-0.2,0.7-0.5,1.5-0.7,2.1c-0.3,0.7-0.5,1.4-0.7,2.1c-0.1,0.4-0.2,0.7-0.4,1.1
			c-0.1,0.4-0.3,0.7-0.5,1.1c-0.3,0.6-0.4,1.2-0.5,1.8c0,0.2-0.1,0.4-0.1,0.6c0,0.2-0.1,0.4-0.1,0.6c-0.4,1.8-0.7,3.6-1,5.2
			c-0.1,0.5-0.1,1-0.2,1.4c-0.1,0.5-0.1,0.9-0.2,1.4c-0.1,0.7-0.2,1.3-0.3,1.9c0,0.2-0.1,0.5-0.1,0.9c0,0.5,0,1,0.1,1.6
			c0,0.5,0,1-0.1,1.6v0.6c0,0.2,0.1,0.4,0.1,0.7s0,0.4,0,0.7c0,0.6,0.1,1.1,0.2,1.7c0,0.1,0,0.2,0,0.3c0,0.1,0,0.2,0,0.3
			c0.1,0.5,0.1,1,0.2,1.5c0.1,0.5,0.1,1,0.2,1.5c0.1,0.7,0.2,1.5,0.2,2.3v0.6c0.1,0.5,0.3,1,0.3,1.6c0.1,0.5,0.2,1.1,0.4,1.6
			c0.1,0.3,0.1,0.5,0.2,0.7c0,0.4,0.1,0.9,0.3,1.3c0.1,0.1,0.1,0.2,0.2,0.4c0.2,0.5,0.4,1,0.6,1.4c0.2,0.5,0.5,0.9,0.8,1.4
			c0.1,0.2,0.2,0.4,0.3,0.5c0.1,0.1,0.2,0.3,0.3,0.4s0.2,0.3,0.3,0.4c0.1,0.1,0.2,0.3,0.4,0.4c0.3,0.2,0.6,0.3,0.9,0.4
			c0.3,0.1,0.6,0.1,1,0c0.1,0,0.3-0.1,0.4-0.1c0.1,0,0.2-0.1,0.3-0.1c0.3-0.1,0.5-0.2,0.8-0.4c0.2-0.2,0.4-0.4,0.6-0.6
			c0.9-1.3,1.3-2.7,1.4-4.2c0-0.7-0.1-1.3-0.3-1.9c-0.2-0.6-0.4-1.2-0.6-1.8c-0.1-0.3-0.2-0.6-0.2-0.9c0-0.3-0.1-0.6-0.1-0.9
			c-0.1-0.4-0.4-0.9-0.6-1.3c-0.3-0.4-0.5-0.9-0.8-1.2c-0.1-0.1-0.2-0.3-0.4-0.4c-0.1-0.1-0.3-0.3-0.4-0.5l-0.2-0.3
			c-0.1-0.2-0.1-0.3,0.2-0.4c0.6-0.3,1.1-0.6,1.6-0.9c0.6-0.3,1.2-0.7,1.7-1.2c0.2-0.2,0.5-0.4,0.7-0.6s0.5-0.3,0.8-0.5
			c0.3-0.2,0.6-0.4,0.8-0.6c0.2-0.2,0.5-0.4,0.8-0.6c0.1-0.1,0.1-0.1,0.1-0.2c0.2-0.2,0.4-0.4,0.6-0.7c0.2-0.2,0.4-0.4,0.7-0.6
			c0.2-0.1,0.4-0.3,0.6-0.5c0.2-0.2,0.4-0.4,0.6-0.6c0.3-0.3,0.5-0.6,0.5-0.9c0-0.1,0.1-0.2,0.3-0.3c0.1-0.2,0.3-0.4,0.4-0.5
			l0.5-0.5l0.7-0.8c0.1-0.1,0.2-0.3,0.3-0.4c0.1-0.1,0.1-0.3,0.1-0.5c0,0,0-0.1,0-0.1c0,0,0-0.1,0-0.1c0.1-0.2,0.2-0.3,0.3-0.4
			c0.1-0.1,0.2-0.2,0.2-0.4c0.2-0.2,0.3-0.4,0.3-0.5c-0.3,0-0.5,0.1-0.7,0.1c-0.2,0-0.4,0.1-0.6,0.3c0.1,0.3,0.1,0.5,0,0.7
			c-0.4,0.4-0.7,0.9-1.1,1.4s-0.7,0.9-1.1,1.4c-0.2,0.3-0.4,0.5-0.6,0.7c-0.2,0.2-0.4,0.5-0.6,0.7c-0.1,0.1-0.2,0.3-0.3,0.4
			l-0.3,0.3c-0.3,0.3-0.5,0.6-0.7,0.8c-0.2,0.2-0.5,0.5-0.7,0.8c-0.2,0.2-0.4,0.4-0.6,0.5c-0.2,0.2-0.4,0.3-0.6,0.4
			c-0.4,0.3-0.8,0.6-1.2,0.9s-0.8,0.6-1.1,0.9c-0.4,0.3-0.7,0.6-1.1,0.8c-0.4,0.2-0.8,0.4-1.2,0.6c-0.6,0.2-1.2,0.5-1.7,0.8
			c-0.1,0.1-0.3,0.1-0.4,0.2c-0.1,0.1-0.3,0.2-0.5,0.3C163.6,132.3,163.6,132.2,163.6,132.2 M138.1,118.5c0.2-0.2,0.3-0.5,0.3-0.9
			c0-0.1,0-0.2,0.1-0.2c0.1-0.2,0.2-0.5,0.2-0.7c0-0.2,0.1-0.5,0.1-0.8c0-0.2,0.1-0.3,0.1-0.5c0-0.1,0.1-0.3,0.1-0.4
			c0.1-0.3,0.1-0.6,0.2-0.9c0.1-0.3,0.1-0.6,0.2-0.9c0-0.2,0.1-0.4,0.2-0.6c0.1-0.2,0.1-0.4,0.2-0.6c0.2-0.4,0.4-0.8,0.6-1.3
			c0.2-0.4,0.3-0.9,0.4-1.4c0-0.2,0.1-0.3,0.1-0.5c0-0.1,0.1-0.3,0.2-0.5c0.1-0.4,0.3-0.8,0.4-1.2c0.1-0.4,0.3-0.8,0.4-1.2
			c0.1-0.2,0.1-0.5,0.2-0.7c0.1-0.2,0.1-0.5,0.3-0.6c0.1-0.3,0.2-0.6,0.3-0.9c0.1-0.3,0.2-0.7,0.3-0.9c0.1-0.3,0.2-0.6,0.3-1
			c0.1-0.4,0.2-0.7,0.3-1c0.1-0.1,0.1-0.2,0.1-0.3c0-0.1,0.1-0.2,0.1-0.3c0.4-0.6,0.6-1.2,0.7-2c0.1-0.3,0.2-0.5,0.3-0.7
			c0-0.1,0.1-0.1,0.1-0.2c0-0.1,0.1-0.1,0.1-0.2c0-0.1,0-0.2,0.1-0.3c0-0.1,0.1-0.1,0.1-0.2c0.2-0.4,0.4-0.8,0.5-1.1
			c0.1-0.4,0.3-0.7,0.6-1.1c0.1-0.1,0.1-0.2,0.1-0.3c0-0.2,0-0.3,0.1-0.4c0.1-0.1,0.1-0.2,0.2-0.3c0.1-0.1,0.2-0.3,0.3-0.4
			c0.1-0.1,0.2-0.3,0.3-0.4l0.5-0.5c0.3-0.2,0.6-0.4,0.9-0.5c0.3-0.1,0.6-0.3,0.9-0.3c0.5-0.1,1-0.1,1.4,0.2
			c0.1,0.1,0.2,0.1,0.3,0.2c0.1,0,0.2,0.1,0.3,0.2c0.4,0.2,0.6,0.5,0.7,0.8c0.1,0.2,0.1,0.3,0.2,0.5c0.1,0.1,0.1,0.3,0.2,0.4
			c0.3,0.4,0.5,0.9,0.6,1.2c0,0.1,0,0.2,0.1,0.3c0.2,0.4,0.3,0.9,0.3,1.4c0,0.1,0,0.3,0.1,0.4c0.1,0.3,0.1,0.5,0,0.7
			c0,0.2-0.1,0.4-0.1,0.7v0.7c0,0.3-0.1,0.6-0.1,0.9c0,0.3-0.1,0.6-0.1,0.9c0,0.2-0.1,0.4-0.1,0.5c0,0.2,0,0.3-0.1,0.5
			c-0.1,0.2-0.1,0.4-0.2,0.6c-0.1,0.2-0.1,0.4-0.2,0.6c-0.6,1.5-1.4,2.8-2.2,4.2c-0.2,0.3-0.4,0.7-0.6,1c-0.2,0.3-0.4,0.6-0.7,0.9
			c-0.1,0.1-0.1,0.2-0.2,0.3c-0.1,0.1-0.1,0.2-0.2,0.2c-0.3,0.3-0.7,0.7-1,1c-0.3,0.4-0.7,0.7-1,1c-0.1,0.1-0.2,0.2-0.3,0.3
			c-0.1,0.1-0.2,0.2-0.3,0.3c-0.5,0.6-1.1,1.2-1.6,1.7c-0.6,0.5-1.2,1.1-1.8,1.6c-0.4,0.3-0.9,0.7-1.3,1c-0.4,0.4-0.9,0.7-1.4,1.1
			c-0.3,0.2-0.6,0.4-1,0.7c-0.4,0.2-0.7,0.4-1,0.7c-0.1,0-0.2,0.1-0.4,0.2C137.9,119,138,118.8,138.1,118.5 M144.9,122.1
			c0,0.4,0,0.8,0,1.2c0,0.4-0.1,0.8-0.1,1.2c-0.1,1.5-0.2,2.9-0.5,4.2c-0.2,1.4-0.4,2.8-0.5,4.2c0,0.5,0,1.1,0,1.6
			c0,0.5,0,1.1,0,1.6c0.1,0.9,0.2,1.8,0.2,2.7s0.1,1.8,0.2,2.7c0.1,0.4,0.2,0.7,0.3,1c0.1,0.3,0.3,0.6,0.5,0.9
			c0.3,0.6,0.8,1.1,1.5,1.4c0.7,0.3,1.3,0.4,1.9,0.2c0.1,0,0.1,0,0.2,0c0.1,0,0.1,0,0.2,0c0.2,0,0.3,0,0.5,0c0.1,0,0.3-0.1,0.4-0.2
			c0.1,0,0.1-0.1,0.2-0.1c0.1,0,0.1-0.1,0.2-0.1c0.4-0.1,0.7-0.2,1-0.4s0.6-0.4,1-0.6c0.5-0.3,0.9-0.7,1.3-1.1
			c0.4-0.4,0.7-0.9,1-1.5c0.3-0.5,0.6-1.1,0.8-1.6c0.2-0.5,0.5-1.1,0.8-1.5c0.6-1.2,1.2-2.4,1.8-3.7c0.5-1.2,0.9-2.5,1.1-3.9
			c0.3-1.7,0.7-3.5,1.4-5.1c0.1-0.2,0.1-0.4,0.2-0.5c0.1-0.2,0.1-0.3,0.2-0.5c0.1-0.3,0.2-0.7,0.2-1c0.1-0.3,0.2-0.6,0.3-0.9
			c0.1-0.1,0.1-0.3,0.1-0.4c0-0.2,0-0.4,0.1-0.6c0.1-0.2,0.1-0.4,0.2-0.5s0.1-0.3,0.1-0.5c0.1-0.2,0.1-0.4,0.1-0.5
			c0-0.2,0-0.3-0.1-0.5c-0.4,0-0.7,0.1-0.9,0.4c-0.1,0.2-0.2,0.3-0.3,0.5c-0.1,0.1-0.2,0.3-0.3,0.5c-0.1,0.2-0.2,0.4-0.3,0.7
			c-0.1,0.2-0.2,0.4-0.3,0.7c-0.1,0.5-0.3,1-0.4,1.5c-0.1,0.5-0.2,1-0.4,1.5c-0.1,0.6-0.3,1.3-0.6,1.9c-0.2,0.6-0.5,1.2-0.8,1.8
			c-0.1,0.3-0.2,0.6-0.4,0.8s-0.2,0.5-0.3,0.8c0,0.2-0.1,0.5-0.3,0.8c-0.3,0.6-0.5,1.2-0.7,1.8c-0.2,0.6-0.4,1.2-0.7,1.8
			c0,0.1-0.1,0.2-0.1,0.3c0,0.1,0,0.2-0.1,0.3c0,0.1-0.1,0.2-0.1,0.3c0,0.1-0.1,0.2-0.1,0.3c-0.3,0.8-0.7,1.6-1.1,2.3
			c-0.4,0.8-0.8,1.5-1.2,2.3c-0.2,0.3-0.4,0.6-0.6,0.8c-0.2,0.3-0.4,0.5-0.6,0.8c-0.2,0.3-0.5,0.6-0.8,0.8c-0.2,0.1-0.4,0.3-0.6,0.4
			c-0.2,0.1-0.4,0.1-0.7,0.1c-0.2,0-0.4-0.1-0.5-0.2c-0.4-0.6-0.6-1.2-0.6-1.8c0-0.1,0-0.3,0-0.4c0-0.1,0-0.3,0-0.5
			c0-0.5-0.1-1-0.1-1.4c0-0.5-0.1-0.9-0.1-1.4c-0.1-1.7,0-3.3,0.3-5c0.3-1.6,0.5-3.3,0.5-5c0-1-0.1-2-0.4-2.8s-0.5-1.8-0.8-2.7
			c-0.1-0.4-0.2-0.7-0.4-0.8c-0.2-0.3-0.4-0.5-0.4-0.7c-0.3-0.3-0.5-0.5-0.8-0.5c-0.8-0.1-1.5,0-2.2,0.4c-0.4,0.2-0.7,0.5-1.1,0.7
			s-0.7,0.5-1,0.8c-0.1,0.1-0.2,0.2-0.3,0.4s-0.2,0.2-0.3,0.4c-0.1,0.2-0.3,0.4-0.4,0.6c-0.1,0.2-0.2,0.4-0.4,0.6
			c-0.2,0.3-0.4,0.6-0.5,0.8c-0.2,0.2-0.3,0.5-0.5,0.8c-0.3,0.6-0.6,1.2-0.9,1.7c-0.3,0.6-0.6,1.1-0.8,1.7c-0.1,0.1-0.1,0.3-0.2,0.4
			c0-0.1-0.1-0.1-0.1-0.2c0,0,0-0.1-0.1-0.2c0-0.3,0-0.5,0-0.8s0-0.5,0.1-0.8v-1.1c0-0.4,0-0.7,0.1-1.1c0-0.2,0.1-0.4,0.1-0.5
			c0-0.2,0-0.3,0.1-0.5c0-0.1,0-0.3,0-0.4c0-0.1,0-0.3,0-0.5c0-0.2,0-0.4,0-0.6c0-0.2,0-0.4,0-0.6c0-0.4,0.1-0.8,0.2-1.3
			c0.1-0.4,0.1-0.7,0.2-0.8s0.3-0.2,0.8-0.3c1.2-0.3,2.2-0.8,3.1-1.5c0.9-0.7,1.7-1.4,2.7-2.1c0.5-0.4,1.1-0.8,1.6-1.2
			c0.6-0.4,1.1-0.8,1.6-1.2c0.6-0.4,1-0.9,1.5-1.4c0.4-0.5,0.8-1,1.3-1.6c0.5-0.6,1-1.3,1.5-1.9c0.5-0.6,1-1.3,1.5-2
			c0.5-0.7,0.9-1.4,1.3-2.1c0.4-0.7,0.7-1.5,0.9-2.3c0.1-0.5,0.2-1,0.3-1.5s0.2-1,0.3-1.5c0.1-0.4,0.1-0.9,0.1-1.4
			c0-0.5,0-0.9,0.1-1.4c0-0.2,0-0.5-0.1-0.8c0-0.1,0-0.2,0-0.3c0-0.1,0-0.2,0-0.3c0-0.3-0.1-0.6-0.2-0.9c0-0.1-0.1-0.1-0.1-0.2
			c0-0.1,0-0.1-0.1-0.2c-0.2-0.7-0.4-1.2-0.7-1.7c-0.2-0.3-0.5-0.6-0.7-0.8c-0.2-0.2-0.5-0.5-0.8-0.6c-0.5-0.3-1-0.5-1.5-0.7
			c-0.5-0.2-1.1-0.3-1.6-0.4c-0.3-0.1-0.6-0.1-0.9-0.2c-0.3-0.1-0.7-0.1-0.9,0c-0.2,0-0.4,0-0.5,0c-0.1,0-0.3,0-0.5,0
			c-0.8,0.1-1.5,0.2-2.2,0.4c-0.7,0.2-1.4,0.6-2,1.1c-0.4,0.3-0.7,0.7-0.9,1.2c-0.3,0.5-0.5,0.9-0.8,1.1c-0.3,0.2-0.5,0.5-0.7,0.8
			c-0.1,0.3-0.3,0.6-0.4,0.9c-0.1,0.2-0.2,0.4-0.3,0.6c-0.1,0.2-0.2,0.4-0.3,0.6c-0.1,0.2-0.3,0.4-0.4,0.6c-0.1,0.2-0.2,0.5-0.3,0.7
			c-0.1,0.3-0.3,0.6-0.4,0.9c-0.1,0.3-0.2,0.6-0.4,0.9c-0.2,0.6-0.4,1.1-0.7,1.7c-0.2,0.6-0.4,1.2-0.6,1.8l-1.3,4.4c0,0,0,0.1,0,0.1
			c0,0,0,0.1,0,0.1c-0.1,0.5-0.3,1-0.4,1.5c-0.1,0.5-0.2,1-0.4,1.5c-0.1,0.3-0.2,0.6-0.2,0.8c-0.1,0.5-0.2,1.1-0.3,1.6
			c-0.1,0.5-0.2,1.1-0.3,1.6c-0.1,0.5-0.2,1.1-0.3,1.6c-0.1,0.6-0.2,1.1-0.2,1.6c-0.1,0.3-0.1,0.6-0.1,0.8c0,0.3-0.1,0.5-0.1,0.8
			c-0.2,1-0.2,2-0.2,3c0,0.6,0,1.2,0,1.9c-0.1,0.4-0.1,0.7-0.1,1.1v1.2c0,0.2,0,0.4,0,0.6c0,0.2,0,0.4,0,0.6c0,0.3-0.1,0.5-0.1,0.8
			c0,0.3,0,0.5,0,0.8c0,0.6,0.1,1.1,0.1,1.7c0,0.6,0.1,1.1,0.1,1.7v0.1c0.1,0.4,0.1,0.8,0.1,1.2c0,0.4,0,0.8,0,1.2
			c0,0.3,0.1,0.6,0.1,0.9c0,0.3,0.1,0.7,0.2,0.9c0.1,0.3,0.2,0.6,0.2,0.8c0.1,0.2,0.1,0.5,0.1,0.8c0,0,0,0.1,0,0.1c0,0,0,0,0,0.1
			c0.1,0.3,0.3,0.4,0.6,0.3c0,0,0.1,0,0.1,0c0,0,0,0,0.1,0c0.3-0.1,0.6,0,0.8,0.2c0.1,0.1,0.3,0.2,0.4,0.2c0.1-0.2,0.3-0.4,0.3-0.4
			c0.2,0,0.4,0.1,0.6,0.2c0.2,0.1,0.4,0.2,0.6,0.2c0,0,0.1-0.1,0.1-0.1c0.1,0,0.1,0,0.1-0.1c0.1-0.2,0.2-0.4,0.3-0.6
			c0.1-0.2,0.2-0.4,0.3-0.6c0.1-0.4,0.2-0.7,0.3-1.1c0.1-0.4,0.3-0.7,0.4-1.1c0.1-0.4,0.1-0.7,0.1-0.8c-0.1-0.4-0.1-0.9,0.1-1.3
			c0.1-0.3,0.1-0.6,0.2-0.9c0.1-0.3,0.1-0.6,0.1-0.9c0-0.5,0.1-1,0.2-1.5c0.1-0.5,0.2-1,0.4-1.5c0.1-0.1,0.1-0.2,0.1-0.3
			c0-0.3,0.1-0.6,0.2-0.9c0.1-0.2,0.3-0.5,0.4-0.8c0.1-0.1,0.2-0.2,0.2-0.3c0.1-0.1,0.2-0.2,0.2-0.3c0.1-0.4,0.3-0.8,0.5-1.1
			c0.2-0.3,0.4-0.7,0.5-1c0-0.1,0.1-0.2,0.2-0.3c0.3-0.1,0.5-0.3,0.6-0.6c0.1-0.2,0.2-0.5,0.3-0.7c0.1-0.3,0.3-0.6,0.7-0.8
			c0.3-0.3,0.6-0.4,0.9-0.6C144.9,121.7,144.9,121.9,144.9,122.1 M116.5,108.7c0,0.1,0,0.2-0.1,0.4c0,0.3-0.1,0.6-0.1,0.9
			c0,0.3-0.1,0.6-0.1,0.9c-0.1,0.6-0.3,1.3-0.3,2c-0.1,0.7-0.1,1.3-0.2,2c0,0.4-0.1,0.8-0.1,1.2c0,0.4,0,0.8-0.1,1.1
			c-0.1,0.6-0.2,1.1-0.3,1.7c-0.1,0.6-0.1,1.2-0.2,1.8c0,0.3,0,0.5-0.1,0.7l-0.2,3c0,0.2,0,0.4,0,0.7s0,0.4,0,0.7v0.4
			c0,0.1,0,0.3-0.1,0.4c0,0.3,0,0.6,0,0.9c0,0.3,0,0.6,0,0.9v1.6v0.8c0,0.3,0,0.5,0,0.8c0,0.2,0,0.5,0.1,0.8c0,0.1,0.1,0.3,0.1,0.6
			c0,0.2,0.1,0.4,0.1,0.5c0,0.2,0,0.3,0.1,0.5c0,0.4,0.1,0.8,0.1,1.2c0.1,0.4,0.2,0.8,0.4,1.2c0.4,1.3,1.3,2.1,2.6,2.3
			c0.4,0.1,0.8,0.2,1.2,0.2c0.4,0,0.7,0,1.1,0c0.2,0,0.5-0.1,0.7-0.2c0,0,0.1,0,0.1-0.1s0.1-0.1,0.1-0.1c0.4-0.1,0.7-0.4,1-0.8
			c0.4-0.4,0.8-0.8,1.3-1.1c0.5-0.3,0.9-0.8,1.2-1.3c0.3-0.5,0.6-1,0.9-1.6c0.3-0.5,0.5-1,0.8-1.6c0.5-1.2,1.1-2.2,1.8-3.3
			c0.7-1,1.4-2.1,2.1-3.1c0.4-0.6,0.8-1.3,1.1-2c0.3-0.7,0.7-1.3,1.1-2c0.1-0.2,0.2-0.3,0.2-0.5s0.2-0.3,0.3-0.4
			c0.1-0.1,0.1-0.3,0.2-0.6c0,0,0-0.1,0.1-0.1c0,0,0.1-0.1,0.1-0.2l0.1-0.1c0.2-0.4,0.1-0.7-0.4-0.9c-0.2-0.1-0.4,0-0.6,0.1
			c-0.1,0.1-0.2,0.3-0.3,0.4c-0.1,0.1-0.1,0.3-0.2,0.4c-0.2,0.5-0.4,0.9-0.7,1.2c-0.1,0.2-0.2,0.4-0.3,0.5s-0.2,0.3-0.3,0.5
			c0,0-0.1,0.1-0.1,0.1c0,0,0,0.1-0.1,0.2c-0.3,0.4-0.6,0.9-0.9,1.3c-0.3,0.4-0.6,0.9-0.9,1.4c-0.2,0.2-0.4,0.4-0.5,0.7
			c-0.1,0.2-0.3,0.4-0.4,0.7c-0.2,0.3-0.4,0.6-0.6,0.9c-0.2,0.3-0.4,0.6-0.6,0.9c-0.2,0.3-0.4,0.6-0.6,0.9c-0.2,0.3-0.4,0.6-0.6,0.9
			c-0.1,0-0.1,0.2-0.2,0.4c-0.5,0.8-1.1,1.6-1.6,2.4c-0.5,0.8-1.1,1.6-1.7,2.4c-0.2,0.2-0.4,0.5-0.5,0.7c-0.2,0.2-0.3,0.5-0.5,0.7
			c-0.1,0.1-0.3,0.3-0.4,0.3c-0.1,0.1-0.2,0.2-0.3,0.3c-0.2,0.1-0.4,0.1-0.6,0.1c-0.2-0.1-0.4-0.2-0.5-0.4c-0.1-0.2-0.1-0.4-0.1-0.6
			c0-0.1,0-0.3,0-0.4c0-0.1,0-0.3,0-0.4v-0.2c0-0.1,0-0.2,0-0.3c0-0.1,0-0.2,0-0.3v-0.6c0-1.7,0-3.3,0.1-5c0.1-1.7,0.2-3.3,0.3-5
			c0.1-1.7,0.1-3.3,0.1-5c0-1.7,0-3.3-0.1-4.9c-0.1-0.3-0.1-0.6,0.1-0.8v-0.3v-0.7c0-0.4,0-0.8,0-1.2c0-0.4,0-0.8,0-1.1
			c0-0.2,0-0.4,0-0.6s0-0.4,0-0.6h0.4h0.3c0.2,0,0.4,0.1,0.6,0.1h0.6c0.2,0,0.4,0,0.6,0c0.2,0,0.4-0.1,0.6-0.1l0.1-0.1
			c0.2,0,0.4-0.1,0.5-0.2c0.1-0.1,0.2-0.1,0.3-0.2c0.1,0,0.2-0.1,0.3-0.1c0.2,0.1,0.3,0.2,0.4,0.2c0.1,0,0.1-0.1,0.2-0.2
			c0,0,0.1,0,0.1-0.1c0.1-0.2,0.2-0.3,0.4-0.3c0.1,0,0.1,0,0.2-0.1c0.1,0,0.1-0.1,0.2-0.1c0.1-0.1,0.1-0.1,0.2-0.2
			c0.1,0,0.1-0.1,0.2-0.1c0.1,0,0.1-0.1,0.2-0.1c0,0,0.1,0,0.2-0.1c0.1-0.1,0.3-0.2,0.4-0.2c0.1,0,0.3-0.1,0.5-0.2h0.2
			c0.2-0.1,0.4-0.2,0.6-0.3c0.2-0.1,0.4-0.2,0.6-0.3c0.1-0.1,0.2-0.1,0.3-0.2c0.1-0.1,0.3-0.2,0.4-0.3c0.1-0.1,0.3-0.3,0.4-0.4
			c-0.1-0.1-0.1-0.3,0-0.4c0.1-0.1,0.1-0.3,0.1-0.4c-0.3-0.2-0.7-0.3-1-0.1c-0.1,0.1-0.2,0.1-0.4,0.1c-0.1,0-0.3,0.1-0.4,0.1
			c-0.5,0.2-1,0.4-1.6,0.6c-0.5,0.2-1,0.4-1.6,0.6c-0.7,0.3-1.5,0.4-2.4,0.3c-0.1,0-0.2,0-0.4-0.1c-0.3-0.1-0.6-0.2-1-0.3
			c-0.4-0.1-0.7-0.2-1-0.4c-0.4-0.1-0.6-0.4-0.6-0.8c0-0.1,0-0.2,0-0.2s0-0.2,0-0.3v-0.3c-0.1-0.3-0.1-0.5-0.1-0.8
			c0-0.3,0-0.5-0.1-0.8v-0.3c0-0.1,0-0.2,0.1-0.3c0.1-0.3,0.1-0.6-0.1-1c0-0.1-0.1-0.2-0.1-0.2c0-0.1-0.1-0.2-0.2-0.3
			c-0.2-0.3-0.5-0.4-0.9-0.4l-0.1,0.1c-0.3,0.6-0.4,1.1-0.4,1.6c-0.1,0.4-0.1,0.9-0.2,1.3c-0.1,0.4-0.1,0.9-0.2,1.3
			c0,0.1,0,0.2,0,0.3c0,0.1-0.1,0.2-0.1,0.2c-0.1,0-0.4,0-0.6-0.1c-0.6,0-1.2,0-1.8,0c-0.4,0.1-0.8,0.1-1.2-0.1
			c-0.1,0-0.2-0.1-0.4-0.1c-0.1,0-0.3,0-0.4-0.1c-0.3,0-0.5-0.1-0.8-0.1c-0.2,0-0.5,0-0.8,0c-0.3,0-0.7-0.1-1-0.1s-0.7,0-1,0
			c-0.3,0-0.7,0.1-1,0.1c-0.3,0-0.6,0.1-1,0.3c-0.2,0.1-0.4,0.2-0.6,0.3c-0.2,0.1-0.4,0.2-0.6,0.3c0,0,0,0.1-0.1,0.2
			c-0.1,0.1-0.1,0.1,0.1,0.2c0.1,0,0.2,0,0.4,0c0.1,0,0.3,0,0.4,0c0.1,0,0.3,0,0.5,0c0.2,0,0.3,0,0.5,0c0.3-0.1,0.6-0.1,0.8-0.1
			c0.2,0,0.5,0.1,0.8,0.2c0.1,0.1,0.3,0.1,0.5,0.2c0.2,0.1,0.3,0.1,0.5,0.1c0.7,0,1.5,0.2,2.3,0.5c0.2,0.1,0.4,0.2,0.6,0.3
			c0.2,0.1,0.4,0.1,0.6,0.2c0.2,0,0.4,0.1,0.6,0.2c0.3,0.1,0.5,0.2,0.8,0.3s0.6,0.2,0.9,0.2c0.1,0.1,0.2,0.1,0.3,0.2
			c0.1,0.1,0.2,0.1,0.4,0.1C116.6,108.5,116.5,108.6,116.5,108.7 M97.9,116.3c0-0.3-0.1-0.5-0.1-0.7c0-0.2,0.1-0.4,0.1-0.6v-0.6
			v-0.6c0-0.1,0-0.1,0-0.2c0,0,0-0.1,0-0.2c0-0.4,0.1-0.8,0.2-1.1c0.1-0.4,0.2-0.7,0.4-1c0.1-0.1,0.2-0.3,0.2-0.4
			c0-0.2,0.1-0.5,0.3-0.7c0-0.1,0.1-0.2,0.2-0.2c0.1-0.1,0.1-0.2,0.1-0.3c0-0.1,0.1-0.1,0.2-0.1h0.2c0.5,0.3,0.9,0.6,1.2,1.1
			c0,0.1,0.1,0.2,0.1,0.4c-0.1,0.4-0.1,0.8-0.2,1.2s-0.1,0.8-0.1,1.1c0,0.3-0.1,0.5-0.2,0.8c-0.1,0.2-0.2,0.4-0.3,0.6
			c-0.1,0.2-0.2,0.4-0.4,0.6c-0.1,0.1-0.2,0.2-0.3,0.3s-0.1,0.3-0.2,0.4c-0.1,0.2-0.3,0.4-0.5,0.6s-0.4,0.4-0.6,0.5
			C97.9,116.8,97.9,116.6,97.9,116.3 M99.1,137.1c0,0.2,0,0.5,0.1,0.8c0.1,0.4,0.1,0.8,0.2,1.2c0,0.4,0.1,0.8,0.2,1.2
			c0.3,1.4,1.1,2.4,2.3,3.1c0.2,0.1,0.4,0.2,0.6,0.3c0.2,0.1,0.4,0.1,0.6,0.1c0.3,0.1,0.5,0.2,0.8,0.2c0.5,0.2,0.9,0.1,1.2-0.3
			c0.1-0.1,0.1-0.1,0.2-0.1c0,0,0.1,0,0.2-0.1c0.2,0,0.4-0.1,0.6-0.3c0.3-0.1,0.6-0.2,0.8-0.3c0.1-0.1,0.1-0.1,0.2-0.2
			c0.1,0,0.2-0.1,0.3-0.2c0.2-0.1,0.3-0.3,0.5-0.5c0.1-0.2,0.3-0.3,0.5-0.5c0.1-0.1,0.2-0.3,0.4-0.4c0.1-0.1,0.3-0.3,0.4-0.4
			c0.1-0.1,0.1-0.1,0.1-0.2c0-0.1,0-0.1,0.1-0.2c0.1-0.1,0.1-0.2,0.2-0.3c0-0.1,0.1-0.2,0.1-0.3c0.2-0.4,0.4-0.7,0.5-1.1
			c0.1-0.4,0.3-0.7,0.5-1c0.2-0.3,0.4-0.6,0.4-0.8c0.1-0.3,0.2-0.5,0.3-0.8c0.1-0.3,0.2-0.6,0.4-0.9c0.2-0.4,0.4-1.1,0.7-1.8
			c0.3-0.8,0.6-1.6,0.9-2.3c0.3-0.8,0.6-1.5,0.8-2.1c0.2-0.6,0.4-1,0.4-1.2c0.1-0.5,0.3-1,0.5-1.6c0.2-0.5,0.4-1.1,0.6-1.6
			c0.1-0.3,0.3-0.5,0.4-0.8c0.1-0.3,0.1-0.5,0.2-0.8c0.1-0.2,0.1-0.5,0.1-0.8c0-0.1,0-0.2,0.1-0.3c0.1-0.1,0.1-0.2,0.1-0.3v-0.3
			c0-0.1,0-0.3,0-0.5c0-0.2,0-0.3,0.1-0.5l-0.1-0.1c-0.1-0.1-0.2-0.2-0.4-0.2c-0.2,0-0.3,0-0.4,0.1c-0.3,0.3-0.5,0.7-0.7,1.2
			c-0.2,0.4-0.4,0.8-0.6,1.3c-0.2,0.5-0.4,1-0.6,1.5c-0.1,0.2-0.1,0.4-0.2,0.5c0,0.2-0.1,0.3-0.2,0.5c0,0.2-0.1,0.4-0.1,0.5
			s-0.1,0.3-0.2,0.5c-0.1,0.3-0.1,0.6-0.2,0.9s-0.1,0.7-0.2,0.9c-0.1,0.4-0.3,0.8-0.4,1.2c-0.1,0.4-0.2,0.8-0.4,1.2
			c-0.1,0.2-0.1,0.4-0.2,0.6c-0.1,0.2-0.1,0.4-0.2,0.6c-0.1,0.3-0.2,0.6-0.3,0.9c-0.1,0.2-0.2,0.5-0.3,0.8c-0.2,0.4-0.4,0.8-0.5,1.2
			c-0.1,0.4-0.3,0.8-0.4,1.2c0,0.1-0.1,0.1-0.1,0.2s0,0.1-0.1,0.2c-0.2,0.4-0.4,0.8-0.6,1.3c-0.2,0.4-0.4,0.9-0.6,1.3
			c-0.1,0.1-0.1,0.3-0.1,0.3c-0.2,0.3-0.4,0.5-0.5,0.8c-0.1,0.3-0.3,0.5-0.4,0.8c-0.1,0.2-0.1,0.3-0.2,0.4c-0.1,0.1-0.3,0.3-0.4,0.4
			c-0.1,0.1-0.3,0.2-0.4,0.4c-0.4,0.2-0.8,0.1-1.1-0.2s-0.6-0.7-0.8-1.1c-0.2-0.3-0.3-0.7-0.3-1c0-0.3-0.1-0.7-0.2-1.1
			c-0.1-0.2-0.1-0.4-0.2-0.6c-0.1-0.2-0.1-0.4-0.1-0.7c0-0.2,0-0.4,0-0.7c0-0.2,0-0.4,0-0.7c0-0.5,0.1-1,0.1-1.5s0.1-1,0.3-1.5
			c0.1-0.4,0.2-0.8,0.2-1.3c0.1-0.4,0.2-0.9,0.3-1.3c0.1-0.2,0.1-0.4,0.2-0.6c0-0.2,0.1-0.4,0.1-0.6c0.1-0.2,0.2-0.4,0.2-0.6
			c0.1-0.2,0.2-0.4,0.2-0.5c0-0.3,0.1-0.5,0.2-0.7c0.1-0.2,0.2-0.5,0.1-0.7v-0.1c0.1-0.3,0.1-0.6,0.1-0.9s0-0.5-0.1-0.8
			c0-0.1,0-0.1-0.1-0.2c0,0,0-0.1,0.1-0.1c0-0.2,0-0.4-0.1-0.6s-0.2-0.4-0.3-0.6c-0.1-0.2-0.3-0.4-0.4-0.6c-0.2-0.1-0.4-0.3-0.6-0.4
			c-0.6-0.4-1.2-0.8-1.7-0.9c-0.3-0.2-0.7-0.3-1-0.5s-0.7-0.3-1-0.5c-0.5-0.2-0.9-0.5-1.2-0.9c-0.3-0.4-0.7-0.8-0.9-1.3
			c-0.1-0.1-0.1-0.3,0.1-0.4l0.4-0.4c0.6-0.4,1.2-1,1.6-1.8c0.1-0.2,0.3-0.4,0.4-0.6c0.1-0.2,0.2-0.4,0.3-0.6
			c0.1-0.2,0.2-0.4,0.2-0.5c0.1-0.2,0.2-0.3,0.3-0.5c0.1-0.4,0.2-0.6,0.2-0.8c0-0.1,0-0.2,0-0.3c0-0.1,0-0.2,0.1-0.4
			c0-0.1,0.1-0.2,0.1-0.3c0-0.1,0-0.2,0-0.3c0-0.1-0.1-0.4-0.1-0.6c0-0.2,0-0.4-0.1-0.7c-0.1-0.2-0.3-0.4-0.6-0.6
			c-0.1-0.1-0.2-0.1-0.3-0.2c-0.1-0.1-0.2-0.2-0.2-0.3c-0.3-0.2-0.5-0.4-0.7-0.4c-0.3-0.1-0.5-0.1-0.8-0.2c-0.2-0.1-0.5-0.1-0.8-0.1
			c-0.3-0.1-0.6-0.1-0.9-0.1c-0.3,0-0.6,0-0.9,0.1c-0.3,0.1-0.5,0.3-0.8,0.6c0,0.1-0.1,0.3-0.3,0.4c-0.1,0.2-0.3,0.4-0.4,0.5
			s-0.3,0.3-0.3,0.6c0,0.1-0.1,0.4-0.3,0.7c-0.1,0.1-0.1,0.2-0.2,0.3c0,0.1-0.1,0.2-0.2,0.3c-0.1,0.3-0.3,0.6-0.4,0.9
			c-0.1,0.3-0.2,0.6-0.3,0.9c-0.2,1.1-0.3,2.2-0.2,3.3c0,0.1,0.1,0.3,0.1,0.5c0,0.2,0,0.3,0.1,0.5c0.2,0.7,0.5,1.3,0.9,1.8
			c0.4,0.5,0.9,1,1.5,1.4c0.3,0.3,0.7,0.5,1,0.8c0.4,0.2,0.7,0.4,1.1,0.7c0.3,0.2,0.7,0.4,1.1,0.5s0.7,0.3,1.1,0.5
			c0.7,0.4,1.1,0.9,0.9,1.7c0,0.1,0,0.2-0.1,0.3c-0.1,0.3-0.1,0.6-0.2,0.9c-0.1,0.3-0.1,0.6-0.2,0.9c-0.1,0.5-0.3,1.1-0.5,1.6
			s-0.3,1.1-0.4,1.7c0,0.1,0,0.3,0,0.4c0,0.1,0,0.3-0.1,0.5c-0.1,0.4-0.1,0.9-0.2,1.3c0,0.4-0.1,0.9-0.2,1.3
			c-0.1,0.3-0.1,0.7-0.1,1.1c0,0.4,0,0.7-0.1,1.1C99.1,136.6,99.1,136.8,99.1,137.1 M82,126.4c-0.1,0.5-0.1,1-0.2,1.6
			c0,0.5-0.1,1-0.1,1.6c0,0.7,0,1.3,0.1,2c0.1,0.7,0.3,1.3,0.7,1.9c0.1,0.3,0.3,0.5,0.5,0.6c0.4,0.3,0.9,0.5,1.6,0.6
			c0.7,0.1,1.2,0,1.7-0.1c0.9-0.3,1.8-0.9,2.5-1.6c0.7-0.7,1.4-1.5,2-2.4s1.1-1.8,1.5-2.8c0.4-0.9,0.9-1.9,1.2-2.7
			c0.1-0.2,0.2-0.5,0.4-0.9c0.2-0.4,0.3-0.8,0.5-1.2c0.2-0.4,0.4-0.8,0.6-1.2c0.2-0.4,0.3-0.7,0.4-0.9c0.1-0.1,0.1-0.3,0.1-0.5
			c0-0.2,0-0.3,0.1-0.5c0-0.2-0.1-0.3-0.3-0.3c-0.1,0-0.3,0.1-0.4,0.1c-0.1,0-0.2,0-0.3,0.1c-0.2,0-0.3,0.1-0.3,0.2
			c0,0.2,0,0.3-0.1,0.5c-0.4,0.9-1,2-1.5,3.3c-0.6,1.3-1.1,2.4-1.5,3.3c-0.2,0.5-0.5,1-0.9,1.6c-0.4,0.6-0.8,1.1-1.1,1.5
			c-0.1,0.2-0.5,0.5-0.9,0.9c-0.5,0.4-0.8,0.7-1,0.8c-0.4,0.2-0.7,0.2-0.9,0c-0.2-0.2-0.3-0.4-0.3-0.7c0-0.3,0-0.6,0-0.9
			c0-0.3,0.1-0.5,0.1-0.6c0-0.2,0-0.4,0-0.5c0-0.2,0-0.3,0.1-0.5c0.1-0.4,0.1-0.9,0.2-1.3c0-0.4,0.1-0.8,0.2-1.3
			c0-0.2,0.1-0.4,0.1-0.6c0-0.2,0.1-0.4,0.2-0.6c0.1-0.7,0.2-1.3,0.2-1.8c0-0.5,0.1-1.1,0.2-1.8c0.1-0.6,0.2-1.3,0.4-2
			c0.2-0.7,0.3-1.4,0.3-2c0-0.1,0-0.3,0-0.4c0-0.1,0-0.3,0-0.4c-0.1-0.3-0.1-0.6,0-0.8c0.1-0.2,0.2-0.5,0.1-0.8l-0.2-0.3
			c-0.1-0.4-0.4-0.6-0.8-0.6c-0.2,0-0.4,0.1-0.5,0.1s-0.3,0.1-0.5,0.1c-0.4,0-0.8,0.4-0.9,0.9c-0.1,0.4-0.2,0.7-0.3,1.1
			c-0.1,0.3-0.2,0.7-0.4,1.1c-0.1,0.3-0.2,0.7-0.4,1c-0.1,0.3-0.2,0.7-0.3,1c-0.1,0.2-0.1,0.4-0.2,0.6c0,0.2-0.1,0.5-0.2,0.7
			c-0.1,0.2-0.1,0.4-0.2,0.7c0,0.2-0.1,0.4-0.2,0.6c-0.3,0.6-0.8,1.3-1.3,2.1c-0.5,0.8-1.1,1.4-1.8,1.7c-0.5,0.2-1,0.2-1.6-0.2
			c-0.6-0.3-0.9-0.8-1.1-1.3c-0.2-0.9-0.3-1.8-0.1-2.7c0.2-0.9,0.4-1.7,0.7-2.6c0.1-0.4,0.3-0.7,0.4-1.1s0.2-0.7,0.4-1.1
			c0.3-0.7,0.6-1.5,0.8-2.3c0.3-0.8,0.6-1.6,1-2.3c0.3-0.5,0.7-0.8,1.1-1.1s0.9-0.4,1.5-0.5c0.6-0.1,1.2-0.1,1.9,0.1l0.2,0.2
			c0.3,0.3,0.6,0.7,0.8,1c0.3,0.3,0.4,0.7,0.5,1.1c0.1,0.2,0.2,0.3,0.3,0.3c0.3,0,0.4-0.1,0.6-0.2c0.5-0.4,0.6-1,0.2-1.6
			c-0.1-0.2-0.2-0.4-0.3-0.5c-0.1-0.2-0.2-0.3-0.4-0.5c-0.2-0.2-0.4-0.4-0.6-0.6c-0.2-0.2-0.4-0.3-0.7-0.3c-0.3-0.1-0.7-0.1-1-0.1
			c-0.3,0-0.6,0-1,0.1c-0.1,0-0.3,0.1-0.5,0.1c-0.4,0.1-0.8,0.1-1.2,0.1c-0.4,0-0.8,0.1-1.2,0.2l-1.3,0.5c-0.3,0.1-0.7,0.3-1,0.4
			c-0.3,0.2-0.6,0.4-0.8,0.7c-0.3,0.4-0.6,0.8-0.9,1.1c-0.9,1.1-1.6,2.3-2,3.6c-0.1,0.3-0.2,0.7-0.3,1c-0.1,0.3-0.2,0.7-0.4,1
			l-0.5,1.7c-0.1,0.3-0.1,0.6-0.1,0.8c0,0.3-0.1,0.5-0.1,0.8c-0.3,1.2-0.2,2.5,0.1,3.7c0.1,0.5,0.3,0.9,0.6,1.2
			c0.4,0.6,0.9,1,1.5,1.2c0.6,0.2,1.2,0.3,1.8,0.2c0.3,0,0.7-0.1,1-0.2s0.6-0.2,1-0.2c0.5,0,1-0.2,1.4-0.4c0.4-0.2,0.8-0.5,1.1-0.8
			c0.1-0.1,0.1-0.1,0.2-0.2c0.1-0.1,0.1-0.1,0.2-0.2V126.4z M58.9,98.1c0.1-0.1,0.2-0.1,0.3-0.2c0.2-0.3,0.6-0.4,1.1-0.4
			c0.5,0,1,0,1.5,0c0.5,0,1,0,1.5,0.1c0.4,0.1,0.9,0.2,1.3,0.3s0.9,0.2,1.3,0.4c0.2,0.1,0.3,0.3,0.1,0.6c0,0.1-0.1,0.3-0.1,0.5
			c0,0.2-0.1,0.4-0.2,0.6c-0.1,0.1-0.1,0.2-0.2,0.3c-0.4,0.3-0.8,0.6-1.2,0.9s-0.8,0.5-1.3,0.6c-0.4,0.1-0.9,0.1-1.4,0.1
			c-0.5,0-0.9-0.1-1.4-0.3c-0.2-0.1-0.4-0.2-0.6-0.4c-0.2-0.1-0.4-0.3-0.6-0.4c-0.2-0.2-0.4-0.4-0.7-0.6c-0.2-0.2-0.4-0.4-0.7-0.6
			c-0.2-0.2-0.3-0.3-0.3-0.4c0-0.1,0.2-0.2,0.4-0.4S58.5,98.2,58.9,98.1 M73.1,120.8c-0.3,1-0.8,2.1-1.3,3.5c-0.6,1.4-1.2,2.9-2,4.4
			c-0.8,1.6-1.6,3-2.5,4.4c-0.9,1.3-1.9,2.4-3,3.4c-1.1,1-2.4,1.7-3.9,2.2c-1.2,0.4-2.5,0.5-4,0.4s-2.7-0.5-3.8-1.2
			c-1.2-0.7-2-1.7-2.5-2.9c-0.5-1.2-0.9-2.4-1-3.7c-0.1-0.9,0-1.8,0.2-2.6c0.2-0.9,0.5-1.7,0.8-2.5c0.3-0.7,0.6-1.5,0.8-2.4
			c0.2-0.8,0.6-1.6,1.1-2.3c0.8-1.2,1.9-2.1,3.3-2.8c0.3-0.1,0.6-0.3,0.9-0.4c0.3-0.1,0.6-0.1,0.9,0c0.1,0,0.4,0,0.7,0
			c0.3,0,0.6-0.1,1-0.2c0.3-0.1,0.6-0.3,0.9-0.4c0.3-0.2,0.4-0.3,0.5-0.5c0.1-0.3,0-0.4-0.3-0.6c-0.3-0.1-0.5-0.2-0.7-0.3
			c-0.2-0.1-0.4-0.2-0.6-0.3c-0.2-0.1-0.4-0.3-0.6-0.4c-0.2-0.1-0.4-0.1-0.7-0.1c-0.2,0-0.5,0-0.7,0.1c-0.7,0.1-1.4-0.1-2.1-0.4
			c-0.6-0.4-1.2-0.8-1.7-1.3c-0.6-0.6-1.1-1.4-1.4-2.2c-0.3-0.9-0.5-1.7-0.5-2.6s0.1-1.8,0.4-2.7c0.3-0.9,0.7-1.6,1.3-2.3
			c0.3-0.3,0.5-0.6,0.7-0.9c0.2-0.3,0.4-0.6,0.7-0.9c0.3-0.3,0.6-0.6,0.9-0.8c0.3-0.3,0.7-0.5,1-0.8c0.2-0.1,0.4-0.1,0.6,0.1
			c0.2,0.2,0.5,0.4,0.7,0.7c0.2,0.2,0.5,0.4,0.7,0.6c0.8,0.6,1.6,1.2,2.6,1.6c0.9,0.4,1.9,0.5,3,0.4c0.9-0.1,1.8-0.5,2.7-0.9
			c0.9-0.5,1.7-1,2.4-1.5c0.5-0.4,1-1,1.4-1.7c0.2-0.3,0.3-0.7,0.4-1c0-0.4,0-0.7-0.1-1.1c-0.1-0.3-0.2-0.6-0.3-0.8S69.1,96.3,69,96
			c0-0.1-0.1-0.1-0.2-0.2c-0.1-0.1-0.3-0.1-0.4-0.2c-0.1-0.1-0.3-0.1-0.5-0.2l-4-1.7c-0.7-0.3-1.4-0.5-2.1-0.6
			c-0.7-0.1-1.4-0.1-2.2,0c-0.7,0.1-1.3,0.3-2,0.4c-0.6,0.2-1.3,0.4-1.9,0.7c-0.1,0.1-0.3,0.1-0.4,0.2c-0.1,0.1-0.3,0.1-0.4,0.2
			c-0.2-0.3-0.4-0.5-0.5-0.7c-0.2-0.2-0.3-0.5-0.5-0.7c-0.2-0.3-0.4-0.5-0.6-0.7c-0.2-0.2-0.5-0.3-0.8-0.5c-0.1,0-0.2-0.1-0.2-0.1
			c-0.1,0-0.2,0-0.4-0.1c0.1,0.7,0.3,1.4,0.6,2c0.3,0.6,0.5,1.3,0.6,2c-0.2,0.1-0.4,0.3-0.6,0.4c-0.2,0.1-0.4,0.3-0.6,0.4
			c-0.5,0.3-1,0.7-1.5,1c-0.5,0.3-1,0.7-1.4,1.1c-0.2,0.3-0.4,0.5-0.7,0.8c-0.2,0.2-0.4,0.5-0.6,0.8c-0.7,1-1.3,2-1.8,3.1
			c-0.4,1.1-0.7,2.2-0.7,3.5c0,0.9,0,1.7,0.2,2.5c0.1,0.8,0.4,1.6,0.8,2.3c1.1,1.9,2.6,3.3,4.4,4.2c0.1,0.1,0.2,0.1,0.3,0.2
			s0.3,0.2,0.4,0.3c-0.3,0.1-0.6,0.2-0.9,0.3c-0.3,0.1-0.6,0.2-0.9,0.1c-0.1,0-0.1,0-0.2,0.1c-0.1,0-0.1,0.1-0.2,0.1
			c-0.5,0.3-0.9,0.6-1.4,0.9c-0.4,0.3-0.9,0.7-1.3,1c-0.6,0.5-1.1,1.1-1.5,1.8c-0.4,0.7-0.8,1.3-1.2,2c-0.1,0.3-0.3,0.6-0.5,0.9
			c-0.2,0.3-0.3,0.6-0.4,0.9c-0.2,0.9-0.3,1.7-0.5,2.6c-0.1,0.9-0.2,1.7-0.1,2.6c0.1,1.1,0.3,2.2,0.6,3.2c0.3,1,0.7,2,1.1,3
			c0.5,1.1,1.2,2.1,2,2.8c0.8,0.8,1.8,1.4,2.8,2c1.3,0.7,2.7,1.2,4.1,1.4c1.4,0.2,2.8,0.3,4.2,0.1c1.4-0.2,2.7-0.6,4-1.3
			c1.3-0.7,2.5-1.5,3.5-2.6c1.2-1.2,2.4-2.6,3.4-4c1.2-1.7,2.2-3.5,3.1-5.2c0.9-1.8,1.6-3.4,2.2-4.9s1.2-3.1,1.8-5
			c-0.2-0.1-0.5-0.2-0.8-0.2c-0.3,0-0.5,0-0.8,0.1C73.6,119.3,73.4,119.8,73.1,120.8"/>
		<path class="st1" d="M234.4,191.5c0.5,0.7,0.8,1.5,1,2.2c0,0.1,0.1,0.2,0.1,0.3c0,0.1,0,0.2,0.1,0.3c0.2,0.6,0.4,1.3,0.4,2
			c0.1,0.7,0.1,1.4,0.1,2c0,0.8-0.1,1.7-0.4,2.7c-0.2,0.3-0.3,0.4-0.4,0.6c-0.2,0.2-0.4,0.3-0.6,0.4c-0.2,0.1-0.4,0.2-0.7,0.3
			c-0.3,0.1-0.6,0.2-0.8,0.4c-0.3,0.2-0.7,0.4-1,0.6c-0.3,0.2-0.6,0.4-1,0.6c-0.6,0.4-1.3,0.7-2,0.8c-0.1,0-0.2,0.1-0.3,0.1
			c-0.1,0-0.2,0-0.3,0.1c-0.3,0.1-0.5,0.1-0.7,0.1c-0.3,0.1-0.6,0-0.9-0.2c-0.3-0.2-0.4-0.5-0.4-0.8c0-0.5-0.1-0.9-0.1-1.4
			s0.1-1,0.2-1.4c0.1-0.3,0.1-0.5,0.2-0.7c0-0.2,0.1-0.5,0.2-0.7c0.1-0.2,0.1-0.4,0.2-0.6c0-0.2,0.1-0.4,0.3-0.6v-0.1
			c0.1-0.3,0.2-0.5,0.4-0.7c0.1-0.2,0.3-0.4,0.5-0.6c0.3-0.4,0.7-0.8,1-1.2c0.3-0.4,0.7-0.7,1.2-1.1c0.3-0.2,0.4-0.3,0.4-0.4
			c0.1-0.2,0.3-0.3,0.4-0.4c0.1-0.1,0.3-0.3,0.4-0.4c0.2-0.2,0.4-0.3,0.5-0.5c0.1-0.1,0.3-0.3,0.4-0.5c0.2-0.2,0.4-0.4,0.6-0.7
			c0.2-0.2,0.5-0.4,0.8-0.5L234.4,191.5z M232.7,189.8c-0.1,0.1-0.2,0.2-0.3,0.3c-0.4,0.5-0.9,1-1.3,1.5c-0.4,0.5-0.9,0.9-1.4,1.4
			c-0.2,0.2-0.4,0.4-0.5,0.6c-0.1,0.2-0.3,0.4-0.5,0.6c-0.1,0.2-0.3,0.4-0.4,0.6c-0.1,0.2-0.3,0.4-0.4,0.5c-1.1,1.4-1.9,2.9-2.5,4.6
			c-0.6,1.7-0.7,3.4-0.4,5c0.1,0.3,0.2,0.6,0.4,0.7c0.2,0.1,0.4,0.3,0.5,0.5c0.1,0.2,0.2,0.3,0.3,0.4c0.1,0.1,0.3,0.2,0.4,0.3
			c0.2,0,0.3,0.1,0.4,0.3c0.6,0.6,1.3,1.2,2,1.6c0.7,0.4,1.5,0.7,2.5,0.8c0.8,0,1.7,0,2.7-0.2c1-0.2,1.8-0.6,2.4-1.1
			c1-0.9,1.9-1.7,2.7-2.5c0.8-0.8,1.5-1.9,1.9-3.2c0.2-0.6,0.3-1.3,0.5-2c0.1-0.7,0.3-1.4,0.4-2.2c0.1-0.7,0.1-1.4,0-2.2
			c-0.1-0.7-0.2-1.4-0.5-2c-0.2-0.4-0.2-0.8-0.2-1.3c0-0.4,0-0.8-0.1-1.3c-0.2-0.5-0.4-0.9-0.5-1.4s-0.4-0.9-0.7-1.2
			c-0.1-0.1-0.1-0.2-0.2-0.3c0-0.1-0.1-0.2-0.2-0.3c-0.1-0.1-0.2-0.3-0.3-0.4c-0.1-0.1-0.2-0.3-0.3-0.4c-0.3-0.3-0.3-0.5,0-0.7
			c0.2-0.2,0.4-0.4,0.6-0.6c0.2-0.2,0.4-0.4,0.6-0.6c0,0,0.2-0.1,0.4-0.3c0,0,0.1-0.1,0.2-0.1s0.1-0.1,0.1-0.1
			c0-0.2,0.1-0.4,0.2-0.5c0.1-0.1,0.2-0.2,0.4-0.3c0.3-0.3,0.6-0.6,0.8-0.9c0.3-0.3,0.4-0.5,0.6-0.6c0.1-0.1,0.2-0.2,0.3-0.3
			c0.1-0.1,0.2-0.2,0.3-0.3c0.2-0.2,0.3-0.4,0.4-0.6c0.1-0.2,0.3-0.4,0.5-0.5c0.2-0.1,0.3-0.3,0.4-0.4c0.1-0.1,0.3-0.2,0.4-0.3
			c0.2-0.1,0.3-0.2,0.4-0.4c0-0.2,0.1-0.4,0.2-0.5l0.2-0.2c0.2-0.3,0.1-0.5-0.2-0.6c-0.2,0-0.4-0.1-0.6-0.1c-0.2,0-0.3-0.1-0.5-0.2
			c-0.3-0.1-0.6-0.1-0.8,0.1c-0.1,0.1-0.2,0.2-0.2,0.2c-0.1,0.1-0.1,0.1-0.2,0.2c-0.3,0.4-0.6,0.8-0.9,1.1c-0.4,0.3-0.7,0.6-1.1,1
			c-0.2,0.2-0.4,0.4-0.6,0.6c-0.2,0.2-0.4,0.4-0.6,0.6c-0.3,0.3-0.5,0.6-0.7,0.9c-0.2,0.3-0.5,0.5-0.9,0.7c-0.2,0.2-0.3,0.3-0.4,0.4
			c-0.3,0.3-0.6,0.5-1,0.7c-0.1-0.1-0.3-0.2-0.4-0.4c-0.1-0.1-0.3-0.2-0.4-0.4c-0.2-0.2-0.4-0.4-0.6-0.7c-0.2-0.3-0.4-0.5-0.6-0.7
			c-0.3-0.3-0.7-0.7-1-1c-0.3-0.3-0.6-0.7-1-1c-0.6-0.6-1.2-1.1-1.8-1.6c-0.6-0.5-1.2-1-1.8-1.6c-0.1-0.1-0.2-0.2-0.3-0.3
			c-0.1-0.1-0.2-0.2-0.3-0.3c-0.3-0.3-0.5-0.7-0.8-1c-0.3-0.3-0.5-0.6-0.7-1c0,0,0-0.1-0.1-0.1c-0.2-0.2-0.3-0.3-0.4-0.5
			c-0.1-0.2-0.1-0.4-0.2-0.6c-0.1-0.6-0.1-1.2,0.1-1.7c0.1-0.1,0.1-0.2,0.2-0.4c0-0.1,0.1-0.2,0.1-0.4c0.1-0.3,0.2-0.6,0.4-0.9
			c0.2-0.2,0.4-0.5,0.6-0.7c0.2-0.1,0.4-0.2,0.6-0.3c0.3,0,0.7-0.1,1-0.3c0.3-0.1,0.6-0.2,0.9-0.3c0.6-0.3,0.7-0.6,0.1-1
			c-0.3-0.2-0.7-0.4-1-0.6c-0.3-0.2-0.7-0.3-1.1-0.4c-0.1,0-0.4-0.1-0.7-0.2c-0.4-0.2-0.9-0.2-1.3-0.2c-0.4,0-0.9,0.1-1.3,0.2
			c-0.8,0.3-1.4,0.7-1.9,1.3c-1.1,1.2-1.7,2.5-2,4c-0.1,0.5-0.2,0.9-0.2,1.4c0.1,1.5,0.5,2.8,1.1,4c0.5,0.8,1,1.6,1.5,2.3
			c0.5,0.7,1.1,1.4,1.7,2.1c0.7,0.9,1.6,1.8,2.6,2.7c0.6,0.5,1.1,1,1.6,1.6c0.5,0.5,1.1,1.1,1.6,1.6c0.4,0.5,0.9,1,1.3,1.5
			C232.9,189.6,232.8,189.7,232.7,189.8 M216.5,176.9c0-0.3,0.1-0.6,0.1-0.9c0.1-0.7,0.1-1.6,0.1-2.5c0-0.9-0.1-1.7-0.4-2.4
			c-0.1-0.2-0.2-0.4-0.2-0.5c0-0.1,0-0.3,0-0.5c0-0.2-0.1-0.4-0.3-0.8c-0.2-0.2-0.4-0.4-0.6-0.6s-0.4-0.4-0.6-0.6
			c-0.4-0.3-0.9-0.5-1.3-0.4h-1.5c-1.3-0.1-2.4,0.3-3.3,1.1c-0.4,0.4-0.9,0.9-1.4,1.5c-0.2,0.3-0.4,0.7-0.7,1
			c-0.2,0.3-0.5,0.6-0.7,1c-0.2,0.3-0.4,0.7-0.6,1c-0.2,0.3-0.4,0.6-0.6,1l-2.1,3.8c-0.2,0.3-0.3,0.6-0.4,0.8
			c-0.1,0.2-0.2,0.4-0.4,0.7c-0.1,0.3-0.2,0.5-0.3,0.7c-0.2,0.4-0.3,0.7-0.4,0.9c-0.1,0.2-0.2,0.3-0.2,0.4c-0.1,0.1-0.1,0.3-0.2,0.4
			c-0.3,0.5-0.5,0.9-0.7,1.4c-0.2,0.5-0.5,1-0.7,1.4c0,0.1-0.1,0.2-0.1,0.2c0,0.1-0.1,0.1-0.2,0.1c0-0.3-0.1-0.5-0.1-0.7v-0.7
			c0-0.6,0-1.1,0-1.7c0-0.2,0-0.4,0-0.7s0.1-0.5,0.1-0.7c0-0.2,0-0.4-0.1-0.6s-0.1-0.4-0.1-0.6c0-0.5,0-1,0-1.5
			c0.1-0.5,0.1-1,0.2-1.5c0.1-0.4,0.1-0.8,0.2-1.2c0-0.4,0.1-0.8,0.1-1.3c0.1-0.3,0.1-0.7-0.1-1c-0.1-0.3-0.2-0.6-0.3-1
			c-0.1-0.4-0.2-0.8-0.2-1.2s0-0.8,0-1.2c-0.1-0.6-0.4-1.1-0.9-1.3l-0.1-0.1c0-0.1-0.1-0.3-0.1-0.4c0-0.1-0.1-0.3-0.1-0.4
			c-0.1-0.1-0.3-0.2-0.4-0.3c-0.2-0.1-0.3-0.2-0.4-0.4c0-0.1,0-0.1-0.1-0.1c-0.7-0.3-1.4-0.4-2.3-0.3c-0.4,0.1-0.6,0.3-0.6,0.6
			c-0.1,0.2-0.1,0.4-0.2,0.7c0,0.2-0.1,0.5-0.1,0.7c-0.1,0.5-0.1,1-0.2,1.6s-0.1,1.1-0.1,1.6c-0.1,0.9-0.1,1.8-0.2,2.7
			c0,0.9-0.1,1.8-0.2,2.6v0.4c0,0.2,0.1,0.4,0.1,0.5v0.5v1.6c0,0.5,0,1,0.1,1.6v1.5v1.1c0,0.4,0,0.7,0.1,1.1c0,0.1,0.1,0.3,0.1,0.6
			v1.6c0,0.5,0,1.1,0.1,1.6c0,0.1,0.1,0.2,0,0.3c0,0.1,0,0.2,0,0.3c0,0.1,0.1,0.3,0.1,0.6c0,0.3,0,0.6,0,0.9c0,0.3,0.1,0.6,0.1,0.9
			c0,0.1,0.1,0.3,0.1,0.4c0,0.1,0,0.3,0.1,0.4c0.2,0.4,0.4,0.6,0.6,0.6c0.3,0.1,0.7,0.2,1,0.2c0.3,0,0.6,0,1-0.2
			c0.2-0.1,0.4-0.2,0.6-0.3c0.2-0.1,0.4-0.1,0.7-0.1c0,0,0.1-0.1,0.3-0.2c0.3-0.2,0.5-0.2,0.8-0.1c0.3,0,0.4,0,0.6-0.3
			c0.1-0.3,0.3-0.5,0.4-0.7c0.1-0.2,0.2-0.5,0.3-0.7c0.1-0.2,0.1-0.3,0.1-0.4c-0.1-0.2-0.1-0.4,0-0.6c0.1-0.2,0.2-0.4,0.3-0.6
			c0.1-0.2,0.2-0.3,0.3-0.5c0.1-0.2,0.1-0.4,0.2-0.6c0.1-0.3,0.2-0.6,0.2-0.9c0.1-0.3,0.2-0.5,0.4-0.7c0,0,0.1,0,0.1-0.1
			c0.2-0.6,0.5-1.1,0.8-1.6c0.3-0.5,0.6-1.1,0.8-1.6c0.3-0.6,0.6-1.2,0.9-1.8c0.3-0.6,0.6-1.1,1-1.7c0.4-0.6,0.8-1.2,1.3-1.7
			c0.4-0.6,0.8-1.1,1.2-1.7c0.3-0.5,0.6-1,0.9-1.6c0.3-0.6,0.7-1,1.1-1.3c0.1-0.1,0.1-0.2,0.2-0.2c0-0.1,0.1-0.1,0.2-0.2
			c0.1-0.1,0.1-0.2,0.2-0.3c0-0.1,0.1-0.2,0.2-0.3c0.1-0.2,0.2-0.3,0.3-0.3c0.2-0.2,0.5-0.3,0.8-0.4v0.3c0,0.6,0,1.2-0.1,1.7
			c-0.1,0.5-0.2,1.1-0.3,1.7c-0.1,0.5-0.2,0.9-0.3,1.4c-0.1,0.5-0.2,1-0.3,1.4c-0.1,0.6-0.2,1.2-0.3,1.8c-0.1,0.6-0.2,1.3-0.3,1.8
			c-0.1,0.5-0.2,0.9-0.3,1.4c-0.1,0.5-0.2,1-0.3,1.4c-0.5,2.4-0.8,4.7-1,7.1v1.7c0,1.4,0.1,2.9,0.4,4.3c0,0.3,0.1,0.6,0.2,0.8
			c0.1,0.3,0.2,0.5,0.3,0.8c0.3,0.8,0.9,1.2,1.6,1.4c1.1,0.2,2.3,0,3.4-0.6c1.1-0.6,2-1.4,2.7-2.2c0.7-0.9,1.3-1.8,1.8-2.8
			s1-2,1.5-3c0.5-0.8,0.9-1.7,1.3-2.6c0.4-0.9,0.9-1.8,1.4-2.6c0.2-0.3,0.4-0.6,0.5-0.9s0.3-0.6,0.5-1c0.2-0.3,0.4-0.7,0.5-1.1
			s0.2-0.8,0.4-1.1c0.2-0.5,0.4-1,0.4-1.5v-0.3c0-0.2,0.1-0.4,0.1-0.6c0-0.2,0.1-0.4,0.2-0.6c0.1-0.1,0.1-0.3,0.2-0.4
			c0-0.1,0.1-0.3,0.2-0.4c-0.3-0.2-0.6-0.1-0.8,0.1c-0.1,0.2-0.2,0.3-0.3,0.5c-0.1,0.2-0.2,0.4-0.3,0.6c-0.1,0.2-0.2,0.4-0.3,0.6
			c-0.1,0.2-0.2,0.4-0.3,0.6c-0.1,0.2-0.3,0.4-0.4,0.6c-0.1,0.2-0.3,0.4-0.4,0.6c-0.2,0.3-0.4,0.7-0.5,1c-0.2,0.3-0.3,0.6-0.5,1
			c-0.2,0.4-0.4,0.8-0.6,1.2c-0.2,0.4-0.4,0.8-0.7,1.1c-0.5,0.7-0.9,1.4-1.3,2c-0.4,0.8-0.8,1.7-1.3,2.5c-0.4,0.8-0.9,1.6-1.3,2.5
			c-0.3,0.6-0.7,1.2-1.1,1.8c-0.4,0.6-0.8,1.2-1.1,1.8c-0.1,0.1-0.1,0.2-0.2,0.2c0,0-0.1,0.1-0.2,0.2l-0.2,0.2
			c-0.1-0.2-0.2-0.3-0.2-0.4c0-0.1,0-0.2,0-0.3c0.1-0.2,0.1-0.3,0.1-0.4c0-0.3-0.1-0.6,0-0.8c0-0.3,0.1-0.5,0.1-0.8
			c0.1-1.5,0.2-3,0.3-4.5c0.1-1.5,0.3-3,0.6-4.5c0.3-1.5,0.6-2.9,1-4.4c0.4-1.4,0.7-2.9,1.1-4.3
			C216.4,177.5,216.5,177.2,216.5,176.9 M182.7,183.1c-0.1-0.1-0.3-0.3-0.5-0.5c-0.5-0.6-0.9-1.4-1.1-2.2c-0.3-0.8-0.2-1.6,0.2-2.4
			c0.1-0.2,0.1-0.3,0.1-0.4c0.1-0.8,0.3-1.5,0.6-2.1c0.1-0.1,0.1-0.2,0.2-0.3c0-0.1,0.1-0.2,0.1-0.3c0-0.2,0.1-0.3,0.3-0.3
			c0.1,0,0.1,0,0.2,0.1c0,0,0.1,0.1,0.2,0.1v0.1c0.1,0.3,0.2,0.6,0.4,0.9s0.3,0.5,0.5,0.8c0.3,0.5,0.4,1,0.4,1.6
			c0,0.6,0.1,1.1,0.1,1.6c0,0.3,0,0.7,0,1.2c-0.1,0.5-0.2,0.8-0.5,1.1c0,0.1-0.1,0.2-0.1,0.4c0,0.2,0,0.4-0.1,0.5
			c-0.1,0.2-0.2,0.3-0.4,0.5C183.1,183.3,182.9,183.2,182.7,183.1 M177.1,169.6c-0.4,0-0.7,0-1,0.2c-0.4,0.3-0.8,0.5-1.1,0.7
			c-0.4,0.2-0.7,0.4-1.1,0.7c-0.2,0.2-0.4,0.3-0.7,0.5c-0.2,0.2-0.5,0.3-0.7,0.5c-0.2,0.3-0.4,0.5-0.6,0.8c-0.2,0.3-0.4,0.5-0.6,0.7
			c-0.4,0.4-0.7,0.8-0.8,1.2c-0.3,0.7-0.7,1.4-1,2.2c-0.3,0.7-0.6,1.5-0.9,2.2c-0.3,1.1-0.6,2.2-0.7,3.2c0,0.6-0.1,1.2,0,1.7
			c0,0.6,0.1,1.1,0.2,1.7c0,0.5,0.1,1,0.2,1.5c0.1,0.5,0.3,1,0.5,1.5c0.5,0.8,1.1,1.6,1.9,2.4s1.6,1.3,2.5,1.8
			c0.4,0.2,0.9,0.4,1.3,0.7c0.5,0.2,0.9,0.4,1.4,0.4c0.5,0,0.9-0.1,1.3-0.3c0.4-0.2,0.8-0.5,1.1-0.7c0.3-0.2,0.6-0.4,0.8-0.6
			c0.2-0.2,0.5-0.4,0.8-0.6c0.3-0.2,0.5-0.4,0.7-0.7c0.2-0.3,0.4-0.5,0.6-0.8c0.3-0.4,0.6-0.7,1-1c0.4-0.3,0.7-0.7,0.9-1.1
			c0.1-0.3,0.3-0.7,0.4-1c0.1-0.3,0.3-0.6,0.4-0.9c0.2-0.4,0.4-0.7,0.6-0.7c0.2,0,0.4-0.1,0.7-0.2c0.2-0.1,0.5-0.1,0.7,0
			c0.6,0.1,1.1,0.1,1.5,0c0.5-0.1,1-0.3,1.5-0.5c0.6-0.2,1.1-0.5,1.7-0.8c0.5-0.3,1.1-0.6,1.7-0.8c0.2-0.1,0.5-0.3,1-0.6
			c0.4-0.3,0.8-0.6,1.2-1s0.8-0.8,1.1-1.2c0.3-0.4,0.6-0.7,0.6-1c-0.1-0.2-0.4-0.4-0.8-0.5c-0.1-0.1-0.4-0.1-0.7,0
			c-0.1,0-0.1,0.1-0.2,0.2c0,0.1-0.1,0.1-0.2,0.2c-0.1,0.2-0.2,0.3-0.3,0.4c-0.9,0.9-2,1.7-3.2,2.4c-1.2,0.7-2.4,1.1-3.7,1.3
			c-0.2,0-0.4,0.1-0.6,0.1s-0.4,0-0.6,0c-0.1,0-0.2,0-0.2-0.1c-0.1,0-0.1-0.1-0.2-0.1c0.1-0.3,0.1-0.5,0.1-0.7c0-0.2,0-0.4,0.1-0.6
			c0-0.3,0.1-0.6,0.3-0.8c0.1-0.3,0.2-0.6,0.3-0.9c0-0.4,0.1-0.8,0-1.2c0-0.4-0.1-0.9-0.2-1.2c0-0.2-0.1-0.3-0.1-0.5
			c0-0.1-0.1-0.3-0.1-0.5c0-0.5-0.1-0.9-0.2-1.3c-0.1-0.4-0.3-0.8-0.5-1.2c-0.3-0.5-0.6-0.9-1.1-1.2c-0.5-0.3-1-0.5-1.4-0.8
			c-0.4-0.2-0.7-0.4-1.1-0.6c-0.3-0.2-0.7-0.2-1.2-0.1c-0.3,0.1-0.6,0.1-0.8,0.1c-0.3,0-0.5,0.2-0.7,0.4c-0.2,0.2-0.4,0.4-0.6,0.4
			l-0.1,0.1c-0.2,0.5-0.4,0.9-0.6,1.4c-0.2,0.4-0.4,0.9-0.4,1.4c-0.2,0.8-0.3,1.7-0.2,2.5c0.1,0.8,0.3,1.6,0.7,2.4
			c0.1,0.2,0.3,0.4,0.4,0.7c0.1,0.2,0.3,0.5,0.5,0.7c0.7,0.9,1.7,1.8,2.8,2.6c0.2,0.1,0.4,0.3,0.6,0.4c0.2,0.1,0.4,0.2,0.6,0.3
			c0,0.1-0.1,0.2-0.1,0.2s0,0.1-0.1,0.2c-0.3,0.3-0.4,0.7-0.6,1.1c0,0,0,0.1-0.1,0.1c-0.3,0.6-0.8,1.1-1.3,1.7
			c-0.1,0.1-0.2,0.3-0.4,0.4c-0.1,0.1-0.2,0.2-0.4,0.3c-0.2,0.2-0.5,0.4-0.7,0.5c-0.3,0.1-0.5,0.3-0.7,0.5c-0.5,0.4-1,0.7-1.5,0.8
			s-1,0.4-1.6,0.6c-0.3,0.1-0.7,0.1-1-0.2c-0.1-0.1-0.3-0.3-0.4-0.4c-0.1-0.1-0.3-0.3-0.4-0.4c-0.3-0.2-0.4-0.5-0.4-0.8
			c-0.1-0.5-0.1-0.9-0.2-1.3c0-0.4-0.1-0.9-0.1-1.3c0-0.4,0-0.8,0-1.2s0.2-0.8,0.5-1.1c0.1-0.2,0.1-0.3,0.1-0.3
			c0.1-0.5,0.2-0.9,0.4-1.3s0.4-0.8,0.5-1.3c0.1-0.5,0.2-0.9,0.4-1.4c0.1-0.4,0.2-0.9,0.4-1.4c0.2-0.7,0.4-1.4,0.6-2
			c0.2-0.7,0.3-1.4,0.5-2c0.1-0.3,0.2-0.6,0.3-0.9c0.1-0.3,0.2-0.5,0.4-0.8c0.1-0.2,0.2-0.3,0.3-0.5s0.2-0.3,0.3-0.5
			c0.3-0.1,0.4-0.4,0.6-0.8c0-0.1,0.1-0.2,0.3-0.4c0.4-0.4,0.6-0.8,0.5-1.2C178.3,169.9,177.7,169.7,177.1,169.6 M157.7,164
			c0,0.2,0,0.3,0,0.5c0,0.5,0.1,0.9,0.4,1.3c0.1,0.2,0.3,0.5,0.6,0.8c0.2,0.2,0.4,0.3,0.7,0.3h0.7c0,0,0.1-0.1,0.1-0.1
			c0.1-0.2,0.3-0.4,0.6-0.6c0.1-0.4,0.2-0.8,0.3-1.1c0.1-0.4,0.1-0.8,0.2-1.1c-0.4-0.6-1-0.8-1.7-0.7c-0.2,0-0.3,0-0.5,0
			c-0.2,0-0.3,0-0.4,0c0-0.1-0.1-0.1-0.3,0c-0.2,0-0.3,0-0.4,0.1c-0.1,0-0.2,0.1-0.4,0.1C157.6,163.6,157.6,163.8,157.7,164
			 M170.9,179.8c-0.1,0.2-0.2,0.4-0.3,0.5c-0.1,0.1-0.1,0.2-0.2,0.4c-0.2,0.5-0.4,1-0.5,1.4c-0.2,0.4-0.4,0.8-0.6,1.3
			c-0.2,0.4-0.3,0.7-0.5,1s-0.3,0.6-0.5,0.9c-0.1,0.3-0.3,0.6-0.4,0.9c-0.2,0.3-0.3,0.6-0.4,0.9c-0.4,0.7-0.8,1.3-1.3,1.9
			c-0.5,0.6-1,1.2-1.5,1.8c-0.1,0.2-0.2,0.3-0.3,0.4s-0.3,0.3-0.4,0.4c-0.2,0.2-0.4,0.3-0.6,0.5c-0.2,0.2-0.4,0.3-0.7,0.4
			c-0.1,0-0.3,0.1-0.6,0.1c-0.2,0-0.3,0-0.3-0.1c-0.3-0.4-0.4-0.9-0.4-1.4c0-0.6,0-1.2-0.1-1.8c0-0.2-0.1-0.4,0-0.6
			c0-0.2,0.1-0.4,0.1-0.6v-0.5c0-0.2,0-0.4-0.1-0.6c0,0,0-0.1,0-0.2c0-0.1,0-0.1,0-0.2c0-0.3,0.1-0.7,0.2-1c0.1-0.3,0.1-0.7,0-1.1
			l0.1-0.1v-0.8c0-0.5,0.1-0.9,0.1-1.2c0-0.4,0-0.7,0.1-1.1c0.1-0.3,0.1-0.6,0.1-0.9c0-0.3,0-0.6-0.1-0.9c0-0.1,0-0.3,0-0.4
			c0-0.1,0-0.3,0-0.4c0.1-0.4,0.1-0.9,0.1-1.3c0-0.6,0-1.1,0.1-1.6c0-0.5,0-1.1-0.1-1.7c-0.1-0.3-0.1-0.6-0.1-0.9
			c0-0.3,0-0.6-0.1-0.9c0-0.1,0-0.2-0.1-0.3c0-0.1-0.1-0.2-0.1-0.3c-0.1-0.2-0.2-0.4-0.3-0.5c-0.1-0.1-0.2-0.3-0.3-0.5
			c-0.1-0.2-0.3-0.4-0.6-0.5c-0.2-0.1-0.4-0.2-0.7-0.2s-0.5,0-0.7-0.1c-0.3,0-0.4,0.1-0.4,0.3c-0.1,0.4-0.3,0.8-0.4,1.2
			c-0.1,0.4-0.3,0.7-0.4,1.1c-0.1,0.5-0.2,0.9-0.2,1.3c-0.1,0.4-0.1,0.8-0.2,1.3c-0.1,0.5-0.1,0.9-0.2,1.3c0,0.4-0.1,0.9-0.2,1.3
			c-0.2,1.8-0.2,3.6-0.2,5.3c0,0.6,0,1.1,0,1.6c0,0.5,0,1.1,0,1.6c0,0.5,0,0.9,0,1.4c0,0.5,0,0.9,0.1,1.4c0.1,0.5,0.2,0.9,0.2,1.4
			c0.1,0.4,0.2,0.9,0.4,1.4c0.2,0.4,0.5,0.8,0.8,1.1c0.3,0.3,0.7,0.6,1.1,0.8c0.3,0.1,0.6,0.2,0.9,0.3c0.3,0.1,0.6,0.2,1,0.3
			c0.2,0.1,0.6,0.1,1,0.1c0.2-0.1,0.5-0.1,0.7-0.2c0.3,0,0.6-0.1,0.9-0.2c0.1-0.1,0.2-0.1,0.3-0.1c0.3-0.1,0.5-0.2,0.8-0.4
			c0.3-0.1,0.5-0.3,0.7-0.5c0.4-0.3,0.8-0.6,1.2-0.9c0.4-0.3,0.7-0.6,0.9-1c0.2-0.3,0.4-0.5,0.5-0.7c0.1-0.2,0.3-0.5,0.4-0.7
			l0.1-0.1c0.1-0.5,0.3-1,0.5-1.5c0.2-0.5,0.4-0.9,0.6-1.4c0-0.1,0.1-0.2,0.2-0.3c0.1-0.1,0.1-0.2,0.2-0.3c0-0.2,0.1-0.4,0.2-0.5
			s0.2-0.3,0.3-0.5c0.1-0.1,0.1-0.2,0.2-0.4c0-0.1,0.1-0.2,0.2-0.3c0.1-0.2,0.2-0.4,0.2-0.6c0.1-0.2,0.2-0.3,0.4-0.4
			c0.1-0.2,0.2-0.4,0.3-0.6c0.2-0.3,0.3-0.7,0.4-1s0.2-0.6,0.4-1c0-0.1,0.1-0.3,0.1-0.4c0-0.1,0.1-0.3,0.2-0.5
			c0-0.3-0.1-0.5-0.4-0.8C171.7,179.1,171.2,179.4,170.9,179.8 M139,166.5c0,0.1,0,0.3-0.1,0.4c0,0.3-0.1,0.7-0.1,1.1
			c0,0.4-0.1,0.7-0.2,1.1c-0.2,0.7-0.3,1.5-0.4,2.2c-0.1,0.8-0.2,1.5-0.3,2.2c0,0.5-0.1,0.9-0.1,1.4s-0.1,0.9-0.1,1.3
			c-0.1,0.6-0.2,1.3-0.3,1.9c-0.1,0.7-0.1,1.3-0.2,2c0,0.3,0,0.6-0.1,0.8l-0.2,3.4c0,0.3,0,0.5,0,0.8s0,0.5,0,0.8v0.5
			c0,0.1,0,0.3-0.1,0.5c0,0.3,0,0.7,0,1c0,0.3,0,0.7,0,1v1.8v1c0,0.3,0,0.6,0,0.9c0,0.3,0.1,0.6,0.1,0.9c0,0.2,0.1,0.4,0.1,0.6
			c0,0.2,0.1,0.4,0.1,0.6c0,0.2,0.1,0.4,0.1,0.6c0,0.5,0.1,0.9,0.2,1.4c0.1,0.4,0.2,0.9,0.4,1.4c0.5,1.5,1.5,2.4,2.9,2.6
			c0.5,0.1,0.9,0.2,1.3,0.2c0.4,0,0.8,0,1.3,0c0.3,0,0.5-0.1,0.8-0.3c0,0,0.1,0,0.1-0.1c0,0,0.1-0.1,0.2-0.1
			c0.4-0.1,0.8-0.4,1.1-0.9c0.5-0.5,1-0.9,1.5-1.3c0.5-0.4,1-0.9,1.4-1.5c0.4-0.6,0.7-1.2,1-1.8s0.6-1.2,1-1.8
			c0.6-1.3,1.3-2.6,2-3.7c0.8-1.2,1.6-2.4,2.4-3.5c0.5-0.7,0.9-1.5,1.3-2.2c0.4-0.8,0.8-1.5,1.2-2.2c0.1-0.2,0.2-0.4,0.3-0.5
			s0.2-0.3,0.3-0.5c0.1-0.2,0.2-0.4,0.3-0.6c0,0,0-0.1,0.1-0.1c0,0,0.1-0.1,0.1-0.2l0.1-0.1c0.3-0.5,0.1-0.8-0.4-1
			c-0.3-0.1-0.5,0-0.6,0.1c-0.1,0.2-0.2,0.3-0.3,0.5c-0.1,0.2-0.2,0.3-0.3,0.5c-0.2,0.6-0.5,1.1-0.8,1.4c-0.1,0.2-0.3,0.4-0.4,0.6
			c-0.1,0.2-0.3,0.4-0.4,0.6c0,0-0.1,0.1-0.1,0.1c0,0,0,0.1-0.1,0.2c-0.3,0.5-0.7,1-1.1,1.5c-0.4,0.5-0.7,1-1.1,1.6
			c-0.2,0.3-0.4,0.5-0.6,0.8c-0.2,0.3-0.3,0.5-0.5,0.8c-0.2,0.3-0.4,0.7-0.7,1c-0.2,0.3-0.5,0.7-0.7,1c-0.2,0.3-0.4,0.7-0.6,1
			c-0.2,0.3-0.4,0.6-0.6,1c-0.1,0-0.2,0.2-0.3,0.4c-0.6,0.9-1.2,1.8-1.8,2.7c-0.6,0.9-1.3,1.8-1.9,2.8c-0.2,0.3-0.4,0.5-0.6,0.8
			c-0.2,0.3-0.4,0.5-0.6,0.8c-0.2,0.2-0.3,0.3-0.4,0.4c-0.1,0.1-0.2,0.2-0.4,0.3c-0.2,0.1-0.4,0.2-0.6,0.1c-0.3-0.1-0.4-0.2-0.6-0.5
			c-0.1-0.2-0.2-0.5-0.1-0.7c0-0.2,0-0.3,0-0.5c0-0.1,0-0.3,0-0.4v-0.3c0-0.1,0-0.3,0-0.4c0-0.1,0-0.3,0-0.4v-0.6
			c0-1.9,0.1-3.8,0.2-5.7s0.2-3.8,0.3-5.7c0.1-1.9,0.1-3.8,0.2-5.7c0-1.9,0-3.8-0.2-5.6c-0.1-0.3-0.1-0.6,0.1-0.9v-0.3v-0.8
			c0-0.5,0.1-0.9,0-1.4s0-0.9,0-1.3c0-0.2,0-0.4,0-0.7c0-0.3,0-0.5,0-0.7h0.5h0.4c0.2,0,0.4,0.1,0.6,0.1h0.6c0.2,0,0.4,0.1,0.7,0
			c0.2,0,0.5-0.1,0.7-0.2l0.1-0.1c0.3,0,0.4-0.1,0.6-0.2c0.1-0.1,0.2-0.1,0.4-0.2c0.1,0,0.2-0.1,0.3-0.1c0.2,0.1,0.4,0.2,0.4,0.2
			c0.1,0,0.1-0.1,0.2-0.3c0,0,0.1,0,0.1-0.1c0.1-0.2,0.3-0.3,0.5-0.3c0.1,0,0.2,0,0.2-0.1s0.1-0.1,0.2-0.1c0.1-0.1,0.2-0.1,0.3-0.2
			c0.1,0,0.2-0.1,0.3-0.1s0.1-0.1,0.2-0.1s0.1,0,0.2-0.1c0.2-0.1,0.3-0.2,0.5-0.3s0.3-0.1,0.5-0.2h0.2c0.2-0.1,0.4-0.2,0.7-0.4
			s0.5-0.2,0.7-0.3c0.2-0.1,0.3-0.1,0.3-0.2c0.2-0.1,0.3-0.3,0.5-0.4c0.2-0.1,0.3-0.3,0.5-0.5c-0.1-0.2-0.1-0.3,0-0.4
			c0.1-0.1,0.1-0.3,0.1-0.5c-0.4-0.3-0.8-0.3-1.1-0.1c-0.1,0.1-0.3,0.1-0.4,0.2c-0.2,0-0.3,0.1-0.4,0.2c-0.6,0.2-1.2,0.4-1.8,0.7
			c-0.6,0.2-1.2,0.5-1.8,0.7c-0.8,0.3-1.7,0.4-2.7,0.3c-0.1,0-0.3,0-0.4-0.1c-0.3-0.1-0.7-0.2-1.1-0.4s-0.8-0.2-1.1-0.4
			c-0.4-0.2-0.6-0.5-0.6-0.9c0-0.1,0.1-0.2,0-0.3c0-0.1,0-0.2,0-0.3v-0.3c-0.1-0.3-0.1-0.6-0.2-0.9s-0.1-0.6-0.1-0.9v-0.4
			c0-0.1,0-0.3,0.1-0.4c0.2-0.3,0.1-0.7-0.1-1.1c0-0.1-0.1-0.2-0.1-0.3c0-0.1-0.1-0.2-0.2-0.4c-0.2-0.3-0.6-0.4-1.1-0.4l-0.1,0.1
			c-0.3,0.6-0.5,1.2-0.5,1.8c-0.1,0.5-0.2,1-0.3,1.5c-0.1,0.5-0.2,1-0.3,1.5c0,0.1,0,0.2,0,0.3c0,0.1-0.1,0.2-0.2,0.3
			c-0.2,0-0.4,0-0.7-0.1c-0.7,0-1.4,0-2.1,0c-0.4,0.1-0.9,0.1-1.3-0.1c-0.1,0-0.3-0.1-0.4-0.1c-0.1,0-0.3,0-0.5-0.1
			c-0.3,0-0.6-0.1-0.9-0.1c-0.3,0-0.6,0-0.9,0c-0.4,0-0.8-0.1-1.2-0.1c-0.4,0-0.8,0-1.2,0c-0.4,0-0.8,0.1-1.1,0.1
			c-0.4,0-0.7,0.2-1.1,0.4c-0.2,0.1-0.4,0.2-0.6,0.3c-0.2,0.1-0.4,0.2-0.6,0.3c0,0,0,0.1-0.1,0.2c-0.2,0.1-0.1,0.2,0.1,0.3
			c0.1,0,0.3,0,0.4,0c0.1,0,0.3,0,0.4,0c0.2,0,0.4,0,0.5,0c0.2,0,0.4,0,0.6,0c0.3-0.1,0.6-0.1,0.9-0.1c0.3,0,0.6,0.1,0.9,0.2
			c0.2,0.1,0.4,0.2,0.5,0.2c0.2,0.1,0.4,0.1,0.5,0.2c0.8,0,1.7,0.2,2.6,0.6c0.2,0.1,0.4,0.2,0.6,0.3c0.2,0.1,0.4,0.1,0.7,0.2
			c0.3,0,0.5,0.1,0.7,0.2c0.3,0.1,0.6,0.2,0.9,0.3c0.3,0.1,0.6,0.2,1,0.3c0.1,0.1,0.3,0.2,0.4,0.2c0.1,0.1,0.3,0.1,0.4,0.2
			C139,166.2,139,166.3,139,166.5 M123.8,186.7c-0.1,0.6-0.1,1.2-0.2,1.8s-0.1,1.2-0.1,1.8c0,0.8,0,1.5,0.1,2.3
			c0.1,0.7,0.3,1.5,0.8,2.1c0.1,0.3,0.3,0.5,0.6,0.7c0.4,0.4,1,0.6,1.8,0.7c0.8,0.1,1.4,0,1.9-0.1c1.1-0.4,2-1,2.8-1.8
			c0.8-0.8,1.6-1.7,2.2-2.7c0.7-1,1.2-2.1,1.8-3.2c0.5-1.1,1-2.1,1.4-3.1c0.1-0.2,0.2-0.5,0.4-1s0.4-0.9,0.6-1.4
			c0.2-0.5,0.4-1,0.6-1.4c0.2-0.4,0.4-0.8,0.5-1c0.1-0.2,0.1-0.4,0.2-0.5c0-0.2,0.1-0.4,0.1-0.6c0-0.3-0.1-0.4-0.4-0.4
			c-0.2,0-0.3,0.1-0.4,0.1c-0.1,0-0.3,0-0.4,0.1c-0.2,0-0.3,0.1-0.3,0.3s0,0.4-0.1,0.5c-0.5,1.1-1.1,2.3-1.8,3.8
			c-0.7,1.5-1.2,2.7-1.8,3.8c-0.3,0.6-0.6,1.2-1.1,1.9c-0.5,0.7-0.9,1.3-1.2,1.8c-0.2,0.2-0.5,0.6-1.1,1.1c-0.5,0.5-0.9,0.8-1.2,0.9
			c-0.5,0.2-0.8,0.2-1,0s-0.3-0.5-0.3-0.8c0-0.4,0-0.7,0-1.1s0.1-0.6,0.1-0.7c0-0.2,0-0.4,0-0.6s0.1-0.4,0.1-0.6
			c0.1-0.5,0.1-1,0.2-1.5c0-0.5,0.1-1,0.2-1.4c0-0.3,0.1-0.5,0.1-0.7c0-0.2,0.1-0.5,0.2-0.7c0.1-0.8,0.2-1.4,0.3-2
			c0-0.6,0.1-1.3,0.3-2c0.1-0.7,0.3-1.4,0.5-2.3c0.2-0.8,0.3-1.6,0.3-2.3c0-0.2,0-0.3,0-0.5c0-0.1,0-0.3,0-0.5
			c-0.2-0.3-0.2-0.6,0-0.9c0.2-0.3,0.2-0.6,0.1-0.9l-0.2-0.4c-0.1-0.5-0.4-0.7-1-0.6c-0.2,0-0.4,0.1-0.6,0.1c-0.2,0-0.4,0.1-0.6,0.2
			c-0.5,0-0.9,0.4-1.1,1.1c-0.1,0.4-0.2,0.8-0.4,1.2c-0.1,0.4-0.3,0.8-0.4,1.2c-0.1,0.4-0.3,0.8-0.4,1.1c-0.2,0.4-0.3,0.8-0.4,1.1
			c-0.1,0.2-0.2,0.5-0.2,0.7c0,0.3-0.1,0.5-0.2,0.8s-0.1,0.5-0.2,0.8s-0.1,0.5-0.2,0.7c-0.4,0.7-0.9,1.5-1.5,2.4
			c-0.6,0.9-1.3,1.6-2,1.9c-0.6,0.3-1.2,0.2-1.9-0.2c-0.7-0.4-1.1-0.9-1.2-1.5c-0.3-1.1-0.3-2.1-0.1-3.1c0.2-1,0.5-2,0.8-3
			c0.2-0.4,0.3-0.8,0.4-1.3c0.1-0.4,0.3-0.8,0.4-1.3c0.3-0.8,0.7-1.7,1-2.6c0.3-0.9,0.7-1.8,1.1-2.6c0.3-0.6,0.8-1,1.3-1.2
			c0.5-0.3,1.1-0.4,1.7-0.6c0.7-0.2,1.4-0.1,2.2,0.1l0.2,0.2c0.3,0.4,0.7,0.8,1,1.1s0.5,0.8,0.6,1.3c0.1,0.3,0.2,0.4,0.4,0.3
			c0.3,0,0.5-0.1,0.6-0.2c0.6-0.5,0.6-1.1,0.3-1.8c-0.1-0.2-0.2-0.4-0.4-0.6c-0.1-0.2-0.3-0.4-0.4-0.6c-0.2-0.3-0.4-0.5-0.7-0.7
			s-0.5-0.3-0.8-0.4c-0.4-0.1-0.8-0.1-1.1-0.2c-0.4,0-0.7,0-1.1,0.2c-0.1,0-0.3,0.1-0.6,0.1c-0.5,0.1-0.9,0.1-1.4,0.2
			c-0.4,0-0.9,0.1-1.4,0.3l-1.5,0.6c-0.4,0.1-0.8,0.3-1.1,0.5c-0.4,0.2-0.7,0.5-0.9,0.8c-0.3,0.5-0.7,0.9-1,1.2
			c-1.1,1.2-1.8,2.6-2.2,4.1c-0.1,0.4-0.2,0.8-0.4,1.1c-0.1,0.4-0.3,0.8-0.4,1.1l-0.6,1.9c-0.1,0.3-0.1,0.7-0.2,1
			c0,0.3-0.1,0.6-0.2,1c-0.3,1.4-0.3,2.8,0.1,4.3c0.2,0.6,0.4,1.1,0.6,1.4c0.5,0.7,1,1.1,1.7,1.3c0.6,0.2,1.3,0.3,2,0.3
			c0.4,0,0.8-0.1,1.1-0.2c0.4-0.1,0.7-0.2,1.1-0.2c0.6,0,1.1-0.2,1.6-0.5c0.4-0.3,0.9-0.6,1.2-0.9c0.1-0.1,0.2-0.2,0.3-0.2
			s0.2-0.1,0.3-0.2V186.7z M109.1,171.9c0,0.1-0.1,0.2-0.1,0.3c-0.1,0.3-0.2,0.6-0.1,0.9c0.1,0.1,0.1,0.3-0.1,0.5
			c-0.3,0.4-0.5,0.8-0.7,1.2c-0.2,0.4-0.5,0.8-0.8,1.1c-0.3,0.5-0.8,0.9-1.5,1.3c-0.9,0.4-1.9,0.7-3,0.8c-0.1-0.2-0.1-0.4-0.1-0.5
			c0-0.1,0.1-0.3,0.2-0.5c0.1-0.3,0.1-0.5,0.2-0.8c0-0.3,0.1-0.5,0.1-0.8c0.1-0.3,0.1-0.7,0.2-1.1s0.1-0.7,0.3-1.1
			c0.1-0.2,0.2-0.4,0.2-0.6c0-0.4,0.1-0.8,0.3-1.2c0.1-0.4,0.3-0.7,0.4-1.1c0.2-0.6,0.7-1,1.5-1.1c0.5-0.1,0.9,0,1.2,0.1
			c0.4,0.2,0.7,0.4,1.1,0.8c0.1,0.1,0.2,0.2,0.2,0.3c0.1,0.4,0.3,0.8,0.6,1.1C109.1,171.6,109.1,171.8,109.1,171.9 M116.3,179.4
			c-0.3,0.5-0.6,0.9-0.9,1.4c-0.3,0.4-0.5,0.9-0.7,1.4c0,0.1-0.2,0.3-0.3,0.6c-0.4,0.6-0.8,1.3-1.2,2c-0.4,0.7-0.8,1.3-1.3,1.9
			c-0.1,0.1-0.2,0.2-0.2,0.3s-0.1,0.2-0.2,0.4c-0.3,0.6-0.6,1.1-1,1.6c-0.4,0.5-0.7,1-1.1,1.5c-0.3,0.3-0.5,0.6-0.8,0.8
			c-0.3,0.3-0.7,0.5-1.1,0.8c-0.4,0.3-0.7,0.5-1.1,0.8c-0.4,0.3-1,0.6-1.7,0.8c-0.4,0.1-0.7,0.1-0.8-0.1c-0.6-0.2-1-0.5-1.3-1
			c-0.5-0.7-0.8-1.5-0.9-2.5c-0.1-1,0-1.9,0.1-3c0.1-1,0.2-2,0.4-3.1c0.1-1,0.2-1.9,0.2-2.7c0-0.1,0-0.3,0-0.4
			c0-0.1,0.1-0.3,0.1-0.4c0.1-0.5,0.2-0.7,0.3-0.8c0.1-0.1,0.4-0.2,1-0.3c0.3-0.1,0.7-0.2,1.1-0.3c0.4-0.1,0.7-0.3,1.1-0.4
			c0.2-0.1,0.4-0.2,0.5-0.3c0.1-0.1,0.3-0.2,0.5-0.3c0.1,0,0.2-0.1,0.3-0.2c0.1-0.2,0.3-0.3,0.4-0.4c0.2-0.1,0.3-0.2,0.5-0.3
			c0.6-0.4,1.1-1.1,1.5-2.1c0.4-1,0.7-2,0.8-3.1c0.1-1.1,0-2-0.4-2.8c-0.4-0.8-1.1-1.2-2.1-1.3c-0.1,0-0.1,0-0.2,0c0,0-0.1,0-0.2,0
			c-0.4-0.1-0.8-0.1-1.1-0.1c-0.3-0.1-0.7-0.1-1,0c-0.3,0.1-0.7,0.1-1,0.2c-0.6,0.1-1.2,0.2-1.7,0.4c-0.6,0.2-1.1,0.5-1.7,0.8
			c-0.2,0.1-0.3,0.2-0.4,0.3c-0.3,0.3-0.7,0.7-1,1.1c-0.3,0.4-0.5,0.8-0.6,1.2c0,0,0,0.1,0,0.1c0,0,0,0.1,0,0.1
			c-0.1,0.2-0.2,0.4-0.3,0.6c-0.1,0.2-0.3,0.4-0.5,0.6c0,0.1-0.1,0.2-0.1,0.3c0,0.1-0.1,0.2-0.1,0.3c-0.3,0.6-0.5,1.3-0.7,1.9
			c-0.2,0.6-0.4,1.3-0.6,1.9c-0.1,0.6-0.2,1.1-0.3,1.6c-0.1,0.5-0.2,1-0.4,1.5c0,0.1-0.1,0.2-0.1,0.4s0,0.2,0,0.4
			c0,0.5-0.1,1-0.1,1.6c0,0.5-0.1,1.1-0.2,1.6c-0.1,0.8-0.1,1.7-0.2,2.5c0,0.8,0,1.6,0,2.5c0.1,1.5,0.5,2.8,1.3,4
			c0.3,0.4,0.6,0.7,1,1c0.3,0.3,0.7,0.5,1.1,0.8l0.3,0.1c0.5,0.1,0.9,0.3,1.4,0.4c0.5,0.1,0.9,0.2,1.4,0.3c0.7,0,1.3,0,1.9-0.2
			c0.6-0.2,1.2-0.4,1.7-0.8c0.5-0.3,1.1-0.7,1.6-1.1c0.5-0.4,1-0.8,1.5-1.2c0.6-0.5,1.2-1,1.7-1.6c0.5-0.6,0.9-1.2,1.3-1.8
			c0.4-0.6,0.8-1.3,1.2-1.9s0.8-1.3,1.3-1.8c0.2-0.3,0.4-0.5,0.5-0.8c0.1-0.3,0.3-0.6,0.5-0.8c0.1-0.3,0.2-0.6,0.4-0.9
			c0.2-0.3,0.3-0.6,0.3-1c0-0.1,0-0.2,0.1-0.3c0.3-0.8,0.7-1.5,1.2-2.1c0.1-0.1,0.2-0.3,0.3-0.5c-0.2-0.2-0.3-0.4-0.4-0.4
			C116.7,178.9,116.4,179.1,116.3,179.4 M78.5,175.1c0-0.3-0.1-0.6-0.1-0.8c0-0.3,0.1-0.5,0.1-0.7v-0.7v-0.6c0-0.1,0-0.1,0-0.2
			c0,0,0-0.1,0-0.2c0-0.4,0.1-0.9,0.2-1.3c0.1-0.4,0.3-0.8,0.5-1.2c0.1-0.2,0.2-0.3,0.2-0.5c0-0.3,0.1-0.5,0.3-0.8
			c0-0.1,0.1-0.2,0.2-0.3c0.1-0.1,0.2-0.2,0.2-0.4c0-0.1,0.1-0.1,0.2-0.1h0.2c0.6,0.3,1,0.7,1.3,1.2c0,0.1,0.1,0.3,0.1,0.4
			c-0.1,0.5-0.2,0.9-0.2,1.4c-0.1,0.4-0.1,0.9-0.2,1.3c0,0.3-0.1,0.6-0.3,0.9c-0.1,0.3-0.2,0.5-0.4,0.7c-0.1,0.2-0.2,0.5-0.4,0.7
			c-0.1,0.1-0.2,0.2-0.3,0.4c-0.1,0.2-0.2,0.3-0.3,0.5c-0.1,0.2-0.3,0.4-0.5,0.7c-0.2,0.2-0.5,0.4-0.7,0.5
			C78.6,175.7,78.5,175.4,78.5,175.1 M79.9,198.9c0,0.3,0.1,0.6,0.1,0.9c0.1,0.4,0.1,0.9,0.2,1.3c0,0.5,0.1,0.9,0.2,1.4
			c0.4,1.6,1.3,2.8,2.7,3.6c0.2,0.1,0.4,0.2,0.7,0.3c0.2,0.1,0.5,0.2,0.7,0.2c0.3,0.1,0.6,0.2,1,0.2c0.6,0.2,1,0.1,1.4-0.3
			c0.1-0.1,0.1-0.1,0.2-0.1c0,0,0.1,0,0.2-0.1c0.3,0,0.5-0.1,0.7-0.3c0.4-0.1,0.7-0.3,1-0.4c0.1-0.1,0.2-0.1,0.3-0.2
			c0.1,0,0.2-0.1,0.3-0.2c0.2-0.2,0.4-0.4,0.5-0.5c0.1-0.2,0.3-0.4,0.5-0.5c0.1-0.2,0.3-0.3,0.4-0.4c0.1-0.1,0.3-0.3,0.4-0.5
			c0.1-0.1,0.1-0.2,0.2-0.3c0-0.1,0.1-0.2,0.1-0.3c0.1-0.1,0.1-0.2,0.2-0.4c0-0.1,0.1-0.2,0.1-0.4c0.2-0.4,0.4-0.8,0.6-1.2
			c0.2-0.4,0.4-0.8,0.6-1.2c0.3-0.3,0.4-0.6,0.4-0.9c0.1-0.3,0.2-0.6,0.4-0.9c0.1-0.3,0.2-0.6,0.4-1c0.2-0.5,0.5-1.2,0.8-2.1
			c0.3-0.9,0.7-1.8,1-2.7c0.3-0.9,0.6-1.7,0.9-2.4s0.4-1.2,0.4-1.4c0.2-0.6,0.4-1.2,0.6-1.8c0.2-0.6,0.5-1.2,0.7-1.8
			c0.2-0.3,0.3-0.6,0.4-1c0.1-0.3,0.2-0.6,0.3-0.9c0.1-0.3,0.1-0.6,0.1-0.9c0-0.1,0-0.2,0.1-0.3c0.1-0.1,0.1-0.2,0.1-0.4v-0.4
			c0-0.2,0-0.4,0-0.5s0-0.4,0.1-0.6l-0.1-0.1c-0.1-0.1-0.2-0.2-0.4-0.2c-0.2,0-0.4,0-0.4,0.2c-0.3,0.4-0.6,0.8-0.8,1.4
			c-0.2,0.5-0.4,1-0.6,1.5c-0.2,0.5-0.4,1.1-0.6,1.7c-0.1,0.2-0.1,0.4-0.2,0.6c0,0.2-0.1,0.4-0.2,0.6c0,0.2-0.1,0.4-0.2,0.6
			c-0.1,0.2-0.1,0.4-0.2,0.6c-0.1,0.3-0.2,0.7-0.2,1.1c-0.1,0.4-0.1,0.7-0.2,1.1c-0.2,0.5-0.3,0.9-0.5,1.3c-0.1,0.4-0.3,0.9-0.4,1.3
			c-0.1,0.3-0.2,0.5-0.3,0.7c-0.1,0.2-0.2,0.4-0.3,0.7c-0.1,0.4-0.2,0.7-0.4,1c-0.2,0.3-0.3,0.6-0.4,0.9c-0.2,0.5-0.4,0.9-0.6,1.4
			c-0.2,0.4-0.3,0.9-0.5,1.4c0,0.1-0.1,0.2-0.1,0.2s0,0.1-0.1,0.2c-0.2,0.5-0.4,1-0.7,1.5c-0.2,0.5-0.5,1-0.7,1.5
			c-0.1,0.2-0.1,0.3-0.1,0.4c-0.2,0.3-0.4,0.6-0.6,0.9s-0.3,0.6-0.5,0.9c-0.1,0.2-0.2,0.4-0.3,0.4c-0.2,0.2-0.3,0.3-0.4,0.5
			s-0.3,0.3-0.5,0.4c-0.5,0.2-0.9,0.1-1.3-0.3c-0.4-0.4-0.7-0.8-0.9-1.2c-0.2-0.4-0.3-0.8-0.4-1.1c0-0.4-0.1-0.8-0.2-1.2
			c-0.1-0.3-0.2-0.5-0.2-0.7c-0.1-0.2-0.1-0.5-0.2-0.8c0-0.3,0-0.5,0-0.8c0-0.3,0-0.5,0-0.8c0-0.6,0.1-1.1,0.1-1.7
			c0-0.6,0.1-1.1,0.3-1.7c0.1-0.5,0.2-0.9,0.3-1.4c0.1-0.5,0.2-1,0.3-1.5c0.1-0.2,0.1-0.4,0.2-0.7c0-0.2,0.1-0.5,0.1-0.7
			c0.1-0.2,0.2-0.4,0.3-0.6c0.1-0.2,0.2-0.4,0.2-0.6c0-0.3,0.1-0.6,0.2-0.8c0.1-0.3,0.2-0.5,0.1-0.8v-0.1c0.1-0.3,0.1-0.7,0.1-1
			c0-0.3,0-0.6-0.1-0.9c0-0.1,0-0.1-0.1-0.2s0-0.1,0.1-0.1c0-0.2,0-0.4-0.1-0.6c-0.1-0.2-0.2-0.4-0.4-0.6c-0.1-0.3-0.3-0.5-0.5-0.6
			c-0.2-0.2-0.4-0.3-0.6-0.5c-0.7-0.5-1.4-0.9-2-1.1c-0.4-0.2-0.8-0.4-1.1-0.5c-0.4-0.1-0.8-0.3-1.2-0.5c-0.6-0.3-1-0.6-1.4-1.1
			s-0.7-0.9-1.1-1.4c-0.1-0.2-0.1-0.3,0.1-0.5l0.4-0.4c0.7-0.5,1.3-1.2,1.8-2c0.2-0.2,0.3-0.4,0.4-0.6c0.1-0.2,0.2-0.4,0.3-0.6
			c0.1-0.2,0.2-0.4,0.3-0.6c0.1-0.2,0.2-0.4,0.3-0.6c0.2-0.4,0.3-0.7,0.3-0.9c0-0.1,0-0.2,0-0.4c0-0.1,0.1-0.2,0.1-0.4
			c0-0.1,0.1-0.3,0.1-0.4c0-0.1,0-0.3,0-0.4c0-0.2-0.1-0.4-0.1-0.7c0-0.2,0-0.5-0.1-0.8c-0.1-0.3-0.3-0.5-0.6-0.7
			c-0.1-0.1-0.2-0.2-0.3-0.3c-0.1-0.1-0.2-0.2-0.3-0.3c-0.3-0.3-0.6-0.4-0.8-0.4c-0.3-0.1-0.6-0.2-0.9-0.2c-0.3-0.1-0.6-0.1-0.9-0.2
			c-0.3-0.1-0.7-0.1-1.1-0.1c-0.4,0-0.7,0-1.1,0.1c-0.3,0.1-0.6,0.3-0.9,0.6c0,0.1-0.2,0.3-0.4,0.5c-0.2,0.2-0.3,0.4-0.5,0.6
			c-0.2,0.2-0.3,0.4-0.4,0.6c0,0.2-0.1,0.4-0.3,0.8c-0.1,0.1-0.1,0.3-0.2,0.4c0,0.1-0.1,0.3-0.2,0.4c-0.2,0.3-0.3,0.7-0.5,1.1
			s-0.3,0.7-0.4,1.1c-0.3,1.3-0.3,2.6-0.2,3.8c0,0.2,0.1,0.4,0.1,0.5s0.1,0.4,0.1,0.6c0.2,0.8,0.6,1.5,1.1,2.1s1.1,1.1,1.7,1.6
			c0.4,0.3,0.8,0.6,1.2,0.9c0.4,0.2,0.8,0.5,1.2,0.8c0.4,0.2,0.8,0.4,1.2,0.6c0.4,0.2,0.8,0.4,1.2,0.6c0.8,0.4,1.2,1.1,1.1,1.9
			c0,0.1,0,0.3-0.1,0.4c-0.1,0.3-0.2,0.7-0.2,1c-0.1,0.3-0.2,0.7-0.3,1.1c-0.2,0.6-0.4,1.2-0.5,1.8s-0.3,1.3-0.4,1.9
			c0,0.2,0,0.3,0,0.5s-0.1,0.3-0.1,0.5c-0.1,0.5-0.1,1-0.2,1.5c0,0.5-0.1,1-0.2,1.5c-0.1,0.4-0.1,0.8-0.1,1.2c0,0.4,0,0.8-0.1,1.2
			C79.9,198.3,79.9,198.6,79.9,198.9 M68.6,165.4c0.1-0.1,0.1-0.2,0.2-0.3c0-0.1,0.1-0.2,0.2-0.3c0.4-0.6,0.6-1.2,0.8-1.8
			s0.3-1.2,0.4-1.9c0.1-0.3,0.1-0.6,0.2-0.9c0-0.3,0.1-0.6,0.1-0.9c0-0.3,0-0.7,0-1s-0.1-0.6-0.1-1c0-0.3-0.1-0.6-0.1-0.9
			s-0.1-0.6-0.2-1c-0.2-0.7-0.5-1.3-1-1.8s-1.1-0.8-1.9-0.9c-1.2-0.2-2.4-0.1-3.7,0.1c-1.3,0.3-2.5,0.6-3.6,0.9
			c-2.3,0.6-4.4,1.7-6.1,3.3c-2,1.8-3.5,3.9-4.6,6.2c-1.1,2.3-2.1,4.6-2.9,7.1c-0.5,1.3-0.9,2.6-1.2,3.9c-0.3,1.3-0.6,2.6-1,4
			c-0.4,1.7-0.8,3.5-1.2,5.2c-0.4,1.7-0.7,3.5-0.9,5.2c-0.2,1.8-0.3,3.5-0.4,5.3c0,1.7,0.1,3.5,0.4,5.3c0.2,1.1,0.5,2.2,1,3.2
			c0.4,1,1.2,1.9,2.1,2.6c0.8,0.7,1.7,1.1,2.6,1.3c1.8,0.3,3.6,0.1,5.4-0.6c3.5-1.4,6.8-3.4,9.8-5.9c3-2.5,5.7-5.2,8.2-8
			c1-1.2,1.9-2.6,2.7-4c0.8-1.4,1.6-2.8,2.5-4.1c0.2-0.3,0.4-0.6,0.6-0.9c0.2-0.3,0.4-0.6,0.5-0.9c0.2-0.3,0.3-0.6,0.5-0.9
			c0.2-0.3,0.2-0.6,0.1-1c0-0.1,0-0.2,0-0.2c0.1-0.1,0.1-0.1,0.2-0.2c0-0.2,0-0.4,0.1-0.6c-0.4,0.1-0.8,0.2-1.2,0.3
			c-0.4,0.1-0.7,0.2-1.1,0.4c-0.2,0.1-0.3,0.3-0.4,0.5c-0.6,1-1.2,2-1.8,2.9c-0.6,1-1.2,2-1.8,2.9c-0.6,1.1-1.3,2.1-2,3
			c-0.7,0.9-1.5,1.8-2.4,2.6c-0.9,1-1.8,1.9-2.6,2.9c-0.9,0.9-1.8,1.8-2.8,2.7c-0.7,0.6-1.3,1.1-2,1.7c-0.6,0.6-1.4,1-2.2,1.4
			c-1.8,0.8-3.7,1-5.8,0.7c-0.8-0.2-1.4-0.6-1.9-1.1c-0.4-0.6-0.7-1.3-0.7-2.1c0-1,0-1.9-0.1-2.9c-0.1-0.9-0.1-1.9,0-2.9
			c0.1-0.7,0.2-1.4,0.3-2.1c0.1-0.7,0.2-1.4,0.3-2.1c0.3-1.9,0.7-3.7,1.2-5.4c0.5-1.7,1-3.5,1.5-5.3c0.2-0.8,0.5-1.7,0.8-2.5
			s0.6-1.6,1-2.5c0.4-0.8,0.7-1.7,1.1-2.6c0.3-0.9,0.7-1.7,1-2.6c0.5-1.2,1-2.3,1.6-3.5c0.6-1.1,1.2-2.2,1.8-3.3
			c0.3-0.6,0.6-1.1,0.9-1.6c0.3-0.5,0.7-1,1.1-1.4c0.3-0.3,0.7-0.5,1.2-0.8c0.5-0.3,1-0.5,1.5-0.5c0.5-0.1,1,0,1.4,0.1
			c0.4,0.2,0.7,0.6,0.8,1.1c0.1,0.6,0.2,1.1,0.3,1.7c0.1,0.6,0.1,1.1,0,1.7c-0.1,0.8-0.3,1.7-0.4,2.6c-0.2,0.8-0.4,1.6-0.8,2.4
			l0.4,0.9c0.1,0.2,0.2,0.3,0.3,0.4c0.2,0.1,0.4,0.2,0.6,0.2c0.2,0,0.3,0.1,0.4,0.1C67.9,166.4,68.3,165.9,68.6,165.4"/>
	</g>
</g>
</svg>
